<svg xmlns="http://www.w3.org/2000/svg" width="300" height="300" aria-labelledby="title desc" viewBox="0 0 300 300">
  <path fill="#52e0c4" d="M137.9 124.37h25.26v-12.63h12.63V62.22h-24.25v11.62h-13.65ZM100 174.89h12.63V73.84H100V61.21h12.63V48.58h25.26v12.63h12.64V48.58h37.9v12.63h12.62v50.53h-12.63v12.63h-12.63V137h-37.9v37.9h-12.63v12.63H100Z" />
  <path fill="#639" d="M185 37h30v30h-30ZM85 144h30v30H85Zm50-50h30v30h-30Z" />
  <path fill="#0f172a" d="M19.5 215h9v9h-9Zm9 0h9v9h-9Zm9 0h9v9h-9Zm-18 9h9v9h-9Zm18 0h9v9h-9Zm-18 9h9v9h-9Zm9 0h9v9h-9Zm9 0h9v9h-9Zm-18 9h9v9h-9Zm0 9h9v9h-9Zm36-36h9v9h-9Zm9 0h9v9h-9Zm9 0h9v9h-9Zm-9 9h9v9h-9Zm0 9h9v9h-9Zm0 9h9v9h-9Zm-9 9h9v9h-9Zm9 0h9v9h-9Zm9 0h9v9h-9Zm18-36h9v9h-9Zm18 0h9v9h-9Zm-18 9h9v9h-9Zm18 0h9v9h-9Zm-9 9h9v9h-9Zm-9 9h9v9h-9Zm18 0h9v9h-9Zm-18 9h9v9h-9Zm18 0h9v9h-9Zm18-36h9v9h-9Zm18 0h9v9h-9Zm-18 9h9v9h-9Zm18 0h9v9h-9Zm-18 9h9v9h-9Zm18 0h9v9h-9Zm-18 9h9v9h-9Zm18 0h9v9h-9Zm-18 9h9v9h-9Zm9 0h9v9h-9Zm9 0h9v9h-9Z" />
  <path fill="#52e0c4" d="M163.5 251h9v9h-9Z" />
  <path fill="#639" d="M181.5 215h9v9h-9Zm9 0h9v9h-9Zm9 0h9v9h-9Zm-18 9h9v9h-9Zm18 0h9v9h-9Zm-18 9h9v9h-9Zm18 0h9v9h-9Zm-18 9h9v9h-9Zm18 0h9v9h-9Zm-18 9h9v9h-9Zm9 0h9v9h-9Zm9 0h9v9h-9Zm18-36h9v9h-9Zm9 0h9v9h-9Zm9 0h9v9h-9Zm-18 9h9v9h-9Zm0 9h9v9h-9Zm9 0h9v9h-9Zm-9 9h9v9h-9Zm0 9h9v9h-9Zm9 0h9v9h-9Zm9 0h9v9h-9Zm18-36h9v9h-9Zm18 0h9v9h-9Zm-18 9h9v9h-9Zm18 0h9v9h-9Zm-18 9h9v9h-9Zm18 0h9v9h-9Zm-18 9h9v9h-9Zm18 0h9v9h-9Zm-9 9h9v9h-9Z" />
</svg>
