<?xml version="1.0" standalone="no"?>
<!DOCTYPE svg PUBLIC "-//W3C//DTD SVG 1.1//EN" "http://www.w3.org/Graphics/SVG/1.1/DTD/svg11.dtd" >
<svg xmlns="http://www.w3.org/2000/svg" xmlns:xlink="http://www.w3.org/1999/xlink" version="1.1">
<metadata>
Created by FontForge 20170731 at Tue Apr 20 11:35:12 2021
 By Aleksey,,,
Copyright 2012-2015 The Fira Code Project Authors (https://github.com/tonsky/FiraCode)
</metadata>
<defs>
<font id="FiraCode-Medium" horiz-adv-x="1228" >
  <font-face 
    font-family="Fira Code Medium"
    font-weight="500"
    font-stretch="normal"
    units-per-em="2048"
    panose-1="2 11 8 9 5 0 0 2 0 4"
    ascent="1638"
    descent="-410"
    x-height="1081"
    cap-height="1413"
    bbox="-3659 -1024 2441 2150"
    underline-thickness="51"
    underline-position="-153"
    unicode-range="U+000D-1F310"
  />
<missing-glyph 
d="M184 2150h860v-2867h-860v2867zM934 -610v2654h-637v-2654h637zM629 354q0 -22 -15.5 -35.5t-35.5 -13.5q-21 0 -36.5 13.5t-15.5 35.5v172q108 6 147.5 40.5t39.5 117.5q0 67 -27 104t-98 37q-59 0 -107 -22q-15 -6 -26 -6q-23 0 -36 13t-13 34q0 38 60 59t130 21
q122 0 174.5 -66t52.5 -170q0 -109 -46.5 -168t-147.5 -74v-92zM506 174q0 31 20.5 51.5t51.5 20.5t51 -20.5t20 -51.5q0 -32 -20 -54t-51 -22t-51.5 22t-20.5 54z" />
    <glyph glyph-name=".notdef" 
d="M184 2150h860v-2867h-860v2867zM934 -610v2654h-637v-2654h637zM629 354q0 -22 -15.5 -35.5t-35.5 -13.5q-21 0 -36.5 13.5t-15.5 35.5v172q108 6 147.5 40.5t39.5 117.5q0 67 -27 104t-98 37q-59 0 -107 -22q-15 -6 -26 -6q-23 0 -36 13t-13 34q0 38 60 59t130 21
q122 0 174.5 -66t52.5 -170q0 -109 -46.5 -168t-147.5 -74v-92zM506 174q0 31 20.5 51.5t51.5 20.5t51 -20.5t20 -51.5q0 -32 -20 -54t-51 -22t-51.5 22t-20.5 54z" />
    <glyph glyph-name=".null" horiz-adv-x="0" 
 />
    <glyph glyph-name="nonmarkingreturn" horiz-adv-x="682" 
 />
    <glyph glyph-name="CR" unicode="&#xd;" 
 />
    <glyph glyph-name="space" unicode=" " 
 />
    <glyph glyph-name="exclam" unicode="!" 
d="M736 1413l-26 -927h-195l-29 927h250zM613 283q66 0 111 -45.5t45 -109.5q0 -65 -45 -110.5t-111 -45.5q-65 0 -109.5 45.5t-44.5 110.5q0 64 44.5 109.5t109.5 45.5z" />
    <glyph glyph-name="quotedbl" unicode="&#x22;" 
d="M343 968l-35 548h250l-34 -548h-181zM705 968l-35 548h251l-35 -548h-181z" />
    <glyph glyph-name="numbersign" unicode="#" 
d="M965 927l-58 -435h152v-164h-174l-42 -328h-193l43 328h-259l-43 -328h-192l43 328h-147v164h168l60 435h-152v165h173l42 321h194l-45 -321h260l43 321h192l-44 -321h149v-165h-170zM456 492h259l58 435h-260z" />
    <glyph glyph-name="dollar" unicode="$" 
d="M711 1743v-306q226 -21 386 -163l-125 -130q-116 104 -261 119v-425q93 -31 162 -67t126.5 -87.5t87.5 -123t30 -161.5q0 -162 -106.5 -277.5t-299.5 -140.5v-302h-149v295q-259 17 -442 194l123 138q144 -138 319 -151v513q-198 66 -293.5 162.5t-95.5 237.5
q0 144 102.5 247t286.5 122v306h149zM562 1260q-77 -13 -121.5 -59t-44.5 -117q0 -67 34.5 -110.5t131.5 -84.5v371zM711 613v-450q177 36 177 220q0 79 -39.5 133t-137.5 97z" />
    <glyph glyph-name="percent" unicode="%" 
d="M972 1455l134 -72l-867 -1431l-133 72zM325 1442q137 0 217 -92.5t80 -233.5t-80 -233.5t-217 -92.5t-217.5 92.5t-80.5 233.5q0 140 80.5 233t217.5 93zM325 1305q-58 0 -89 -48t-31 -141q0 -90 31.5 -140.5t88.5 -50.5q119 0 119 191q0 189 -119 189zM906 640
q137 0 217 -92t80 -234q0 -140 -80 -233t-217 -93t-217.5 93t-80.5 233t80.5 233t217.5 93zM906 504q-120 0 -120 -190q0 -90 31.5 -140.5t88.5 -50.5q120 0 120 191q0 190 -120 190z" />
    <glyph glyph-name="ampersand" unicode="&#x26;" 
d="M571 1440q110 0 196.5 -34.5t167.5 -121.5l-130 -116q-53 57 -102.5 82.5t-117.5 25.5q-93 0 -142.5 -52t-49.5 -139q0 -89 66 -152.5t163 -63.5h556v-162h-165v-549q-157 -186 -444 -186q-117 0 -209 35t-148 95t-85.5 136t-29.5 163q0 161 82 260.5t236 132.5v7
q-126 31 -185.5 109.5t-59.5 190.5q0 142 111.5 240.5t289.5 98.5zM803 707h-204q-70 0 -125 -26t-87 -69t-48.5 -93.5t-16.5 -104.5q0 -115 65.5 -191t192.5 -76q147 0 223 90v470z" />
    <glyph glyph-name="quotesingle" unicode="'" 
d="M523 968l-34 548h250l-34 -548h-182z" />
    <glyph glyph-name="parenleft" unicode="(" 
d="M473 717q0 -195 45 -346t132.5 -275.5t241.5 -272.5l-127 -123q-130 108 -222.5 211t-164 226t-106.5 267t-35 313t35 313t106.5 267t164 226t222.5 211l127 -123q-151 -145 -238.5 -269t-134 -277t-46.5 -348z" />
    <glyph glyph-name="parenright" unicode=")" 
d="M756 717q0 195 -46.5 348t-134 277t-238.5 269l127 123q130 -108 222.5 -211t164 -226t106.5 -267t35 -313t-35 -313t-106.5 -267t-164 -226t-222.5 -211l-127 123q154 148 241.5 272.5t132.5 275.5t45 346z" />
    <glyph glyph-name="asterisk" unicode="*" 
d="M502 1196h225l-26 -404l376 147l69 -211l-391 -101l257 -314l-179 -129l-219 340l-218 -340l-179 129l257 314l-391 101l69 211l375 -147z" />
    <glyph glyph-name="plus" unicode="+" 
d="M714 1143v-413h406v-184h-406v-412h-202v412h-403v184h403v413h202z" />
    <glyph glyph-name="comma" unicode="," 
d="M614 369q80 0 134 -54t54 -132q0 -76 -59 -207l-158 -362h-178l100 416q-78 54 -78 154q0 77 53.5 131t131.5 54z" />
    <glyph glyph-name="hyphen" unicode="-" 
d="M191 547v188h846v-188h-846z" />
    <glyph glyph-name="period" unicode="." 
d="M416 171q0 83 56.5 140.5t140.5 57.5t141.5 -57.5t57.5 -140.5t-57.5 -141t-141.5 -58q-83 0 -140 58t-57 141z" />
    <glyph glyph-name="slash" unicode="/" 
d="M271 -218l-182 82l870 1799l181 -85z" />
    <glyph glyph-name="zero" unicode="0" 
d="M614 1442q235 0 358.5 -190t123.5 -543q0 -354 -123.5 -545.5t-358.5 -191.5q-236 0 -358.5 191t-122.5 546q0 353 122.5 543t358.5 190zM614 1267q-125 0 -189 -133.5t-64 -424.5q0 -214 27 -340l399 815q-57 83 -173 83zM867 709q0 192 -21 312l-394 -805
q55 -69 162 -69q126 0 189.5 133.5t63.5 428.5z" />
    <glyph glyph-name="one" unicode="1" 
d="M1085 180v-180h-855v180h345v998l-311 -192l-98 161l434 266h203v-1233h282z" />
    <glyph glyph-name="two" unicode="2" 
d="M557 1442q209 0 329.5 -113.5t120.5 -286.5q0 -94 -30.5 -180t-106.5 -189.5t-186 -215.5t-287 -273h642l-26 -184h-879v174q134 128 224 218.5t165.5 173t119 141t74 116t41.5 105t11 100.5q0 107 -60.5 168t-167.5 61q-93 0 -157.5 -34t-128.5 -113l-150 114
q85 109 194 163.5t258 54.5z" />
    <glyph glyph-name="three" unicode="3" 
d="M553 1442q205 0 328.5 -103.5t123.5 -254.5q0 -126 -78.5 -214.5t-202.5 -117.5q142 -15 234 -103t92 -246q0 -185 -141.5 -308t-370.5 -123q-137 0 -256.5 50t-201.5 148l140 123q119 -138 307 -138q132 0 208.5 68.5t76.5 188.5q0 246 -272 246h-122l26 169h86
q106 0 177 58t71 166q0 100 -68 157t-175 57q-86 0 -154.5 -31t-138.5 -96l-122 130q183 174 433 174z" />
    <glyph glyph-name="four" unicode="4" 
d="M934 882v-378h168v-178h-168v-326h-220l-1 326h-587v159l406 957l194 -77l-360 -861h348l27 378h193z" />
    <glyph glyph-name="five" unicode="5" 
d="M1019 1413l-30 -172h-543v-393q105 55 232 55q173 0 281.5 -120t108.5 -329q0 -214 -139.5 -348t-367.5 -134q-258 0 -433 186l137 129q119 -132 287 -132q130 0 203.5 79t73.5 221q0 279 -230 279q-93 0 -203 -47h-169v726h792z" />
    <glyph glyph-name="six" unicode="6" 
d="M698 1442q161 0 291 -86l-89 -148q-92 60 -201 60q-145 0 -231 -134t-94 -370q126 167 324 167q83 0 155 -29t127 -84.5t86.5 -143t31.5 -197.5q0 -225 -131.5 -365t-335.5 -140q-130 0 -226 50t-153.5 143.5t-85 215.5t-27.5 276q0 235 66 412t193.5 275t299.5 98z
M650 759q-162 0 -274 -165q5 -233 64.5 -340.5t191.5 -107.5q114 0 173.5 86.5t59.5 234.5q0 156 -56 224t-159 68z" />
    <glyph glyph-name="seven" unicode="7" 
d="M498 -25l-216 67l541 1191h-647v180h880v-165z" />
    <glyph glyph-name="eight" unicode="8" 
d="M1056 1076q0 -99 -58 -173t-178 -141q141 -63 216.5 -160t75.5 -221q0 -175 -135.5 -292t-367.5 -117q-230 0 -361 115t-131 289q0 237 274 362q-114 61 -166 135.5t-52 190.5q0 73 25 135.5t68 106.5t99.5 75t120 46t129.5 15q88 0 166.5 -23.5t140.5 -68t98 -115.5
t36 -159zM395 1063q0 -51 16.5 -88t55.5 -65t82.5 -47t116.5 -44q90 56 129 111t39 135q0 97 -57.5 153.5t-161.5 56.5q-105 0 -162.5 -55t-57.5 -157zM878 380q0 36 -8.5 66.5t-21 53.5t-38 44.5t-48 36.5t-63.5 33t-73 30t-86 31q-189 -97 -189 -292q0 -110 67 -173.5
t194 -63.5t196.5 65.5t69.5 168.5z" />
    <glyph glyph-name="nine" unicode="9" 
d="M598 1440q236 0 359.5 -153t123.5 -420q0 -168 -30 -297.5t-89.5 -227.5t-157 -171.5t-222 -126t-295.5 -94.5l-50 168q287 77 430.5 200.5t170.5 337.5q-137 -149 -317 -149q-176 0 -289 122.5t-113 328.5q0 222 135.5 352t343.5 130zM352 958q0 -144 60 -212t167 -68
q78 0 141 36t124 107q-1 238 -57.5 341.5t-189.5 103.5q-119 0 -182 -77.5t-63 -230.5z" />
    <glyph glyph-name="colon" unicode=":" 
d="M429 885q0 75 53.5 129t130.5 54t131 -54t54 -129q0 -76 -54 -131t-131 -55t-130.5 55t-53.5 131zM429 158q0 75 53.5 128.5t130.5 53.5t131 -53.5t54 -128.5q0 -77 -53.5 -131.5t-131.5 -54.5q-77 0 -130.5 54.5t-53.5 131.5z" />
    <glyph glyph-name="semicolon" unicode=";" 
d="M613 1068q77 0 131 -54t54 -129q0 -76 -54 -131t-131 -55t-130.5 55t-53.5 131q0 75 53.5 129t130.5 54zM613 364q78 0 131.5 -53.5t53.5 -130.5q0 -76 -58 -204l-156 -358h-176l98 411q-77 53 -77 152q0 76 53 129.5t131 53.5z" />
    <glyph glyph-name="less" unicode="&#x3c;" 
d="M958 1231l106 -166l-700 -423l700 -423l-113 -165l-785 490v196z" />
    <glyph glyph-name="equal" unicode="=" 
d="M1038 933v-188h-848v188h848zM1038 528v-187h-848v187h848z" />
    <glyph glyph-name="greater" unicode="&#x3e;" 
d="M272 1231l792 -490v-197l-785 -490l-113 162l701 426l-701 420z" />
    <glyph glyph-name="question" unicode="?" 
d="M610 1442q197 0 313.5 -96.5t116.5 -230.5q0 -67 -20.5 -120.5t-53.5 -89.5t-72.5 -67t-79.5 -59.5t-73 -59t-53.5 -74.5t-20.5 -98v-61h-220v71q0 69 19.5 125.5t50.5 95t69 70.5t76 59t69 54t50.5 61.5t19.5 75.5q0 74 -59 115.5t-153 41.5q-161 0 -278 -140l-153 117
q178 210 452 210zM561 283q66 0 111.5 -45.5t45.5 -109.5q0 -65 -45.5 -110.5t-111.5 -45.5q-65 0 -109 45.5t-44 110.5q0 64 44 109.5t109 45.5z" />
    <glyph glyph-name="at" unicode="@" 
d="M584 1442q108 0 196 -23.5t152 -65t113 -103.5t79.5 -132.5t50 -159t27 -176t7.5 -190.5q0 -163 -8 -280.5t-28.5 -216t-55 -158.5t-88.5 -92.5t-129 -32.5q-59 0 -106.5 27.5t-75.5 71.5t-43.5 92.5t-17.5 96.5h-8q-36 -85 -104.5 -140.5t-177.5 -55.5q-84 0 -146.5 35
t-99.5 99t-54.5 147.5t-17.5 187.5q0 261 106.5 398.5t308.5 137.5q155 0 310 -82v-608q0 -94 16 -150t41 -75.5t63 -19.5q75 0 93.5 136t18.5 474q0 108 -7 192.5t-24 166t-48.5 139t-78 102.5t-114 67t-155.5 22q-242 0 -458 -189l-111 128q263 230 574 230zM467 754
q-115 0 -159.5 -88.5t-44.5 -292.5q0 -155 31.5 -233.5t106.5 -78.5q44 0 76.5 16t52.5 46t29.5 51.5t18.5 52.5v500q-56 27 -111 27z" />
    <glyph glyph-name="A" unicode="A" 
d="M862 340h-505l-98 -340h-242l450 1413h295l450 -1413h-251zM407 523h405l-202 706z" />
    <glyph glyph-name="B" unicode="B" 
d="M1129 408q0 -91 -31 -163t-82 -117t-123 -74.5t-148.5 -41.5t-164.5 -12h-414v1413h386q83 0 155.5 -10.5t140 -36t115.5 -65.5t76.5 -102.5t28.5 -142.5q0 -124 -74.5 -202.5t-186.5 -104.5q64 -11 116.5 -32.5t101.5 -59.5t76.5 -101.5t27.5 -147.5zM827 1036
q0 104 -64.5 151.5t-189.5 47.5h-170v-409h185q120 0 179.5 50.5t59.5 159.5zM882 409q0 132 -73.5 186.5t-203.5 54.5h-202v-466h192q287 0 287 225z" />
    <glyph glyph-name="C" unicode="C" 
d="M733 1442q137 0 236.5 -35.5t189.5 -109.5l-124 -147q-125 104 -291 104q-66 0 -122.5 -18t-106.5 -59t-85.5 -103t-56 -155t-20.5 -210q0 -143 29.5 -249.5t83 -170t123 -94t155.5 -30.5q103 0 176.5 32.5t144.5 89.5l115 -147q-172 -168 -444 -168q-135 0 -250 48.5
t-199.5 140t-132.5 232t-48 316.5q0 174 49.5 314.5t135 231t199 139t243.5 48.5z" />
    <glyph glyph-name="D" unicode="D" 
d="M1149 714q0 -169 -39 -298.5t-100.5 -206.5t-150 -125.5t-176.5 -66t-190 -17.5h-347v1413h323q78 0 146 -8t138.5 -28.5t127.5 -54t108 -87.5t85.5 -126t54.5 -172t20 -223zM899 714q0 130 -22.5 226t-58 151t-88.5 87.5t-103 42.5t-113 10h-130v-1051h131
q384 0 384 534z" />
    <glyph glyph-name="E" unicode="E" 
d="M469 1233v-425h512v-180h-512v-448h624v-180h-862v1413h850l-26 -180h-586z" />
    <glyph glyph-name="F" unicode="F" 
d="M498 1233v-450h531v-180h-531v-603h-238v1413h869l-26 -180h-605z" />
    <glyph glyph-name="G" unicode="G" 
d="M651 -28q-274 0 -424.5 188t-150.5 549q0 142 32.5 262t89.5 205.5t135 146t168.5 90t190.5 29.5q137 0 234.5 -40.5t186.5 -122.5l-133 -138q-125 115 -282 115q-62 0 -115.5 -17.5t-101.5 -58.5t-82 -103t-54 -156.5t-20 -212.5q0 -291 83 -420.5t255 -129.5
q124 0 233 59v389h-240l-25 181h495v-685q-227 -130 -475 -130z" />
    <glyph glyph-name="H" unicode="H" 
d="M845 0v642h-461v-642h-238v1413h238v-575h461v575h237v-1413h-237z" />
    <glyph glyph-name="I" unicode="I" 
d="M1039 1413v-181h-305v-1050h305v-182h-850v182h306v1050h-306v181h850z" />
    <glyph glyph-name="J" unicode="J" 
d="M1040 1413v-929q0 -105 -29.5 -194.5t-89 -162t-161 -113.5t-235.5 -41q-222 0 -402 130l97 152q144 -94 296 -94q134 0 211 85.5t77 242.5v742h-425v182h661z" />
    <glyph glyph-name="K" unicode="K" 
d="M417 0h-238v1413h238v-1413zM427 755l492 658h261l-495 -642l534 -771h-285z" />
    <glyph glyph-name="L" unicode="L" 
d="M245 0v1413h237v-1214h633l-25 -199h-845z" />
    <glyph glyph-name="M" unicode="M" 
d="M1097 1413l80 -1413h-218l-33 688q-12 285 -1 516l-208 -955h-207l-223 955q15 -220 6 -518l-28 -686h-213l80 1413h285l201 -947l193 947h286z" />
    <glyph glyph-name="N" unicode="N" 
d="M773 0l-449 1202q33 -346 33 -560v-642h-211v1413h309l450 -1203q-34 321 -34 559v644h211v-1413h-309z" />
    <glyph glyph-name="O" unicode="O" 
d="M1152 707q0 -220 -60 -384t-182.5 -257.5t-295.5 -93.5q-260 0 -398.5 196.5t-138.5 536.5q0 220 59.5 384.5t182 258.5t295.5 94q260 0 399 -197.5t139 -537.5zM906 707q0 279 -69 414t-223 135q-153 0 -222 -135.5t-69 -415.5q0 -278 70 -412.5t221 -134.5
q155 0 223.5 134.5t68.5 414.5z" />
    <glyph glyph-name="P" unicode="P" 
d="M1156 970q0 -121 -40 -211.5t-114.5 -145.5t-173.5 -82t-224 -27h-171v-504h-237v1413h392q272 0 420 -111t148 -332zM906 968q0 267 -303 267h-170v-550h173q143 0 221.5 65.5t78.5 217.5z" />
    <glyph glyph-name="Q" unicode="Q" 
d="M1150 707q0 -233 -69 -395.5t-226 -246.5q159 -29 248 -104.5t142 -233.5l-220 -81q-35 86 -70.5 143.5t-85.5 102t-117.5 65t-157.5 20.5q-248 0 -379.5 194.5t-131.5 533.5q0 221 58.5 385t180 258t294.5 94q259 0 396.5 -197t137.5 -538zM903 707q0 280 -67 414
t-220 134t-219.5 -134.5t-66.5 -415.5q0 -279 67.5 -413t218.5 -134q153 0 220 134t67 415z" />
    <glyph glyph-name="R" unicode="R" 
d="M1119 1005q0 -149 -88.5 -248.5t-232.5 -141.5l400 -615h-276l-356 582h-154v-582h-238v1413h394q551 0 551 -408zM870 1005q0 122 -70 177t-218 55h-170v-481h175q140 0 211.5 59.5t71.5 189.5z" />
    <glyph glyph-name="S" unicode="S" 
d="M1123 399q0 -192 -143.5 -309.5t-394.5 -117.5q-325 0 -520 190l130 145q160 -147 389 -147q126 0 209.5 59t83.5 169q0 94 -61 147t-229 104q-235 70 -345.5 166t-110.5 255q0 171 136.5 276.5t348.5 105.5q287 0 474 -170l-125 -142q-144 125 -334 125
q-113 0 -184.5 -47t-71.5 -135q0 -82 69 -130t262 -106q78 -23 136 -47.5t113.5 -61t90.5 -81t56 -107.5t21 -141z" />
    <glyph glyph-name="T" unicode="T" 
d="M730 1222v-1222h-237v1222h-424v191h1095l-24 -191h-410z" />
    <glyph glyph-name="U" unicode="U" 
d="M1104 1413v-949q0 -220 -131 -356t-360 -136q-231 0 -359.5 134t-128.5 358v949h237v-906q0 -174 60.5 -259.5t190.5 -85.5t191 85.5t61 259.5v906h239z" />
    <glyph glyph-name="V" unicode="V" 
d="M620 225l337 1188h241l-447 -1413h-273l-447 1413h254z" />
    <glyph glyph-name="W" unicode="W" 
d="M1225 1413l-196 -1413h-277l-140 1046l-144 -1046h-284l-180 1413h229l112 -1184l150 1020h244l142 -1020l132 1184h212z" />
    <glyph glyph-name="X" unicode="X" 
d="M78 1413h263l273 -509l277 509h253l-391 -649l434 -764h-263l-314 601l-314 -601h-254l428 753z" />
    <glyph glyph-name="Y" unicode="Y" 
d="M734 540v-540h-239v538l-471 875h261l335 -670l336 670h249z" />
    <glyph glyph-name="Z" unicode="Z" 
d="M392 197h715l-27 -197h-959v184l719 1037h-645v192h907v-186z" />
    <glyph glyph-name="bracketleft" unicode="[" 
d="M355 -242v1917h558v-183h-342v-1552h342v-182h-558z" />
    <glyph glyph-name="backslash" unicode="\" 
d="M89 1578l181 85l870 -1799l-183 -82z" />
    <glyph glyph-name="bracketright" unicode="]" 
d="M873 1675v-1917h-558v182h342v1552h-342v183h558z" />
    <glyph glyph-name="asciicircum" unicode="^" 
d="M718 1722l387 -643h-236l-257 456l-253 -456h-235l387 643h207z" />
    <glyph glyph-name="underscore" unicode="_" 
d="M102 -375v190h1024v-190h-1024z" />
    <glyph glyph-name="grave" unicode="`" 
d="M801 1274l-441 191l106 184l403 -254z" />
    <glyph glyph-name="a" unicode="a" 
d="M1009 265q0 -62 19 -92t63 -44l-52 -156q-170 19 -224 150q-58 -74 -148.5 -112.5t-196.5 -38.5q-163 0 -259 92t-96 244q0 171 133.5 263.5t380.5 92.5h154v70q0 197 -240 197q-121 0 -288 -57l-56 162q196 74 379 74q214 0 322.5 -94.5t108.5 -267.5v-483zM540 141
q70 0 136 37.5t107 103.5v238h-127q-301 0 -301 -202q0 -177 185 -177z" />
    <glyph glyph-name="b" unicode="b" 
d="M412 952q121 158 297 158q206 0 304 -149t98 -418q0 -167 -48.5 -295t-146.5 -202t-235 -74q-181 0 -285 134l-12 -106h-202v1516l230 25v-589zM624 147q244 0 244 395q0 203 -56 297t-166 94q-133 0 -234 -155v-506q80 -125 212 -125z" />
    <glyph glyph-name="c" unicode="c" 
d="M703 161q132 0 267 94l106 -147q-73 -62 -174 -99t-206 -37q-247 0 -386.5 153t-139.5 411q0 253 142.5 413.5t387.5 160.5q218 0 375 -130l-105 -144q-132 90 -265 90q-134 0 -212.5 -97.5t-78.5 -292.5q0 -193 77.5 -284t211.5 -91z" />
    <glyph glyph-name="d" unicode="d" 
d="M817 1541l230 -25v-1516h-202l-17 133q-115 -161 -304 -161q-202 0 -304 152.5t-102 416.5q0 165 50.5 293t148 202t228.5 74q165 0 272 -118v549zM605 934q-119 0 -182 -97.5t-63 -295.5q0 -393 225 -393q134 0 232 154v512q-84 120 -212 120z" />
    <glyph glyph-name="e" unicode="e" 
d="M373 467q9 -159 89.5 -237.5t205.5 -78.5q140 0 283 94l100 -137q-77 -63 -179.5 -99.5t-215.5 -36.5q-248 0 -384.5 155t-136.5 413q0 163 58.5 291.5t172 203.5t263.5 75q216 0 341 -145t125 -396q0 -55 -5 -102h-717zM631 940q-112 0 -180.5 -79.5t-78.5 -236.5h500
q-3 153 -65 234.5t-176 81.5z" />
    <glyph glyph-name="f" unicode="f" 
d="M840 1541q181 0 322 -62l-67 -159q-103 43 -233 43q-106 0 -157.5 -41t-51.5 -127v-191h362l-25 -169h-337v-835h-228v835h-246v169h246v193q0 154 113.5 249t301.5 95z" />
    <glyph glyph-name="g" unicode="g" 
d="M1093 1219l61 -191q-107 -36 -314 -36q195 -86 195 -274q0 -162 -115 -264t-311 -102q-83 0 -148 18q-22 -14 -35 -38.5t-13 -50.5q0 -81 135 -81h188q172 0 283 -85.5t111 -215.5q0 -163 -139.5 -251.5t-400.5 -88.5q-111 0 -193 14t-137.5 40t-89 67.5t-48 92.5
t-14.5 119h205q0 -61 22 -95t83.5 -52.5t173.5 -18.5q163 0 235.5 39.5t72.5 117.5q0 65 -57 101t-154 36h-185q-146 0 -221 59t-75 149q0 55 31.5 106.5t89.5 89.5q-97 51 -142 124t-45 178q0 171 126 277t326 106q94 0 167.5 7.5t134 24.5t100 33.5t97.5 44.5zM596 951
q-107 0 -163.5 -60.5t-56.5 -162.5q0 -104 57.5 -165t165.5 -61q101 0 155 59t54 169q0 221 -212 221z" />
    <glyph glyph-name="h" unicode="h" 
d="M412 1538v-589q64 78 151.5 119.5t182.5 41.5q151 0 227 -83.5t76 -238.5v-788h-230v753q0 97 -36 139.5t-119 42.5q-72 0 -138 -46t-114 -116v-773h-230v1513z" />
    <glyph glyph-name="i" unicode="i" 
d="M613 1611q67 0 109 -41t42 -103q0 -63 -42 -104t-109 -41q-66 0 -107.5 41t-41.5 104q0 61 42 102.5t107 41.5zM773 1081v-913h294v-168h-847v168h324v745h-314v168h543z" />
    <glyph glyph-name="j" unicode="j" 
d="M754 1611q66 0 108 -41t42 -103q0 -63 -42 -104t-108 -41t-108 41t-42 104q0 62 42 103t108 41zM933 1081v-854q0 -149 -46.5 -262t-141 -192.5t-224.5 -130.5t-308 -83l-37 176q128 24 220 58.5t163.5 89.5t107.5 137t36 192v701h-427v168h657z" />
    <glyph glyph-name="k" unicode="k" 
d="M419 1541v-1541h-230v1516zM1135 1081l-438 -483l484 -598h-281l-465 592l432 489h268z" />
    <glyph glyph-name="l" unicode="l" 
d="M657 1516v-1221q0 -137 164 -137q84 0 171 36l59 -160q-122 -62 -279 -62q-163 0 -253.5 91.5t-90.5 251.5v1032h-327v169h556z" />
    <glyph glyph-name="m" unicode="m" 
d="M928 1110q102 0 159 -69t57 -237v-804h-204v772q0 92 -13 125.5t-60 33.5q-86 0 -159 -107v-824h-186v772q0 92 -12.5 125.5t-59.5 33.5q-87 0 -160 -107v-824h-205v1081h173l15 -116q50 71 104.5 108t127.5 37q143 0 185 -138q101 138 238 138z" />
    <glyph glyph-name="n" unicode="n" 
d="M182 0v1081h198l17 -140q67 81 158.5 125t190.5 44q149 0 226 -84t77 -238v-788h-230v675q0 148 -30 204t-124 56q-73 0 -138.5 -45t-114.5 -114v-776h-230z" />
    <glyph glyph-name="o" unicode="o" 
d="M615 1110q233 0 360.5 -152.5t127.5 -414.5q0 -261 -129 -416t-360 -155q-233 0 -360.5 152t-127.5 417q0 258 129 413.5t360 155.5zM615 932q-125 0 -186.5 -95.5t-61.5 -295.5t61 -295.5t186 -95.5t186.5 96t61.5 297q0 198 -61.5 293.5t-185.5 95.5z" />
    <glyph glyph-name="p" unicode="p" 
d="M710 1110q393 0 393 -567q0 -168 -46.5 -295t-141.5 -201.5t-229 -74.5q-169 0 -274 120v-508l-230 -25v1522h200l14 -139q123 168 314 168zM646 933q-133 0 -234 -155v-506q80 -120 214 -120q118 0 177 95t59 295q0 205 -53 298t-163 93z" />
    <glyph glyph-name="q" unicode="q" 
d="M546 1110q180 0 289 -134l14 105h198v-1522l-230 25v535q-112 -147 -294 -147q-397 0 -397 569q0 254 111 411.5t309 157.5zM605 934q-238 0 -238 -393q0 -202 54.5 -295.5t163.5 -93.5q138 0 232 150v512q-81 120 -212 120z" />
    <glyph glyph-name="r" unicode="r" 
d="M193 0v164h158v755h-158v162h333l42 -251q63 140 154 209.5t227 69.5q75 0 163 -28l-39 -398h-164v220q-113 -4 -196 -90.5t-132 -247.5v-401h218v-164h-606z" />
    <glyph glyph-name="s" unicode="s" 
d="M575 148q108 0 171.5 39t63.5 106q0 47 -18 75.5t-74.5 55.5t-167.5 56q-86 22 -146.5 47t-110 62t-74 89.5t-24.5 121.5q0 140 117 225t315 85q241 0 410 -125l-96 -144q-145 95 -308 95q-205 0 -205 -120q0 -59 54.5 -92t220.5 -79q87 -24 145 -49t107.5 -63.5
t73.5 -94t24 -130.5q0 -84 -39.5 -150t-107 -106t-151.5 -60t-180 -20q-270 0 -444 153l122 139q141 -116 322 -116z" />
    <glyph glyph-name="t" unicode="t" 
d="M1085 57q-61 -39 -144 -62t-171 -23q-185 0 -284.5 96t-99.5 260v586h-241v167h241v242l229 28v-270h365l-26 -167h-339v-584q0 -88 44.5 -130t142.5 -42q110 0 200 51z" />
    <glyph glyph-name="u" unicode="u" 
d="M412 1081v-755q0 -95 37.5 -137t116.5 -42q72 0 141 43t110 109v782h230v-1081h-198l-14 138q-59 -79 -151 -122.5t-190 -43.5q-155 0 -233.5 85t-78.5 240v784h230z" />
    <glyph glyph-name="v" unicode="v" 
d="M1129 1081l-380 -1081h-269l-381 1081h246l275 -891l275 891h234z" />
    <glyph glyph-name="w" unicode="w" 
d="M1028 0h-287l-121 768l-132 -768h-280l-183 1081h221l112 -939l151 802h229l141 -802l112 939h213z" />
    <glyph glyph-name="x" unicode="x" 
d="M342 0h-254l388 570l-345 511h264l221 -381l222 381h252l-338 -501l389 -580h-270l-265 441z" />
    <glyph glyph-name="y" unicode="y" 
d="M1128 1081l-372 -1085q-33 -96 -76 -169t-106 -131.5t-150 -93t-198 -44.5l-29 172q81 13 137.5 34t96 55.5t64.5 76t48 104.5h-78l-365 1081h244l272 -921l277 921h235z" />
    <glyph glyph-name="z" unicode="z" 
d="M462 184h578l-24 -184h-830v168l576 729h-530v184h801v-168z" />
    <glyph glyph-name="braceleft" unicode="{" 
d="M936 1714v-169q-116 0 -177.5 -34t-53.5 -116l37 -376q14 -139 -47 -209.5t-192 -92.5q136 -23 194.5 -90t44.5 -212l-37 -376q-8 -83 53.5 -117t177.5 -34v-169q-112 0 -194.5 17t-144 55.5t-88 105.5t-16.5 163l37 354q11 111 -56.5 161t-242.5 50v184q174 0 242 49.5
t57 160.5l-37 353q-11 96 16 163.5t88.5 106t144 55.5t194.5 17z" />
    <glyph glyph-name="bar" unicode="|" 
d="M718 1655v-1866h-209v1866h209z" />
    <glyph glyph-name="braceright" unicode="}" 
d="M293 1714q112 0 194.5 -17t144 -55.5t88 -105.5t16.5 -163l-38 -354q-11 -109 61 -159.5t238 -50.5v-184q-166 0 -238 -51t-61 -160l38 -353q11 -96 -16 -163.5t-88.5 -106t-144 -55.5t-194.5 -17v169q116 0 177.5 34t53.5 117l-38 376q-14 144 48 212t206 89
q-144 23 -206.5 92.5t-47.5 210.5l38 376q8 82 -53.5 116t-177.5 34v169z" />
    <glyph glyph-name="asciitilde" unicode="~" 
d="M419 844q56 0 106.5 -21t86.5 -51t68.5 -60.5t67.5 -51.5t69 -21q58 0 105 43.5t90 124.5l145 -70q-30 -61 -59.5 -106.5t-71.5 -88.5t-96.5 -65.5t-119.5 -22.5q-54 0 -103 21t-85.5 51t-69.5 60t-69 51t-71 21q-59 0 -105 -43.5t-90 -125.5l-145 69q24 48 45.5 84
t54 76t66.5 66t81 43t100 17z" />
    <glyph glyph-name="uni00A0" unicode="&#xa0;" 
 />
    <glyph glyph-name="exclamdown" unicode="&#xa1;" 
d="M613 1031q65 0 110.5 -46t45.5 -111q0 -63 -45.5 -108t-110.5 -45t-109.5 45t-44.5 108q0 66 44.5 111.5t109.5 45.5zM708 517l33 -927h-255l32 927h190z" />
    <glyph glyph-name="cent" unicode="&#xa2;" 
d="M779 1406v-307q137 -17 254 -111l-106 -145q-107 83 -227 83q-126 0 -193.5 -96.5t-67.5 -293.5q0 -375 261 -375q59 0 111.5 19.5t114.5 67.5l107 -154q-110 -90 -254 -111v-302h-184v305q-193 30 -296 175t-103 375q0 226 104.5 377.5t296.5 183.5v309h182z" />
    <glyph glyph-name="sterling" unicode="&#xa3;" 
d="M715 1442q250 0 387 -189l-148 -109q-48 62 -102 89t-124 27q-100 0 -152 -57t-52 -170v-228h405v-138h-405v-217q0 -93 -27 -159t-101 -107h683l-27 -184h-925v175q40 12 68.5 27.5t47 36t29.5 40t16 49.5t6.5 54.5t1.5 64.5v220h-161v138h161v241q0 175 112 285.5
t307 110.5z" />
    <glyph glyph-name="currency" unicode="&#xa4;" 
d="M191 1250l177 -177q108 66 248 66q142 0 246 -66l175 175l124 -124l-172 -173q72 -111 72 -251t-74 -254l174 -172l-124 -123l-177 173q-104 -64 -244 -64q-142 0 -249 64l-176 -176l-123 124l176 177q-70 108 -70 251q0 142 68 250l-174 176zM616 969q-117 0 -178 -71
t-61 -198q0 -128 61 -198.5t178 -70.5q116 0 177 70.5t61 198.5q0 127 -61 198t-177 71z" />
    <glyph glyph-name="yen" unicode="&#xa5;" 
d="M1172 1413l-384 -700h229v-139h-285v-161h285v-139h-285v-274h-234v274h-281v139h281v161h-281v139h222l-383 700h251l310 -623h9l307 623h239z" />
    <glyph glyph-name="brokenbar" unicode="&#xa6;" 
d="M718 1655v-734h-209v734h209zM718 523v-734h-209v734h209z" />
    <glyph glyph-name="section" unicode="&#xa7;" 
d="M650 1442q203 0 363 -112l-95 -144q-129 84 -269 84q-82 0 -129.5 -34.5t-47.5 -92.5q0 -63 47 -99t200 -86q166 -54 239.5 -124t73.5 -191q0 -81 -45.5 -147.5t-118.5 -112.5q120 -89 120 -226q0 -140 -115.5 -225.5t-302.5 -85.5q-214 0 -368 114l93 148
q131 -89 274 -89q84 0 137 34.5t53 91.5q0 63 -47.5 99t-202.5 86q-166 55 -239.5 125t-73.5 191q0 80 46 146t119 111q-119 91 -119 226q0 140 115.5 226.5t292.5 86.5zM492 836q-82 -74 -82 -159q0 -77 56.5 -112.5t270.5 -111.5q82 77 82 160q0 72 -58 109.5t-269 113.5z
" />
    <glyph glyph-name="dieresis" unicode="&#xa8;" 
d="M393 1319q-57 0 -95.5 37.5t-38.5 92.5q0 56 38.5 93t95.5 37q56 0 94 -37t38 -93q0 -55 -38 -92.5t-94 -37.5zM835 1319q-56 0 -94.5 37.5t-38.5 92.5q0 56 38.5 93t94.5 37q57 0 95.5 -37t38.5 -93q0 -55 -38.5 -92.5t-95.5 -37.5z" />
    <glyph glyph-name="copyright" unicode="&#xa9;" 
d="M616 1538q176 0 306.5 -88t196.5 -235.5t66 -331.5q0 -183 -66 -330t-197 -235.5t-306 -88.5q-134 0 -243.5 51t-180.5 140t-109.5 208t-38.5 255q0 184 66.5 331.5t198 235.5t307.5 88zM616 1421q-108 0 -192.5 -42t-137 -115.5t-79.5 -170t-27 -210.5q0 -113 27 -208.5
t79 -169t137 -115.5t193 -42t192 42t136.5 115.5t79.5 169.5t27 208q0 114 -27 210.5t-79 170t-136.5 115.5t-192.5 42zM628 1278q75 0 129.5 -20.5t108.5 -65.5l-83 -109q-69 56 -143 56q-77 0 -124 -62t-47 -192q0 -125 45.5 -187t125.5 -62q90 0 161 65l76 -112
q-108 -99 -247 -99q-155 0 -247.5 104t-92.5 291q0 184 96 288.5t242 104.5z" />
    <glyph glyph-name="ordfeminine" unicode="&#xaa;" 
d="M595 1541q359 0 359 -296v-379q0 -44 16 -66.5t50 -33.5l-47 -138q-74 8 -120.5 36.5t-71.5 84.5q-51 -59 -122.5 -90.5t-151.5 -31.5q-140 0 -226 76t-86 200q0 137 116.5 212.5t327.5 75.5h116v48q0 79 -46.5 111.5t-143.5 32.5q-108 0 -246 -48l-54 145q169 61 330 61
zM755 1056h-99q-127 0 -185 -36.5t-58 -108.5q0 -67 38.5 -102t109.5 -35q55 0 107 29t87 80v173zM1032 180v-180h-820v180h820z" />
    <glyph glyph-name="guillemotleft" unicode="&#xab;" 
d="M635 169l-134 -86l-356 435v155l356 436l134 -86l-261 -427zM1082 169l-135 -86l-357 435v155l357 436l135 -86l-261 -427z" />
    <glyph glyph-name="logicalnot" unicode="&#xac;" 
d="M1018 736v-484h-200v299h-607v185h807z" />
    <glyph glyph-name="uni00AD" unicode="&#xad;" 
d="M288 547v188h653v-188h-653z" />
    <glyph glyph-name="registered" unicode="&#xae;" 
d="M615 1538q147 0 270 -71.5t193.5 -195t70.5 -270.5q0 -224 -155 -378.5t-379 -154.5q-148 0 -271.5 70.5t-194.5 193t-71 269.5t71 270.5t194.5 195t271.5 71.5zM615 1427q-176 0 -293 -123t-117 -303q0 -179 117 -300t293 -121q175 0 291 121t116 300q0 180 -116.5 303
t-290.5 123zM581 1302q260 0 260 -176q0 -60 -35.5 -101t-94.5 -60l169 -242h-149l-144 218h-55v-218h-126v579h175zM588 1204h-56v-163h59q119 0 119 86q0 77 -122 77z" />
    <glyph glyph-name="macron" unicode="&#xaf;" 
d="M903 1370h-578v167h578v-167z" />
    <glyph glyph-name="degree" unicode="&#xb0;" 
d="M483 1541q139 0 242 -90t103 -240q0 -76 -29.5 -140t-78 -105t-110 -63.5t-127.5 -22.5q-138 0 -241.5 90.5t-103.5 241.5q0 149 103.5 239t241.5 90zM483 1395q-71 0 -119.5 -48t-48.5 -135q0 -88 48.5 -136.5t119.5 -48.5q72 0 119.5 48.5t47.5 135.5t-47.5 135.5
t-119.5 48.5z" />
    <glyph glyph-name="plusminus" unicode="&#xb1;" 
d="M717 1117v-311h301v-182h-301v-282h-205v282h-301v182h301v311h205zM1018 185v-185h-807v185h807z" />
    <glyph glyph-name="uni00B2" unicode="&#xb2;" 
d="M897 1099q0 -93 -69.5 -158.5t-256.5 -154.5h348l-21 -141h-573v124q244 143 313.5 199t69.5 116q0 41 -28.5 65.5t-78.5 24.5q-100 0 -173 -90l-120 90q124 141 309 141q132 0 206 -60t74 -156z" />
    <glyph glyph-name="uni00B3" unicode="&#xb3;" 
d="M630 1315q128 0 200.5 -49.5t72.5 -132.5q0 -58 -34 -92t-110 -48q91 -14 132.5 -48.5t41.5 -105.5q0 -94 -86.5 -150t-237.5 -56q-202 0 -316 117l108 91q89 -75 208 -75q67 0 101.5 22.5t34.5 61.5q0 82 -129 82h-100l20 104h74q111 0 111 70q0 77 -109 77
q-103 0 -202 -71l-94 97q130 106 314 106z" />
    <glyph glyph-name="acute" unicode="&#xb4;" 
d="M780 1662l97 -184l-449 -181l-68 119z" />
    <glyph glyph-name="uni00B5" unicode="&#xb5;" 
d="M1022 1081v-722q0 -173 45 -359l-212 -26q-30 65 -41 168q-47 -77 -119 -123t-149 -46q-72 0 -114.5 22t-84.5 80q40 -131 40 -227v-264l-223 -25v1522h229v-609q0 -67 2.5 -110t11.5 -85.5t25.5 -65.5t45 -37.5t70.5 -14.5q145 0 245 145v777h229z" />
    <glyph glyph-name="paragraph" unicode="&#xb6;" 
d="M1159 1413v-1832l-201 -22v1682h-207v-1660l-201 -22v1013q-232 8 -356.5 122t-124.5 296q0 188 135.5 305.5t383.5 117.5h571z" />
    <glyph glyph-name="periodcentered" unicode="&#xb7;" 
d="M416 700q0 82 57 140t140 58q84 0 141.5 -58t57.5 -140q0 -83 -57.5 -141t-141.5 -58t-140.5 57.5t-56.5 141.5z" />
    <glyph glyph-name="cedilla" unicode="&#xb8;" 
d="M681 -291q0 47 -43.5 63.5t-137.5 16.5l21 244h142v-143q99 -9 148.5 -59.5t49.5 -123.5q0 -99 -76.5 -156.5t-194.5 -57.5q-131 0 -224 55l63 118q66 -34 135 -34q117 0 117 77z" />
    <glyph glyph-name="uni00B9" unicode="&#xb9;" 
d="M659 645v468l-182 -98l-86 119l299 169h147v-658h-178z" />
    <glyph glyph-name="ordmasculine" unicode="&#xba;" 
d="M614 1541q197 0 313.5 -125.5t116.5 -330.5t-117 -331.5t-313 -126.5q-198 0 -314.5 125t-116.5 333q0 201 117.5 328.5t313.5 127.5zM614 1383q-103 0 -160 -73.5t-57 -224.5q0 -153 57 -226.5t160 -73.5t159.5 73.5t56.5 226.5q0 151 -56.5 224.5t-159.5 73.5z
M1025 180v-180h-820v180h820z" />
    <glyph glyph-name="guillemotright" unicode="&#xbb;" 
d="M852 596l-262 427l135 86l357 -436v-155l-357 -435l-135 86zM407 596l-262 427l135 86l355 -436v-155l-355 -435l-135 86z" />
    <glyph glyph-name="onequarter" unicode="&#xbc;" 
d="M254 756v468l-183 -99l-85 119l298 169h146v-657h-176zM101 370l-72 127l1095 524l71 -127zM1141 115v-115h-174v115h-367v111l265 451l153 -56l-222 -373h172l19 171h154v-171h103v-133h-103z" />
    <glyph glyph-name="onehalf" unicode="&#xbd;" 
d="M248 756v468l-183 -99l-85 119l298 169h146v-657h-176zM93 370l-73 127l1096 524l71 -127zM1229 454q0 -92 -69.5 -158t-256.5 -155h346l-19 -141h-575v124q244 143 313.5 199t69.5 116q0 41 -28 65t-78 24q-100 0 -173 -89l-120 89q125 142 310 142q132 0 206 -60
t74 -156z" />
    <glyph glyph-name="threequarters" unicode="&#xbe;" 
d="M323 1425q128 0 201 -49.5t73 -132.5q0 -58 -34 -91.5t-110 -47.5q91 -14 132.5 -49t41.5 -106q0 -94 -87 -150t-238 -56q-199 0 -316 117l108 91q90 -74 209 -74q67 0 101 22.5t34 62.5q0 81 -129 81h-99l19 104h74q111 0 111 70q0 76 -108 76t-203 -70l-93 97
q127 105 313 105zM117 370l-73 127l1096 524l70 -127zM1140 115v-115h-173v115h-368v111l265 451l153 -56l-222 -373h173l19 171h153v-171h103v-133h-103z" />
    <glyph glyph-name="questiondown" unicode="&#xbf;" 
d="M657 1031q65 0 111 -46t46 -111q0 -63 -46 -108t-111 -45t-109 44.5t-44 108.5q0 66 44 111.5t109 45.5zM773 517v-78q0 -69 -19.5 -125.5t-50.5 -94.5t-69 -70t-75.5 -58.5t-68.5 -53.5t-50.5 -61.5t-19.5 -75.5q0 -74 59 -116t154 -42q159 0 276 139l155 -115
q-179 -209 -455 -209q-196 0 -312 95.5t-116 229.5q0 67 20.5 121t53.5 90t72.5 67t79.5 60t73 60.5t53.5 76.5t20.5 100v60h219z" />
    <glyph glyph-name="Agrave" unicode="&#xc0;" 
d="M466 1896l402 -233l-62 -119l-446 169zM862 340h-505l-98 -340h-242l450 1413h295l450 -1413h-251zM407 523h405l-202 706z" />
    <glyph glyph-name="Aacute" unicode="&#xc1;" 
d="M779 1891l94 -182l-455 -165l-58 119zM862 340h-505l-98 -340h-242l450 1413h295l450 -1413h-251zM407 523h405l-202 706z" />
    <glyph glyph-name="Acircumflex" unicode="&#xc2;" 
d="M689 1890l280 -238l-90 -104l-265 168l-262 -168l-93 104l283 238h147zM862 340h-505l-98 -340h-242l450 1413h295l450 -1413h-251zM407 523h405l-202 706z" />
    <glyph glyph-name="Atilde" unicode="&#xc3;" 
d="M732 1579q-48 0 -91.5 24t-79.5 48t-65 24q-34 0 -58.5 -22t-50.5 -71l-129 66q39 89 99 143t137 54q40 0 76.5 -15t59 -32.5t50 -32.5t51.5 -15q30 0 55 21t54 68l129 -64q-40 -94 -101 -145t-136 -51zM862 340h-505l-98 -340h-242l450 1413h295l450 -1413h-251z
M407 523h405l-202 706z" />
    <glyph glyph-name="Adieresis" unicode="&#xc4;" 
d="M393 1569q-57 0 -95.5 37t-38.5 92q0 56 38.5 93.5t95.5 37.5q56 0 94 -37.5t38 -93.5q0 -55 -38 -92t-94 -37zM835 1569q-56 0 -94.5 37t-38.5 92q0 56 38.5 93.5t94.5 37.5q57 0 95.5 -37.5t38.5 -93.5q0 -55 -38.5 -92t-95.5 -37zM862 340h-505l-98 -340h-242
l450 1413h295l450 -1413h-251zM407 523h405l-202 706z" />
    <glyph glyph-name="Aring" unicode="&#xc5;" 
d="M613 1968q110 0 180 -67t70 -166q0 -97 -70 -164.5t-180 -67.5q-109 0 -178 67.5t-69 164.5q0 99 69 166t178 67zM613 1846q-47 0 -74.5 -29.5t-27.5 -81.5t27.5 -81.5t74.5 -29.5q49 0 77 29t28 82t-28 82t-77 29zM862 340h-505l-98 -340h-242l450 1413h295l450 -1413
h-251zM407 523h405l-202 706z" />
    <glyph glyph-name="AE" unicode="&#xc6;" 
d="M663 342h-369l-84 -342h-235l393 1413h790l-25 -175h-442l90 -433h359v-176h-326l93 -453h334v-176h-513zM337 521h293l-134 720z" />
    <glyph glyph-name="Ccedilla" unicode="&#xc7;" 
d="M784 -291q0 47 -43.5 63.5t-137.5 16.5l18 193q-233 39 -374 228t-141 499q0 174 49.5 314.5t135 231t199 139t243.5 48.5q137 0 236.5 -35.5t189.5 -109.5l-124 -147q-125 104 -291 104q-66 0 -122.5 -18t-106.5 -59t-85.5 -103t-56 -155t-20.5 -210q0 -143 29.5 -249.5
t83 -170t123 -94t155.5 -30.5q103 0 176.5 32.5t144.5 89.5l115 -147q-162 -159 -414 -168v-82q99 -9 149 -59.5t50 -123.5q0 -99 -77 -156.5t-195 -57.5q-132 0 -223 55l62 118q66 -34 136 -34q116 0 116 77z" />
    <glyph glyph-name="Egrave" unicode="&#xc8;" 
d="M508 1896l402 -233l-62 -119l-446 169zM469 1233v-425h512v-180h-512v-448h624v-180h-862v1413h850l-26 -180h-586z" />
    <glyph glyph-name="Eacute" unicode="&#xc9;" 
d="M822 1891l94 -182l-455 -165l-59 119zM469 1233v-425h512v-180h-512v-448h624v-180h-862v1413h850l-26 -180h-586z" />
    <glyph glyph-name="Ecircumflex" unicode="&#xca;" 
d="M731 1890l281 -238l-91 -104l-265 168l-262 -168l-93 104l283 238h147zM469 1233v-425h512v-180h-512v-448h624v-180h-862v1413h850l-26 -180h-586z" />
    <glyph glyph-name="Edieresis" unicode="&#xcb;" 
d="M435 1569q-57 0 -95.5 37t-38.5 92q0 56 38.5 93.5t95.5 37.5q56 0 94 -37.5t38 -93.5q0 -55 -38 -92t-94 -37zM877 1569q-55 0 -94 37t-39 92q0 56 39 93.5t94 37.5q57 0 95.5 -37.5t38.5 -93.5q0 -55 -38.5 -92t-95.5 -37zM469 1233v-425h512v-180h-512v-448h624v-180
h-862v1413h850l-26 -180h-586z" />
    <glyph glyph-name="Igrave" unicode="&#xcc;" 
d="M466 1896l402 -233l-62 -119l-446 169zM1039 1413v-181h-305v-1050h305v-182h-850v182h306v1050h-306v181h850z" />
    <glyph glyph-name="Iacute" unicode="&#xcd;" 
d="M779 1891l94 -182l-455 -165l-58 119zM1039 1413v-181h-305v-1050h305v-182h-850v182h306v1050h-306v181h850z" />
    <glyph glyph-name="Icircumflex" unicode="&#xce;" 
d="M689 1890l280 -238l-90 -104l-265 168l-262 -168l-93 104l283 238h147zM1039 1413v-181h-305v-1050h305v-182h-850v182h306v1050h-306v181h850z" />
    <glyph glyph-name="Idieresis" unicode="&#xcf;" 
d="M393 1569q-57 0 -95.5 37t-38.5 92q0 56 38.5 93.5t95.5 37.5q56 0 94 -37.5t38 -93.5q0 -55 -38 -92t-94 -37zM835 1569q-56 0 -94.5 37t-38.5 92q0 56 38.5 93.5t94.5 37.5q57 0 95.5 -37.5t38.5 -93.5q0 -55 -38.5 -92t-95.5 -37zM1039 1413v-181h-305v-1050h305v-182
h-850v182h306v1050h-306v181h850z" />
    <glyph glyph-name="Eth" unicode="&#xd0;" 
d="M1170 714q0 -122 -20 -223.5t-54.5 -174.5t-84.5 -129t-105.5 -91t-123 -57t-131.5 -30.5t-136 -8.5h-346v642h-136v162h136v609h323q78 0 145.5 -8t138 -28.5t127 -54t108 -87.5t85.5 -126t54 -172t20 -223zM700 804v-162h-293v-462h131q384 0 384 534q0 130 -23 226
t-58 151t-88.5 87.5t-103 42.5t-112.5 10h-130v-427h293z" />
    <glyph glyph-name="Ntilde" unicode="&#xd1;" 
d="M737 1579q-38 0 -74 15t-59 33t-50.5 33t-51.5 15q-35 0 -58.5 -22t-50.5 -71l-130 66q39 89 99 143t138 54q40 0 76.5 -15t59 -32.5t50 -32.5t51.5 -15q31 0 55.5 21t52.5 68l129 -64q-40 -94 -101 -145t-136 -51zM773 0l-449 1202q33 -346 33 -560v-642h-211v1413h309
l450 -1203q-34 321 -34 559v644h211v-1413h-309z" />
    <glyph glyph-name="Ograve" unicode="&#xd2;" 
d="M466 1896l402 -233l-62 -119l-446 169zM1152 707q0 -220 -60 -384t-182.5 -257.5t-295.5 -93.5q-260 0 -398.5 196.5t-138.5 536.5q0 220 59.5 384.5t182 258.5t295.5 94q260 0 399 -197.5t139 -537.5zM906 707q0 279 -69 414t-223 135q-153 0 -222 -135.5t-69 -415.5
q0 -278 70 -412.5t221 -134.5q155 0 223.5 134.5t68.5 414.5z" />
    <glyph glyph-name="Oacute" unicode="&#xd3;" 
d="M779 1891l94 -182l-455 -165l-58 119zM1152 707q0 -220 -60 -384t-182.5 -257.5t-295.5 -93.5q-260 0 -398.5 196.5t-138.5 536.5q0 220 59.5 384.5t182 258.5t295.5 94q260 0 399 -197.5t139 -537.5zM906 707q0 279 -69 414t-223 135q-153 0 -222 -135.5t-69 -415.5
q0 -278 70 -412.5t221 -134.5q155 0 223.5 134.5t68.5 414.5z" />
    <glyph glyph-name="Ocircumflex" unicode="&#xd4;" 
d="M689 1890l280 -238l-90 -104l-265 168l-262 -168l-93 104l283 238h147zM1152 707q0 -220 -60 -384t-182.5 -257.5t-295.5 -93.5q-260 0 -398.5 196.5t-138.5 536.5q0 220 59.5 384.5t182 258.5t295.5 94q260 0 399 -197.5t139 -537.5zM906 707q0 279 -69 414t-223 135
q-153 0 -222 -135.5t-69 -415.5q0 -278 70 -412.5t221 -134.5q155 0 223.5 134.5t68.5 414.5z" />
    <glyph glyph-name="Otilde" unicode="&#xd5;" 
d="M732 1579q-48 0 -91.5 24t-79.5 48t-65 24q-34 0 -58.5 -22t-50.5 -71l-129 66q39 89 99 143t137 54q40 0 76.5 -15t59 -32.5t50 -32.5t51.5 -15q30 0 55 21t54 68l129 -64q-40 -94 -101 -145t-136 -51zM1152 707q0 -220 -60 -384t-182.5 -257.5t-295.5 -93.5
q-260 0 -398.5 196.5t-138.5 536.5q0 220 59.5 384.5t182 258.5t295.5 94q260 0 399 -197.5t139 -537.5zM906 707q0 279 -69 414t-223 135q-153 0 -222 -135.5t-69 -415.5q0 -278 70 -412.5t221 -134.5q155 0 223.5 134.5t68.5 414.5z" />
    <glyph glyph-name="Odieresis" unicode="&#xd6;" 
d="M393 1569q-57 0 -95.5 37t-38.5 92q0 56 38.5 93.5t95.5 37.5q56 0 94 -37.5t38 -93.5q0 -55 -38 -92t-94 -37zM835 1569q-56 0 -94.5 37t-38.5 92q0 56 38.5 93.5t94.5 37.5q57 0 95.5 -37.5t38.5 -93.5q0 -55 -38.5 -92t-95.5 -37zM1152 707q0 -220 -60 -384
t-182.5 -257.5t-295.5 -93.5q-260 0 -398.5 196.5t-138.5 536.5q0 220 59.5 384.5t182 258.5t295.5 94q260 0 399 -197.5t139 -537.5zM906 707q0 279 -69 414t-223 135q-153 0 -222 -135.5t-69 -415.5q0 -278 70 -412.5t221 -134.5q155 0 223.5 134.5t68.5 414.5z" />
    <glyph glyph-name="multiply" unicode="&#xd7;" 
d="M860 1010l134 -136l-246 -245l246 -246l-134 -134l-246 247l-245 -247l-135 134l247 246l-247 245l135 136l245 -248z" />
    <glyph glyph-name="Oslash" unicode="&#xd8;" 
d="M614 1442q56 0 122 -14l64 217l182 -51l-76 -243q120 -89 183 -255t63 -389q0 -220 -60 -384t-182.5 -257.5t-295.5 -93.5q-58 0 -120 13l-64 -209l-181 50l74 236q-120 88 -183 254t-63 389q0 220 59.5 384.5t182 258.5t295.5 94zM614 1257q-156 0 -226 -135.5
t-70 -416.5q0 -333 93 -457l290 999q-39 10 -87 10zM910 707q0 337 -91 460l-290 -1000q37 -10 85 -10q156 0 226 135t70 415z" />
    <glyph glyph-name="Ugrave" unicode="&#xd9;" 
d="M466 1896l402 -233l-62 -119l-446 169zM1104 1413v-949q0 -220 -131 -356t-360 -136q-231 0 -359.5 134t-128.5 358v949h237v-906q0 -174 60.5 -259.5t190.5 -85.5t191 85.5t61 259.5v906h239z" />
    <glyph glyph-name="Uacute" unicode="&#xda;" 
d="M779 1891l94 -182l-455 -165l-58 119zM1104 1413v-949q0 -220 -131 -356t-360 -136q-231 0 -359.5 134t-128.5 358v949h237v-906q0 -174 60.5 -259.5t190.5 -85.5t191 85.5t61 259.5v906h239z" />
    <glyph glyph-name="Ucircumflex" unicode="&#xdb;" 
d="M689 1890l280 -238l-90 -104l-265 168l-262 -168l-93 104l283 238h147zM1104 1413v-949q0 -220 -131 -356t-360 -136q-231 0 -359.5 134t-128.5 358v949h237v-906q0 -174 60.5 -259.5t190.5 -85.5t191 85.5t61 259.5v906h239z" />
    <glyph glyph-name="Udieresis" unicode="&#xdc;" 
d="M393 1569q-57 0 -95.5 37t-38.5 92q0 56 38.5 93.5t95.5 37.5q56 0 94 -37.5t38 -93.5q0 -55 -38 -92t-94 -37zM835 1569q-56 0 -94.5 37t-38.5 92q0 56 38.5 93.5t94.5 37.5q57 0 95.5 -37.5t38.5 -93.5q0 -55 -38.5 -92t-95.5 -37zM1104 1413v-949q0 -220 -131 -356
t-360 -136q-231 0 -359.5 134t-128.5 358v949h237v-906q0 -174 60.5 -259.5t190.5 -85.5t191 85.5t61 259.5v906h239z" />
    <glyph glyph-name="Yacute" unicode="&#xdd;" 
d="M784 1891l95 -182l-457 -165l-57 119zM734 540v-540h-239v538l-471 875h261l335 -670l336 670h249z" />
    <glyph glyph-name="Thorn" unicode="&#xde;" 
d="M420 1413v-234h169q272 0 418.5 -113t146.5 -340q0 -122 -39 -213t-112.5 -147.5t-172.5 -84t-225 -27.5h-185v-254h-238v1413h238zM605 1000h-185v-566h191q142 0 218 66t76 223q0 277 -300 277z" />
    <glyph glyph-name="germandbls" unicode="&#xdf;" 
d="M603 1541q171 0 274.5 -85t103.5 -218q0 -54 -22 -99.5t-53.5 -75.5t-63 -57.5t-53.5 -59t-22 -65.5t21.5 -64.5t56 -56t76 -52.5t83.5 -61t76.5 -74t56 -99.5t21.5 -130.5q0 -174 -112 -272.5t-282 -98.5q-148 0 -262 68l82 156q76 -42 155 -42q88 0 136 46t48 136
q0 50 -20.5 91.5t-53 71.5t-71.5 57t-78.5 55t-72 59.5t-53 76.5t-20.5 99q0 53 21.5 97.5t52 75.5t60.5 60t51.5 65.5t21.5 77.5q0 62 -40 105t-122 43q-102 0 -151.5 -64t-49.5 -203v-1103h-229v1091q0 218 112.5 334t321.5 116z" />
    <glyph glyph-name="agrave" unicode="&#xe0;" 
d="M785 1274l-440 191l105 184l404 -254zM1009 265q0 -62 19 -92t63 -44l-52 -156q-170 19 -224 150q-58 -74 -148.5 -112.5t-196.5 -38.5q-163 0 -259 92t-96 244q0 171 133.5 263.5t380.5 92.5h154v70q0 197 -240 197q-121 0 -288 -57l-56 162q196 74 379 74
q214 0 322.5 -94.5t108.5 -267.5v-483zM540 141q70 0 136 37.5t107 103.5v238h-127q-301 0 -301 -202q0 -177 185 -177z" />
    <glyph glyph-name="aacute" unicode="&#xe1;" 
d="M764 1662l97 -184l-449 -181l-67 119zM1009 265q0 -62 19 -92t63 -44l-52 -156q-170 19 -224 150q-58 -74 -148.5 -112.5t-196.5 -38.5q-163 0 -259 92t-96 244q0 171 133.5 263.5t380.5 92.5h154v70q0 197 -240 197q-121 0 -288 -57l-56 162q196 74 379 74
q214 0 322.5 -94.5t108.5 -267.5v-483zM540 141q70 0 136 37.5t107 103.5v238h-127q-301 0 -301 -202q0 -177 185 -177z" />
    <glyph glyph-name="acircumflex" unicode="&#xe2;" 
d="M340 1275l-96 102l281 259h148l280 -259l-92 -102l-261 187zM1009 265q0 -62 19 -92t63 -44l-52 -156q-170 19 -224 150q-58 -74 -148.5 -112.5t-196.5 -38.5q-163 0 -259 92t-96 244q0 171 133.5 263.5t380.5 92.5h154v70q0 197 -240 197q-121 0 -288 -57l-56 162
q196 74 379 74q214 0 322.5 -94.5t108.5 -267.5v-483zM540 141q70 0 136 37.5t107 103.5v238h-127q-301 0 -301 -202q0 -177 185 -177z" />
    <glyph glyph-name="atilde" unicode="&#xe3;" 
d="M716 1330q-48 0 -91.5 24t-79.5 48t-65 24q-35 0 -58 -21.5t-50 -71.5l-130 65q39 90 98.5 144t137.5 54q40 0 76.5 -15t59 -33t50.5 -33t52 -15q30 0 54.5 21t52.5 68l129 -63q-40 -94 -100.5 -145t-135.5 -51zM1009 265q0 -62 19 -92t63 -44l-52 -156q-170 19 -224 150
q-58 -74 -148.5 -112.5t-196.5 -38.5q-163 0 -259 92t-96 244q0 171 133.5 263.5t380.5 92.5h154v70q0 197 -240 197q-121 0 -288 -57l-56 162q196 74 379 74q214 0 322.5 -94.5t108.5 -267.5v-483zM540 141q70 0 136 37.5t107 103.5v238h-127q-301 0 -301 -202
q0 -177 185 -177z" />
    <glyph glyph-name="adieresis" unicode="&#xe4;" 
d="M377 1319q-57 0 -95.5 37.5t-38.5 92.5q0 56 38.5 93t95.5 37q56 0 94 -37t38 -93q0 -55 -38 -92.5t-94 -37.5zM818 1319q-55 0 -93.5 37.5t-38.5 92.5q0 56 38.5 93t93.5 37q58 0 96 -37t38 -93t-38 -93t-96 -37zM1009 265q0 -62 19 -92t63 -44l-52 -156
q-170 19 -224 150q-58 -74 -148.5 -112.5t-196.5 -38.5q-163 0 -259 92t-96 244q0 171 133.5 263.5t380.5 92.5h154v70q0 197 -240 197q-121 0 -288 -57l-56 162q196 74 379 74q214 0 322.5 -94.5t108.5 -267.5v-483zM540 141q70 0 136 37.5t107 103.5v238h-127
q-301 0 -301 -202q0 -177 185 -177z" />
    <glyph glyph-name="aring" unicode="&#xe5;" 
d="M598 1718q110 0 180 -67t70 -165q0 -97 -70 -164.5t-180 -67.5q-109 0 -178.5 67.5t-69.5 164.5q0 98 69.5 165t178.5 67zM598 1596q-47 0 -74.5 -29t-27.5 -81t27.5 -81.5t74.5 -29.5q48 0 76 29t28 82q0 52 -28 81t-76 29zM1009 265q0 -62 19 -92t63 -44l-52 -156
q-170 19 -224 150q-58 -74 -148.5 -112.5t-196.5 -38.5q-163 0 -259 92t-96 244q0 171 133.5 263.5t380.5 92.5h154v70q0 197 -240 197q-121 0 -288 -57l-56 162q196 74 379 74q214 0 322.5 -94.5t108.5 -267.5v-483zM540 141q70 0 136 37.5t107 103.5v238h-127
q-301 0 -301 -202q0 -177 185 -177z" />
    <glyph glyph-name="ae" unicode="&#xe6;" 
d="M885 1110q352 0 352 -541q0 -59 -4 -98h-530q14 -169 66.5 -249t152.5 -80q53 0 96.5 18.5t97.5 57.5l95 -135q-136 -111 -298 -111q-108 0 -185 46.5t-134 141.5q-64 -102 -130 -145t-167 -43q-142 0 -225.5 92.5t-83.5 245.5q0 171 108.5 261.5t321.5 90.5h89v72
q0 211 -185 211q-51 0 -94.5 -12t-110.5 -42l-57 148q155 71 284 71q204 0 277 -167q35 79 102 123t162 44zM878 944q-83 0 -124 -72t-51 -250h337q-2 168 -37.5 245t-124.5 77zM507 521h-71q-124 0 -177.5 -51t-53.5 -148q0 -90 34.5 -138.5t95.5 -48.5q57 0 101.5 40.5
t88.5 126.5q-18 103 -18 219z" />
    <glyph glyph-name="ccedilla" unicode="&#xe7;" 
d="M703 161q132 0 267 94l106 -147q-65 -56 -152.5 -91.5t-181.5 -42.5v-84q99 -9 149 -59.5t50 -123.5q0 -99 -76.5 -156.5t-194.5 -57.5q-132 0 -225 55l64 118q66 -34 135 -34q117 0 117 77q0 47 -43.5 63.5t-137.5 16.5l16 191q-202 31 -314 179t-112 377
q0 253 142.5 413.5t387.5 160.5q218 0 375 -130l-105 -144q-132 90 -265 90q-134 0 -212.5 -97.5t-78.5 -292.5q0 -193 77.5 -284t211.5 -91z" />
    <glyph glyph-name="egrave" unicode="&#xe8;" 
d="M819 1274l-439 191l104 184l404 -254zM373 467q9 -159 89.5 -237.5t205.5 -78.5q140 0 283 94l100 -137q-77 -63 -179.5 -99.5t-215.5 -36.5q-248 0 -384.5 155t-136.5 413q0 163 58.5 291.5t172 203.5t263.5 75q216 0 341 -145t125 -396q0 -55 -5 -102h-717zM631 940
q-112 0 -180.5 -79.5t-78.5 -236.5h500q-3 153 -65 234.5t-176 81.5z" />
    <glyph glyph-name="eacute" unicode="&#xe9;" 
d="M799 1662l97 -184l-450 -181l-66 119zM373 467q9 -159 89.5 -237.5t205.5 -78.5q140 0 283 94l100 -137q-77 -63 -179.5 -99.5t-215.5 -36.5q-248 0 -384.5 155t-136.5 413q0 163 58.5 291.5t172 203.5t263.5 75q216 0 341 -145t125 -396q0 -55 -5 -102h-717zM631 940
q-112 0 -180.5 -79.5t-78.5 -236.5h500q-3 153 -65 234.5t-176 81.5z" />
    <glyph glyph-name="ecircumflex" unicode="&#xea;" 
d="M374 1275l-96 102l282 259h148l280 -259l-92 -102l-261 187zM373 467q9 -159 89.5 -237.5t205.5 -78.5q140 0 283 94l100 -137q-77 -63 -179.5 -99.5t-215.5 -36.5q-248 0 -384.5 155t-136.5 413q0 163 58.5 291.5t172 203.5t263.5 75q216 0 341 -145t125 -396
q0 -55 -5 -102h-717zM631 940q-112 0 -180.5 -79.5t-78.5 -236.5h500q-3 153 -65 234.5t-176 81.5z" />
    <glyph glyph-name="edieresis" unicode="&#xeb;" 
d="M412 1319q-57 0 -95.5 37.5t-38.5 92.5q0 56 38.5 93t95.5 37q56 0 94 -37t38 -93q0 -55 -38 -92.5t-94 -37.5zM853 1319q-55 0 -93.5 37.5t-38.5 92.5q0 56 38.5 93t93.5 37q57 0 95.5 -37t38.5 -93q0 -55 -38.5 -92.5t-95.5 -37.5zM373 467q9 -159 89.5 -237.5
t205.5 -78.5q140 0 283 94l100 -137q-77 -63 -179.5 -99.5t-215.5 -36.5q-248 0 -384.5 155t-136.5 413q0 163 58.5 291.5t172 203.5t263.5 75q216 0 341 -145t125 -396q0 -55 -5 -102h-717zM631 940q-112 0 -180.5 -79.5t-78.5 -236.5h500q-3 153 -65 234.5t-176 81.5z" />
    <glyph glyph-name="igrave" unicode="&#xec;" 
d="M802 1274l-441 191l106 184l403 -254zM773 1081v-913h294v-168h-847v168h324v745h-314v168h543z" />
    <glyph glyph-name="iacute" unicode="&#xed;" 
d="M780 1662l98 -184l-449 -181l-68 119zM773 1081v-913h294v-168h-847v168h324v745h-314v168h543z" />
    <glyph glyph-name="icircumflex" unicode="&#xee;" 
d="M356 1275l-96 102l283 259h146l281 -259l-92 -102l-262 187zM773 1081v-913h294v-168h-847v168h324v745h-314v168h543z" />
    <glyph glyph-name="idieresis" unicode="&#xef;" 
d="M394 1319q-58 0 -96 37t-38 93t38 93t96 37q56 0 94 -37t38 -93q0 -55 -38 -92.5t-94 -37.5zM836 1319q-56 0 -94.5 37.5t-38.5 92.5q0 56 38.5 93t94.5 37q57 0 95.5 -37t38.5 -93q0 -55 -38.5 -92.5t-95.5 -37.5zM773 1081v-913h294v-168h-847v168h324v745h-314v168
h543z" />
    <glyph glyph-name="eth" unicode="&#xf0;" 
d="M313 1158l148 155q-86 37 -219 64l48 164q188 -37 303 -91l145 153l127 -111l-120 -124q187 -125 275.5 -326.5t88.5 -491.5q0 -260 -136.5 -419t-369.5 -159q-137 0 -246.5 58.5t-175 175.5t-65.5 274q0 147 61 264t160 179.5t216 62.5q186 0 305 -127q-62 236 -248 372
l-143 -148zM877 539q0 64 -5 139q-47 66 -117.5 101t-155.5 35q-109 0 -179 -83t-70 -244q0 -166 68.5 -253t185.5 -87q131 0 202 100t71 292z" />
    <glyph glyph-name="ntilde" unicode="&#xf1;" 
d="M732 1330q-38 0 -74 15t-59 33t-50.5 33t-51.5 15q-35 0 -58.5 -22t-50.5 -71l-130 65q39 89 99 143.5t138 54.5q50 0 93.5 -24t78.5 -48t65 -24q31 0 55.5 21t52.5 68l129 -63q-40 -94 -101 -145t-136 -51zM182 0v1081h198l17 -140q67 81 158.5 125t190.5 44
q149 0 226 -84t77 -238v-788h-230v675q0 148 -30 204t-124 56q-73 0 -138.5 -45t-114.5 -114v-776h-230z" />
    <glyph glyph-name="ograve" unicode="&#xf2;" 
d="M801 1274l-441 191l106 184l403 -254zM615 1110q233 0 360.5 -152.5t127.5 -414.5q0 -261 -129 -416t-360 -155q-233 0 -360.5 152t-127.5 417q0 258 129 413.5t360 155.5zM615 932q-125 0 -186.5 -95.5t-61.5 -295.5t61 -295.5t186 -95.5t186.5 96t61.5 297
q0 198 -61.5 293.5t-185.5 95.5z" />
    <glyph glyph-name="oacute" unicode="&#xf3;" 
d="M780 1662l97 -184l-449 -181l-68 119zM615 1110q233 0 360.5 -152.5t127.5 -414.5q0 -261 -129 -416t-360 -155q-233 0 -360.5 152t-127.5 417q0 258 129 413.5t360 155.5zM615 932q-125 0 -186.5 -95.5t-61.5 -295.5t61 -295.5t186 -95.5t186.5 96t61.5 297
q0 198 -61.5 293.5t-185.5 95.5z" />
    <glyph glyph-name="ocircumflex" unicode="&#xf4;" 
d="M355 1275l-96 102l283 259h147l280 -259l-92 -102l-262 187zM615 1110q233 0 360.5 -152.5t127.5 -414.5q0 -261 -129 -416t-360 -155q-233 0 -360.5 152t-127.5 417q0 258 129 413.5t360 155.5zM615 932q-125 0 -186.5 -95.5t-61.5 -295.5t61 -295.5t186 -95.5t186.5 96
t61.5 297q0 198 -61.5 293.5t-185.5 95.5z" />
    <glyph glyph-name="otilde" unicode="&#xf5;" 
d="M732 1330q-48 0 -91.5 24t-79.5 48t-65 24q-34 0 -58.5 -22t-50.5 -71l-129 65q39 89 99 143.5t137 54.5q50 0 93.5 -24t78.5 -48t65 -24t55 21t54 68l129 -63q-40 -94 -101 -145t-136 -51zM615 1110q233 0 360.5 -152.5t127.5 -414.5q0 -261 -129 -416t-360 -155
q-233 0 -360.5 152t-127.5 417q0 258 129 413.5t360 155.5zM615 932q-125 0 -186.5 -95.5t-61.5 -295.5t61 -295.5t186 -95.5t186.5 96t61.5 297q0 198 -61.5 293.5t-185.5 95.5z" />
    <glyph glyph-name="odieresis" unicode="&#xf6;" 
d="M393 1319q-57 0 -95.5 37.5t-38.5 92.5q0 56 38.5 93t95.5 37q56 0 94 -37t38 -93q0 -55 -38 -92.5t-94 -37.5zM835 1319q-56 0 -94.5 37.5t-38.5 92.5q0 56 38.5 93t94.5 37q57 0 95.5 -37t38.5 -93q0 -55 -38.5 -92.5t-95.5 -37.5zM615 1110q233 0 360.5 -152.5
t127.5 -414.5q0 -261 -129 -416t-360 -155q-233 0 -360.5 152t-127.5 417q0 258 129 413.5t360 155.5zM615 932q-125 0 -186.5 -95.5t-61.5 -295.5t61 -295.5t186 -95.5t186.5 96t61.5 297q0 198 -61.5 293.5t-185.5 95.5z" />
    <glyph glyph-name="divide" unicode="&#xf7;" 
d="M614 1214q65 0 110.5 -45t45.5 -109t-45.5 -109t-110.5 -45t-110 44.5t-45 109.5q0 64 45 109t110 45zM1018 736v-185h-807v185h807zM614 383q65 0 110.5 -45t45.5 -109q0 -65 -45.5 -110.5t-110.5 -45.5t-110 45.5t-45 110.5q0 64 45 109t110 45z" />
    <glyph glyph-name="oslash" unicode="&#xf8;" 
d="M615 1110q48 0 87 -7l78 244l178 -53l-82 -253q110 -68 168.5 -196.5t58.5 -301.5q0 -261 -129 -416t-360 -155q-46 0 -88 6l-75 -250l-180 53l85 257q-111 68 -170.5 197.5t-59.5 305.5q0 258 129 413.5t360 155.5zM615 934q-126 0 -187.5 -96t-61.5 -297
q0 -247 78 -331l226 720q-32 4 -55 4zM863 543q0 241 -77 327l-224 -718q32 -4 52 -4q127 0 188 96t61 299z" />
    <glyph glyph-name="ugrave" unicode="&#xf9;" 
d="M801 1274l-441 191l106 184l403 -254zM412 1081v-755q0 -95 37.5 -137t116.5 -42q72 0 141 43t110 109v782h230v-1081h-198l-14 138q-59 -79 -151 -122.5t-190 -43.5q-155 0 -233.5 85t-78.5 240v784h230z" />
    <glyph glyph-name="uacute" unicode="&#xfa;" 
d="M780 1662l97 -184l-449 -181l-68 119zM412 1081v-755q0 -95 37.5 -137t116.5 -42q72 0 141 43t110 109v782h230v-1081h-198l-14 138q-59 -79 -151 -122.5t-190 -43.5q-155 0 -233.5 85t-78.5 240v784h230z" />
    <glyph glyph-name="ucircumflex" unicode="&#xfb;" 
d="M355 1275l-96 102l283 259h147l280 -259l-92 -102l-262 187zM412 1081v-755q0 -95 37.5 -137t116.5 -42q72 0 141 43t110 109v782h230v-1081h-198l-14 138q-59 -79 -151 -122.5t-190 -43.5q-155 0 -233.5 85t-78.5 240v784h230z" />
    <glyph glyph-name="udieresis" unicode="&#xfc;" 
d="M393 1319q-57 0 -95.5 37.5t-38.5 92.5q0 56 38.5 93t95.5 37q56 0 94 -37t38 -93q0 -55 -38 -92.5t-94 -37.5zM835 1319q-56 0 -94.5 37.5t-38.5 92.5q0 56 38.5 93t94.5 37q57 0 95.5 -37t38.5 -93q0 -55 -38.5 -92.5t-95.5 -37.5zM412 1081v-755q0 -95 37.5 -137
t116.5 -42q72 0 141 43t110 109v782h230v-1081h-198l-14 138q-59 -79 -151 -122.5t-190 -43.5q-155 0 -233.5 85t-78.5 240v784h230z" />
    <glyph glyph-name="yacute" unicode="&#xfd;" 
d="M780 1662l97 -184l-449 -181l-68 119zM1128 1081l-372 -1085q-33 -96 -76 -169t-106 -131.5t-150 -93t-198 -44.5l-29 172q81 13 137.5 34t96 55.5t64.5 76t48 104.5h-78l-365 1081h244l272 -921l277 921h235z" />
    <glyph glyph-name="thorn" unicode="&#xfe;" 
d="M412 1541v-584q117 153 298 153q393 0 393 -567q0 -168 -46.5 -295t-141.5 -201.5t-229 -74.5q-169 0 -274 120v-508l-230 -25v1957zM646 933q-133 0 -234 -155v-506q80 -120 214 -120q118 0 177 95t59 295q0 205 -53 298t-163 93z" />
    <glyph glyph-name="ydieresis" unicode="&#xff;" 
d="M393 1319q-57 0 -95.5 37.5t-38.5 92.5q0 56 38.5 93t95.5 37q56 0 94 -37t38 -93q0 -55 -38 -92.5t-94 -37.5zM835 1319q-56 0 -94.5 37.5t-38.5 92.5q0 56 38.5 93t94.5 37q57 0 95.5 -37t38.5 -93q0 -55 -38.5 -92.5t-95.5 -37.5zM1128 1081l-372 -1085
q-33 -96 -76 -169t-106 -131.5t-150 -93t-198 -44.5l-29 172q81 13 137.5 34t96 55.5t64.5 76t48 104.5h-78l-365 1081h244l272 -921l277 921h235z" />
    <glyph glyph-name="Amacron" unicode="&#x100;" 
d="M903 1619h-578v167h578v-167zM862 340h-505l-98 -340h-242l450 1413h295l450 -1413h-251zM407 523h405l-202 706z" />
    <glyph glyph-name="amacron" unicode="&#x101;" 
d="M888 1370h-580v167h580v-167zM1009 265q0 -62 19 -92t63 -44l-52 -156q-170 19 -224 150q-58 -74 -148.5 -112.5t-196.5 -38.5q-163 0 -259 92t-96 244q0 171 133.5 263.5t380.5 92.5h154v70q0 197 -240 197q-121 0 -288 -57l-56 162q196 74 379 74q214 0 322.5 -94.5
t108.5 -267.5v-483zM540 141q70 0 136 37.5t107 103.5v238h-127q-301 0 -301 -202q0 -177 185 -177z" />
    <glyph glyph-name="Abreve" unicode="&#x102;" 
d="M611 1548q-134 0 -220.5 75.5t-100.5 196.5l142 27q44 -131 179 -131q139 0 185 131l141 -27q-13 -121 -101.5 -196.5t-224.5 -75.5zM862 340h-505l-98 -340h-242l450 1413h295l450 -1413h-251zM407 523h405l-202 706z" />
    <glyph glyph-name="abreve" unicode="&#x103;" 
d="M596 1276q-73 0 -133 27t-98.5 72.5t-61.5 98.5t-29 110l142 28q48 -170 180 -170q70 0 116 45.5t67 124.5l143 -28q-6 -57 -29.5 -110t-63 -98t-100 -72.5t-133.5 -27.5zM1009 265q0 -62 19 -92t63 -44l-52 -156q-170 19 -224 150q-58 -74 -148.5 -112.5t-196.5 -38.5
q-163 0 -259 92t-96 244q0 171 133.5 263.5t380.5 92.5h154v70q0 197 -240 197q-121 0 -288 -57l-56 162q196 74 379 74q214 0 322.5 -94.5t108.5 -267.5v-483zM540 141q70 0 136 37.5t107 103.5v238h-127q-301 0 -301 -202q0 -177 185 -177z" />
    <glyph glyph-name="Aogonek" unicode="&#x104;" 
d="M862 340h-505l-98 -340h-242l450 1413h295l450 -1413h-113q-143 -58 -195 -112.5t-52 -118.5q0 -99 116 -99q54 0 121 15l-21 -158q-67 -15 -127 -15q-121 0 -196 61t-75 160q0 104 69.5 177.5t209.5 128.5zM407 523h405l-202 706z" />
    <glyph glyph-name="aogonek" unicode="&#x105;" 
d="M1009 265q0 -62 19 -92t63 -44l-52 -156q-142 -58 -194 -112t-52 -118q0 -99 115 -99q51 0 121 14l-20 -158q-67 -15 -127 -15q-122 0 -197 61t-75 160q0 106 73 180.5t219 130.5q-59 37 -87 106q-58 -74 -148.5 -112.5t-196.5 -38.5q-163 0 -259 92t-96 244
q0 171 133.5 263.5t380.5 92.5h154v70q0 197 -240 197q-121 0 -288 -57l-56 162q196 74 379 74q214 0 322.5 -94.5t108.5 -267.5v-483zM540 141q70 0 136 37.5t107 103.5v238h-127q-301 0 -301 -202q0 -177 185 -177z" />
    <glyph glyph-name="Cacute" unicode="&#x106;" 
d="M910 1891l95 -182l-456 -165l-57 119zM733 1442q137 0 236.5 -35.5t189.5 -109.5l-124 -147q-125 104 -291 104q-66 0 -122.5 -18t-106.5 -59t-85.5 -103t-56 -155t-20.5 -210q0 -143 29.5 -249.5t83 -170t123 -94t155.5 -30.5q103 0 176.5 32.5t144.5 89.5l115 -147
q-172 -168 -444 -168q-135 0 -250 48.5t-199.5 140t-132.5 232t-48 316.5q0 174 49.5 314.5t135 231t199 139t243.5 48.5z" />
    <glyph glyph-name="cacute" unicode="&#x107;" 
d="M870 1640l97 -183l-449 -181l-67 120zM703 161q132 0 267 94l106 -147q-73 -62 -174 -99t-206 -37q-247 0 -386.5 153t-139.5 411q0 253 142.5 413.5t387.5 160.5q218 0 375 -130l-105 -144q-132 90 -265 90q-134 0 -212.5 -97.5t-78.5 -292.5q0 -193 77.5 -284
t211.5 -91z" />
    <glyph glyph-name="Ccircumflex" unicode="&#x108;" 
d="M819 1890l281 -238l-90 -104l-265 168l-263 -168l-92 104l283 238h146zM733 1442q137 0 236.5 -35.5t189.5 -109.5l-124 -147q-125 104 -291 104q-66 0 -122.5 -18t-106.5 -59t-85.5 -103t-56 -155t-20.5 -210q0 -143 29.5 -249.5t83 -170t123 -94t155.5 -30.5
q103 0 176.5 32.5t144.5 89.5l115 -147q-172 -168 -444 -168q-135 0 -250 48.5t-199.5 140t-132.5 232t-48 316.5q0 174 49.5 314.5t135 231t199 139t243.5 48.5z" />
    <glyph glyph-name="ccircumflex" unicode="&#x109;" 
d="M445 1253l-96 104l283 259h147l280 -259l-92 -104l-261 189zM703 161q132 0 267 94l106 -147q-73 -62 -174 -99t-206 -37q-247 0 -386.5 153t-139.5 411q0 253 142.5 413.5t387.5 160.5q218 0 375 -130l-105 -144q-132 90 -265 90q-134 0 -212.5 -97.5t-78.5 -292.5
q0 -193 77.5 -284t211.5 -91z" />
    <glyph glyph-name="Cdotaccent" unicode="&#x10a;" 
d="M743 1861q67 0 109.5 -41t42.5 -103q0 -63 -42.5 -104.5t-109.5 -41.5q-65 0 -107 41.5t-42 104.5q0 61 42 102.5t107 41.5zM733 1442q137 0 236.5 -35.5t189.5 -109.5l-124 -147q-125 104 -291 104q-66 0 -122.5 -18t-106.5 -59t-85.5 -103t-56 -155t-20.5 -210
q0 -143 29.5 -249.5t83 -170t123 -94t155.5 -30.5q103 0 176.5 32.5t144.5 89.5l115 -147q-172 -168 -444 -168q-135 0 -250 48.5t-199.5 140t-132.5 232t-48 316.5q0 174 49.5 314.5t135 231t199 139t243.5 48.5z" />
    <glyph glyph-name="cdotaccent" unicode="&#x10b;" 
d="M703 1590q66 0 108.5 -41t42.5 -102q0 -63 -42.5 -105t-108.5 -42t-108 42t-42 105q0 61 42 102t108 41zM703 161q132 0 267 94l106 -147q-73 -62 -174 -99t-206 -37q-247 0 -386.5 153t-139.5 411q0 253 142.5 413.5t387.5 160.5q218 0 375 -130l-105 -144
q-132 90 -265 90q-134 0 -212.5 -97.5t-78.5 -292.5q0 -193 77.5 -284t211.5 -91z" />
    <glyph glyph-name="Ccaron" unicode="&#x10c;" 
d="M1010 1884l90 -103l-281 -239h-146l-283 239l92 103l263 -168zM733 1442q137 0 236.5 -35.5t189.5 -109.5l-124 -147q-125 104 -291 104q-66 0 -122.5 -18t-106.5 -59t-85.5 -103t-56 -155t-20.5 -210q0 -143 29.5 -249.5t83 -170t123 -94t155.5 -30.5q103 0 176.5 32.5
t144.5 89.5l115 -147q-172 -168 -444 -168q-135 0 -250 48.5t-199.5 140t-132.5 232t-48 316.5q0 174 49.5 314.5t135 231t199 139t243.5 48.5z" />
    <glyph glyph-name="ccaron" unicode="&#x10d;" 
d="M967 1616l92 -104l-280 -259h-147l-283 259l96 104l261 -189zM703 161q132 0 267 94l106 -147q-73 -62 -174 -99t-206 -37q-247 0 -386.5 153t-139.5 411q0 253 142.5 413.5t387.5 160.5q218 0 375 -130l-105 -144q-132 90 -265 90q-134 0 -212.5 -97.5t-78.5 -292.5
q0 -193 77.5 -284t211.5 -91z" />
    <glyph glyph-name="Dcaron" unicode="&#x10e;" 
d="M848 1884l90 -103l-281 -239h-146l-283 239l93 103l263 -168zM1149 714q0 -169 -39 -298.5t-100.5 -206.5t-150 -125.5t-176.5 -66t-190 -17.5h-347v1413h323q78 0 146 -8t138.5 -28.5t127.5 -54t108 -87.5t85.5 -126t54.5 -172t20 -223zM899 714q0 130 -22.5 226
t-58 151t-88.5 87.5t-103 42.5t-113 10h-130v-1051h131q384 0 384 534z" />
    <glyph glyph-name="dcaron" unicode="&#x10f;" 
d="M1113 1542l205 -23l-128 -407l-136 22zM751 1541l229 -25v-1516h-202l-16 133q-115 -161 -304 -161q-202 0 -304.5 152.5t-102.5 416.5q0 165 50.5 293t148 202t228.5 74q166 0 273 -118v549zM539 934q-119 0 -182 -97.5t-63 -295.5q0 -393 224 -393q135 0 233 154v512
q-84 120 -212 120z" />
    <glyph glyph-name="Dcroat" unicode="&#x110;" 
d="M1170 714q0 -122 -20 -223.5t-54.5 -174.5t-84.5 -129t-105.5 -91t-123 -57t-131.5 -30.5t-136 -8.5h-346v642h-136v162h136v609h323q78 0 145.5 -8t138 -28.5t127 -54t108 -87.5t85.5 -126t54 -172t20 -223zM700 804v-162h-293v-462h131q384 0 384 534q0 130 -23 226
t-58 151t-88.5 87.5t-103 42.5t-112.5 10h-130v-427h293z" />
    <glyph glyph-name="dcroat" unicode="&#x111;" 
d="M1035 1377h163v-156h-163v-1221h-202l-17 133q-115 -161 -303 -161q-202 0 -304.5 152.5t-102.5 416.5q0 251 115.5 410t312.5 159q165 0 272 -118v229h-312v156h312v164l229 -25v-139zM594 934q-119 0 -182 -97.5t-63 -295.5q0 -393 224 -393q135 0 233 154v512
q-84 120 -212 120z" />
    <glyph glyph-name="Emacron" unicode="&#x112;" 
d="M945 1619h-578v167h578v-167zM469 1233v-425h512v-180h-512v-448h624v-180h-862v1413h850l-26 -180h-586z" />
    <glyph glyph-name="emacron" unicode="&#x113;" 
d="M922 1370h-579v167h579v-167zM373 467q9 -159 89.5 -237.5t205.5 -78.5q140 0 283 94l100 -137q-77 -63 -179.5 -99.5t-215.5 -36.5q-248 0 -384.5 155t-136.5 413q0 163 58.5 291.5t172 203.5t263.5 75q216 0 341 -145t125 -396q0 -55 -5 -102h-717zM631 940
q-112 0 -180.5 -79.5t-78.5 -236.5h500q-3 153 -65 234.5t-176 81.5z" />
    <glyph glyph-name="Ebreve" unicode="&#x114;" 
d="M654 1548q-135 0 -221.5 75.5t-99.5 196.5l141 27q44 -131 180 -131q140 0 184 131l141 -27q-12 -121 -100.5 -196.5t-224.5 -75.5zM469 1233v-425h512v-180h-512v-448h624v-180h-862v1413h850l-26 -180h-586z" />
    <glyph glyph-name="ebreve" unicode="&#x115;" 
d="M630 1276q-72 0 -132 27t-98.5 72.5t-61.5 98.5t-29 110l142 28q48 -170 179 -170q70 0 116.5 45.5t67.5 124.5l142 -28q-6 -57 -29.5 -110t-62.5 -98t-100 -72.5t-134 -27.5zM373 467q9 -159 89.5 -237.5t205.5 -78.5q140 0 283 94l100 -137q-77 -63 -179.5 -99.5
t-215.5 -36.5q-248 0 -384.5 155t-136.5 413q0 163 58.5 291.5t172 203.5t263.5 75q216 0 341 -145t125 -396q0 -55 -5 -102h-717zM631 940q-112 0 -180.5 -79.5t-78.5 -236.5h500q-3 153 -65 234.5t-176 81.5z" />
    <glyph glyph-name="Edotaccent" unicode="&#x116;" 
d="M655 1861q66 0 108.5 -41.5t42.5 -102.5q0 -63 -42.5 -104.5t-108.5 -41.5t-107.5 41.5t-41.5 104.5q0 62 41.5 103t107.5 41zM469 1233v-425h512v-180h-512v-448h624v-180h-862v1413h850l-26 -180h-586z" />
    <glyph glyph-name="edotaccent" unicode="&#x117;" 
d="M632 1611q66 0 108 -41t42 -103q0 -63 -42 -104t-108 -41t-108 41t-42 104q0 62 42 103t108 41zM373 467q9 -159 89.5 -237.5t205.5 -78.5q140 0 283 94l100 -137q-77 -63 -179.5 -99.5t-215.5 -36.5q-248 0 -384.5 155t-136.5 413q0 163 58.5 291.5t172 203.5t263.5 75
q216 0 341 -145t125 -396q0 -55 -5 -102h-717zM631 940q-112 0 -180.5 -79.5t-78.5 -236.5h500q-3 153 -65 234.5t-176 81.5z" />
    <glyph glyph-name="Eogonek" unicode="&#x118;" 
d="M469 1233v-425h512v-180h-512v-448h624v-180h-136q-142 -58 -194 -112.5t-52 -118.5q0 -99 116 -99q53 0 121 15l-21 -158q-65 -15 -126 -15q-122 0 -197 61t-75 160q0 166 193 267h-491v1413h850l-26 -180h-586z" />
    <glyph glyph-name="eogonek" unicode="&#x119;" 
d="M373 467q9 -159 89.5 -237.5t205.5 -78.5q140 0 283 94l100 -137q-88 -73 -208 -109q-141 -58 -193 -112t-52 -118q0 -99 117 -99q53 0 121 15l-22 -158q-65 -15 -126 -15q-121 0 -196 61t-75 160q0 152 175 242q-218 21 -337.5 173t-119.5 392q0 163 58.5 291.5
t172 203.5t263.5 75q216 0 341 -145t125 -396q0 -55 -5 -102h-717zM631 940q-112 0 -180.5 -79.5t-78.5 -236.5h500q-3 153 -65 234.5t-176 81.5z" />
    <glyph glyph-name="Ecaron" unicode="&#x11a;" 
d="M921 1884l91 -103l-281 -239h-147l-283 239l93 103l262 -168zM469 1233v-425h512v-180h-512v-448h624v-180h-862v1413h850l-26 -180h-586z" />
    <glyph glyph-name="ecaron" unicode="&#x11b;" 
d="M896 1636l92 -102l-280 -259h-148l-282 259l96 102l261 -188zM373 467q9 -159 89.5 -237.5t205.5 -78.5q140 0 283 94l100 -137q-77 -63 -179.5 -99.5t-215.5 -36.5q-248 0 -384.5 155t-136.5 413q0 163 58.5 291.5t172 203.5t263.5 75q216 0 341 -145t125 -396
q0 -55 -5 -102h-717zM631 940q-112 0 -180.5 -79.5t-78.5 -236.5h500q-3 153 -65 234.5t-176 81.5z" />
    <glyph glyph-name="Gcircumflex" unicode="&#x11c;" 
d="M751 1890l279 -238l-90 -104l-264 168l-262 -168l-93 104l282 238h148zM651 -28q-274 0 -424.5 188t-150.5 549q0 142 32.5 262t89.5 205.5t135 146t168.5 90t190.5 29.5q137 0 234.5 -40.5t186.5 -122.5l-133 -138q-125 115 -282 115q-62 0 -115.5 -17.5t-101.5 -58.5
t-82 -103t-54 -156.5t-20 -212.5q0 -291 83 -420.5t255 -129.5q124 0 233 59v389h-240l-25 181h495v-685q-227 -130 -475 -130z" />
    <glyph glyph-name="gcircumflex" unicode="&#x11d;" 
d="M347 1275l-96 102l283 259h147l281 -259l-93 -102l-261 187zM1093 1219l61 -191q-107 -36 -314 -36q195 -86 195 -274q0 -162 -115 -264t-311 -102q-83 0 -148 18q-22 -14 -35 -38.5t-13 -50.5q0 -81 135 -81h188q172 0 283 -85.5t111 -215.5q0 -163 -139.5 -251.5
t-400.5 -88.5q-111 0 -193 14t-137.5 40t-89 67.5t-48 92.5t-14.5 119h205q0 -61 22 -95t83.5 -52.5t173.5 -18.5q163 0 235.5 39.5t72.5 117.5q0 65 -57 101t-154 36h-185q-146 0 -221 59t-75 149q0 55 31.5 106.5t89.5 89.5q-97 51 -142 124t-45 178q0 171 126 277
t326 106q94 0 167.5 7.5t134 24.5t100 33.5t97.5 44.5zM596 951q-107 0 -163.5 -60.5t-56.5 -162.5q0 -104 57.5 -165t165.5 -61q101 0 155 59t54 169q0 221 -212 221z" />
    <glyph glyph-name="Gbreve" unicode="&#x11e;" 
d="M673 1548q-134 0 -221 75.5t-101 196.5l143 27q44 -131 179 -131q138 0 184 131l141 -27q-13 -121 -101 -196.5t-224 -75.5zM651 -28q-274 0 -424.5 188t-150.5 549q0 142 32.5 262t89.5 205.5t135 146t168.5 90t190.5 29.5q137 0 234.5 -40.5t186.5 -122.5l-133 -138
q-125 115 -282 115q-62 0 -115.5 -17.5t-101.5 -58.5t-82 -103t-54 -156.5t-20 -212.5q0 -291 83 -420.5t255 -129.5q124 0 233 59v389h-240l-25 181h495v-685q-227 -130 -475 -130z" />
    <glyph glyph-name="gbreve" unicode="&#x11f;" 
d="M604 1276q-73 0 -133 27t-98 72.5t-61 98.5t-29 110l141 28q48 -170 180 -170q69 0 115.5 45.5t67.5 124.5l143 -28q-6 -57 -29.5 -110t-63 -98t-100 -72.5t-133.5 -27.5zM1093 1219l61 -191q-107 -36 -314 -36q195 -86 195 -274q0 -162 -115 -264t-311 -102
q-83 0 -148 18q-22 -14 -35 -38.5t-13 -50.5q0 -81 135 -81h188q172 0 283 -85.5t111 -215.5q0 -163 -139.5 -251.5t-400.5 -88.5q-111 0 -193 14t-137.5 40t-89 67.5t-48 92.5t-14.5 119h205q0 -61 22 -95t83.5 -52.5t173.5 -18.5q163 0 235.5 39.5t72.5 117.5
q0 65 -57 101t-154 36h-185q-146 0 -221 59t-75 149q0 55 31.5 106.5t89.5 89.5q-97 51 -142 124t-45 178q0 171 126 277t326 106q94 0 167.5 7.5t134 24.5t100 33.5t97.5 44.5zM596 951q-107 0 -163.5 -60.5t-56.5 -162.5q0 -104 57.5 -165t165.5 -61q101 0 155 59t54 169
q0 221 -212 221z" />
    <glyph glyph-name="Gdotaccent" unicode="&#x120;" 
d="M675 1861q66 0 108 -41t42 -103q0 -63 -42 -104.5t-108 -41.5t-108.5 41.5t-42.5 104.5q0 61 42.5 102.5t108.5 41.5zM651 -28q-274 0 -424.5 188t-150.5 549q0 142 32.5 262t89.5 205.5t135 146t168.5 90t190.5 29.5q137 0 234.5 -40.5t186.5 -122.5l-133 -138
q-125 115 -282 115q-62 0 -115.5 -17.5t-101.5 -58.5t-82 -103t-54 -156.5t-20 -212.5q0 -291 83 -420.5t255 -129.5q124 0 233 59v389h-240l-25 181h495v-685q-227 -130 -475 -130z" />
    <glyph glyph-name="gdotaccent" unicode="&#x121;" 
d="M605 1611q66 0 108.5 -41.5t42.5 -102.5q0 -63 -42.5 -104t-108.5 -41t-107.5 41t-41.5 104q0 62 41.5 103t107.5 41zM1093 1219l61 -191q-107 -36 -314 -36q195 -86 195 -274q0 -162 -115 -264t-311 -102q-83 0 -148 18q-22 -14 -35 -38.5t-13 -50.5q0 -81 135 -81h188
q172 0 283 -85.5t111 -215.5q0 -163 -139.5 -251.5t-400.5 -88.5q-111 0 -193 14t-137.5 40t-89 67.5t-48 92.5t-14.5 119h205q0 -61 22 -95t83.5 -52.5t173.5 -18.5q163 0 235.5 39.5t72.5 117.5q0 65 -57 101t-154 36h-185q-146 0 -221 59t-75 149q0 55 31.5 106.5
t89.5 89.5q-97 51 -142 124t-45 178q0 171 126 277t326 106q94 0 167.5 7.5t134 24.5t100 33.5t97.5 44.5zM596 951q-107 0 -163.5 -60.5t-56.5 -162.5q0 -104 57.5 -165t165.5 -61q101 0 155 59t54 169q0 221 -212 221z" />
    <glyph glyph-name="uni0122" unicode="&#x122;" 
d="M651 -28q-274 0 -424.5 188t-150.5 549q0 142 32.5 262t89.5 205.5t135 146t168.5 90t190.5 29.5q137 0 234.5 -40.5t186.5 -122.5l-133 -138q-125 115 -282 115q-62 0 -115.5 -17.5t-101.5 -58.5t-82 -103t-54 -156.5t-20 -212.5q0 -291 83 -420.5t255 -129.5
q124 0 233 59v389h-240l-25 181h495v-685q-227 -130 -475 -130zM679 -140q55 0 92 -36.5t37 -91.5q0 -57 -38 -134l-100 -211h-127l58 237q-53 43 -53 108q0 54 37.5 91t93.5 37z" />
    <glyph glyph-name="uni0123" unicode="&#x123;" 
d="M602 1222q-55 0 -92.5 36.5t-37.5 91.5q0 53 38 134l101 212h127l-58 -239q53 -41 53 -107q0 -54 -38 -91t-93 -37zM1093 1219l61 -191q-107 -36 -314 -36q195 -86 195 -274q0 -162 -115 -264t-311 -102q-83 0 -148 18q-22 -14 -35 -38.5t-13 -50.5q0 -81 135 -81h188
q172 0 283 -85.5t111 -215.5q0 -163 -139.5 -251.5t-400.5 -88.5q-111 0 -193 14t-137.5 40t-89 67.5t-48 92.5t-14.5 119h205q0 -61 22 -95t83.5 -52.5t173.5 -18.5q163 0 235.5 39.5t72.5 117.5q0 65 -57 101t-154 36h-185q-146 0 -221 59t-75 149q0 55 31.5 106.5
t89.5 89.5q-97 51 -142 124t-45 178q0 171 126 277t326 106q94 0 167.5 7.5t134 24.5t100 33.5t97.5 44.5zM596 951q-107 0 -163.5 -60.5t-56.5 -162.5q0 -104 57.5 -165t165.5 -61q101 0 155 59t54 169q0 221 -212 221z" />
    <glyph glyph-name="Hcircumflex" unicode="&#x124;" 
d="M689 1890l280 -238l-90 -104l-265 168l-262 -168l-93 104l283 238h147zM845 0v642h-461v-642h-238v1413h238v-575h461v575h237v-1413h-237z" />
    <glyph glyph-name="hcircumflex" unicode="&#x125;" 
d="M689 1992l280 -239l-90 -103l-265 168l-262 -168l-93 103l283 239h147zM412 1538v-589q64 78 151.5 119.5t182.5 41.5q151 0 227 -83.5t76 -238.5v-788h-230v753q0 97 -36 139.5t-119 42.5q-72 0 -138 -46t-114 -116v-773h-230v1513z" />
    <glyph glyph-name="Hbar" unicode="&#x126;" 
d="M1225 1191v-156h-146v-1035h-237v645h-455v-645h-237v1035h-146v156h146v222h237v-222h455v222h237v-222h146zM387 836h455v199h-455v-199z" />
    <glyph glyph-name="hbar" unicode="&#x127;" 
d="M735 1377v-156h-323v-272q64 78 151.5 119.5t182.5 41.5q151 0 227 -83.5t76 -238.5v-788h-230v753q0 97 -36 139.5t-119 42.5q-72 0 -138 -46t-114 -116v-773h-230v1221h-151v156h151v136l230 25v-161h323z" />
    <glyph glyph-name="Itilde" unicode="&#x128;" 
d="M732 1579q-48 0 -91.5 24t-79.5 48t-65 24q-34 0 -58.5 -22t-50.5 -71l-129 66q39 89 99 143t137 54q40 0 76.5 -15t59 -32.5t50 -32.5t51.5 -15q30 0 55 21t54 68l129 -64q-40 -94 -101 -145t-136 -51zM1039 1413v-181h-305v-1050h305v-182h-850v182h306v1050h-306v181
h850z" />
    <glyph glyph-name="itilde" unicode="&#x129;" 
d="M733 1330q-38 0 -74 15t-59.5 33t-51 33t-51.5 15q-34 0 -58.5 -22t-50.5 -71l-130 65q40 89 100 143.5t137 54.5q50 0 93.5 -24t78.5 -48t65 -24t55 21t54 68l129 -63q-40 -94 -101 -145t-136 -51zM773 1081v-913h294v-168h-847v168h324v745h-314v168h543z" />
    <glyph glyph-name="Imacron" unicode="&#x12a;" 
d="M903 1619h-578v167h578v-167zM1039 1413v-181h-305v-1050h305v-182h-850v182h306v1050h-306v181h850z" />
    <glyph glyph-name="imacron" unicode="&#x12b;" 
d="M904 1370h-579v167h579v-167zM773 1081v-913h294v-168h-847v168h324v745h-314v168h543z" />
    <glyph glyph-name="Ibreve" unicode="&#x12c;" 
d="M611 1548q-134 0 -220.5 75.5t-100.5 196.5l142 27q44 -131 179 -131q139 0 185 131l141 -27q-13 -121 -101.5 -196.5t-224.5 -75.5zM1039 1413v-181h-305v-1050h305v-182h-850v182h306v1050h-306v181h850z" />
    <glyph glyph-name="ibreve" unicode="&#x12d;" 
d="M612 1276q-73 0 -132.5 27t-97.5 72.5t-61 98.5t-29 110l141 28q46 -170 179 -170q70 0 116.5 45.5t68.5 124.5l141 -28q-6 -57 -29.5 -110t-63 -98t-100 -72.5t-133.5 -27.5zM773 1081v-913h294v-168h-847v168h324v745h-314v168h543z" />
    <glyph glyph-name="Iogonek" unicode="&#x12e;" 
d="M1039 1413v-181h-305v-1050h305v-182h-305q-143 -58 -195 -112.5t-52 -118.5q0 -99 116 -99q53 0 121 15l-21 -158q-67 -15 -126 -15q-122 0 -197 61t-75 160q0 166 193 267h-309v182h306v1050h-306v181h850z" />
    <glyph glyph-name="iogonek" unicode="&#x12f;" 
d="M613 1611q67 0 109.5 -41t42.5 -103q0 -63 -42.5 -104t-109.5 -41q-66 0 -107.5 41t-41.5 104q0 61 42 102.5t107 41.5zM773 1081v-913h294v-168h-294q-142 -58 -194.5 -112.5t-52.5 -118.5q0 -99 116 -99q54 0 121 15l-21 -158q-65 -15 -126 -15q-122 0 -197 61t-75 160
q0 87 48.5 151.5t145.5 115.5h-318v168h324v745h-314v168h543z" />
    <glyph glyph-name="Idotaccent" unicode="&#x130;" 
d="M613 1861q66 0 108.5 -41.5t42.5 -102.5q0 -63 -42.5 -104.5t-108.5 -41.5t-108 41.5t-42 104.5q0 62 42 103t108 41zM1039 1413v-181h-305v-1050h305v-182h-850v182h306v1050h-306v181h850z" />
    <glyph glyph-name="dotlessi" unicode="&#x131;" 
d="M773 1081v-913h294v-168h-847v168h324v745h-314v168h543z" />
    <glyph glyph-name="IJ" unicode="&#x132;" 
d="M388 -146q118 15 204 45.5t140.5 73.5t86.5 105.5t44.5 132t12.5 162.5v870h-441v-1073h143v-170h-558v170h185v1073h-185v170h1089v-1041q0 -108 -19.5 -198t-68.5 -173.5t-126.5 -145t-198.5 -106.5t-280 -63z" />
    <glyph glyph-name="ij" unicode="&#x133;" 
d="M376 1611q65 0 108 -41.5t43 -102.5q0 -63 -42.5 -104t-108.5 -41t-108 41t-42 104q0 61 42.5 102.5t107.5 41.5zM924 1611q65 0 108 -41.5t43 -102.5q0 -63 -42.5 -104t-108.5 -41t-108 41t-42 104q0 61 42.5 102.5t107.5 41.5zM1059 1081v-917q0 -102 -27 -186
t-74 -147t-119 -115t-153 -88.5t-184 -68.5l-73 173q75 26 128.5 49.5t109 59.5t89.5 77t56 99.5t22 129.5v769h-349v-748h162v-168h-558v168h172v748h-162v165h960z" />
    <glyph glyph-name="Jcircumflex" unicode="&#x134;" 
d="M793 1890l280 -238l-91 -104l-264 168l-262 -168l-94 104l283 238h148zM1040 1413v-929q0 -105 -29.5 -194.5t-89 -162t-161 -113.5t-235.5 -41q-222 0 -402 130l97 152q144 -94 296 -94q134 0 211 85.5t77 242.5v742h-425v182h661z" />
    <glyph glyph-name="jcircumflex" unicode="&#x135;" 
d="M496 1275l-97 102l283 259h147l281 -259l-92 -102l-261 187zM933 1081v-854q0 -149 -46.5 -262t-141 -192.5t-224.5 -130.5t-308 -83l-37 176q128 24 220 58.5t163.5 89.5t107.5 137t36 192v701h-427v168h657z" />
    <glyph glyph-name="uni0136" unicode="&#x136;" 
d="M417 0h-238v1413h238v-1413zM427 755l492 658h261l-495 -642l534 -771h-285zM648 -140q55 0 92.5 -36.5t37.5 -91.5q0 -57 -38 -134l-101 -211h-126l57 237q-53 44 -53 108q0 54 38 91t93 37z" />
    <glyph glyph-name="uni0137" unicode="&#x137;" 
d="M419 1541v-1541h-230v1516zM1135 1081l-438 -483l484 -598h-281l-465 592l432 489h268zM626 -140q55 0 92.5 -36.5t37.5 -91.5q0 -57 -38 -134l-102 -211h-127l59 237q-53 43 -53 108q0 54 38 91t93 37z" />
    <glyph glyph-name="kgreenlandic" unicode="&#x138;" 
d="M1127 1081l-440 -492l487 -589h-281l-465 573l432 508h267zM412 1081v-1081h-230v1081h230z" />
    <glyph glyph-name="Lacute" unicode="&#x139;" 
d="M529 1891l95 -182l-456 -165l-57 119zM245 0v1413h237v-1214h633l-25 -199h-845z" />
    <glyph glyph-name="lacute" unicode="&#x13a;" 
d="M701 2095l97 -184l-449 -180l-67 119zM657 1516v-1221q0 -137 164 -137q84 0 171 36l59 -160q-122 -62 -279 -62q-163 0 -253.5 91.5t-90.5 251.5v1032h-327v169h556z" />
    <glyph glyph-name="uni013B" unicode="&#x13b;" 
d="M245 0v1413h237v-1214h633l-25 -199h-845zM673 -140q55 0 92.5 -36.5t37.5 -91.5q0 -57 -38 -134l-101 -211h-126l57 237q-53 44 -53 108q0 54 38 91t93 37z" />
    <glyph glyph-name="uni013C" unicode="&#x13c;" 
d="M657 1516v-1221q0 -137 164 -137q84 0 171 36l59 -160q-122 -62 -279 -62q-163 0 -253.5 91.5t-90.5 251.5v1032h-327v169h556zM738 -140q55 0 92.5 -36.5t37.5 -91.5q0 -57 -38 -134l-101 -211h-127l58 237q-53 43 -53 108q0 54 38 91t93 37z" />
    <glyph glyph-name="Lcaron" unicode="&#x13d;" 
d="M663 1441l203 -24l-128 -406l-136 20zM245 0v1413h237v-1214h633l-25 -199h-845z" />
    <glyph glyph-name="lcaron" unicode="&#x13e;" 
d="M811 1542l204 -23l-127 -407l-137 22zM657 1516v-1221q0 -137 164 -137q84 0 171 36l59 -160q-122 -62 -279 -62q-163 0 -253.5 91.5t-90.5 251.5v1032h-327v169h556z" />
    <glyph glyph-name="Ldot" unicode="&#x13f;" 
d="M245 0v1413h237v-1214h633l-25 -199h-845zM962 924q66 0 108 -41t42 -103q0 -63 -42 -104t-108 -41t-108.5 41t-42.5 104q0 61 42.5 102.5t108.5 41.5z" />
    <glyph glyph-name="ldot" unicode="&#x140;" 
d="M657 1516v-1221q0 -137 164 -137q84 0 171 36l59 -160q-122 -62 -279 -62q-163 0 -253.5 91.5t-90.5 251.5v1032h-327v169h556zM1153 927q67 0 109.5 -41t42.5 -103q0 -63 -42.5 -104.5t-109.5 -41.5q-65 0 -107 41.5t-42 104.5q0 61 42 102.5t107 41.5z" />
    <glyph glyph-name="Lslash" unicode="&#x141;" 
d="M254 0v519l-109 -67l-87 139l196 121v701h238v-554l305 190l89 -138l-394 -244v-468h632l-25 -199h-845z" />
    <glyph glyph-name="lslash" unicode="&#x142;" 
d="M428 779v568h-327v169h556v-594l165 101l89 -138l-254 -156v-434q0 -137 164 -137q84 0 171 36l59 -160q-122 -62 -279 -62q-163 0 -253.5 91.5t-90.5 251.5v274l-120 -73l-89 137z" />
    <glyph glyph-name="Nacute" unicode="&#x143;" 
d="M785 1891l95 -182l-456 -165l-58 119zM773 0l-449 1202q33 -346 33 -560v-642h-211v1413h309l450 -1203q-34 321 -34 559v644h211v-1413h-309z" />
    <glyph glyph-name="nacute" unicode="&#x144;" 
d="M780 1662l98 -184l-450 -181l-67 119zM182 0v1081h198l17 -140q67 81 158.5 125t190.5 44q149 0 226 -84t77 -238v-788h-230v675q0 148 -30 204t-124 56q-73 0 -138.5 -45t-114.5 -114v-776h-230z" />
    <glyph glyph-name="uni0145" unicode="&#x145;" 
d="M773 0l-449 1202q33 -346 33 -560v-642h-211v1413h309l450 -1203q-34 321 -34 559v644h211v-1413h-309zM620 -140q55 0 92.5 -36.5t37.5 -91.5q0 -53 -38 -134l-102 -211h-127l59 237q-54 44 -54 108q0 54 38 91t94 37z" />
    <glyph glyph-name="uni0146" unicode="&#x146;" 
d="M182 0v1081h198l17 -140q67 81 158.5 125t190.5 44q149 0 226 -84t77 -238v-788h-230v675q0 148 -30 204t-124 56q-73 0 -138.5 -45t-114.5 -114v-776h-230zM621 -140q56 0 93 -36.5t37 -91.5q0 -57 -38 -134l-102 -211h-126l59 237q-55 45 -55 108q0 54 38 91t94 37z
" />
    <glyph glyph-name="Ncaron" unicode="&#x147;" 
d="M884 1884l91 -103l-281 -239h-147l-282 239l92 103l264 -168zM773 0l-449 1202q33 -346 33 -560v-642h-211v1413h309l450 -1203q-34 321 -34 559v644h211v-1413h-309z" />
    <glyph glyph-name="ncaron" unicode="&#x148;" 
d="M878 1636l92 -102l-281 -259h-147l-282 259l96 102l260 -188zM182 0v1081h198l17 -140q67 81 158.5 125t190.5 44q149 0 226 -84t77 -238v-788h-230v675q0 148 -30 204t-124 56q-73 0 -138.5 -45t-114.5 -114v-776h-230z" />
    <glyph glyph-name="napostrophe" unicode="&#x149;" 
d="M127 1548q55 0 91.5 -35.5t36.5 -90.5q0 -52 -51 -155l-84 -172h-124l54 222q-54 45 -54 105q0 53 38 89.5t93 36.5zM208 0v1081h199l16 -140q68 82 159 125.5t190 43.5q150 0 226 -83.5t76 -238.5v-788h-229v675q0 148 -30 204t-125 56q-73 0 -138 -45t-115 -114v-776
h-229z" />
    <glyph glyph-name="Eng" unicode="&#x14a;" 
d="M773 0l-449 1202q33 -346 33 -560v-642h-211v1413h309l450 -1203q-34 321 -34 559v644h211v-1512q0 -170 -90 -258.5t-250 -88.5q-139 0 -248 81l89 145q39 -23 69 -33.5t74 -10.5q119 0 119 147v117h-72z" />
    <glyph glyph-name="eng" unicode="&#x14b;" 
d="M1049 83q0 -96 -16.5 -170t-44 -125.5t-75.5 -94.5t-99 -71.5t-127 -61.5l-83 168q59 26 94 49.5t65.5 61t43 93.5t12.5 137v606q0 149 -29.5 204.5t-125.5 55.5q-72 0 -138 -46t-114 -116v-773h-230v1081h198l17 -140q66 81 158.5 125t190.5 44q151 0 227 -83.5
t76 -238.5v-705z" />
    <glyph glyph-name="Omacron" unicode="&#x14c;" 
d="M903 1619h-578v167h578v-167zM1152 707q0 -220 -60 -384t-182.5 -257.5t-295.5 -93.5q-260 0 -398.5 196.5t-138.5 536.5q0 220 59.5 384.5t182 258.5t295.5 94q260 0 399 -197.5t139 -537.5zM906 707q0 279 -69 414t-223 135q-153 0 -222 -135.5t-69 -415.5
q0 -278 70 -412.5t221 -134.5q155 0 223.5 134.5t68.5 414.5z" />
    <glyph glyph-name="omacron" unicode="&#x14d;" 
d="M903 1370h-578v167h578v-167zM615 1110q233 0 360.5 -152.5t127.5 -414.5q0 -261 -129 -416t-360 -155q-233 0 -360.5 152t-127.5 417q0 258 129 413.5t360 155.5zM615 932q-125 0 -186.5 -95.5t-61.5 -295.5t61 -295.5t186 -95.5t186.5 96t61.5 297q0 198 -61.5 293.5
t-185.5 95.5z" />
    <glyph glyph-name="Obreve" unicode="&#x14e;" 
d="M611 1548q-134 0 -220.5 75.5t-100.5 196.5l142 27q44 -131 179 -131q139 0 185 131l141 -27q-13 -121 -101.5 -196.5t-224.5 -75.5zM1152 707q0 -220 -60 -384t-182.5 -257.5t-295.5 -93.5q-260 0 -398.5 196.5t-138.5 536.5q0 220 59.5 384.5t182 258.5t295.5 94
q260 0 399 -197.5t139 -537.5zM906 707q0 279 -69 414t-223 135q-153 0 -222 -135.5t-69 -415.5q0 -278 70 -412.5t221 -134.5q155 0 223.5 134.5t68.5 414.5z" />
    <glyph glyph-name="obreve" unicode="&#x14f;" 
d="M611 1276q-72 0 -132 27t-98 72.5t-61 98.5t-29 110l141 28q46 -170 179 -170q70 0 116.5 45.5t68.5 124.5l141 -28q-6 -57 -29.5 -110t-62.5 -98t-100 -72.5t-134 -27.5zM615 1110q233 0 360.5 -152.5t127.5 -414.5q0 -261 -129 -416t-360 -155q-233 0 -360.5 152
t-127.5 417q0 258 129 413.5t360 155.5zM615 932q-125 0 -186.5 -95.5t-61.5 -295.5t61 -295.5t186 -95.5t186.5 96t61.5 297q0 198 -61.5 293.5t-185.5 95.5z" />
    <glyph glyph-name="Ohungarumlaut" unicode="&#x150;" 
d="M355 1605l176 372l178 -83l-220 -350zM690 1606l191 371l175 -89l-235 -348zM1152 707q0 -220 -60 -384t-182.5 -257.5t-295.5 -93.5q-260 0 -398.5 196.5t-138.5 536.5q0 220 59.5 384.5t182 258.5t295.5 94q260 0 399 -197.5t139 -537.5zM906 707q0 279 -69 414
t-223 135q-153 0 -222 -135.5t-69 -415.5q0 -278 70 -412.5t221 -134.5q155 0 223.5 134.5t68.5 414.5z" />
    <glyph glyph-name="ohungarumlaut" unicode="&#x151;" 
d="M349 1355l176 374l177 -84l-219 -351zM684 1357l190 372l176 -90l-235 -348zM615 1110q233 0 360.5 -152.5t127.5 -414.5q0 -261 -129 -416t-360 -155q-233 0 -360.5 152t-127.5 417q0 258 129 413.5t360 155.5zM615 932q-125 0 -186.5 -95.5t-61.5 -295.5t61 -295.5
t186 -95.5t186.5 96t61.5 297q0 198 -61.5 293.5t-185.5 95.5z" />
    <glyph glyph-name="OE" unicode="&#x152;" 
d="M443 1442q75 0 165 -29h629l-27 -175h-450q98 -141 111 -433h290v-176h-289q-10 -305 -121 -453h497v-176h-647q-93 -28 -158 -28q-437 0 -437 733q0 359 108 548t329 189zM444 1264q-114 0 -163 -129t-49 -430q0 -296 51.5 -426.5t160.5 -130.5q114 0 164.5 129.5
t50.5 429.5q0 303 -49 430t-166 127z" />
    <glyph glyph-name="oe" unicode="&#x153;" 
d="M911 1110q178 0 259.5 -138.5t81.5 -402.5q0 -40 -4 -98h-517q13 -170 63.5 -249.5t148.5 -79.5q51 0 92.5 18t96.5 58l95 -135q-138 -111 -291 -111q-217 0 -309 191q-40 -93 -105.5 -142t-172.5 -49q-181 0 -269.5 149.5t-88.5 419.5q0 265 88.5 417t269.5 152
q112 0 177.5 -50t104.5 -147q86 197 280 197zM903 944q-81 0 -121.5 -72.5t-51.5 -249.5h326q-2 169 -35 245.5t-118 76.5zM367 933q-87 0 -124 -92.5t-37 -299.5q0 -211 37 -301t124 -90q88 0 122.5 87t34.5 306q0 207 -35.5 298.5t-121.5 91.5z" />
    <glyph glyph-name="Racute" unicode="&#x154;" 
d="M779 1891l94 -182l-455 -165l-58 119zM1119 1005q0 -149 -88.5 -248.5t-232.5 -141.5l400 -615h-276l-356 582h-154v-582h-238v1413h394q551 0 551 -408zM870 1005q0 122 -70 177t-218 55h-170v-481h175q140 0 211.5 59.5t71.5 189.5z" />
    <glyph glyph-name="racute" unicode="&#x155;" 
d="M838 1662l97 -184l-449 -181l-67 119zM193 0v164h158v755h-158v162h333l42 -251q63 140 154 209.5t227 69.5q75 0 163 -28l-39 -398h-164v220q-113 -4 -196 -90.5t-132 -247.5v-401h218v-164h-606z" />
    <glyph glyph-name="uni0156" unicode="&#x156;" 
d="M1119 1005q0 -149 -88.5 -248.5t-232.5 -141.5l400 -615h-276l-356 582h-154v-582h-238v1413h394q551 0 551 -408zM870 1005q0 122 -70 177t-218 55h-170v-481h175q140 0 211.5 59.5t71.5 189.5zM625 -140q56 0 93 -36.5t37 -91.5q0 -57 -38 -134l-102 -211h-126l59 237
q-53 43 -53 108q0 54 37.5 91t92.5 37z" />
    <glyph glyph-name="uni0157" unicode="&#x157;" 
d="M193 0v164h158v755h-158v162h333l42 -251q63 140 154 209.5t227 69.5q75 0 163 -28l-39 -398h-164v220q-113 -4 -196 -90.5t-132 -247.5v-401h218v-164h-606zM470 -140q55 0 92.5 -36.5t37.5 -91.5q0 -57 -38 -134l-101 -211h-127l58 237q-53 43 -53 108q0 54 38 91
t93 37z" />
    <glyph glyph-name="Rcaron" unicode="&#x158;" 
d="M879 1884l90 -103l-280 -239h-147l-283 239l93 103l262 -168zM1119 1005q0 -149 -88.5 -248.5t-232.5 -141.5l400 -615h-276l-356 582h-154v-582h-238v1413h394q551 0 551 -408zM870 1005q0 122 -70 177t-218 55h-170v-481h175q140 0 211.5 59.5t71.5 189.5z" />
    <glyph glyph-name="rcaron" unicode="&#x159;" 
d="M935 1636l92 -102l-281 -259h-146l-283 259l97 102l260 -188zM193 0v164h158v755h-158v162h333l42 -251q63 140 154 209.5t227 69.5q75 0 163 -28l-39 -398h-164v220q-113 -4 -196 -90.5t-132 -247.5v-401h218v-164h-606z" />
    <glyph glyph-name="Sacute" unicode="&#x15a;" 
d="M795 1891l94 -182l-457 -165l-57 119zM1123 399q0 -192 -143.5 -309.5t-394.5 -117.5q-325 0 -520 190l130 145q160 -147 389 -147q126 0 209.5 59t83.5 169q0 94 -61 147t-229 104q-235 70 -345.5 166t-110.5 255q0 171 136.5 276.5t348.5 105.5q287 0 474 -170
l-125 -142q-144 125 -334 125q-113 0 -184.5 -47t-71.5 -135q0 -82 69 -130t262 -106q78 -23 136 -47.5t113.5 -61t90.5 -81t56 -107.5t21 -141z" />
    <glyph glyph-name="sacute" unicode="&#x15b;" 
d="M800 1662l97 -184l-450 -181l-66 119zM575 148q108 0 171.5 39t63.5 106q0 47 -18 75.5t-74.5 55.5t-167.5 56q-86 22 -146.5 47t-110 62t-74 89.5t-24.5 121.5q0 140 117 225t315 85q241 0 410 -125l-96 -144q-145 95 -308 95q-205 0 -205 -120q0 -59 54.5 -92
t220.5 -79q87 -24 145 -49t107.5 -63.5t73.5 -94t24 -130.5q0 -84 -39.5 -150t-107 -106t-151.5 -60t-180 -20q-270 0 -444 153l122 139q141 -116 322 -116z" />
    <glyph glyph-name="Scircumflex" unicode="&#x15c;" 
d="M703 1890l281 -238l-91 -104l-264 168l-262 -168l-94 104l283 238h147zM1123 399q0 -192 -143.5 -309.5t-394.5 -117.5q-325 0 -520 190l130 145q160 -147 389 -147q126 0 209.5 59t83.5 169q0 94 -61 147t-229 104q-235 70 -345.5 166t-110.5 255q0 171 136.5 276.5
t348.5 105.5q287 0 474 -170l-125 -142q-144 125 -334 125q-113 0 -184.5 -47t-71.5 -135q0 -82 69 -130t262 -106q78 -23 136 -47.5t113.5 -61t90.5 -81t56 -107.5t21 -141z" />
    <glyph glyph-name="scircumflex" unicode="&#x15d;" 
d="M375 1275l-96 102l282 259h148l280 -259l-92 -102l-261 187zM575 148q108 0 171.5 39t63.5 106q0 47 -18 75.5t-74.5 55.5t-167.5 56q-86 22 -146.5 47t-110 62t-74 89.5t-24.5 121.5q0 140 117 225t315 85q241 0 410 -125l-96 -144q-145 95 -308 95q-205 0 -205 -120
q0 -59 54.5 -92t220.5 -79q87 -24 145 -49t107.5 -63.5t73.5 -94t24 -130.5q0 -84 -39.5 -150t-107 -106t-151.5 -60t-180 -20q-270 0 -444 153l122 139q141 -116 322 -116z" />
    <glyph glyph-name="Scedilla" unicode="&#x15e;" 
d="M677 -291q0 47 -44 63.5t-138 16.5l16 185q-271 20 -446 188l130 145q160 -147 389 -147q126 0 209.5 59t83.5 169q0 94 -61 147t-229 104q-235 70 -345.5 166t-110.5 255q0 171 136.5 276.5t348.5 105.5q287 0 474 -170l-125 -142q-144 125 -334 125q-113 0 -184.5 -47
t-71.5 -135q0 -82 69 -130t262 -106q78 -23 136 -47.5t113.5 -61t90.5 -81t56 -107.5t21 -141q0 -176 -123.5 -291t-341.5 -133v-85q98 -9 148.5 -59.5t50.5 -123.5q0 -99 -76.5 -156.5t-194.5 -57.5q-132 0 -225 55l64 118q66 -34 135 -34q117 0 117 77z" />
    <glyph glyph-name="scedilla" unicode="&#x15f;" 
d="M575 148q108 0 171.5 39t63.5 106q0 47 -18 75.5t-74.5 55.5t-167.5 56q-86 22 -146.5 47t-110 62t-74 89.5t-24.5 121.5q0 140 117 225t315 85q241 0 410 -125l-96 -144q-145 95 -308 95q-205 0 -205 -120q0 -59 54.5 -92t220.5 -79q87 -24 145 -49t107.5 -63.5
t73.5 -94t24 -130.5t-31.5 -136t-86.5 -100.5t-125 -63.5t-152 -32v-86q99 -9 149 -59.5t50 -123.5q0 -99 -76.5 -156.5t-194.5 -57.5q-133 0 -224 55l63 118q66 -34 136 -34q116 0 116 77q0 47 -43.5 63.5t-137.5 16.5l16 185q-229 16 -381 151l122 139q141 -116 322 -116z
" />
    <glyph glyph-name="Scaron" unicode="&#x160;" 
d="M893 1884l91 -103l-281 -239h-147l-283 239l94 103l262 -168zM1123 399q0 -192 -143.5 -309.5t-394.5 -117.5q-325 0 -520 190l130 145q160 -147 389 -147q126 0 209.5 59t83.5 169q0 94 -61 147t-229 104q-235 70 -345.5 166t-110.5 255q0 171 136.5 276.5t348.5 105.5
q287 0 474 -170l-125 -142q-144 125 -334 125q-113 0 -184.5 -47t-71.5 -135q0 -82 69 -130t262 -106q78 -23 136 -47.5t113.5 -61t90.5 -81t56 -107.5t21 -141z" />
    <glyph glyph-name="scaron" unicode="&#x161;" 
d="M897 1636l92 -102l-280 -259h-148l-282 259l96 102l261 -188zM575 148q108 0 171.5 39t63.5 106q0 47 -18 75.5t-74.5 55.5t-167.5 56q-86 22 -146.5 47t-110 62t-74 89.5t-24.5 121.5q0 140 117 225t315 85q241 0 410 -125l-96 -144q-145 95 -308 95q-205 0 -205 -120
q0 -59 54.5 -92t220.5 -79q87 -24 145 -49t107.5 -63.5t73.5 -94t24 -130.5q0 -84 -39.5 -150t-107 -106t-151.5 -60t-180 -20q-270 0 -444 153l122 139q141 -116 322 -116z" />
    <glyph glyph-name="uni0162" unicode="&#x162;" 
d="M705 -291q0 47 -44 63.5t-138 16.5l19 211h-49v1222h-424v191h1095l-24 -191h-410v-1222h-44v-110q99 -9 149 -59.5t50 -123.5q0 -99 -77 -156.5t-195 -57.5q-131 0 -224 55l64 118q66 -34 135 -34q117 0 117 77z" />
    <glyph glyph-name="uni0163" unicode="&#x163;" 
d="M818 -291q0 47 -43.5 63.5t-137.5 16.5l17 195q-130 28 -199 118.5t-69 225.5v586h-241v167h241v242l229 28v-270h365l-26 -167h-339v-584q0 -88 44.5 -130t142.5 -42q110 0 200 51l83 -152q-121 -78 -285 -85v-82q99 -9 149 -59.5t50 -123.5q0 -99 -76.5 -156.5
t-194.5 -57.5q-133 0 -224 55l62 118q66 -34 136 -34q116 0 116 77z" />
    <glyph glyph-name="Tcaron" unicode="&#x164;" 
d="M877 1884l90 -103l-280 -239h-147l-283 239l93 103l262 -168zM730 1222v-1222h-237v1222h-424v191h1095l-24 -191h-410z" />
    <glyph glyph-name="tcaron" unicode="&#x165;" 
d="M770 1614l205 -25l-128 -405l-136 20zM1085 57q-61 -39 -144 -62t-171 -23q-185 0 -284.5 96t-99.5 260v586h-241v167h241v242l229 28v-270h365l-26 -167h-339v-584q0 -88 44.5 -130t142.5 -42q110 0 200 51z" />
    <glyph glyph-name="Tbar" unicode="&#x166;" 
d="M237 689v157h256v376h-424v191h1095l-24 -191h-410v-376h259v-157h-259v-689h-237v689h-256z" />
    <glyph glyph-name="tbar" unicode="&#x167;" 
d="M1085 57q-61 -39 -144 -62t-171 -23q-185 0 -284.5 96t-99.5 260v241h-217v159h217v186h-241v167h241v242l229 28v-270h365l-26 -167h-339v-186h340v-159h-340v-239q0 -88 44.5 -130t142.5 -42q110 0 200 51z" />
    <glyph glyph-name="Utilde" unicode="&#x168;" 
d="M732 1579q-48 0 -91.5 24t-79.5 48t-65 24q-34 0 -58.5 -22t-50.5 -71l-129 66q39 89 99 143t137 54q40 0 76.5 -15t59 -32.5t50 -32.5t51.5 -15q30 0 55 21t54 68l129 -64q-40 -94 -101 -145t-136 -51zM1104 1413v-949q0 -220 -131 -356t-360 -136q-231 0 -359.5 134
t-128.5 358v949h237v-906q0 -174 60.5 -259.5t190.5 -85.5t191 85.5t61 259.5v906h239z" />
    <glyph glyph-name="utilde" unicode="&#x169;" 
d="M732 1330q-48 0 -91.5 24t-79.5 48t-65 24q-34 0 -58.5 -22t-50.5 -71l-129 65q39 89 99 143.5t137 54.5q50 0 93.5 -24t78.5 -48t65 -24t55 21t54 68l129 -63q-40 -94 -101 -145t-136 -51zM412 1081v-755q0 -95 37.5 -137t116.5 -42q72 0 141 43t110 109v782h230v-1081
h-198l-14 138q-59 -79 -151 -122.5t-190 -43.5q-155 0 -233.5 85t-78.5 240v784h230z" />
    <glyph glyph-name="Umacron" unicode="&#x16a;" 
d="M903 1619h-578v167h578v-167zM1104 1413v-949q0 -220 -131 -356t-360 -136q-231 0 -359.5 134t-128.5 358v949h237v-906q0 -174 60.5 -259.5t190.5 -85.5t191 85.5t61 259.5v906h239z" />
    <glyph glyph-name="umacron" unicode="&#x16b;" 
d="M903 1370h-578v167h578v-167zM412 1081v-755q0 -95 37.5 -137t116.5 -42q72 0 141 43t110 109v782h230v-1081h-198l-14 138q-59 -79 -151 -122.5t-190 -43.5q-155 0 -233.5 85t-78.5 240v784h230z" />
    <glyph glyph-name="Ubreve" unicode="&#x16c;" 
d="M611 1548q-134 0 -220.5 75.5t-100.5 196.5l142 27q44 -131 179 -131q139 0 185 131l141 -27q-13 -121 -101.5 -196.5t-224.5 -75.5zM1104 1413v-949q0 -220 -131 -356t-360 -136q-231 0 -359.5 134t-128.5 358v949h237v-906q0 -174 60.5 -259.5t190.5 -85.5t191 85.5
t61 259.5v906h239z" />
    <glyph glyph-name="ubreve" unicode="&#x16d;" 
d="M611 1276q-72 0 -132 27t-98 72.5t-61 98.5t-29 110l141 28q46 -170 179 -170q70 0 116.5 45.5t68.5 124.5l141 -28q-6 -57 -29.5 -110t-62.5 -98t-100 -72.5t-134 -27.5zM412 1081v-755q0 -95 37.5 -137t116.5 -42q72 0 141 43t110 109v782h230v-1081h-198l-14 138
q-59 -79 -151 -122.5t-190 -43.5q-155 0 -233.5 85t-78.5 240v784h230z" />
    <glyph glyph-name="Uring" unicode="&#x16e;" 
d="M613 1968q110 0 180 -67t70 -166q0 -97 -70 -164.5t-180 -67.5q-109 0 -178 67.5t-69 164.5q0 99 69 166t178 67zM613 1846q-47 0 -74.5 -29.5t-27.5 -81.5t27.5 -81.5t74.5 -29.5q49 0 77 29t28 82t-28 82t-77 29zM1104 1413v-949q0 -220 -131 -356t-360 -136
q-231 0 -359.5 134t-128.5 358v949h237v-906q0 -174 60.5 -259.5t190.5 -85.5t191 85.5t61 259.5v906h239z" />
    <glyph glyph-name="uring" unicode="&#x16f;" 
d="M613 1718q110 0 180 -67t70 -165q0 -97 -70 -164.5t-180 -67.5q-109 0 -178 67.5t-69 164.5q0 98 69 165t178 67zM613 1596q-47 0 -74.5 -29t-27.5 -81t27.5 -81.5t74.5 -29.5q49 0 77 29t28 82t-28 81.5t-77 28.5zM412 1081v-755q0 -95 37.5 -137t116.5 -42q72 0 141 43
t110 109v782h230v-1081h-198l-14 138q-59 -79 -151 -122.5t-190 -43.5q-155 0 -233.5 85t-78.5 240v784h230z" />
    <glyph glyph-name="Uhungarumlaut" unicode="&#x170;" 
d="M355 1605l176 372l178 -83l-220 -350zM690 1606l191 371l175 -89l-235 -348zM1104 1413v-949q0 -220 -131 -356t-360 -136q-231 0 -359.5 134t-128.5 358v949h237v-906q0 -174 60.5 -259.5t190.5 -85.5t191 85.5t61 259.5v906h239z" />
    <glyph glyph-name="uhungarumlaut" unicode="&#x171;" 
d="M349 1355l176 374l177 -84l-219 -351zM684 1357l190 372l176 -90l-235 -348zM412 1081v-755q0 -95 37.5 -137t116.5 -42q72 0 141 43t110 109v782h230v-1081h-198l-14 138q-59 -79 -151 -122.5t-190 -43.5q-155 0 -233.5 85t-78.5 240v784h230z" />
    <glyph glyph-name="Uogonek" unicode="&#x172;" 
d="M1104 1413v-949q0 -176 -86 -301t-241 -169q-133 -57 -182 -110t-49 -115q0 -99 116 -99q52 0 120 15l-20 -158q-67 -15 -127 -15q-121 0 -196 61t-75 160q0 150 154 245q-188 27 -290.5 157t-102.5 329v949h237v-906q0 -174 60.5 -259.5t190.5 -85.5t191 85.5t61 259.5
v906h239z" />
    <glyph glyph-name="uogonek" unicode="&#x173;" 
d="M412 1081v-755q0 -95 37.5 -137t116.5 -42q72 0 141 43t110 109v782h230v-1081q-142 -58 -194.5 -112.5t-52.5 -118.5q0 -99 115 -99q53 0 121 15l-20 -158q-65 -15 -126 -15q-122 0 -197.5 61t-75.5 160q0 94 57.5 162.5t172.5 121.5l-12 121q-59 -79 -151 -122.5
t-190 -43.5q-155 0 -233.5 85t-78.5 240v784h230z" />
    <glyph glyph-name="Wcircumflex" unicode="&#x174;" 
d="M689 1890l280 -238l-90 -104l-265 168l-262 -168l-93 104l283 238h147zM1225 1413l-196 -1413h-277l-140 1046l-144 -1046h-284l-180 1413h229l112 -1184l150 1020h244l142 -1020l132 1184h212z" />
    <glyph glyph-name="wcircumflex" unicode="&#x175;" 
d="M355 1275l-96 102l283 259h147l280 -259l-92 -102l-262 187zM1028 0h-287l-121 768l-132 -768h-280l-183 1081h221l112 -939l151 802h229l141 -802l112 939h213z" />
    <glyph glyph-name="Ycircumflex" unicode="&#x176;" 
d="M693 1890l281 -238l-91 -104l-265 168l-262 -168l-93 104l283 238h147zM734 540v-540h-239v538l-471 875h261l335 -670l336 670h249z" />
    <glyph glyph-name="ycircumflex" unicode="&#x177;" 
d="M355 1275l-96 102l283 259h147l280 -259l-92 -102l-262 187zM1128 1081l-372 -1085q-33 -96 -76 -169t-106 -131.5t-150 -93t-198 -44.5l-29 172q81 13 137.5 34t96 55.5t64.5 76t48 104.5h-78l-365 1081h244l272 -921l277 921h235z" />
    <glyph glyph-name="Ydieresis" unicode="&#x178;" 
d="M397 1569q-57 0 -95.5 37t-38.5 92q0 56 38.5 93.5t95.5 37.5q56 0 94 -37.5t38 -93.5q0 -55 -38 -92t-94 -37zM839 1569q-55 0 -93.5 37t-38.5 92q0 56 38.5 93.5t93.5 37.5q57 0 95.5 -37.5t38.5 -93.5q0 -55 -38.5 -92t-95.5 -37zM734 540v-540h-239v538l-471 875h261
l335 -670l336 670h249z" />
    <glyph glyph-name="Zacute" unicode="&#x179;" 
d="M813 1891l94 -182l-455 -165l-58 119zM392 197h715l-27 -197h-959v184l719 1037h-645v192h907v-186z" />
    <glyph glyph-name="zacute" unicode="&#x17a;" 
d="M799 1662l97 -184l-450 -181l-66 119zM462 184h578l-24 -184h-830v168l576 729h-530v184h801v-168z" />
    <glyph glyph-name="Zdotaccent" unicode="&#x17b;" 
d="M646 1861q67 0 109 -41t42 -103q0 -63 -42 -104.5t-109 -41.5q-65 0 -107 41.5t-42 104.5q0 61 42 102.5t107 41.5zM392 197h715l-27 -197h-959v184l719 1037h-645v192h907v-186z" />
    <glyph glyph-name="zdotaccent" unicode="&#x17c;" 
d="M632 1611q66 0 108 -41t42 -103q0 -63 -42 -104t-108 -41t-108 41t-42 104q0 62 42 103t108 41zM462 184h578l-24 -184h-830v168l576 729h-530v184h801v-168z" />
    <glyph glyph-name="Zcaron" unicode="&#x17d;" 
d="M912 1884l90 -103l-280 -239h-147l-282 239l92 103l263 -168zM392 197h715l-27 -197h-959v184l719 1037h-645v192h907v-186z" />
    <glyph glyph-name="zcaron" unicode="&#x17e;" 
d="M896 1636l92 -102l-280 -259h-148l-282 259l96 102l261 -188zM462 184h578l-24 -184h-830v168l576 729h-530v184h801v-168z" />
    <glyph glyph-name="florin" unicode="&#x192;" 
d="M763 1541q143 0 275 -60l-69 -159q-90 41 -185 41q-85 0 -120 -36t-35 -117v-129h262l-27 -169h-235v-813q0 -100 -16 -176.5t-43 -131t-74 -98t-99 -73t-128 -60.5l-81 166q47 23 76.5 40.5t58.5 45t44 61t24.5 82.5t9.5 114v843h-171v169h171v131q0 146 94.5 237.5
t267.5 91.5z" />
    <glyph glyph-name="AEacute" unicode="&#x1fc;" 
d="M897 1891l94 -182l-455 -165l-59 119zM663 342h-369l-84 -342h-235l393 1413h790l-25 -175h-442l90 -433h359v-176h-326l93 -453h334v-176h-513zM337 521h293l-134 720z" />
    <glyph glyph-name="aeacute" unicode="&#x1fd;" 
d="M793 1662l96 -184l-449 -181l-66 119zM885 1110q352 0 352 -541q0 -59 -4 -98h-530q14 -169 66.5 -249t152.5 -80q53 0 96.5 18.5t97.5 57.5l95 -135q-136 -111 -298 -111q-108 0 -185 46.5t-134 141.5q-64 -102 -130 -145t-167 -43q-142 0 -225.5 92.5t-83.5 245.5
q0 171 108.5 261.5t321.5 90.5h89v72q0 211 -185 211q-51 0 -94.5 -12t-110.5 -42l-57 148q155 71 284 71q204 0 277 -167q35 79 102 123t162 44zM878 944q-83 0 -124 -72t-51 -250h337q-2 168 -37.5 245t-124.5 77zM507 521h-71q-124 0 -177.5 -51t-53.5 -148
q0 -90 34.5 -138.5t95.5 -48.5q57 0 101.5 40.5t88.5 126.5q-18 103 -18 219z" />
    <glyph glyph-name="Oslashacute" unicode="&#x1fe;" 
d="M779 1891l94 -182l-455 -165l-58 119zM614 1442q56 0 122 -14l64 217l182 -51l-76 -243q120 -89 183 -255t63 -389q0 -220 -60 -384t-182.5 -257.5t-295.5 -93.5q-58 0 -120 13l-64 -209l-181 50l74 236q-120 88 -183 254t-63 389q0 220 59.5 384.5t182 258.5t295.5 94z
M614 1257q-156 0 -226 -135.5t-70 -416.5q0 -333 93 -457l290 999q-39 10 -87 10zM910 707q0 337 -91 460l-290 -1000q37 -10 85 -10q156 0 226 135t70 415z" />
    <glyph glyph-name="oslashacute" unicode="&#x1ff;" 
d="M780 1662l97 -184l-449 -181l-68 119zM615 1110q48 0 87 -7l78 244l178 -53l-82 -253q110 -68 168.5 -196.5t58.5 -301.5q0 -261 -129 -416t-360 -155q-46 0 -88 6l-75 -250l-180 53l85 257q-111 68 -170.5 197.5t-59.5 305.5q0 258 129 413.5t360 155.5zM615 934
q-126 0 -187.5 -96t-61.5 -297q0 -247 78 -331l226 720q-32 4 -55 4zM863 543q0 241 -77 327l-224 -718q32 -4 52 -4q127 0 188 96t61 299z" />
    <glyph glyph-name="uni0218" unicode="&#x218;" 
d="M1123 399q0 -192 -143.5 -309.5t-394.5 -117.5q-325 0 -520 190l130 145q160 -147 389 -147q126 0 209.5 59t83.5 169q0 94 -61 147t-229 104q-235 70 -345.5 166t-110.5 255q0 171 136.5 276.5t348.5 105.5q287 0 474 -170l-125 -142q-144 125 -334 125
q-113 0 -184.5 -47t-71.5 -135q0 -82 69 -130t262 -106q78 -23 136 -47.5t113.5 -61t90.5 -81t56 -107.5t21 -141zM615 -140q55 0 92 -36.5t37 -91.5q0 -59 -37 -134l-102 -211h-126l59 237q-54 44 -54 108q0 54 37.5 91t93.5 37z" />
    <glyph glyph-name="uni0219" unicode="&#x219;" 
d="M575 148q108 0 171.5 39t63.5 106q0 47 -18 75.5t-74.5 55.5t-167.5 56q-86 22 -146.5 47t-110 62t-74 89.5t-24.5 121.5q0 140 117 225t315 85q241 0 410 -125l-96 -144q-145 95 -308 95q-205 0 -205 -120q0 -59 54.5 -92t220.5 -79q87 -24 145 -49t107.5 -63.5
t73.5 -94t24 -130.5q0 -84 -39.5 -150t-107 -106t-151.5 -60t-180 -20q-270 0 -444 153l122 139q141 -116 322 -116zM615 -140q55 0 92 -36.5t37 -91.5q0 -59 -37 -134l-102 -211h-126l59 237q-54 44 -54 108q0 54 37.5 91t93.5 37z" />
    <glyph glyph-name="uni021A" unicode="&#x21a;" 
d="M730 1222v-1222h-237v1222h-424v191h1095l-24 -191h-410zM617 -140q55 0 93 -36.5t38 -91.5q0 -53 -38 -134l-102 -211h-127l59 237q-54 44 -54 108q0 54 38 91t93 37z" />
    <glyph glyph-name="uni021B" unicode="&#x21b;" 
d="M1085 57q-61 -39 -144 -62t-171 -23q-185 0 -284.5 96t-99.5 260v586h-241v167h241v242l229 28v-270h365l-26 -167h-339v-584q0 -88 44.5 -130t142.5 -42q110 0 200 51zM757 -140q55 0 92.5 -36.5t37.5 -91.5q0 -53 -38 -134l-101 -211h-127l58 237q-53 43 -53 108
q0 54 37.5 91t93.5 37z" />
    <glyph glyph-name="uni0237" unicode="&#x237;" 
d="M933 1081v-854q0 -149 -46.5 -262t-141 -192.5t-224.5 -130.5t-308 -83l-37 176q128 24 220 58.5t163.5 89.5t107.5 137t36 192v701h-427v168h657z" />
    <glyph glyph-name="uni02B9" unicode="&#x2b9;" 
d="M414 866l172 547h229l-237 -547h-164z" />
    <glyph glyph-name="uni02BA" unicode="&#x2ba;" 
d="M246 866l172 547h229l-237 -547h-164zM582 866l171 547h230l-239 -547h-162z" />
    <glyph glyph-name="uni02BC" unicode="&#x2bc;" 
d="M599 1541q55 0 92.5 -36.5t37.5 -89.5q0 -49 -54 -160l-81 -163h-125l52 214q-54 46 -54 107q0 54 38 91t94 37z" />
    <glyph glyph-name="circumflex" unicode="&#x2c6;" 
d="M355 1275l-96 102l283 259h147l280 -259l-92 -102l-262 187z" />
    <glyph glyph-name="caron" unicode="&#x2c7;" 
d="M877 1636l92 -102l-280 -259h-147l-283 259l96 102l260 -188z" />
    <glyph glyph-name="uni02C9" unicode="&#x2c9;" 
d="M903 1391h-579v165h579v-165z" />
    <glyph glyph-name="breve" unicode="&#x2d8;" 
d="M611 1276q-72 0 -132 27t-98 72.5t-61 98.5t-29 110l141 28q46 -170 179 -170q70 0 116.5 45.5t68.5 124.5l141 -28q-6 -57 -29.5 -110t-62.5 -98t-100 -72.5t-134 -27.5z" />
    <glyph glyph-name="dotaccent" unicode="&#x2d9;" 
d="M613 1611q66 0 108.5 -41.5t42.5 -102.5q0 -63 -42.5 -104t-108.5 -41t-108 41t-42 104q0 62 42 103t108 41z" />
    <glyph glyph-name="ring" unicode="&#x2da;" 
d="M613 1718q110 0 180 -67t70 -165q0 -97 -70 -164.5t-180 -67.5q-109 0 -178 67.5t-69 164.5q0 98 69 165t178 67zM613 1596q-47 0 -74.5 -29t-27.5 -81t27.5 -81.5t74.5 -29.5q49 0 77 29t28 82t-28 81.5t-77 28.5z" />
    <glyph glyph-name="ogonek" unicode="&#x2db;" 
d="M786 79l31 -79q-142 -58 -194.5 -112.5t-52.5 -118.5q0 -99 116 -99q54 0 121 15l-21 -158q-65 -15 -126 -15q-122 0 -197 61t-75 160q0 123 99 205t299 141z" />
    <glyph glyph-name="tilde" unicode="&#x2dc;" 
d="M732 1330q-48 0 -91.5 24t-79.5 48t-65 24q-34 0 -58.5 -22t-50.5 -71l-129 65q39 89 99 143.5t137 54.5q50 0 93.5 -24t78.5 -48t65 -24t55 21t54 68l129 -63q-40 -94 -101 -145t-136 -51z" />
    <glyph glyph-name="hungarumlaut" unicode="&#x2dd;" 
d="M264 1355l175 374l178 -84l-220 -351zM599 1357l189 372l177 -90l-236 -348z" />
    <glyph glyph-name="gravecomb" unicode="&#x300;" horiz-adv-x="0" 
d="M453 1662l419 -246l-66 -119l-450 181z" />
    <glyph glyph-name="acutecomb" unicode="&#x301;" horiz-adv-x="0" 
d="M780 1662l97 -184l-449 -181l-68 119z" />
    <glyph glyph-name="uni0302" unicode="&#x302;" horiz-adv-x="0" 
d="M689 1559l281 -239l-91 -103l-264 167l-263 -167l-92 103l282 239h147z" />
    <glyph glyph-name="tildecomb" unicode="&#x303;" horiz-adv-x="0" 
d="M733 1330q-38 0 -74 15t-59 33t-51 33t-52 15q-34 0 -58.5 -22t-50.5 -71l-129 65q39 89 99 143.5t138 54.5q40 0 76 -15t58.5 -33t50 -33t52.5 -15q31 0 55.5 21t52.5 68l129 -63q-40 -94 -101 -145t-136 -51z" />
    <glyph glyph-name="uni0304" unicode="&#x304;" horiz-adv-x="0" 
d="M904 1273h-578v167h578v-167z" />
    <glyph glyph-name="uni0305" unicode="&#x305;" horiz-adv-x="0" 
d="M1068 1273h-906v167h906v-167z" />
    <glyph glyph-name="uni0306" unicode="&#x306;" horiz-adv-x="0" 
d="M611 1202q-134 0 -220.5 75.5t-99.5 196.5l141 27q44 -131 179 -131q142 0 186 131l141 -27q-12 -121 -101 -196.5t-226 -75.5z" />
    <glyph glyph-name="uni0307" unicode="&#x307;" horiz-adv-x="0" 
d="M615 1513q66 0 108.5 -41t42.5 -102q0 -63 -42.5 -104t-108.5 -41t-108 41t-42 104q0 61 42 102t108 41z" />
    <glyph glyph-name="uni0308" unicode="&#x308;" horiz-adv-x="0" 
d="M393 1319q-57 0 -95.5 37.5t-38.5 92.5q0 56 38.5 93t95.5 37q56 0 94 -37t38 -93q0 -55 -38 -92.5t-94 -37.5zM835 1319q-56 0 -94.5 37.5t-38.5 92.5q0 56 38.5 93t94.5 37q57 0 95.5 -37t38.5 -93q0 -55 -38.5 -92.5t-95.5 -37.5z" />
    <glyph glyph-name="uni030A" unicode="&#x30a;" horiz-adv-x="0" 
d="M614 1621q110 0 180 -67t70 -165t-70 -165.5t-180 -67.5q-109 0 -178 67.5t-69 165.5t69 165t178 67zM614 1499q-46 0 -74 -29t-28 -81q0 -53 28 -82.5t74 -29.5q48 0 76.5 29.5t28.5 82.5q0 52 -28.5 81t-76.5 29z" />
    <glyph glyph-name="uni030B" unicode="&#x30b;" horiz-adv-x="0" 
d="M264 1257l176 374l177 -84l-219 -350zM599 1258l191 373l175 -89l-235 -348z" />
    <glyph glyph-name="uni030C" unicode="&#x30c;" horiz-adv-x="0" 
d="M879 1538l91 -104l-281 -238h-147l-282 238l92 104l263 -168z" />
    <glyph glyph-name="uni030F" unicode="&#x30f;" horiz-adv-x="0" 
d="M965 1355l-134 -61l-220 351l179 84zM630 1357l-130 -66l-236 348l176 90z" />
    <glyph glyph-name="uni0313" unicode="&#x313;" horiz-adv-x="0" 
d="M545 1586q55 0 92 -37t37 -92q0 -57 -38 -134l-101 -211h-126l58 239q-53 41 -53 106q0 54 37.5 91.5t93.5 37.5z" />
    <glyph glyph-name="uni0314" unicode="&#x314;" horiz-adv-x="0" 
d="M607 1150q-55 0 -92 37t-37 92q0 57 38 134l101 211h126l-58 -239q53 -41 53 -106q0 -54 -37.5 -91.5t-93.5 -37.5z" />
    <glyph glyph-name="uni0326" unicode="&#x326;" horiz-adv-x="0" 
d="M620 -140q55 0 92.5 -36.5t37.5 -91.5q0 -53 -38 -134l-102 -211h-127l59 237q-54 44 -54 108q0 54 38 91t94 37z" />
    <glyph glyph-name="uni0327" unicode="&#x327;" horiz-adv-x="0" 
d="M682 -306q0 47 -43.5 64t-137.5 17l21 243h142v-142q99 -10 149 -60t50 -123q0 -99 -76.5 -157t-194.5 -58q-130 0 -224 55l62 118q64 -33 136 -33q116 0 116 76z" />
    <glyph glyph-name="strokeshortoverlay" unicode="&#x335;" 
d="M986 571h-744v158h744v-158z" />
    <glyph glyph-name="strokelongoverlay" unicode="&#x336;" 
d="M1288 571h-1346v158h1346v-158z" />
    <glyph glyph-name="uni0342" unicode="&#x342;" horiz-adv-x="0" 
d="M732 1330q-48 0 -91.5 24t-79.5 48t-65 24q-34 0 -58.5 -22t-50.5 -71l-129 65q39 89 99 143.5t137 54.5q50 0 93.5 -24t78.5 -48t65 -24t55 21t54 68l129 -63q-40 -94 -101 -145t-136 -51z" />
    <glyph glyph-name="uni0345" unicode="&#x345;" horiz-adv-x="0" 
d="M631 -397q-114 0 -178 62t-64 166v87h183v-82q0 -85 84 -85q57 0 112 34l74 -110q-95 -72 -211 -72z" />
    <glyph glyph-name="uni0370" unicode="&#x370;" 
d="M1010 643h-553v-643h-237v1413h237v-576h553v-194z" />
    <glyph glyph-name="uni0371" unicode="&#x371;" 
d="M1078 461h-591v-461h-229v746q0 176 -50 332l210 30q69 -142 69 -410v-50h591v-187z" />
    <glyph glyph-name="uni0372" unicode="&#x372;" 
d="M497 0v1221h-247v-373h-192v565h1114v-564h-191v372h-247v-1221h-237z" />
    <glyph glyph-name="uni0373" unicode="&#x373;" 
d="M71 878l-38 172q49 18 96.5 24.5t130.5 6.5h904v-180l-436 -1v-1316l-229 -25v1341h-239q-108 0 -189 -22z" />
    <glyph glyph-name="uni0374" unicode="&#x374;" 
d="M414 866l172 547h229l-237 -547h-164z" />
    <glyph glyph-name="uni0375" unicode="&#x375;" 
d="M815 274l-171 -546h-230l238 546h163z" />
    <glyph glyph-name="uni0376" unicode="&#x376;" 
d="M146 0v1413h227v-625q0 -309 -40 -579l467 1204h282v-1413h-226v623q0 282 40 574l-463 -1197h-287z" />
    <glyph glyph-name="uni0377" unicode="&#x377;" 
d="M172 0v1081h222v-445q0 -232 -34 -404l426 849h248v-769q0 -75 20 -110.5t72 -59.5l-72 -170q-127 32 -186 109t-59 214q0 169 50 555l-431 -850h-256z" />
    <glyph glyph-name="uni037A" unicode="&#x37a;" 
d="M631 -397q-114 0 -178 62t-64 166v87h183v-82q0 -85 84 -85q57 0 112 34l74 -110q-95 -72 -211 -72z" />
    <glyph glyph-name="reversedlunatesigmasymbol" unicode="&#x37b;" 
d="M534 -28q-212 0 -371 126l103 147q71 -44 127.5 -64t128.5 -20q139 0 217 90.5t78 284.5q0 202 -68 296t-206 94q-81 0 -144 -19.5t-131 -60.5l-105 141q93 65 182 94t204 29q244 0 378 -155t134 -423q0 -259 -142 -409.5t-385 -150.5z" />
    <glyph glyph-name="dottedlunatesigmasymbol" unicode="&#x37c;" 
d="M703 161q132 0 267 94l106 -147q-73 -62 -174 -99t-206 -37q-247 0 -386.5 153t-139.5 411q0 253 142.5 413.5t387.5 160.5q218 0 375 -130l-105 -144q-132 90 -265 90q-134 0 -212.5 -97.5t-78.5 -292.5q0 -193 77.5 -284t211.5 -91zM730 687q64 0 104 -39.5t40 -98.5
q0 -61 -40 -100.5t-104 -39.5t-104 39.5t-40 100.5q0 59 40 98.5t104 39.5z" />
    <glyph glyph-name="reverseddottedlunatesigmasymbol" unicode="&#x37d;" 
d="M534 -28q-212 0 -371 126l103 147q71 -44 127.5 -64t128.5 -20q139 0 217 90.5t78 284.5q0 202 -68 296t-206 94q-81 0 -144 -19.5t-131 -60.5l-105 141q93 65 182 94t204 29q244 0 378 -155t134 -423q0 -259 -142 -409.5t-385 -150.5zM496 687q64 0 104 -39.5t40 -98.5
q0 -61 -40 -100.5t-104 -39.5t-104.5 39.5t-40.5 100.5q0 59 40.5 98.5t104.5 39.5z" />
    <glyph glyph-name="uni037E" unicode="&#x37e;" 
d="M626 1068q77 0 130.5 -53.5t53.5 -129.5t-53.5 -131t-130.5 -55t-131 55t-54 131q0 75 54 129t131 54zM626 364q78 0 131 -53.5t53 -130.5q0 -79 -57 -204l-157 -358h-176l99 411q-78 54 -78 152q0 76 53.5 129.5t131.5 53.5z" />
    <glyph glyph-name="Yotgreek" unicode="&#x37f;" 
d="M1040 1413v-929q0 -105 -29.5 -194.5t-89 -162t-161 -113.5t-235.5 -41q-222 0 -402 130l97 152q144 -94 296 -94q134 0 211 85.5t77 242.5v742h-425v182h661z" />
    <glyph glyph-name="tonos" unicode="&#x384;" 
d="M538 1684l232 -45l-153 -426l-156 27z" />
    <glyph glyph-name="dieresistonos" unicode="&#x385;" 
d="M597 1903l215 -42l-132 -362l-142 24zM383 1525q55 0 93 -37.5t38 -93.5q0 -55 -38 -92.5t-93 -37.5q-57 0 -95 37.5t-38 92.5q0 56 38 93.5t95 37.5zM844 1525q57 0 95.5 -37.5t38.5 -93.5q0 -55 -38.5 -92.5t-95.5 -37.5q-55 0 -93 37.5t-38 92.5q0 56 37.5 93.5
t93.5 37.5z" />
    <glyph glyph-name="Alphatonos" unicode="&#x386;" 
d="M124 1459l244 -46l-159 -424l-162 27zM862 340h-505l-98 -340h-242l450 1413h295l450 -1413h-251zM407 523h405l-202 706z" />
    <glyph glyph-name="anoteleia" unicode="&#x387;" 
d="M417 700q0 82 57 140t140 58q84 0 142 -58t58 -140q0 -84 -58 -141.5t-142 -57.5q-83 0 -140 58t-57 141z" />
    <glyph glyph-name="Epsilontonos" unicode="&#x388;" 
d="M-56 1459l243 -46l-158 -424l-162 27zM469 1233v-425h512v-180h-512v-448h624v-180h-862v1413h850l-26 -180h-586z" />
    <glyph glyph-name="Etatonos" unicode="&#x389;" 
d="M-141 1459l243 -46l-158 -424l-162 27zM845 0v642h-461v-642h-238v1413h238v-575h461v575h237v-1413h-237z" />
    <glyph glyph-name="Iotatonos" unicode="&#x38a;" 
d="M-99 1459l244 -46l-159 -424l-161 27zM1039 1413v-181h-305v-1050h305v-182h-850v182h306v1050h-306v181h850z" />
    <glyph glyph-name="Omicrontonos" unicode="&#x38c;" 
d="M-60 1459l243 -46l-158 -424l-162 27zM1152 707q0 -220 -60 -384t-182.5 -257.5t-295.5 -93.5q-260 0 -398.5 196.5t-138.5 536.5q0 220 59.5 384.5t182 258.5t295.5 94q260 0 399 -197.5t139 -537.5zM906 707q0 279 -69 414t-223 135q-153 0 -222 -135.5t-69 -415.5
q0 -278 70 -412.5t221 -134.5q155 0 223.5 134.5t68.5 414.5z" />
    <glyph glyph-name="Upsilontonos" unicode="&#x38e;" 
d="M-244 1459l244 -46l-159 -424l-162 27zM734 540v-540h-239v538l-471 875h261l335 -670l336 670h249z" />
    <glyph glyph-name="Omegatonos" unicode="&#x38f;" 
d="M-59 1459l243 -46l-158 -424l-162 27zM614 1255q-148 0 -219.5 -123.5t-71.5 -395.5q0 -235 56 -370t172 -195v-171h-452v179h242q-264 137 -264 557q0 327 143 516.5t394 189.5t394.5 -189.5t143.5 -516.5q0 -412 -266 -557h243v-179h-449v171q116 60 171 194.5
t55 370.5q0 271 -72.5 395t-219.5 124z" />
    <glyph glyph-name="iotadieresistonos" unicode="&#x390;" 
d="M569 1903l216 -42l-133 -362l-142 24zM356 1525q55 0 93 -38t38 -93t-38 -92.5t-93 -37.5q-57 0 -95.5 37.5t-38.5 92.5q0 56 38 93.5t96 37.5zM816 1525q58 0 96 -37.5t38 -93.5q0 -55 -38.5 -92.5t-95.5 -37.5q-55 0 -92.5 37.5t-37.5 92.5t37.5 93t92.5 38zM462 902
h-353l22 179h560v-787q0 -136 164 -136q83 0 171 36l57 -160q-46 -26 -121.5 -44t-155.5 -18q-158 0 -251 88t-93 242v600z" />
    <glyph glyph-name="Alpha" unicode="&#x391;" 
d="M862 340h-505l-98 -340h-242l450 1413h295l450 -1413h-251zM407 523h405l-202 706z" />
    <glyph glyph-name="Beta" unicode="&#x392;" 
d="M1129 408q0 -91 -31 -163t-82 -117t-123 -74.5t-148.5 -41.5t-164.5 -12h-414v1413h386q83 0 155.5 -10.5t140 -36t115.5 -65.5t76.5 -102.5t28.5 -142.5q0 -124 -74.5 -202.5t-186.5 -104.5q64 -11 116.5 -32.5t101.5 -59.5t76.5 -101.5t27.5 -147.5zM827 1036
q0 104 -64.5 151.5t-189.5 47.5h-170v-409h185q120 0 179.5 50.5t59.5 159.5zM882 409q0 132 -73.5 186.5t-203.5 54.5h-202v-466h192q287 0 287 225z" />
    <glyph glyph-name="Gamma" unicode="&#x393;" 
d="M1126 1413l-24 -196h-622v-1217h-237v1413h883z" />
    <glyph glyph-name="uni0394" unicode="&#x394;" 
d="M762 1413l450 -1413h-1195l450 1413h295zM610 1226l-297 -1031h593z" />
    <glyph glyph-name="Epsilon" unicode="&#x395;" 
d="M469 1233v-425h512v-180h-512v-448h624v-180h-862v1413h850l-26 -180h-586z" />
    <glyph glyph-name="Zeta" unicode="&#x396;" 
d="M392 197h715l-27 -197h-959v184l719 1037h-645v192h907v-186z" />
    <glyph glyph-name="Eta" unicode="&#x397;" 
d="M845 0v642h-461v-642h-238v1413h238v-575h461v575h237v-1413h-237z" />
    <glyph glyph-name="Theta" unicode="&#x398;" 
d="M1152 707q0 -220 -60 -384t-182.5 -257.5t-295.5 -93.5q-260 0 -398.5 196.5t-138.5 536.5q0 220 59.5 384.5t182 258.5t295.5 94q260 0 399 -197.5t139 -537.5zM910 707q0 279 -71 414t-225 135t-225 -135.5t-71 -415.5q0 -277 72 -412t224 -135q155 0 225.5 134.5
t70.5 414.5zM802 640h-377v162h377v-162z" />
    <glyph glyph-name="Iota" unicode="&#x399;" 
d="M1039 1413v-181h-305v-1050h305v-182h-850v182h306v1050h-306v181h850z" />
    <glyph glyph-name="Kappa" unicode="&#x39a;" 
d="M417 0h-238v1413h238v-1413zM427 755l492 658h261l-495 -642l534 -771h-285z" />
    <glyph glyph-name="Lambda" unicode="&#x39b;" 
d="M762 1413l440 -1413h-252l-339 1217l-342 -1217h-243l441 1413h295z" />
    <glyph glyph-name="Mu" unicode="&#x39c;" 
d="M1097 1413l80 -1413h-218l-33 688q-12 285 -1 516l-208 -955h-207l-223 955q15 -220 6 -518l-28 -686h-213l80 1413h285l201 -947l193 947h286z" />
    <glyph glyph-name="Nu" unicode="&#x39d;" 
d="M773 0l-449 1202q33 -346 33 -560v-642h-211v1413h309l450 -1203q-34 321 -34 559v644h211v-1413h-309z" />
    <glyph glyph-name="Xi" unicode="&#x39e;" 
d="M1077 1413l-29 -202h-910v202h939zM966 816v-198h-718v198h718zM1091 208v-208h-953v208h953z" />
    <glyph glyph-name="Omicron" unicode="&#x39f;" 
d="M1152 707q0 -220 -60 -384t-182.5 -257.5t-295.5 -93.5q-260 0 -398.5 196.5t-138.5 536.5q0 220 59.5 384.5t182 258.5t295.5 94q260 0 399 -197.5t139 -537.5zM906 707q0 279 -69 414t-223 135q-153 0 -222 -135.5t-69 -415.5q0 -278 70 -412.5t221 -134.5
q155 0 223.5 134.5t68.5 414.5z" />
    <glyph glyph-name="Pi" unicode="&#x3a0;" 
d="M845 0v1220h-461v-1220h-238v1413h936v-1413h-237z" />
    <glyph glyph-name="Rho" unicode="&#x3a1;" 
d="M1156 970q0 -121 -40 -211.5t-114.5 -145.5t-173.5 -82t-224 -27h-171v-504h-237v1413h392q272 0 420 -111t148 -332zM906 968q0 267 -303 267h-170v-550h173q143 0 221.5 65.5t78.5 217.5z" />
    <glyph glyph-name="Sigma" unicode="&#x3a3;" 
d="M842 643l-439 -457h691v-186h-959v185l489 517l-489 525v186h959v-184h-691l439 -458v-128z" />
    <glyph glyph-name="Tau" unicode="&#x3a4;" 
d="M730 1222v-1222h-237v1222h-424v191h1095l-24 -191h-410z" />
    <glyph glyph-name="Upsilon" unicode="&#x3a5;" 
d="M734 540v-540h-239v538l-471 875h261l335 -670l336 670h249z" />
    <glyph glyph-name="Phi" unicode="&#x3a6;" 
d="M713 1413v-162q252 -11 375.5 -143.5t123.5 -394.5q0 -265 -127 -402.5t-372 -145.5v-165h-197v165q-247 8 -373.5 145t-126.5 403q0 262 122.5 395t377.5 143v162h197zM525 1101q-150 -2 -216.5 -92t-66.5 -296q0 -201 65 -295t218 -101v784zM703 1101v-784
q153 7 218.5 102t65.5 294q0 207 -67.5 296.5t-216.5 91.5z" />
    <glyph glyph-name="Chi" unicode="&#x3a7;" 
d="M78 1413h263l273 -509l277 509h253l-391 -649l434 -764h-263l-314 601l-314 -601h-254l428 753z" />
    <glyph glyph-name="Psi" unicode="&#x3a8;" 
d="M503 0v386q-240 24 -358.5 152.5t-118.5 335.5v539h220v-534q0 -147 58.5 -223.5t207.5 -94.5v852h207v-850q145 19 204.5 95t59.5 221v534h220v-539q0 -204 -119 -332t-356 -154v-388h-225z" />
    <glyph glyph-name="uni03A9" unicode="&#x3a9;" 
d="M614 1255q-148 0 -219.5 -123.5t-71.5 -395.5q0 -235 56 -370t172 -195v-171h-452v179h242q-264 137 -264 557q0 327 143 516.5t394 189.5t394.5 -189.5t143.5 -516.5q0 -412 -266 -557h243v-179h-449v171q116 60 171 194.5t55 370.5q0 271 -72.5 395t-219.5 124z" />
    <glyph glyph-name="Iotadieresis" unicode="&#x3aa;" 
d="M393 1569q-57 0 -95.5 37t-38.5 92q0 56 38.5 93.5t95.5 37.5q56 0 94 -37.5t38 -93.5q0 -55 -38 -92t-94 -37zM835 1569q-56 0 -94.5 37t-38.5 92q0 56 38.5 93.5t94.5 37.5q57 0 95.5 -37.5t38.5 -93.5q0 -55 -38.5 -92t-95.5 -37zM1039 1413v-181h-305v-1050h305v-182
h-850v182h306v1050h-306v181h850z" />
    <glyph glyph-name="Upsilondieresis" unicode="&#x3ab;" 
d="M397 1569q-57 0 -95.5 37t-38.5 92q0 56 38.5 93.5t95.5 37.5q56 0 94 -37.5t38 -93.5q0 -55 -38 -92t-94 -37zM839 1569q-55 0 -93.5 37t-38.5 92q0 56 38.5 93.5t93.5 37.5q57 0 95.5 -37.5t38.5 -93.5q0 -55 -38.5 -92t-95.5 -37zM734 540v-540h-239v538l-471 875h261
l335 -670l336 670h249z" />
    <glyph glyph-name="alphatonos" unicode="&#x3ac;" 
d="M568 1684l233 -45l-153 -426l-156 27zM515 1110q143 0 225 -77t109 -246l53 294h209l-131 -549l54 -263q11 -52 34 -76.5t68 -38.5l-78 -183q-86 13 -135.5 58.5t-66.5 135.5l-19 113q-92 -306 -337 -306q-189 0 -294 143.5t-105 416.5q0 258 110 418t304 160zM541 934
q-97 0 -148.5 -102.5t-51.5 -299.5q0 -385 191 -385q181 0 255 399q-36 216 -94.5 302t-151.5 86z" />
    <glyph glyph-name="epsilontonos" unicode="&#x3ad;" 
d="M646 1684l232 -45l-152 -426l-157 27zM822 479h-190q-123 0 -178.5 -38t-55.5 -117q0 -82 70 -129t196 -47q206 0 363 105l113 -140q-197 -141 -493 -141q-220 0 -356 88.5t-136 248.5q0 121 68.5 185t209.5 85q-235 50 -235 240q0 92 60.5 159t160.5 99.5t227 32.5
q119 0 232.5 -28t198.5 -84l-107 -133q-124 74 -303 74q-113 0 -174 -36.5t-61 -110.5q0 -68 56 -107.5t156 -39.5h204z" />
    <glyph glyph-name="etatonos" unicode="&#x3ae;" 
d="M620 1684l231 -45l-152 -426l-156 27zM751 1110q150 0 225.5 -83.5t75.5 -238.5v-1204l-230 -25v1116q0 149 -29 204.5t-126 55.5q-72 0 -138 -46t-114 -116v-773h-230v746q0 163 -50 332l213 30q15 -27 29.5 -78t19.5 -94q69 84 162.5 129t191.5 45z" />
    <glyph glyph-name="iotatonos" unicode="&#x3af;" 
d="M587 1684l231 -45l-152 -426l-156 27zM462 902h-353l22 179h560v-787q0 -136 164 -136q83 0 171 36l57 -160q-46 -26 -121.5 -44t-155.5 -18q-158 0 -251 88t-93 242v600z" />
    <glyph glyph-name="upsilondieresistonos" unicode="&#x3b0;" 
d="M597 1903l215 -42l-132 -362l-142 24zM383 1525q55 0 93 -37.5t38 -93.5q0 -55 -38 -92.5t-93 -37.5q-57 0 -95 37.5t-38 92.5q0 56 38 93.5t95 37.5zM844 1525q57 0 95.5 -37.5t38.5 -93.5q0 -55 -38.5 -92.5t-95.5 -37.5q-55 0 -93 37.5t-38 92.5q0 56 37.5 93.5
t93.5 37.5zM1040 1081q56 -294 56 -558q0 -139 -42.5 -247.5t-115 -173t-162 -97.5t-191.5 -33q-182 0 -293 96t-111 276v737h230v-720q0 -211 186 -211q54 0 99.5 20t84.5 62.5t61.5 121.5t22.5 186q0 259 -54 541h229z" />
    <glyph glyph-name="alpha" unicode="&#x3b1;" 
d="M515 1110q143 0 225 -77t109 -246l53 294h209l-131 -549l54 -263q11 -52 34 -76.5t68 -38.5l-78 -183q-86 13 -135.5 58.5t-66.5 135.5l-19 113q-92 -306 -337 -306q-189 0 -294 143.5t-105 416.5q0 258 110 418t304 160zM541 934q-97 0 -148.5 -102.5t-51.5 -299.5
q0 -385 191 -385q181 0 255 399q-36 216 -94.5 302t-151.5 86z" />
    <glyph glyph-name="beta" unicode="&#x3b2;" 
d="M592 1544q189 0 311 -104.5t122 -272.5q0 -145 -79 -229.5t-216 -109.5q406 -42 406 -408q0 -200 -131 -325t-326 -125q-155 0 -292 100v-481l-230 -35v1559q0 202 118 316.5t317 114.5zM387 1118v-888q101 -80 249 -80q115 0 189.5 71.5t74.5 205.5q0 149 -83.5 225
t-235.5 76h-95l21 170h82q95 0 153.5 62t58.5 185q0 112 -56 168t-152 56q-206 0 -206 -251z" />
    <glyph glyph-name="gamma" unicode="&#x3b3;" 
d="M932 1108l230 -53l-438 -1013q-45 -105 -51.5 -212.5t23.5 -246.5l-183 -23q-51 102 -53.5 228.5t42.5 246.5q-76 313 -193 584.5t-242 405.5l229 82q101 -132 188.5 -359t137.5 -503z" />
    <glyph glyph-name="delta" unicode="&#x3b4;" 
d="M652 1541q206 0 359 -124l-113 -131q-111 85 -249 85q-82 0 -127.5 -32.5t-45.5 -89.5q0 -60 44 -94.5t179 -89.5q112 -46 187 -94.5t129.5 -115t79 -152.5t24.5 -201q0 -148 -59 -267.5t-174 -191t-266 -71.5q-154 0 -269 69.5t-173.5 188t-58.5 267.5q0 169 87.5 292
t235.5 185q-111 57 -155 119t-44 153q0 136 110.5 215.5t298.5 79.5zM590 908q-124 -66 -176.5 -163.5t-52.5 -242.5q0 -168 67 -260t190 -92q125 0 192 89.5t67 263.5q0 169 -59.5 251t-227.5 154z" />
    <glyph glyph-name="epsilon" unicode="&#x3b5;" 
d="M822 479h-190q-123 0 -178.5 -38t-55.5 -117q0 -82 70 -129t196 -47q206 0 363 105l113 -140q-197 -141 -493 -141q-220 0 -356 88.5t-136 248.5q0 121 68.5 185t209.5 85q-235 50 -235 240q0 92 60.5 159t160.5 99.5t227 32.5q119 0 232.5 -28t198.5 -84l-107 -133
q-124 74 -303 74q-113 0 -174 -36.5t-61 -110.5q0 -68 56 -107.5t156 -39.5h204z" />
    <glyph glyph-name="zeta" unicode="&#x3b6;" 
d="M1085 1516l28 -147q-173 -139 -290 -247.5t-201.5 -212.5t-123.5 -197.5t-39 -187.5q0 -69 15 -116t54 -83.5t91 -61.5t141 -56q78 -27 124 -45.5t92.5 -44t69.5 -52t37.5 -62.5t14.5 -82q0 -120 -83.5 -212t-257.5 -168l-89 151q95 49 141.5 94t46.5 110
q0 46 -37.5 69.5t-159.5 66.5q-97 34 -161.5 64t-122.5 70.5t-91 88.5t-51.5 113t-18.5 149q0 209 159.5 407.5t519.5 441.5q-63 -28 -328 -28h-272l28 178h764z" />
    <glyph glyph-name="eta" unicode="&#x3b7;" 
d="M751 1110q150 0 225.5 -83.5t75.5 -238.5v-1204l-230 -25v1116q0 149 -29 204.5t-126 55.5q-72 0 -138 -46t-114 -116v-773h-230v746q0 163 -50 332l213 30q15 -27 29.5 -78t19.5 -94q69 84 162.5 129t191.5 45z" />
    <glyph glyph-name="theta" unicode="&#x3b8;" 
d="M615 1541q236 0 362 -202t126 -576q0 -372 -128 -581.5t-361 -209.5q-235 0 -361.5 206.5t-126.5 582.5q0 369 127.5 574.5t361.5 205.5zM615 1364q-128 0 -190.5 -122t-68.5 -402h516q-7 281 -68.5 402.5t-188.5 121.5zM870 682h-514q7 -285 69.5 -409.5t188.5 -124.5
q125 0 187 124.5t69 409.5z" />
    <glyph glyph-name="iota" unicode="&#x3b9;" 
d="M462 902h-353l22 179h560v-787q0 -136 164 -136q83 0 171 36l57 -160q-46 -26 -121.5 -44t-155.5 -18q-158 0 -251 88t-93 242v600z" />
    <glyph glyph-name="kappa" unicode="&#x3ba;" 
d="M915 1109l191 -108l-413 -416l273 -300q56 -60 99 -88t100 -41l-79 -185q-93 12 -157.5 55t-134.5 132l-357 417zM374 1081q55 -158 55 -407v-674h-229v702q0 200 -49 379h223z" />
    <glyph glyph-name="lambda" unicode="&#x3bb;" 
d="M466 1081h83q-44 139 -119 204t-236 90l31 169q262 -36 384.5 -156.5t189.5 -399.5q91 -378 173.5 -596t195.5 -341l-231 -79q-110 148 -189 372.5t-142 567.5l-300 -941l-224 52z" />
    <glyph glyph-name="uni03BC" unicode="&#x3bc;" 
d="M1022 1081v-722q0 -173 45 -359l-212 -26q-30 65 -41 168q-47 -77 -119 -123t-149 -46q-72 0 -114.5 22t-84.5 80q40 -131 40 -227v-264l-223 -25v1522h229v-609q0 -67 2.5 -110t11.5 -85.5t25.5 -65.5t45 -37.5t70.5 -14.5q145 0 245 145v777h229z" />
    <glyph glyph-name="nu" unicode="&#x3bd;" 
d="M459 0q-75 342 -182.5 632t-224.5 398l220 78q105 -123 190.5 -365t144.5 -557l309 924l226 -51l-413 -1059h-270z" />
    <glyph glyph-name="xi" unicode="&#x3be;" 
d="M732 1541q241 0 414 -122l-106 -130q-131 84 -291 84q-119 0 -186 -48.5t-67 -140.5q0 -98 62.5 -147t178.5 -49h231l-25 -178h-220q-137 0 -217 -71.5t-80 -185.5q0 -38 4.5 -68t16.5 -56t25.5 -45.5t39.5 -39t50.5 -33.5t67 -31.5t79.5 -31t97 -33.5
q92 -31 146.5 -55.5t98 -58.5t61.5 -77t18 -104q0 -119 -84 -210.5t-258 -168.5l-88 151q89 44 138 94t49 117q0 47 -32.5 71.5t-133.5 58.5q-71 25 -117.5 42.5t-103.5 42.5t-93 47t-76.5 51.5t-64 61.5t-44.5 71.5t-30 87.5t-9 104q0 69 21 127t54.5 98t79 70.5t90 47
t91.5 25.5q-118 41 -187.5 108t-69.5 178q0 105 65 185t171 120.5t234 40.5z" />
    <glyph glyph-name="omicron" unicode="&#x3bf;" 
d="M615 1110q233 0 360.5 -152.5t127.5 -414.5q0 -261 -129 -416t-360 -155q-233 0 -360.5 152t-127.5 417q0 258 129 413.5t360 155.5zM615 932q-125 0 -186.5 -95.5t-61.5 -295.5t61 -295.5t186 -95.5t186.5 96t61.5 297q0 198 -61.5 293.5t-185.5 95.5z" />
    <glyph glyph-name="pi" unicode="&#x3c0;" 
d="M1157 1081v-177h-160v-592q0 -74 22 -109t76 -53l-75 -178q-129 28 -189 101t-60 211v620h-327v-904h-224v903q-90 -1 -165 -26l-44 165q47 22 100.5 30.5t150.5 8.5h895z" />
    <glyph glyph-name="rho" unicode="&#x3c1;" 
d="M631 1110q469 0 469 -567q0 -94 -17 -179t-51.5 -157t-84 -124t-118.5 -81.5t-151 -29.5q-172 0 -277 121v-509l-229 -25v998q0 270 116 411.5t343 141.5zM627 935q-123 0 -174.5 -101t-51.5 -315v-247q77 -120 215 -120q118 0 179.5 98t61.5 292q0 206 -56 299.5
t-174 93.5z" />
    <glyph glyph-name="uni03C2" unicode="&#x3c2;" 
d="M720 1110q116 0 205 -29t175 -93l-108 -144q-63 43 -122 62.5t-138 19.5q-131 0 -215.5 -94t-84.5 -271q0 -75 13 -123.5t51 -88t93 -67.5t153 -64q68 -25 112 -44.5t87.5 -46t67.5 -55t39 -67.5t15 -88q0 -117 -81.5 -202t-257.5 -161l-93 151q94 40 141.5 82t47.5 104
q0 55 -42 83.5t-189 83.5q-80 30 -139 60t-110.5 72.5t-83 94t-49.5 120.5t-18 156q0 249 148.5 399t382.5 150z" />
    <glyph glyph-name="sigma" unicode="&#x3c3;" 
d="M657 1096q216 0 502 -14v-171l-233 17q81 -55 127.5 -154t46.5 -239q0 -261 -128.5 -412t-357.5 -151q-231 0 -359.5 152t-128.5 415q0 257 138.5 407t392.5 150zM367 539q0 -199 61.5 -294t185.5 -95q123 0 183.5 95.5t60.5 294.5q0 286 -128 394q-90 0 -152 -16.5
t-112 -58.5t-74.5 -121.5t-24.5 -198.5z" />
    <glyph glyph-name="tau" unicode="&#x3c4;" 
d="M1061 1081v-178h-391v-609q0 -136 161 -136q85 0 173 36l57 -160q-46 -26 -122 -44t-156 -18q-159 0 -251 88t-92 242v601h-93q-129 0 -245 -32l-35 169q110 41 291 41h703z" />
    <glyph glyph-name="upsilon" unicode="&#x3c5;" 
d="M1040 1081q56 -294 56 -558q0 -139 -42.5 -247.5t-115 -173t-162 -97.5t-191.5 -33q-182 0 -293 96t-111 276v737h230v-720q0 -211 186 -211q54 0 99.5 20t84.5 62.5t61.5 121.5t22.5 186q0 259 -54 541h229z" />
    <glyph glyph-name="phi" unicode="&#x3c6;" 
d="M822 1110q182 0 265.5 -138.5t83.5 -421.5q0 -524 -474 -573v-396l-194 -22v418q-446 43 -446 513q0 292 111 591h208q-110 -330 -110 -547q0 -187 52 -281.5t185 -116.5v520q0 225 74.5 339.5t244.5 114.5zM819 948q-29 0 -50 -9.5t-34.5 -32.5t-21 -46t-11 -65
t-4.5 -73.5t-1 -86.5v-500q143 21 201.5 118.5t58.5 296.5q0 220 -29 309t-109 89z" />
    <glyph glyph-name="chi" unicode="&#x3c7;" 
d="M305 1108q98 -109 173.5 -245.5t148.5 -349.5l263 593l222 -42l-360 -691l397 -769l-225 -55l-302 666l-304 -662l-227 45l403 770q-104 250 -196 394t-216 266z" />
    <glyph glyph-name="psi" unicode="&#x3c8;" 
d="M714 1081v-930q77 11 126.5 38t76 77t36.5 112t10 158q0 225 -52 545h208q55 -290 55 -560q0 -243 -110 -377.5t-350 -161.5v-398l-196 -25v423q-230 20 -336.5 133t-106.5 287v679h209v-667q0 -122 53.5 -184.5t180.5 -78.5v930h196z" />
    <glyph glyph-name="omega" unicode="&#x3c9;" 
d="M1078 1081q106 -312 106 -589q0 -250 -80 -385t-234 -135q-216 0 -258 230q-56 -230 -255 -230q-155 0 -233.5 132t-78.5 388q0 296 103 589h192q-47 -156 -64.5 -290.5t-17.5 -292.5q0 -115 11 -188t41 -116.5t81 -43.5q72 0 100 83t28 242v244l191 30v-271
q0 -170 27.5 -249t102.5 -79t103 86t28 262q0 292 -86 583h193z" />
    <glyph glyph-name="iotadieresis" unicode="&#x3ca;" 
d="M366 1319q-57 0 -96 37.5t-39 92.5q0 56 39 93t96 37q56 0 94 -37t38 -93q0 -55 -38 -92.5t-94 -37.5zM807 1319q-55 0 -93.5 37.5t-38.5 92.5q0 56 38.5 93t93.5 37q57 0 95.5 -37t38.5 -93q0 -55 -38.5 -92.5t-95.5 -37.5zM462 902h-353l22 179h560v-787
q0 -136 164 -136q83 0 171 36l57 -160q-46 -26 -121.5 -44t-155.5 -18q-158 0 -251 88t-93 242v600z" />
    <glyph glyph-name="upsilondieresis" unicode="&#x3cb;" 
d="M393 1319q-57 0 -95.5 37.5t-38.5 92.5q0 56 38.5 93t95.5 37q56 0 94 -37t38 -93q0 -55 -38 -92.5t-94 -37.5zM835 1319q-56 0 -94.5 37.5t-38.5 92.5q0 56 38.5 93t94.5 37q57 0 95.5 -37t38.5 -93q0 -55 -38.5 -92.5t-95.5 -37.5zM1040 1081q56 -294 56 -558
q0 -139 -42.5 -247.5t-115 -173t-162 -97.5t-191.5 -33q-182 0 -293 96t-111 276v737h230v-720q0 -211 186 -211q54 0 99.5 20t84.5 62.5t61.5 121.5t22.5 186q0 259 -54 541h229z" />
    <glyph glyph-name="omicrontonos" unicode="&#x3cc;" 
d="M613 1684l233 -45l-153 -426l-156 27zM615 1110q233 0 360.5 -152.5t127.5 -414.5q0 -261 -129 -416t-360 -155q-233 0 -360.5 152t-127.5 417q0 258 129 413.5t360 155.5zM615 932q-125 0 -186.5 -95.5t-61.5 -295.5t61 -295.5t186 -95.5t186.5 96t61.5 297
q0 198 -61.5 293.5t-185.5 95.5z" />
    <glyph glyph-name="upsilontonos" unicode="&#x3cd;" 
d="M613 1684l233 -45l-153 -426l-156 27zM1040 1081q56 -294 56 -558q0 -139 -42.5 -247.5t-115 -173t-162 -97.5t-191.5 -33q-182 0 -293 96t-111 276v737h230v-720q0 -211 186 -211q54 0 99.5 20t84.5 62.5t61.5 121.5t22.5 186q0 259 -54 541h229z" />
    <glyph glyph-name="omegatonos" unicode="&#x3ce;" 
d="M613 1684l233 -45l-153 -426l-156 27zM1078 1081q106 -312 106 -589q0 -250 -80 -385t-234 -135q-216 0 -258 230q-56 -230 -255 -230q-155 0 -233.5 132t-78.5 388q0 296 103 589h192q-47 -156 -64.5 -290.5t-17.5 -292.5q0 -115 11 -188t41 -116.5t81 -43.5
q72 0 100 83t28 242v244l191 30v-271q0 -170 27.5 -249t102.5 -79t103 86t28 262q0 292 -86 583h193z" />
    <glyph glyph-name="uni03CF" unicode="&#x3cf;" 
d="M404 0h-237v1413h237v-1413zM415 755l447 658h260l-449 -642l368 -582h141v-286q0 -170 -89.5 -258.5t-250.5 -88.5q-139 0 -248 82l89 144q39 -23 69 -33.5t73 -10.5q120 0 120 147v115h-65z" />
    <glyph glyph-name="uni03D0" unicode="&#x3d0;" 
d="M692 1541q82 0 145 -23.5t99 -63.5t53.5 -87t17.5 -100q0 -133 -95.5 -235.5t-255.5 -154.5q56 14 100 14q155 0 244 -106.5t89 -321.5q0 -98 -32.5 -186.5t-92 -156.5t-151 -108t-200.5 -40q-126 0 -217.5 49.5t-147 146.5t-81.5 229.5t-26 308.5q0 198 46 359.5
t123 263.5t175.5 157t206.5 55zM678 1373q-51 0 -97.5 -29t-87.5 -88t-70 -161t-38 -236l57 25q182 73 262 160t80 212q0 58 -27.5 87.5t-78.5 29.5zM435 713l-55 -26q2 -201 28 -319t75 -168t129 -50q110 0 172.5 82.5t62.5 222.5q0 154 -46 234t-160 80q-87 0 -206 -56z
" />
    <glyph glyph-name="uni03D1" unicode="&#x3d1;" 
d="M545 -28q-154 0 -258 97t-104 276v372h226v-367q0 -101 38.5 -151.5t107.5 -50.5q81 0 132.5 63t79 213.5t27.5 397.5v4l-203 -1q-216 -1 -331 96t-115 255q0 153 112.5 259t281.5 106q215 0 337.5 -143.5t151.5 -401.5h82v-170h-73v-2q0 -427 -119 -639.5t-373 -212.5z
M365 1181q0 -93 61 -139.5t165 -46.5l195 1q-18 191 -78.5 280t-165.5 89q-81 0 -129 -51.5t-48 -132.5z" />
    <glyph glyph-name="uni03D2" unicode="&#x3d2;" 
d="M1180 1252q-30 8 -55 8q-38 0 -63.5 -23.5t-53.5 -84.5l-281 -612v-540h-240v538l-430 875h262l293 -672l194 464q56 133 120 185t175 52q68 0 122 -23z" />
    <glyph glyph-name="uni03D3" unicode="&#x3d3;" 
d="M-218 1459l245 -46l-160 -424l-161 27zM1180 1252q-30 8 -55 8q-38 0 -63.5 -23.5t-53.5 -84.5l-281 -612v-540h-240v538l-430 875h262l293 -672l194 464q56 133 120 185t175 52q68 0 122 -23z" />
    <glyph glyph-name="uni03D4" unicode="&#x3d4;" 
d="M399 1569q-57 0 -95.5 37t-38.5 92q0 56 38.5 93.5t95.5 37.5q56 0 94 -37.5t38 -93.5q0 -55 -38 -92t-94 -37zM841 1569q-56 0 -94 37t-38 92q0 56 38 93.5t94 37.5q57 0 95.5 -37.5t38.5 -93.5q0 -55 -38.5 -92t-95.5 -37zM1180 1252q-30 8 -55 8q-38 0 -63.5 -23.5
t-53.5 -84.5l-281 -612v-540h-240v538l-430 875h262l293 -672l194 464q56 133 120 185t175 52q68 0 122 -23z" />
    <glyph glyph-name="uni03D5" unicode="&#x3d5;" 
d="M723 1538v-464q198 -15 316 -154t118 -375q0 -244 -121 -384t-313 -153v-424l-218 -25l1 449q-197 15 -315.5 154.5t-118.5 377.5q0 244 121.5 383t311.5 151v439zM290 540q0 -175 58 -270t169 -106v757q-227 -21 -227 -381zM938 545q0 176 -58 270t-169 104v-756
q227 26 227 382z" />
    <glyph glyph-name="uni03D6" unicode="&#x3d6;" 
d="M39 893l-40 154q54 20 120 27t218 7h865v-163h-129q92 -204 92 -433q0 -245 -79.5 -379t-226.5 -134q-200 0 -242 230q-27 -114 -87 -172t-150 -58q-148 0 -226 131.5t-78 381.5q0 230 89 429q-55 -2 -126 -21zM714 478q0 -169 26 -248.5t93 -79.5q69 0 95.5 86.5
t26.5 261.5q0 223 -44 418l-585 -1q-40 -183 -40 -417q0 -173 27.5 -260.5t95.5 -87.5q34 0 57.5 23t36 68t18 101t5.5 133v203l188 28v-228z" />
    <glyph glyph-name="uni03D7" unicode="&#x3d7;" 
d="M404 -19l-199 64v725q0 75 -20 110.5t-72 60.5l72 169q126 -31 185 -108t59 -211q0 -82 -23 -266.5t-39 -268.5l456 846l200 -65v-725q0 -82 19.5 -117.5t72.5 -60.5v-238q0 -166 -89.5 -253.5t-245.5 -87.5q-149 0 -254 80l84 141q44 -23 76.5 -33.5t80.5 -10.5
q132 0 132 144v181q-100 68 -100 234q0 84 23 269.5t39 265.5z" />
    <glyph glyph-name="uni03D8" unicode="&#x3d8;" 
d="M501 -419v402q-207 42 -315.5 232t-108.5 490q0 220 59.5 384.5t182 258.5t295.5 94q260 0 399 -197.5t139 -537.5q0 -296 -108.5 -488t-313.5 -235v-403h-229zM906 707q0 279 -69 414t-223 135q-153 0 -222 -135.5t-69 -415.5q0 -278 70 -412.5t221 -134.5
q155 0 223.5 134.5t68.5 414.5z" />
    <glyph glyph-name="uni03D9" unicode="&#x3d9;" 
d="M615 1110q233 0 360.5 -152.5t127.5 -414.5q0 -227 -97.5 -375t-277.5 -185v-399l-227 -25v424q-181 35 -278 181t-97 377q0 258 129 413.5t360 155.5zM615 932q-125 0 -186.5 -95.5t-61.5 -295.5t61 -295.5t186 -95.5t186.5 96t61.5 297q0 198 -61.5 293.5t-185.5 95.5z
" />
    <glyph glyph-name="uni03DA" unicode="&#x3da;" 
d="M746 -445l-90 147q93 44 140 87.5t47 105.5q0 56 -53.5 92.5t-222.5 104.5q-150 62 -243 140t-144.5 202t-51.5 298q0 113 25 212.5t80 186t135.5 149t197.5 98t260 35.5h328l-32 -194h-286q-232 0 -346.5 -129t-114.5 -352q0 -201 74 -303t278 -184q94 -38 154 -69
t108 -71t69.5 -88.5t21.5 -110.5q0 -113 -79.5 -196.5t-254.5 -160.5z" />
    <glyph glyph-name="uni03DB" unicode="&#x3db;" 
d="M838 1189l211 -18q0 -59 -11 -105.5t-35.5 -81t-53 -59t-74 -44.5t-86.5 -33t-102 -28q-70 -18 -113 -32t-85 -36.5t-64 -51t-35.5 -71t-13.5 -100.5q0 -70 15 -116t56 -83.5t100.5 -64.5t162.5 -60q86 -28 139 -51.5t100 -57.5t68.5 -79.5t21.5 -106.5q0 -113 -81 -196
t-257 -159l-91 147q97 45 142 86t45 100q0 40 -30.5 68t-65.5 42t-134 45l-27 9q-77 25 -131.5 49.5t-110 63.5t-89.5 86t-55 116.5t-21 156.5q0 97 27 172t79.5 127.5t121.5 87.5t162 59q60 17 89.5 25.5t69 21.5t56.5 21t39.5 21t30.5 24t17 28t11 35t2 43z" />
    <glyph glyph-name="uni03DC" unicode="&#x3dc;" 
d="M922 581q-84 29 -185 29h-272v-610h-238v1413h884l-24 -196h-622v-422h290q75 0 125 -11.5t101 -38.5z" />
    <glyph glyph-name="uni03DD" unicode="&#x3dd;" 
d="M951 283q-84 29 -184 29h-307v-723l-230 -32v1168q0 171 96 263.5t278 92.5h485l-27 -179h-439q-83 0 -123 -41t-40 -129v-245h324q137 0 223 -49z" />
    <glyph glyph-name="uni03DE" unicode="&#x3de;" 
d="M390 0l456 614h-679l-42 196l454 603h260l-455 -603h679l43 -196h-1l-455 -614h-260z" />
    <glyph glyph-name="uni03DF" unicode="&#x3df;" 
d="M217 555l-60 172l194 395q77 155 109.5 245t45.5 179l203 -43q-8 -106 -48.5 -211.5t-131.5 -265.5l-127 -228l608 175l63 -171h-1l-200 -406q-76 -154 -108.5 -244.5t-46.5 -179.5l-203 43q9 107 49.5 214t130.5 264l133 238z" />
    <glyph glyph-name="uni03E0" unicode="&#x3e0;" 
d="M36 0l492 1249l-68 164h203l530 -1413h-223l-190 549l-168 -549l-183 3l265 794l-73 212l-357 -1009h-228z" />
    <glyph glyph-name="uni03E1" unicode="&#x3e1;" 
d="M47 0l515 1076q-169 174 -449 323l74 147q303 -139 497 -320.5t295 -437t101 -591.5q0 -152 -25 -328t-61 -308l-183 26q63 295 63 610q0 155 -23 295l-204 -492h-178l314 735q-42 105 -94 183l-434 -918h-208z" />
    <glyph glyph-name="uni03F0" unicode="&#x3f0;" 
d="M406 -19l-200 64v725q0 76 -20 111t-72 60l72 169q126 -31 185.5 -108t59.5 -211q0 -83 -23 -269.5t-39 -265.5l454 846l200 -67v-723q0 -75 20 -110.5t72 -60.5l-72 -169q-126 31 -185 108t-59 211q0 83 22.5 267.5t38.5 267.5z" />
    <glyph glyph-name="uni03F1" unicode="&#x3f1;" 
d="M776 -446q-21 44 -63 61t-184 40q-186 28 -271.5 115t-85.5 272v515q0 272 115.5 412.5t341.5 140.5q227 0 349 -138.5t122 -379.5q0 -146 -48 -269t-146 -201t-229 -78q-176 0 -276 138v-153q0 -111 53 -151.5t221 -65.5q143 -22 213 -67t95 -126zM401 526v-164
q77 -140 215 -140q114 0 177.5 97.5t63.5 271.5q0 172 -57.5 258t-166.5 86q-126 0 -179 -100t-53 -309z" />
    <glyph glyph-name="uni03F2" unicode="&#x3f2;" 
d="M703 161q132 0 267 94l106 -147q-73 -62 -174 -99t-206 -37q-247 0 -386.5 153t-139.5 411q0 253 142.5 413.5t387.5 160.5q218 0 375 -130l-105 -144q-132 90 -265 90q-134 0 -212.5 -97.5t-78.5 -292.5q0 -193 77.5 -284t211.5 -91z" />
    <glyph glyph-name="uni03F3" unicode="&#x3f3;" 
d="M754 1611q66 0 108 -41t42 -103q0 -63 -42 -104t-108 -41t-108 41t-42 104q0 62 42 103t108 41zM933 1081v-854q0 -149 -46.5 -262t-141 -192.5t-224.5 -130.5t-308 -83l-37 176q128 24 220 58.5t163.5 89.5t107.5 137t36 192v701h-427v168h657z" />
    <glyph glyph-name="uni03F4" unicode="&#x3f4;" 
d="M1152 707q0 -220 -60 -384t-182.5 -257.5t-295.5 -93.5q-260 0 -398.5 196.5t-138.5 536.5q0 220 59.5 384.5t182 258.5t295.5 94q260 0 399 -197.5t139 -537.5zM910 707q0 279 -71 414t-225 135t-225 -135.5t-71 -415.5q0 -277 72 -412t224 -135q155 0 225.5 134.5
t70.5 414.5zM802 640h-377v162h377v-162z" />
    <glyph glyph-name="uni03F5" unicode="&#x3f5;" 
d="M698 1110q222 0 378 -126l-102 -137q-131 88 -269 88q-122 0 -201 -76t-98 -225h468v-161h-470q12 -164 92.5 -243t209.5 -79q138 0 269 89l101 -140q-74 -61 -175 -94.5t-202 -33.5q-250 0 -389.5 153t-139.5 411q0 253 142.5 413.5t385.5 160.5z" />
    <glyph glyph-name="uni03F6" unicode="&#x3f6;" 
d="M568 1110q246 0 377 -152.5t131 -413.5q0 -260 -137.5 -416t-386.5 -156q-229 0 -382 133l106 137q125 -91 272 -91q269 0 294 322h-469v161h466q-28 301 -281 301q-147 0 -273 -89l-104 137q160 127 387 127z" />
    <glyph glyph-name="uni03F7" unicode="&#x3f7;" 
d="M420 1413v-234h169q272 0 418.5 -113t146.5 -340q0 -122 -39 -213t-112.5 -147.5t-172.5 -84t-225 -27.5h-185v-254h-238v1413h238zM605 1000h-185v-566h191q142 0 218 66t76 223q0 277 -300 277z" />
    <glyph glyph-name="uni03F8" unicode="&#x3f8;" 
d="M412 1541v-584q117 153 298 153q393 0 393 -567q0 -168 -46.5 -295t-141.5 -201.5t-229 -74.5q-169 0 -274 120v-508l-230 -25v1957zM646 933q-133 0 -234 -155v-506q80 -120 214 -120q118 0 177 95t59 295q0 205 -53 298t-163 93z" />
    <glyph glyph-name="uni03F9" unicode="&#x3f9;" 
d="M733 1442q137 0 236.5 -35.5t189.5 -109.5l-124 -147q-125 104 -291 104q-66 0 -122.5 -18t-106.5 -59t-85.5 -103t-56 -155t-20.5 -210q0 -143 29.5 -249.5t83 -170t123 -94t155.5 -30.5q103 0 176.5 32.5t144.5 89.5l115 -147q-172 -168 -444 -168q-135 0 -250 48.5
t-199.5 140t-132.5 232t-48 316.5q0 174 49.5 314.5t135 231t199 139t243.5 48.5z" />
    <glyph glyph-name="uni03FA" unicode="&#x3fa;" 
d="M1097 1413l80 -1413h-218l-33 688q-12 285 -1 516l-208 -955h-207l-223 955q15 -220 6 -518l-28 -686h-213l80 1413h285l201 -947l193 947h286z" />
    <glyph glyph-name="uni03FB" unicode="&#x3fb;" 
d="M27 -441l135 1522h277l165 -755l188 755h277l89 -1081h-213l-32 444q-10 186 -6 455l-205 -775h-206l-181 769q0 -295 -11 -449l-68 -864z" />
    <glyph glyph-name="uni03FC" unicode="&#x3fc;" 
d="M80 -124h150v681q0 270 116 411.5t343 141.5q469 0 469 -567q0 -94 -17 -179t-51.5 -157t-84 -124t-118.5 -81.5t-151 -29.5q-171 0 -276 121v-217h311v-158h-311v-134l-230 -25v159h-150v158zM685 935q-122 0 -173.5 -101t-51.5 -315v-247q77 -120 215 -120
q240 0 240 390q0 206 -56 299.5t-174 93.5z" />
    <glyph glyph-name="uni03FD" unicode="&#x3fd;" 
d="M516 1442q283 0 444.5 -190.5t161.5 -542.5q0 -176 -47.5 -316.5t-132.5 -232t-199.5 -140t-249.5 -48.5q-272 0 -444 168l115 145q47 -36 84.5 -59t101 -42t134.5 -19q86 0 155.5 30.5t123.5 94t83.5 170t29.5 249.5q0 196 -45.5 318.5t-126.5 174.5t-203 52
q-170 0 -327 -103l-104 146q101 74 205.5 109.5t240.5 35.5z" />
    <glyph glyph-name="uni03FE" unicode="&#x3fe;" 
d="M733 1442q137 0 236.5 -35.5t189.5 -109.5l-124 -147q-125 104 -291 104q-66 0 -122.5 -18t-106.5 -59t-85.5 -103t-56 -155t-20.5 -210q0 -143 29.5 -249.5t83 -170t123 -94t155.5 -30.5q103 0 176.5 32.5t144.5 89.5l115 -147q-172 -168 -444 -168q-135 0 -250 48.5
t-199.5 140t-132.5 232t-48 316.5q0 174 49.5 314.5t135 231t199 139t243.5 48.5zM748 856q65 0 106.5 -40t41.5 -100q0 -62 -41.5 -103t-106.5 -41t-106 41t-41 103q0 60 41 100t106 40z" />
    <glyph glyph-name="uni03FF" unicode="&#x3ff;" 
d="M516 1442q283 0 444.5 -190.5t161.5 -542.5q0 -176 -47.5 -316.5t-132.5 -232t-199.5 -140t-249.5 -48.5q-272 0 -444 168l115 145q47 -36 84.5 -59t101 -42t134.5 -19q86 0 155.5 30.5t123.5 94t83.5 170t29.5 249.5q0 196 -45.5 318.5t-126.5 174.5t-203 52
q-170 0 -327 -103l-104 146q101 74 205.5 109.5t240.5 35.5zM478 856q65 0 106.5 -40t41.5 -100q0 -62 -41.5 -103t-106.5 -41t-106 41t-41 103q0 60 41 100t106 40z" />
    <glyph glyph-name="uni0400" unicode="&#x400;" 
d="M508 1896l402 -233l-62 -119l-446 169zM469 1233v-425h512v-180h-512v-448h624v-180h-862v1413h850l-26 -180h-586z" />
    <glyph glyph-name="uni0401" unicode="&#x401;" 
d="M435 1569q-57 0 -95.5 37t-38.5 92q0 56 38.5 93.5t95.5 37.5q56 0 94 -37.5t38 -93.5q0 -55 -38 -92t-94 -37zM877 1569q-55 0 -94 37t-39 92q0 56 39 93.5t94 37.5q57 0 95.5 -37.5t38.5 -93.5q0 -55 -38.5 -92t-95.5 -37zM469 1233v-425h512v-180h-512v-448h624v-180
h-862v1413h850l-26 -180h-586z" />
    <glyph glyph-name="uni0402" unicode="&#x402;" 
d="M530 1231v-405q127 111 277 111q364 0 364 -428v-310q0 -111 -26.5 -195.5t-79.5 -142.5t-118 -96t-157 -69l-61 175q128 53 170.5 122t42.5 208v311q0 128 -44 183t-149 55q-119 0 -219 -94v-656h-229v1231h-313v182h879l-24 -182h-313z" />
    <glyph glyph-name="uni0403" unicode="&#x403;" 
d="M866 1891l96 -182l-457 -165l-58 119zM1126 1413l-24 -196h-622v-1217h-237v1413h883z" />
    <glyph glyph-name="uni0404" unicode="&#x404;" 
d="M726 1442q135 0 234.5 -36.5t191.5 -108.5l-116 -137q-140 100 -295 100q-78 0 -144 -24.5t-119.5 -76t-88 -137.5t-43.5 -202h586v-189h-589q6 -121 38 -212.5t85.5 -147t121 -83t149.5 -27.5q103 0 178.5 31.5t142.5 86.5l114 -141q-175 -166 -447 -166
q-138 0 -252.5 48.5t-198 140t-129.5 232t-46 316.5q0 139 32 258t89 205.5t135.5 148t172.5 91.5t198 30z" />
    <glyph glyph-name="uni0405" unicode="&#x405;" 
d="M1123 399q0 -192 -143.5 -309.5t-394.5 -117.5q-325 0 -520 190l130 145q160 -147 389 -147q126 0 209.5 59t83.5 169q0 94 -61 147t-229 104q-235 70 -345.5 166t-110.5 255q0 171 136.5 276.5t348.5 105.5q287 0 474 -170l-125 -142q-144 125 -334 125
q-113 0 -184.5 -47t-71.5 -135q0 -82 69 -130t262 -106q78 -23 136 -47.5t113.5 -61t90.5 -81t56 -107.5t21 -141z" />
    <glyph glyph-name="uni0406" unicode="&#x406;" 
d="M1039 1413v-181h-305v-1050h305v-182h-850v182h306v1050h-306v181h850z" />
    <glyph glyph-name="uni0407" unicode="&#x407;" 
d="M393 1569q-57 0 -95.5 37t-38.5 92q0 56 38.5 93.5t95.5 37.5q56 0 94 -37.5t38 -93.5q0 -55 -38 -92t-94 -37zM835 1569q-56 0 -94.5 37t-38.5 92q0 56 38.5 93.5t94.5 37.5q57 0 95.5 -37.5t38.5 -93.5q0 -55 -38.5 -92t-95.5 -37zM1039 1413v-181h-305v-1050h305v-182
h-850v182h306v1050h-306v181h850z" />
    <glyph glyph-name="uni0408" unicode="&#x408;" 
d="M1040 1413v-929q0 -105 -29.5 -194.5t-89 -162t-161 -113.5t-235.5 -41q-222 0 -402 130l97 152q144 -94 296 -94q134 0 211 85.5t77 242.5v742h-425v182h661z" />
    <glyph glyph-name="uni0409" unicode="&#x409;" 
d="M734 1413v-506q247 0 371 -108.5t124 -333.5q0 -238 -127 -351.5t-358 -113.5h-216v1242h-163l-40 -611q-10 -147 -25 -250t-31.5 -167.5t-46 -111.5t-56 -72.5t-73.5 -59.5l-102 146q35 36 55 78.5t40.5 153.5t33.5 300l53 765h561zM762 742h-28v-571h31q125 0 185 66.5
t60 225.5q0 146 -61 212.5t-187 66.5z" />
    <glyph glyph-name="uni040A" unicode="&#x40a;" 
d="M737 1413v-550q243 -1 367.5 -102.5t124.5 -314.5q0 -446 -488 -446h-212v693h-246v-693h-208v1413h208v-550h246v550h208zM762 695h-25v-521h25q65 0 109.5 12.5t77.5 43t48 83t15 131.5q0 136 -60.5 193t-189.5 58z" />
    <glyph glyph-name="uni040B" unicode="&#x40b;" 
d="M867 1413l-24 -182h-313v-405q119 111 277 111q364 0 364 -428v-509h-229v512q0 128 -44 183t-149 55q-119 0 -219 -94v-656h-229v1231h-313v182h879z" />
    <glyph glyph-name="uni040C" unicode="&#x40c;" 
d="M823 1891l95 -182l-457 -165l-58 119zM548 648h-150v-648h-237v1413h237v-579h151l387 579h244l-432 -655l471 -758h-273z" />
    <glyph glyph-name="uni040D" unicode="&#x40d;" 
d="M466 1896l402 -233l-62 -119l-446 169zM146 0v1413h227v-625q0 -309 -40 -579l467 1204h282v-1413h-226v623q0 282 40 574l-463 -1197h-287z" />
    <glyph glyph-name="uni040E" unicode="&#x40e;" 
d="M632 1548q-134 0 -221 75.5t-101 196.5l143 27q44 -131 179 -131q138 0 184 131l141 -27q-13 -121 -101 -196.5t-224 -75.5zM1209 1413l-404 -1001q-61 -149 -126 -234.5t-171 -137t-270 -68.5l-34 175q159 20 234.5 69.5t131.5 166.5h-85l-455 1030h246l364 -886
l329 886h240z" />
    <glyph glyph-name="uni040F" unicode="&#x40f;" 
d="M146 0v1413h238v-1223h461v1223h237v-1413h-359v-323h-184l-35 323h-358z" />
    <glyph glyph-name="uni0410" unicode="&#x410;" 
d="M862 340h-505l-98 -340h-242l450 1413h295l450 -1413h-251zM407 523h405l-202 706z" />
    <glyph glyph-name="uni0411" unicode="&#x411;" 
d="M999 1413l-22 -188h-567v-346h164q268 0 412 -105.5t144 -323.5q0 -116 -40 -203.5t-114 -141t-172.5 -79.5t-220.5 -26h-411v1413h827zM582 700h-172v-516h174q147 0 224 58.5t77 204.5q0 253 -303 253z" />
    <glyph glyph-name="uni0412" unicode="&#x412;" 
d="M1129 408q0 -91 -31 -163t-82 -117t-123 -74.5t-148.5 -41.5t-164.5 -12h-414v1413h386q83 0 155.5 -10.5t140 -36t115.5 -65.5t76.5 -102.5t28.5 -142.5q0 -124 -74.5 -202.5t-186.5 -104.5q64 -11 116.5 -32.5t101.5 -59.5t76.5 -101.5t27.5 -147.5zM827 1036
q0 104 -64.5 151.5t-189.5 47.5h-170v-409h185q120 0 179.5 50.5t59.5 159.5zM882 409q0 132 -73.5 186.5t-203.5 54.5h-202v-466h192q287 0 287 225z" />
    <glyph glyph-name="uni0413" unicode="&#x413;" 
d="M1126 1413l-24 -196h-622v-1217h-237v1413h883z" />
    <glyph glyph-name="uni0414" unicode="&#x414;" 
d="M-7 186h84q53 53 84 140.5t53 224t59 442.5l49 420h739v-1227h104v-509h-184l-35 322l-734 1l-34 -323h-185v509zM831 1230h-306l-24 -235q-44 -412 -84.5 -569.5t-132.5 -239.5h547v1044z" />
    <glyph glyph-name="uni0415" unicode="&#x415;" 
d="M469 1233v-425h512v-180h-512v-448h624v-180h-862v1413h850l-26 -180h-586z" />
    <glyph glyph-name="uni0416" unicode="&#x416;" 
d="M526 664h-101l-193 -664h-215l239 758l-213 655h211l174 -596h98v596h176v-596h99l175 596h210l-213 -655l238 -758h-219l-191 664h-99v-664h-176v664z" />
    <glyph glyph-name="uni0417" unicode="&#x417;" 
d="M577 1442q228 0 364.5 -103t136.5 -269q0 -126 -82.5 -205t-220.5 -102q153 -14 251 -104.5t98 -244.5q0 -196 -151 -319t-410 -123q-320 0 -513 202l133 126q165 -142 378 -142q149 0 233.5 69t84.5 189q0 124 -83.5 185.5t-225.5 61.5h-244l27 184h208q122 0 200.5 53
t78.5 156q0 97 -76 150.5t-202 53.5q-200 0 -357 -127l-124 131q208 178 496 178z" />
    <glyph glyph-name="uni0418" unicode="&#x418;" 
d="M146 0v1413h227v-625q0 -309 -40 -579l467 1204h282v-1413h-226v623q0 282 40 574l-463 -1197h-287z" />
    <glyph glyph-name="uni0419" unicode="&#x419;" 
d="M611 1555q-135 0 -222 73t-99 191l142 27q38 -123 179 -123q147 0 185 123l141 -27q-12 -117 -101 -190.5t-225 -73.5zM146 0v1413h227v-625q0 -309 -40 -579l467 1204h282v-1413h-226v623q0 282 40 574l-463 -1197h-287z" />
    <glyph glyph-name="uni041A" unicode="&#x41a;" 
d="M548 648h-150v-648h-237v1413h237v-579h151l387 579h244l-432 -655l471 -758h-273z" />
    <glyph glyph-name="uni041B" unicode="&#x41b;" 
d="M1082 1413v-1413h-237v1222h-321l-39 -346q-19 -168 -38 -288.5t-44 -212.5t-50.5 -152t-65 -108t-79 -78.5t-100.5 -66.5l-99 166q40 31 62 54t51 73.5t48 120.5t41 188.5t41 284.5l65 556h765z" />
    <glyph glyph-name="uni041C" unicode="&#x41c;" 
d="M1097 1413l80 -1413h-218l-33 688q-12 285 -1 516l-208 -955h-207l-223 955q15 -220 6 -518l-28 -686h-213l80 1413h285l201 -947l193 947h286z" />
    <glyph glyph-name="uni041D" unicode="&#x41d;" 
d="M845 0v642h-461v-642h-238v1413h238v-575h461v575h237v-1413h-237z" />
    <glyph glyph-name="uni041E" unicode="&#x41e;" 
d="M1152 707q0 -220 -60 -384t-182.5 -257.5t-295.5 -93.5q-260 0 -398.5 196.5t-138.5 536.5q0 220 59.5 384.5t182 258.5t295.5 94q260 0 399 -197.5t139 -537.5zM906 707q0 279 -69 414t-223 135q-153 0 -222 -135.5t-69 -415.5q0 -278 70 -412.5t221 -134.5
q155 0 223.5 134.5t68.5 414.5z" />
    <glyph glyph-name="uni041F" unicode="&#x41f;" 
d="M845 0v1220h-461v-1220h-238v1413h936v-1413h-237z" />
    <glyph glyph-name="uni0420" unicode="&#x420;" 
d="M1156 970q0 -121 -40 -211.5t-114.5 -145.5t-173.5 -82t-224 -27h-171v-504h-237v1413h392q272 0 420 -111t148 -332zM906 968q0 267 -303 267h-170v-550h173q143 0 221.5 65.5t78.5 217.5z" />
    <glyph glyph-name="uni0421" unicode="&#x421;" 
d="M733 1442q137 0 236.5 -35.5t189.5 -109.5l-124 -147q-125 104 -291 104q-66 0 -122.5 -18t-106.5 -59t-85.5 -103t-56 -155t-20.5 -210q0 -143 29.5 -249.5t83 -170t123 -94t155.5 -30.5q103 0 176.5 32.5t144.5 89.5l115 -147q-172 -168 -444 -168q-135 0 -250 48.5
t-199.5 140t-132.5 232t-48 316.5q0 174 49.5 314.5t135 231t199 139t243.5 48.5z" />
    <glyph glyph-name="uni0422" unicode="&#x422;" 
d="M730 1222v-1222h-237v1222h-424v191h1095l-24 -191h-410z" />
    <glyph glyph-name="uni0423" unicode="&#x423;" 
d="M1209 1413l-404 -1001q-61 -149 -126 -234.5t-171 -137t-270 -68.5l-34 175q159 20 234.5 69.5t131.5 166.5h-85l-455 1030h246l364 -886l329 886h240z" />
    <glyph glyph-name="uni0424" unicode="&#x424;" 
d="M713 1479v-131q252 -18 374 -175t122 -460q0 -306 -126 -468t-370 -175v-137h-197v137q-245 11 -371 173t-126 470q0 303 122 460t375 175v131h197zM525 1197q-145 -8 -209.5 -118.5t-64.5 -365.5q0 -250 62.5 -364.5t211.5 -127.5v976zM703 1197v-976q149 13 212 127.5
t63 364.5q0 255 -65 365.5t-210 118.5z" />
    <glyph glyph-name="uni0425" unicode="&#x425;" 
d="M78 1413h263l273 -509l277 509h253l-391 -649l434 -764h-263l-314 601l-314 -601h-254l428 753z" />
    <glyph glyph-name="uni0426" unicode="&#x426;" 
d="M146 0v1413h238v-1223h461v1223h237v-1227h116v-509h-185l-34 323h-833z" />
    <glyph glyph-name="uni0427" unicode="&#x427;" 
d="M322 1413v-525q0 -137 61 -200.5t185 -63.5q168 0 277 104v685h237v-1413h-237v547q-81 -60 -160 -87.5t-179 -27.5q-195 0 -308.5 117.5t-113.5 324.5v539h238z" />
    <glyph glyph-name="uni0428" unicode="&#x428;" 
d="M1143 1413v-1413h-1057v1413h205v-1234h229v1234h189v-1234h229v1234h205z" />
    <glyph glyph-name="uni0429" unicode="&#x429;" 
d="M1258 186v-509h-185l-34 323h-953v1413h205v-1234h229v1234h189v-1234h229v1234h205v-1227h115z" />
    <glyph glyph-name="uni042A" unicode="&#x42a;" 
d="M456 1413v-506h176q270 0 416.5 -109t146.5 -333q0 -122 -40.5 -212.5t-115.5 -145t-174 -81t-224 -26.5h-416v1224h-227v189h458zM645 731h-189v-550h181q74 0 128 13t97.5 43.5t65.5 87t22 138.5q0 268 -305 268z" />
    <glyph glyph-name="uni042B" unicode="&#x42b;" 
d="M271 1413v-504h88q253 0 383 -113t130 -331q0 -233 -132.5 -349t-375.5 -116h-308v1413h215zM1172 1413v-1413h-215v1413h215zM382 739h-111v-563h105q135 0 203 66.5t68 220.5q0 276 -265 276z" />
    <glyph glyph-name="uni042C" unicode="&#x42c;" 
d="M400 1413v-506h185q270 0 417 -109t147 -333q0 -120 -40 -210.5t-115 -145.5t-174.5 -82t-225.5 -27h-431v1413h237zM596 729h-196v-547h199q145 0 222.5 63.5t77.5 217.5q0 266 -303 266z" />
    <glyph glyph-name="uni042D" unicode="&#x42d;" 
d="M544 1442q273 0 424.5 -183.5t151.5 -536.5q0 -366 -160.5 -558t-439.5 -192q-137 0 -253.5 48t-201.5 133l125 132q146 -124 322 -124q170 0 262.5 115t102.5 358h-585v183h585q-12 235 -99.5 339t-249.5 104q-101 0 -175.5 -33t-151.5 -92l-120 132q205 175 463 175z
" />
    <glyph glyph-name="uni042E" unicode="&#x42e;" 
d="M800 1442q216 0 304.5 -178.5t88.5 -556.5q0 -369 -92 -552t-301 -183q-107 0 -182.5 45.5t-120 135.5t-65.5 209t-24 281h-121v-643h-203v1413h203v-593h123q12 310 103.5 466t286.5 156zM800 1268q-66 0 -103 -51t-54.5 -171.5t-17.5 -336.5q0 -217 17 -338t54.5 -173
t103.5 -52q64 0 101 51t55 173t18 337t-18 337t-55 173t-101 51z" />
    <glyph glyph-name="uni042F" unicode="&#x42f;" 
d="M1082 1413v-1413h-237v547h-261l-279 -547h-261l325 596q-245 110 -245 387q0 210 141 320t411 110h406zM845 1237h-180q-147 0 -219 -63t-72 -193q0 -258 270 -258h201v514z" />
    <glyph glyph-name="uni0430" unicode="&#x430;" 
d="M1009 265q0 -62 19 -92t63 -44l-52 -156q-170 19 -224 150q-58 -74 -148.5 -112.5t-196.5 -38.5q-163 0 -259 92t-96 244q0 171 133.5 263.5t380.5 92.5h154v70q0 197 -240 197q-121 0 -288 -57l-56 162q196 74 379 74q214 0 322.5 -94.5t108.5 -267.5v-483zM540 141
q70 0 136 37.5t107 103.5v238h-127q-301 0 -301 -202q0 -177 185 -177z" />
    <glyph glyph-name="uni0431" unicode="&#x431;" 
d="M896 1543l91 -161q-131 -84 -343 -156q-54 -19 -91.5 -38.5t-71.5 -49.5t-55.5 -70t-37 -97.5t-23.5 -135.5q118 180 330 180q180 0 291 -135.5t111 -369.5q0 -256 -133 -397t-351 -141q-225 0 -354 155.5t-129 472.5q0 140 11.5 244.5t39 194t74.5 153t117.5 112
t168.5 80.5q124 40 197 72.5t158 86.5zM370 528q0 -184 63 -282t180 -98q54 0 95.5 16t77 54.5t54 110.5t18.5 176q0 178 -55.5 256.5t-161.5 78.5q-82 0 -152 -46.5t-119 -131.5v-134z" />
    <glyph glyph-name="uni0432" unicode="&#x432;" 
d="M600 1110q209 0 333 -74.5t124 -210.5q0 -180 -221 -235q274 -30 274 -268q0 -84 -37 -147t-102.5 -100.5t-148.5 -56t-183 -18.5h-436v1069q220 41 397 41zM600 946q-85 0 -168 -11v-288h191q100 0 152.5 35.5t52.5 116.5q0 77 -56 112t-172 35zM432 167h201
q121 0 180 40t59 124q0 169 -235 169h-205v-333z" />
    <glyph glyph-name="uni0433" unicode="&#x433;" 
d="M525 0h-229v1081h789l-26 -183h-534v-898z" />
    <glyph glyph-name="uni0434" unicode="&#x434;" 
d="M44 178h77q69 62 103 175.5t54 379.5l25 348h733v-903h89v-501h-181l-34 323h-652l-34 -323h-180v501zM814 909h-306l-10 -164q-14 -191 -35 -297.5t-54.5 -165.5t-95.5 -104h501v731z" />
    <glyph glyph-name="uni0435" unicode="&#x435;" 
d="M373 467q9 -159 89.5 -237.5t205.5 -78.5q140 0 283 94l100 -137q-77 -63 -179.5 -99.5t-215.5 -36.5q-248 0 -384.5 155t-136.5 413q0 163 58.5 291.5t172 203.5t263.5 75q216 0 341 -145t125 -396q0 -55 -5 -102h-717zM631 940q-112 0 -180.5 -79.5t-78.5 -236.5h500
q-3 153 -65 234.5t-176 81.5z" />
    <glyph glyph-name="uni0436" unicode="&#x436;" 
d="M525 0v494h-91l-198 -494h-216l250 581l-234 500h215l181 -436h93v436h178v-436h94l187 436h209l-235 -500l250 -581h-216l-199 494h-90v-494h-178z" />
    <glyph glyph-name="uni0437" unicode="&#x437;" 
d="M375 645h194q99 0 155.5 40t56.5 107q0 147 -228 147q-178 0 -323 -90l-103 129q86 63 201.5 97.5t236.5 34.5q129 0 229.5 -32.5t161 -101t60.5 -163.5q0 -88 -62 -147.5t-173 -90.5q132 -14 212.5 -78t80.5 -178q0 -165 -142 -256t-370 -91q-284 0 -473 148l104 139
q166 -111 370 -111q131 0 199 47t68 129q0 155 -245 155h-225z" />
    <glyph glyph-name="uni0438" unicode="&#x438;" 
d="M1047 1081v-1081h-223v444q0 220 34 408l-420 -852h-256v1081h222v-445q0 -248 -34 -404l416 849h261z" />
    <glyph glyph-name="uni0439" unicode="&#x439;" 
d="M611 1297q-135 0 -222 73t-99 191l142 27q38 -123 179 -123q147 0 185 123l141 -27q-12 -117 -101 -190.5t-225 -73.5zM1047 1081v-1081h-223v444q0 220 34 408l-420 -852h-256v1081h222v-445q0 -248 -34 -404l416 849h261z" />
    <glyph glyph-name="uni043A" unicode="&#x43a;" 
d="M190 0v1081h230v-428h191l283 428h239l-339 -500l385 -581h-259l-314 485h-186v-485h-230z" />
    <glyph glyph-name="uni043B" unicode="&#x43b;" 
d="M1058 1081v-1081h-230v903h-338l-18 -227q-12 -186 -31 -299.5t-57 -193t-87.5 -123.5t-135.5 -90l-96 147q44 29 68.5 56t50.5 85t42 156t28 252l32 415h772z" />
    <glyph glyph-name="uni043C" unicode="&#x43c;" 
d="M1082 1081l77 -1081h-212l-32 468q-12 211 -3 396h-8l-189 -686h-196l-208 686h-8q11 -149 -1 -398l-24 -466h-208l74 1081h273l203 -710l184 710h278z" />
    <glyph glyph-name="uni043D" unicode="&#x43d;" 
d="M817 0v463h-405v-463h-230v1081h230v-440h405v440h230v-1081h-230z" />
    <glyph glyph-name="uni043E" unicode="&#x43e;" 
d="M615 1110q233 0 360.5 -152.5t127.5 -414.5q0 -261 -129 -416t-360 -155q-233 0 -360.5 152t-127.5 417q0 258 129 413.5t360 155.5zM615 932q-125 0 -186.5 -95.5t-61.5 -295.5t61 -295.5t186 -95.5t186.5 96t61.5 297q0 198 -61.5 293.5t-185.5 95.5z" />
    <glyph glyph-name="uni043F" unicode="&#x43f;" 
d="M818 0v903h-407v-903h-229v1081h865v-1081h-229z" />
    <glyph glyph-name="uni0440" unicode="&#x440;" 
d="M710 1110q393 0 393 -567q0 -168 -46.5 -295t-141.5 -201.5t-229 -74.5q-169 0 -274 120v-508l-230 -25v1522h200l14 -139q123 168 314 168zM646 933q-133 0 -234 -155v-506q80 -120 214 -120q118 0 177 95t59 295q0 205 -53 298t-163 93z" />
    <glyph glyph-name="uni0441" unicode="&#x441;" 
d="M703 161q132 0 267 94l106 -147q-73 -62 -174 -99t-206 -37q-247 0 -386.5 153t-139.5 411q0 253 142.5 413.5t387.5 160.5q218 0 375 -130l-105 -144q-132 90 -265 90q-134 0 -212.5 -97.5t-78.5 -292.5q0 -193 77.5 -284t211.5 -91z" />
    <glyph glyph-name="uni0442" unicode="&#x442;" 
d="M1124 1081l-26 -179h-369v-902h-229v902h-383v179h1007z" />
    <glyph glyph-name="uni0443" unicode="&#x443;" 
d="M1128 1081l-372 -1085q-33 -96 -76 -169t-106 -131.5t-150 -93t-198 -44.5l-29 172q81 13 137.5 34t96 55.5t64.5 76t48 104.5h-78l-365 1081h244l272 -921l277 921h235z" />
    <glyph glyph-name="uni0444" unicode="&#x444;" 
d="M522 1541l185 -23v-514q82 106 199 106q65 0 113 -26.5t79 -73.5t50 -119.5t26.5 -156t7.5 -192.5q0 -266 -74.5 -418t-220.5 -152q-103 0 -180 108v-498l-185 -23v520q-77 -107 -184 -107q-144 0 -217.5 152t-73.5 418q0 134 14.5 235t47 177.5t89 116t136.5 39.5
q110 0 188 -102v533zM394 942q-68 0 -97.5 -92t-29.5 -308t29.5 -309t97.5 -93q36 0 62 20t66 69v630q-36 46 -62.5 64.5t-65.5 18.5zM846 942q-40 0 -71.5 -20t-67.5 -64v-629q34 -47 62 -68t64 -21q67 0 99 93.5t32 308.5q0 218 -26.5 309t-91.5 91z" />
    <glyph glyph-name="uni0445" unicode="&#x445;" 
d="M342 0h-254l388 570l-345 511h264l221 -381l222 381h252l-338 -501l389 -580h-270l-265 441z" />
    <glyph glyph-name="uni0446" unicode="&#x446;" 
d="M1186 178v-501h-181l-34 323h-808v1081h228v-902h408v902h228v-903h159z" />
    <glyph glyph-name="uni0447" unicode="&#x447;" 
d="M1030 1081v-1081h-229v437q-128 -113 -329 -113q-159 0 -243 85t-84 239v433h230v-405q0 -94 42 -135.5t127 -41.5q69 0 141 28t116 75v479h229z" />
    <glyph glyph-name="uni0448" unicode="&#x448;" 
d="M1148 1081v-1081h-1067v1081h205v-902h233v902h191v-902h232v902h206z" />
    <glyph glyph-name="uni0449" unicode="&#x449;" 
d="M1278 178v-501h-180l-34 323h-983v1081h205v-902h233v902h191v-902h232v902h206v-903h130z" />
    <glyph glyph-name="uni044A" unicode="&#x44a;" 
d="M522 1081v-335h111q504 0 504 -367q0 -197 -129.5 -288t-360.5 -91h-354v911h-241v170h470zM647 583h-125v-413h128q118 0 182 46.5t64 164.5q0 106 -62.5 154t-186.5 48z" />
    <glyph glyph-name="uni044B" unicode="&#x44b;" 
d="M305 1081v-343h53q467 0 467 -361q0 -190 -119 -283.5t-334 -93.5h-273v1081h206zM1129 1081v-1081h-206v1081h206zM370 587h-65v-427h68q115 0 173 49.5t58 169.5q0 110 -56 159t-178 49z" />
    <glyph glyph-name="uni044C" unicode="&#x44c;" 
d="M458 1081v-333h175q248 0 362.5 -95t114.5 -276q0 -99 -36 -173.5t-100 -118t-143 -64.5t-173 -21h-430v1081h230zM632 584h-174v-414h191q107 0 163.5 47.5t56.5 160.5q0 107 -53.5 156.5t-183.5 49.5z" />
    <glyph glyph-name="uni044D" unicode="&#x44d;" 
d="M568 1110q246 0 377 -152.5t131 -413.5q0 -260 -137.5 -416t-386.5 -156q-229 0 -382 133l106 137q125 -91 272 -91q269 0 294 322h-469v161h466q-28 301 -281 301q-147 0 -273 -89l-104 137q160 127 387 127z" />
    <glyph glyph-name="uni044E" unicode="&#x44e;" 
d="M798 1110q193 0 286.5 -148t93.5 -419t-92.5 -421t-287.5 -150q-92 0 -161.5 35.5t-113.5 102.5t-68 155.5t-29 200.5h-123v-466h-208v1081h208v-444h123q13 224 105 348.5t267 124.5zM798 941q-91 0 -124.5 -92.5t-33.5 -307.5q0 -208 33.5 -304t124.5 -96
q94 0 127.5 95.5t33.5 306.5t-35.5 304.5t-125.5 93.5z" />
    <glyph glyph-name="uni044F" unicode="&#x44f;" 
d="M82 0l261 455q-189 87 -189 287q0 161 119.5 250t342.5 89h409v-1081h-229v403h-242l-221 -403h-251zM611 563h185v356h-184q-111 0 -165 -42.5t-54 -131.5q0 -94 52 -138t166 -44z" />
    <glyph glyph-name="uni0450" unicode="&#x450;" 
d="M819 1274l-439 191l104 184l404 -254zM373 467q9 -159 89.5 -237.5t205.5 -78.5q140 0 283 94l100 -137q-77 -63 -179.5 -99.5t-215.5 -36.5q-248 0 -384.5 155t-136.5 413q0 163 58.5 291.5t172 203.5t263.5 75q216 0 341 -145t125 -396q0 -55 -5 -102h-717zM631 940
q-112 0 -180.5 -79.5t-78.5 -236.5h500q-3 153 -65 234.5t-176 81.5z" />
    <glyph glyph-name="uni0451" unicode="&#x451;" 
d="M412 1319q-57 0 -95.5 37.5t-38.5 92.5q0 56 38.5 93t95.5 37q56 0 94 -37t38 -93q0 -55 -38 -92.5t-94 -37.5zM853 1319q-55 0 -93.5 37.5t-38.5 92.5q0 56 38.5 93t93.5 37q57 0 95.5 -37t38.5 -93q0 -55 -38.5 -92.5t-95.5 -37.5zM373 467q9 -159 89.5 -237.5
t205.5 -78.5q140 0 283 94l100 -137q-77 -63 -179.5 -99.5t-215.5 -36.5q-248 0 -384.5 155t-136.5 413q0 163 58.5 291.5t172 203.5t263.5 75q216 0 341 -145t125 -396q0 -55 -5 -102h-717zM631 940q-112 0 -180.5 -79.5t-78.5 -236.5h500q-3 153 -65 234.5t-176 81.5z" />
    <glyph glyph-name="uni0452" unicode="&#x452;" 
d="M412 1538v-161h323v-156h-323v-269q65 75 152.5 116.5t181.5 41.5q151 0 227 -83.5t76 -238.5v-693q0 -100 -16 -175.5t-43 -128.5t-74.5 -96.5t-99 -72.5t-129.5 -62l-83 168q47 21 76.5 38.5t59 44.5t45 60t25 81t9.5 113v703q0 88 -37.5 127.5t-117.5 39.5
q-72 0 -138 -46t-114 -116v-773h-230v1221h-151v156h151v136z" />
    <glyph glyph-name="uni0453" unicode="&#x453;" 
d="M860 1662l97 -184l-448 -181l-68 119zM525 0h-229v1081h789l-26 -183h-534v-898z" />
    <glyph glyph-name="uni0454" unicode="&#x454;" 
d="M698 1110q222 0 378 -126l-102 -137q-131 88 -269 88q-122 0 -201 -76t-98 -225h468v-161h-470q12 -164 92.5 -243t209.5 -79q138 0 269 89l101 -140q-74 -61 -175 -94.5t-202 -33.5q-250 0 -389.5 153t-139.5 411q0 253 142.5 413.5t385.5 160.5z" />
    <glyph glyph-name="uni0455" unicode="&#x455;" 
d="M575 148q108 0 171.5 39t63.5 106q0 47 -18 75.5t-74.5 55.5t-167.5 56q-86 22 -146.5 47t-110 62t-74 89.5t-24.5 121.5q0 140 117 225t315 85q241 0 410 -125l-96 -144q-145 95 -308 95q-205 0 -205 -120q0 -59 54.5 -92t220.5 -79q87 -24 145 -49t107.5 -63.5
t73.5 -94t24 -130.5q0 -84 -39.5 -150t-107 -106t-151.5 -60t-180 -20q-270 0 -444 153l122 139q141 -116 322 -116z" />
    <glyph glyph-name="uni0456" unicode="&#x456;" 
d="M613 1611q67 0 109 -41t42 -103q0 -63 -42 -104t-109 -41q-66 0 -107.5 41t-41.5 104q0 61 42 102.5t107 41.5zM773 1081v-913h294v-168h-847v168h324v745h-314v168h543z" />
    <glyph glyph-name="uni0457" unicode="&#x457;" 
d="M394 1319q-58 0 -96 37t-38 93t38 93t96 37q56 0 94 -37t38 -93q0 -55 -38 -92.5t-94 -37.5zM836 1319q-56 0 -94.5 37.5t-38.5 92.5q0 56 38.5 93t94.5 37q57 0 95.5 -37t38.5 -93q0 -55 -38.5 -92.5t-95.5 -37.5zM773 1081v-913h294v-168h-847v168h324v745h-314v168
h543z" />
    <glyph glyph-name="uni0458" unicode="&#x458;" 
d="M754 1611q66 0 108 -41t42 -103q0 -63 -42 -104t-108 -41t-108 41t-42 104q0 62 42 103t108 41zM933 1081v-854q0 -149 -46.5 -262t-141 -192.5t-224.5 -130.5t-308 -83l-37 176q128 24 220 58.5t163.5 89.5t107.5 137t36 192v701h-427v168h657z" />
    <glyph glyph-name="uni0459" unicode="&#x459;" 
d="M758 1081v-345h24q438 0 438 -360q0 -185 -113.5 -280.5t-313.5 -95.5h-237v915h-181l-11 -259q-6 -142 -19 -241.5t-33.5 -170t-55.5 -121t-76 -84t-104 -69.5l-78 149q28 22 45.5 40t38.5 57t34 92t24.5 141.5t17.5 208.5l21 423h579zM787 585h-29v-427h34
q108 0 159 48.5t51 170.5q0 112 -49.5 160t-165.5 48z" />
    <glyph glyph-name="uni045A" unicode="&#x45a;" 
d="M764 1081v-397h24q438 0 438 -340q0 -344 -438 -344h-227v529h-237v-529h-206v1081h206v-397h237v397h203zM798 531h-34v-370h27q114 0 167 37t53 147q0 102 -50.5 144t-162.5 42z" />
    <glyph glyph-name="uni045B" unicode="&#x45b;" 
d="M735 1377v-156h-323v-272q64 78 151.5 119.5t182.5 41.5q151 0 227 -83.5t76 -238.5v-788h-230v753q0 97 -36 139.5t-119 42.5q-72 0 -138 -46t-114 -116v-773h-230v1221h-151v156h151v136l230 25v-161h323z" />
    <glyph glyph-name="uni045C" unicode="&#x45c;" 
d="M821 1662l97 -184l-449 -181l-68 119zM190 0v1081h230v-428h191l283 428h239l-339 -500l385 -581h-259l-314 485h-186v-485h-230z" />
    <glyph glyph-name="uni045D" unicode="&#x45d;" 
d="M801 1274l-441 191l106 184l403 -254zM1047 1081v-1081h-223v444q0 220 34 408l-420 -852h-256v1081h222v-445q0 -248 -34 -404l416 849h261z" />
    <glyph glyph-name="uni045E" unicode="&#x45e;" 
d="M611 1297q-135 0 -222 73t-99 191l142 27q38 -123 179 -123q147 0 185 123l141 -27q-12 -117 -101 -190.5t-225 -73.5zM1128 1081l-372 -1085q-33 -96 -76 -169t-106 -131.5t-150 -93t-198 -44.5l-29 172q81 13 137.5 34t96 55.5t64.5 76t48 104.5h-78l-365 1081h244
l272 -921l277 921h235z" />
    <glyph glyph-name="uni045F" unicode="&#x45f;" 
d="M818 1081h229v-1081h-326v-323h-180l-35 323h-324v1081h229v-902h407v902z" />
    <glyph glyph-name="uni0460" unicode="&#x460;" 
d="M1052 1413q32 -86 50.5 -144.5t45 -164t39.5 -228t13 -261.5q0 -331 -92 -488t-250 -157q-99 0 -156 52t-87 155q-33 -103 -89.5 -155t-148.5 -52q-56 0 -105.5 21.5t-94.5 71t-77 122.5t-51 183t-19 247q0 139 13 260.5t41 230.5t44 160.5t50 146.5h209
q-67 -204 -100.5 -379.5t-33.5 -412.5q0 -463 157 -463q46 0 74.5 43.5t28.5 137.5v477h203v-475q0 -93 30.5 -138t82.5 -45q33 0 58.5 20t46.5 69t32 142.5t11 228.5q0 236 -34 410.5t-100 384.5h209z" />
    <glyph glyph-name="uni0461" unicode="&#x461;" 
d="M1078 1081q106 -312 106 -589q0 -250 -80 -385t-234 -135q-216 0 -258 230q-56 -230 -255 -230q-155 0 -233.5 132t-78.5 388q0 296 103 589h192q-47 -156 -64.5 -290.5t-17.5 -292.5q0 -115 11 -188t41 -116.5t81 -43.5q72 0 100 83t28 242v244l191 30v-271
q0 -170 27.5 -249t102.5 -79t103 86t28 262q0 292 -86 583h193z" />
    <glyph glyph-name="uni0462" unicode="&#x462;" 
d="M294 0v1077h-274v157h274v179h236v-179h291v-157h-291v-188h114q248 0 391.5 -109t143.5 -320q0 -229 -147.5 -344.5t-395.5 -115.5h-342zM530 182h111q288 0 288 274q0 255 -287 255h-112v-529z" />
    <glyph glyph-name="uni0463" unicode="&#x463;" 
d="M490 1356v-250h273l-24 -157h-249v-211h128q504 0 504 -364q0 -192 -127.5 -283t-356.5 -91h-377v949h-159v157h159v224zM632 573h-142v-403h145q119 0 182.5 45t63.5 161q0 104 -62.5 150.5t-186.5 46.5z" />
    <glyph glyph-name="uni0464" unicode="&#x464;" 
d="M1228 62q-127 -90 -294 -90q-231 0 -363 169.5t-146 489.5h-126v-631h-231v1415h231v-595h128q22 300 159 461t364 161q85 0 147 -18.5t122 -58.5l-93 -147q-80 46 -172 46q-130 0 -204.5 -106.5t-89.5 -340.5h413v-183h-416q17 -479 290 -479q100 0 195 55z" />
    <glyph glyph-name="uni0465" unicode="&#x465;" 
d="M340 1081v-444h121q23 216 135.5 344.5t303.5 128.5q162 0 289 -118l-104 -120q-88 69 -183 69q-103 0 -159 -77t-71 -230h363v-161h-364q5 -170 65.5 -250t163.5 -80q97 0 180 75l105 -118q-60 -61 -137 -94.5t-156 -33.5q-192 0 -305.5 132t-128.5 362h-118v-466h-211
v1081h211z" />
    <glyph glyph-name="uni0466" unicode="&#x466;" 
d="M17 0l450 1413h295l450 -1413h-239l-163 558h-99v-559h-198v559h-102l-162 -558h-232zM610 1247l-147 -508h295z" />
    <glyph glyph-name="uni0467" unicode="&#x467;" 
d="M755 1081l416 -1081h-224l-144 401h-104v-401h-178v401h-101l-141 -401h-221l419 1081h278zM610 939l-132 -374h266z" />
    <glyph glyph-name="uni0468" unicode="&#x468;" 
d="M310 0l131 574h-187v-575h-206v1414h206v-678h223l155 678h294l321 -1413h-207l-120 574h-60v-575h-171v575h-59l-120 -574h-200zM774 1271l-111 -536h224z" />
    <glyph glyph-name="uni0469" unicode="&#x469;" 
d="M77 0v1081h201v-521h230l151 521h263l316 -1081h-192l-110 399h-71v-399h-159v399h-64l-108 -399h-189l116 399h-183v-399h-201zM788 942l-103 -382h207z" />
    <glyph glyph-name="uni046A" unicode="&#x46a;" 
d="M50 0l230 793h145l-255 478v142h890v-142l-260 -478h156l223 -793h-205l-162 636h-94v-636h-205v636h-95l-164 -636h-204zM618 793l230 469h-462z" />
    <glyph glyph-name="uni046B" unicode="&#x46b;" 
d="M32 0l220 613h172l-239 353v115h848v-115l-239 -353h186l217 -613h-201l-145 453h-132v-453h-207v453h-131l-145 -453h-204zM611 613l198 318h-397z" />
    <glyph glyph-name="uni046C" unicode="&#x46c;" 
d="M28 -1v1414h206v-620h368l-214 479v141h788v-141l-220 -479h147l171 -793h-198l-118 636h-78v-636h-197v636h-79l-119 -636h-196l143 636h-198v-637h-206zM785 793l195 472h-391z" />
    <glyph glyph-name="uni046D" unicode="&#x46d;" 
d="M44 0v1081h201v-465h367l-210 350v115h763v-115l-209 -350h127l186 -616h-195l-118 454h-70v-454h-189v454h-72l-120 -454h-195l141 454h-206v-454h-201zM788 616l170 320h-343z" />
    <glyph glyph-name="uni046E" unicode="&#x46e;" 
d="M843 1884l91 -103l-281 -239h-147l-283 239l93 103l263 -168zM476 -446q-302 123 -302 308q0 105 79 164.5t257 91.5q162 28 241.5 88.5t79.5 178.5q0 122 -67.5 177t-206.5 55h-231v152l411 457h-585v187h854v-182l-423 -453h34q228 -1 344 -104.5t116 -296.5
q0 -96 -35.5 -172.5t-98 -126.5t-137.5 -81t-165 -46q-139 -24 -185.5 -46.5t-46.5 -63.5q0 -38 36.5 -71t113.5 -73z" />
    <glyph glyph-name="uni046F" unicode="&#x46f;" 
d="M852 1636l92 -102l-280 -259h-147l-283 259l97 102l260 -188zM441 -447q-284 115 -284 294q0 104 83.5 164.5t272.5 89.5q179 28 247.5 65t68.5 118q0 70 -39 101.5t-116 31.5h-345v153l402 332h-569v179h854v-168l-422 -333h123q169 0 264 -76t95 -223
q0 -151 -110 -230.5t-316 -111.5q-110 -18 -165.5 -33.5t-75.5 -33.5t-20 -47q0 -63 127 -128z" />
    <glyph glyph-name="uni0470" unicode="&#x470;" 
d="M503 0v386q-240 24 -358.5 152.5t-118.5 335.5v539h220v-534q0 -147 58.5 -223.5t207.5 -94.5v852h207v-850q145 19 204.5 95t59.5 221v534h220v-539q0 -204 -119 -332t-356 -154v-388h-225z" />
    <glyph glyph-name="uni0471" unicode="&#x471;" 
d="M714 1081v-930q77 11 126.5 38t76 77t36.5 112t10 158q0 225 -52 545h208q55 -290 55 -560q0 -243 -110 -377.5t-350 -161.5v-398l-196 -25v423q-230 20 -336.5 133t-106.5 287v679h209v-667q0 -122 53.5 -184.5t180.5 -78.5v930h196z" />
    <glyph glyph-name="uni0472" unicode="&#x472;" 
d="M1152 707q0 -220 -60 -384t-182.5 -257.5t-295.5 -93.5q-260 0 -398.5 196.5t-138.5 536.5q0 220 59.5 384.5t182 258.5t295.5 94q260 0 399 -197.5t139 -537.5zM614 1256q-140 0 -210.5 -112.5t-82.5 -343.5h585q-11 231 -81 343.5t-211 112.5zM614 158q148 0 217.5 119
t76.5 361h-589q6 -241 77.5 -360.5t217.5 -119.5z" />
    <glyph glyph-name="uni0473" unicode="&#x473;" 
d="M615 1110q233 0 360.5 -152.5t127.5 -414.5q0 -261 -129 -416t-360 -155q-233 0 -360.5 152t-127.5 417q0 258 129 413.5t360 155.5zM615 934q-231 0 -250 -307h499q-19 307 -249 307zM864 471h-500q12 -168 73.5 -245.5t176.5 -77.5q114 0 176 78t74 245z" />
    <glyph glyph-name="uni0474" unicode="&#x474;" 
d="M1167 1254q-36 12 -55 12q-34 0 -54 -21.5t-34 -70.5l-307 -1174h-279l-395 1413h254l282 -1188l225 971q30 131 95.5 189t176.5 58q78 0 143 -30z" />
    <glyph glyph-name="uni0475" unicode="&#x475;" 
d="M454 0l-367 1081h249l256 -888l210 741q36 132 94 188t164 56q70 0 150 -34l-54 -158q-27 11 -59 11q-31 0 -50 -19.5t-33 -66.5l-287 -911h-273z" />
    <glyph glyph-name="uni0476" unicode="&#x476;" 
d="M844 1687l-134 -61l-220 350l178 84zM509 1689l-131 -66l-235 348l175 89zM1167 1254q-36 12 -55 12q-34 0 -54 -21.5t-34 -70.5l-307 -1174h-279l-395 1413h254l282 -1188l225 971q30 131 95.5 189t176.5 58q78 0 143 -30z" />
    <glyph glyph-name="uni0477" unicode="&#x477;" 
d="M853 1355l-133 -61l-220 351l177 84zM518 1357l-130 -66l-235 348l175 90zM454 0l-367 1081h249l256 -888l210 741q36 132 94 188t164 56q70 0 150 -34l-54 -158q-27 11 -59 11q-31 0 -50 -19.5t-33 -66.5l-287 -911h-273z" />
    <glyph glyph-name="uni0478" unicode="&#x478;" 
d="M328 -28q-324 0 -324 733q0 231 32.5 392.5t106 253t185.5 91.5q86 0 148 -49.5t100 -146.5t55.5 -230t17.5 -309t-17.5 -309t-55.5 -230t-100 -146.5t-148 -49.5zM328 134q76 0 105 132t29 441q0 310 -29 441.5t-105 131.5t-105.5 -132.5t-29.5 -442.5q0 -305 30.5 -438
t104.5 -133zM713 -442l-33 138q95 33 147 102t73 202h-84l-161 1081h173l110 -921l106 921h174l-165 -1085q-54 -358 -340 -438z" />
    <glyph glyph-name="uni0479" unicode="&#x479;" 
d="M319 -28q-162 0 -243 150t-81 419q0 172 35 297.5t109 198.5t182 73q111 0 184 -71t105.5 -195.5t32.5 -300.5q0 -267 -80.5 -419t-243.5 -152zM624 -442l-33 136q138 36 208 102.5t98 203.5h-86l-176 1081h190l117 -921l119 921h184l-178 -1073q-34 -208 -146.5 -316.5
t-296.5 -133.5zM319 122q75 0 106 98t31 323t-30 322t-105 97q-76 0 -107.5 -98t-31.5 -323t30.5 -322t106.5 -97z" />
    <glyph glyph-name="uni048A" unicode="&#x48a;" 
d="M611 1555q-135 0 -222 73t-99 191l142 27q38 -123 179 -123q147 0 185 123l141 -27q-12 -117 -101 -190.5t-225 -73.5zM146 0v1413h227v-625q0 -309 -40 -579l467 1204h282v-1207h185l-175 -529h-192l75 323h-119v623q0 282 40 574l-463 -1197h-287z" />
    <glyph glyph-name="uni048B" unicode="&#x48b;" 
d="M585 1297q-135 0 -222 73t-99 191l142 27q38 -123 179 -123q146 0 184 123l141 -27q-12 -118 -100.5 -191t-224.5 -73zM1184 193l-161 -516h-187l75 323h-124v444q0 251 30 425l-394 -869h-254v1081h219v-445q0 -264 -38 -428l402 873h256v-888h176z" />
    <glyph glyph-name="uni048C" unicode="&#x48c;" 
d="M226 0v1080h-165v151h165v182h238v-182h259v-151h-259v-191h174q248 0 391 -109t143 -320q0 -117 -40 -206t-113 -144t-171 -82.5t-218 -27.5h-404zM464 182h171q289 0 289 274q0 255 -288 255h-172v-529z" />
    <glyph glyph-name="uni048D" unicode="&#x48d;" 
d="M275 0v820h-158v151h158v110h230v-110h292l-23 -151h-269v-121h140q226 0 344.5 -88.5t118.5 -252.5q0 -182 -132 -270t-368 -88h-333zM505 170h120q115 0 178 42t63 148q0 176 -221 176h-140v-366z" />
    <glyph glyph-name="uni048E" unicode="&#x48e;" 
d="M1156 967q0 -246 -195 -372l153 -251h-162l-117 194q-103 -34 -231 -34h-171v-504h-237v1413h392q272 0 420 -111.5t148 -334.5zM563 981h162l131 -214q56 67 56 198q0 270 -303 270h-176v-550h179q72 0 124 13z" />
    <glyph glyph-name="uni048F" unicode="&#x48f;" 
d="M698 1110q393 0 393 -567q0 -166 -47 -294.5t-137 -199.5l146 -237h-162l-107 175q-57 -15 -109 -15q-171 0 -276 120v-508l-229 -25v1522h200l14 -139q123 168 314 168zM502 449h162l136 -223q56 83 56 316q0 206 -53.5 298.5t-167.5 92.5q-135 0 -236 -155v-506
q80 -120 221 -120q37 0 61 4z" />
    <glyph glyph-name="uni0490" unicode="&#x490;" 
d="M1126 1413l-24 -196h-622v-1217h-237v1413h658v306h225v-306z" />
    <glyph glyph-name="uni0491" unicode="&#x491;" 
d="M525 0h-229v1081h568v288h221v-288l-26 -183h-534v-898z" />
    <glyph glyph-name="uni0492" unicode="&#x492;" 
d="M850 887v-161h-312v-726h-237v726h-187v161h187v526h883l-24 -196h-622v-330h312z" />
    <glyph glyph-name="uni0493" unicode="&#x493;" 
d="M584 0h-230v465h-178v161h178v455h791l-27 -183h-534v-272h250v-161h-250v-465z" />
    <glyph glyph-name="uni0494" unicode="&#x494;" 
d="M798 -444q-139 0 -248 82l88 144q74 -44 143 -44q119 0 119 147v117h1v475q0 135 -57 201.5t-175 66.5q-93 0 -162.5 -33t-128.5 -96v-616h-237v1413h833l-30 -188h-566v-423q141 135 345 135q196 0 305.5 -120.5t109.5 -337.5v-479v-97q0 -170 -90 -258.5t-250 -88.5z
" />
    <glyph glyph-name="uni0495" unicode="&#x495;" 
d="M194 0v1081h708l-32 -174h-447v-342q129 148 316 148q140 0 225 -86.5t85 -243.5v-383v-97q0 -168 -89 -257.5t-247 -89.5q-140 0 -249 82l89 138q39 -22 69 -32t73 -10q124 0 124 147v121v364q0 91 -37.5 131.5t-108.5 40.5q-75 0 -133.5 -39t-116.5 -109v-390h-229z
" />
    <glyph glyph-name="uni0496" unicode="&#x496;" 
d="M526 664h-101l-193 -664h-215l239 758l-213 655h211l174 -596h98v596h176v-596h99l175 596h210l-213 -655l180 -572h99v-509h-171l-30 323h-59l-191 664h-99v-664h-176v664z" />
    <glyph glyph-name="uni0497" unicode="&#x497;" 
d="M525 0v494h-91l-185 -494h-215l236 581l-221 500h215l168 -436h93v436h178v-436h94l174 436h209l-222 -500l165 -403h120v-501h-153l-34 323h-77l-186 494h-90v-494h-178z" />
    <glyph glyph-name="uni0498" unicode="&#x498;" 
d="M663 -291q0 47 -44 63.5t-138 16.5l17 185q-277 20 -448 200l133 126q165 -142 378 -142q149 0 233.5 69t84.5 189q0 124 -83.5 185.5t-225.5 61.5h-244l27 184h208q122 0 200.5 53t78.5 156q0 97 -76 150.5t-202 53.5q-200 0 -357 -127l-124 131q208 178 496 178
q228 0 364.5 -103t136.5 -269q0 -126 -82.5 -205t-220.5 -102q153 -14 251 -104.5t98 -244.5q0 -179 -128 -299t-352 -140v-85q99 -9 149 -59.5t50 -123.5q0 -99 -77 -156.5t-195 -57.5q-132 0 -223 55l63 118q66 -34 135 -34q117 0 117 77z" />
    <glyph glyph-name="uni0499" unicode="&#x499;" 
d="M678 -291q0 47 -44 63.5t-138 16.5l16 184q-251 12 -423 147l104 139q166 -111 370 -111q131 0 199 47t68 129q0 155 -245 155h-225l15 166h194q99 0 155.5 40t56.5 107q0 147 -228 147q-178 0 -323 -90l-103 129q86 63 201.5 97.5t236.5 34.5q129 0 229.5 -32.5
t161 -101t60.5 -163.5q0 -88 -62 -147.5t-173 -90.5q132 -14 212.5 -78t80.5 -178q0 -147 -113 -235.5t-302 -107.5v-86q98 -9 148.5 -59.5t50.5 -123.5q0 -99 -76.5 -156.5t-194.5 -57.5q-132 0 -225 55l64 118q66 -34 135 -34q117 0 117 77z" />
    <glyph glyph-name="uni049A" unicode="&#x49a;" 
d="M548 648h-150v-648h-237v1413h237v-579h151l387 579h244l-432 -655l354 -572h117v-509h-185l-35 323h-53z" />
    <glyph glyph-name="uni049B" unicode="&#x49b;" 
d="M190 0v1081h230v-428h191l283 428h239l-339 -500l267 -403h149v-501h-180l-34 323h-76l-314 485h-186v-485h-230z" />
    <glyph glyph-name="uni049C" unicode="&#x49c;" 
d="M473 305v349h-89v-654h-223v1413h223v-586h89v342h112v-342h45l309 586h238l-366 -655l404 -758h-257l-326 654h-47v-349h-112z" />
    <glyph glyph-name="uni049D" unicode="&#x49d;" 
d="M190 0v1081h225v-434h84v236h99v-236h50l255 434h230l-303 -498l349 -583h-245l-286 493h-50v-249h-99v249h-84v-493h-225z" />
    <glyph glyph-name="uni049E" unicode="&#x49e;" 
d="M582 648h-150v-648h-237v1084h-141v158h141v171h237v-171h210v-158h-210v-250h150l347 579h243l-391 -655l430 -758h-272z" />
    <glyph glyph-name="uni049F" unicode="&#x49f;" 
d="M783 581l386 -581h-260l-313 485h-145v-485h-230v1160h-162v157h162v199l230 25v-224h284v-157h-284v-507h150l283 428h239z" />
    <glyph glyph-name="uni04A0" unicode="&#x4a0;" 
d="M604 650h-133v-650h-230v1224h-227v189h457v-582h133l349 582h241l-396 -655l434 -758h-269z" />
    <glyph glyph-name="uni04A1" unicode="&#x4a1;" 
d="M251 0v911h-241v170h470v-428h171l277 428h239l-333 -500l378 -581h-259l-308 485h-165v-485h-229z" />
    <glyph glyph-name="uni04A2" unicode="&#x4a2;" 
d="M838 0v642h-461v-642h-237v1413h237v-575h461v575h237v-1227h122v-509h-185l-34 323h-140z" />
    <glyph glyph-name="uni04A3" unicode="&#x4a3;" 
d="M783 0v463h-405v-463h-230v1081h230v-440h405v440h230v-903h158v-501h-180l-35 323h-173z" />
    <glyph glyph-name="uni04A4" unicode="&#x4a4;" 
d="M723 0v641h-374v-641h-237v1413h237v-574h374v574h526l-26 -190h-264v-1223h-236z" />
    <glyph glyph-name="uni04A5" unicode="&#x4a5;" 
d="M721 0v463h-345v-463h-230v1081h230v-440h345v440h517l-29 -178h-259v-903h-229z" />
    <glyph glyph-name="uni04A6" unicode="&#x4a6;" 
d="M514 0v1230h-246v-1230h-215v1413h676v-558q84 76 198 76q129 0 204.5 -86.5t75.5 -229.5v-725q0 -158 -87.5 -246t-229.5 -88q-140 0 -249 82l86 135q73 -46 145 -46q120 0 120 147v735q0 70 -31 105.5t-89 35.5q-73 0 -143 -61v-689h-215z" />
    <glyph glyph-name="uni04A7" unicode="&#x4a7;" 
d="M50 0v1081h700v-443q86 75 211 75q118 0 192.5 -81.5t74.5 -215.5v-519q0 -164 -87.5 -252.5t-236.5 -88.5q-138 0 -247 82l86 132q40 -23 70 -33t76 -10q123 0 123 143v538q0 66 -29 100.5t-85 34.5q-79 0 -148 -60v-483h-218v908h-266v-908h-216z" />
    <glyph glyph-name="uni04A8" unicode="&#x4a8;" 
d="M637 -30q-262 0 -418.5 193t-156.5 544q0 175 45 316.5t122.5 232t178.5 139t216 48.5q127 0 216.5 -36t181.5 -112l-118 -143q-132 105 -272 105q-66 0 -121.5 -29.5t-101 -92t-71 -172t-25.5 -256.5q0 -285 87.5 -418t240.5 -133h23q-125 206 -125 380q0 154 89.5 251
t234.5 97q149 0 239 -91.5t90 -249.5q0 -144 -66 -276t-186 -211q20 -27 76 -101.5t89 -119.5l-137 -101q-187 248 -191 253q-73 -17 -140 -17zM735 539q0 -160 105 -333q145 91 143 341q0 172 -120 172q-63 0 -95.5 -47.5t-32.5 -132.5z" />
    <glyph glyph-name="uni04A9" unicode="&#x4a9;" 
d="M967 -266q-124 137 -212 253q-72 -15 -138 -15q-237 0 -373 150t-136 410t134.5 419t363.5 159q146 0 257 -63l-83 -161q-77 40 -164 40q-125 0 -195.5 -97t-70.5 -293q0 -379 279 -379h12q-89 158 -89 284q0 130 80.5 214t218.5 84q133 0 214.5 -79.5t81.5 -217.5
q0 -117 -62 -222.5t-172 -170.5q63 -84 178 -217zM741 443q0 -114 73 -246q138 73 138 253q0 65 -26.5 100.5t-75.5 35.5q-52 0 -80.5 -38.5t-28.5 -104.5z" />
    <glyph glyph-name="uni04AA" unicode="&#x4aa;" 
d="M733 1442q137 0 236.5 -35.5t189.5 -109.5l-124 -147q-125 104 -291 104q-66 0 -122.5 -18t-106.5 -59t-85.5 -103t-56 -155t-20.5 -210q0 -143 29.5 -249.5t83 -170t123 -94t155.5 -30.5q103 0 176.5 32.5t144.5 89.5l115 -147q-144 -143 -364 -164q155 -96 155 -244
q0 -107 -75 -171.5t-203 -64.5q-116 0 -206 51l54 126q66 -34 136 -34q58 0 87.5 29t29.5 81q0 129 -151 229q-242 32 -389.5 222.5t-147.5 508.5q0 174 49.5 314.5t135 231t199 139t243.5 48.5z" />
    <glyph glyph-name="uni04AB" unicode="&#x4ab;" 
d="M703 161q132 0 267 94l106 -147q-122 -102 -289 -128q160 -98 160 -248q0 -107 -75 -171.5t-202 -64.5q-116 0 -206 51l53 126q66 -34 136 -34q58 0 87.5 29t29.5 81q0 127 -147 227q-214 23 -333.5 173t-119.5 387q0 253 142.5 413.5t387.5 160.5q218 0 375 -130
l-105 -144q-132 90 -265 90q-134 0 -212.5 -97.5t-78.5 -292.5q0 -193 77.5 -284t211.5 -91z" />
    <glyph glyph-name="uni04AC" unicode="&#x4ac;" 
d="M846 186v-509h-184l-34 323h-135v1222h-424v191h1095l-24 -191h-410v-1036h116z" />
    <glyph glyph-name="uni04AD" unicode="&#x4ad;" 
d="M887 178v-501h-180l-34 323h-173v902h-383v179h1007l-26 -179h-369v-724h158z" />
    <glyph glyph-name="Ustraitcy" unicode="&#x4ae;" 
d="M734 540v-540h-239v538l-471 875h261l335 -670l336 670h249z" />
    <glyph glyph-name="ustraitcy" unicode="&#x4af;" 
d="M503 -441v466l-411 1056h246l282 -852l281 852h236l-411 -1056v-441z" />
    <glyph glyph-name="Ustraitstrokecy" unicode="&#x4b0;" 
d="M987 633v-157h-253v-476h-239v476h-253v157h201l-419 780h261l335 -670l336 670h249l-421 -780h203z" />
    <glyph glyph-name="ustraitstrokecy" unicode="&#x4b1;" 
d="M503 -441v434h-208v154h160l-363 934h246l282 -852l281 852h236l-363 -934h161v-154h-209v-409z" />
    <glyph glyph-name="uni04B2" unicode="&#x4b2;" 
d="M1195 186v-509h-185l-34 323h-53v1l-313 600l-314 -601h-254l428 753l-392 660h263l273 -509l277 509h253l-391 -649l327 -578h115z" />
    <glyph glyph-name="uni04B3" unicode="&#x4b3;" 
d="M342 0h-254l388 570l-345 511h264l221 -381l222 381h252l-338 -501l389 -580h-270l-265 441l-157 -263h272v-501h-180l-35 323h-76l-9 131z" />
    <glyph glyph-name="uni04B4" unicode="&#x4b4;" 
d="M233 0v1241h-233v172h695l-24 -172h-212v-1051h370v1223h226v-1227h101v-509h-173l-34 323h-716z" />
    <glyph glyph-name="uni04B5" unicode="&#x4b5;" 
d="M1145 178v-501h-176l-34 323h-709v919h-226v162h682l-31 -162h-202v-740h351v902h222v-903h123z" />
    <glyph glyph-name="uni04B6" unicode="&#x4b6;" 
d="M1198 186v-509h-185l-34 323h-134v547q-81 -60 -160 -87.5t-179 -27.5q-195 0 -308.5 117.5t-113.5 324.5v539h238v-525q0 -137 61 -200.5t185 -63.5q168 0 277 104v685h237v-1227h116z" />
    <glyph glyph-name="uni04B7" unicode="&#x4b7;" 
d="M1167 178v-501h-180l-35 323h-172v437q-128 -113 -328 -113q-159 0 -243 85t-84 239v433h229v-405q0 -94 42 -135.5t127 -41.5q69 0 141 28t116 75v479h230v-903h157z" />
    <glyph glyph-name="uni04B8" unicode="&#x4b8;" 
d="M657 1115v-483q108 20 188 96v685h237v-1413h-237v547q-97 -72 -188 -95v-203h-126v184q-8 -1 -25 -1q-195 0 -308.5 117.5t-113.5 324.5v539h238v-525q0 -127 52 -190.5t157 -71.5v489h126z" />
    <glyph glyph-name="uni04B9" unicode="&#x4b9;" 
d="M632 805v-295q106 26 169 92v479h229v-1081h-229v437q-70 -63 -169 -91v-167h-116v146q-14 -1 -44 -1q-159 0 -243 85t-84 239v433h230v-405q0 -86 35 -128t106 -48v305h116z" />
    <glyph glyph-name="uni04BA" unicode="&#x4ba;" 
d="M729 937q196 0 305.5 -120.5t109.5 -337.5v-479h-238v477q0 136 -56.5 202t-174.5 66q-94 0 -162.5 -32.5t-128.5 -96.5v-616h-238v1413h238v-611q140 135 345 135z" />
    <glyph glyph-name="uni04BB" unicode="&#x4bb;" 
d="M184 0v1513l230 25v-701q123 154 315 154q148 0 232.5 -88t84.5 -246v-657h-230v633q0 98 -38.5 140.5t-113.5 42.5q-78 0 -137 -40.5t-113 -116.5v-659h-230z" />
    <glyph glyph-name="uni04BC" unicode="&#x4bc;" 
d="M-3 877q0 103 72 210l138 -59q-36 -85 -36 -137q0 -106 101 -106h7q17 311 139 484t323 173q207 0 317 -183t110 -528q0 -51 -7 -117h-661q1 -124 22 -216t57.5 -146t83 -79.5t104.5 -25.5q52 0 100.5 15.5t74 30.5t70.5 46l97 -128q-155 -139 -347 -139q-221 0 -346 163
t-138 481q-133 1 -207 74.5t-74 186.5zM740 1269q-108 0 -168.5 -115.5t-71.5 -368.5h456q-5 259 -59.5 371.5t-156.5 112.5z" />
    <glyph glyph-name="uni04BD" unicode="&#x4bd;" 
d="M516 467q4 -161 75 -240.5t185 -79.5q69 0 121.5 19.5t112.5 58.5l100 -129q-148 -124 -339 -124q-211 0 -332 133.5t-138 362.5q-136 1 -210 67.5t-74 180.5q0 56 19.5 103t53.5 101l133 -60q-37 -88 -37 -137q0 -47 26 -73t77 -26h13q20 216 135 351t299 135
q199 0 307.5 -143.5t108.5 -397.5q0 -46 -4 -102h-632zM737 943q-98 0 -155 -79t-67 -240h425q-5 319 -203 319z" />
    <glyph glyph-name="uni04BE" unicode="&#x4be;" 
d="M-3 877q0 103 72 210l138 -59q-36 -85 -36 -137q0 -106 101 -106h7q17 311 139 484t323 173q207 0 317 -183t110 -528q0 -51 -7 -117h-661q1 -124 22 -216t57.5 -146t83 -79.5t104.5 -25.5q52 0 100.5 15.5t74 30.5t70.5 46l97 -128q-90 -80 -190 -114
q-139 -57 -189.5 -111t-50.5 -117q0 -99 116 -99q53 0 120 15l-20 -158q-67 -15 -127 -15q-121 0 -196 61t-75 160q0 153 161 250q-173 36 -270.5 195.5t-109.5 437.5q-133 1 -207 74.5t-74 186.5zM740 1269q-108 0 -168.5 -115.5t-71.5 -368.5h456q-5 259 -59.5 371.5
t-156.5 112.5z" />
    <glyph glyph-name="uni04BF" unicode="&#x4bf;" 
d="M516 467q4 -161 75 -240.5t185 -79.5q69 0 121.5 19.5t112.5 58.5l100 -129q-73 -62 -174 -97q-141 -58 -192.5 -112t-51.5 -118q0 -99 116 -99q54 0 121 15l-21 -158q-67 -15 -127 -15q-121 0 -196 61t-75 160q0 152 160 249q-166 31 -260.5 159t-108.5 327
q-136 1 -210 67.5t-74 180.5q0 56 19.5 103t53.5 101l133 -60q-37 -88 -37 -137q0 -47 26 -73t77 -26h13q20 216 135 351t299 135q199 0 307.5 -143.5t108.5 -397.5q0 -46 -4 -102h-632zM737 943q-98 0 -155 -79t-67 -240h425q-5 319 -203 319z" />
    <glyph glyph-name="uni04C0" unicode="&#x4c0;" 
d="M1039 1413v-181h-305v-1050h305v-182h-850v182h306v1050h-306v181h850z" />
    <glyph glyph-name="uni04C1" unicode="&#x4c1;" 
d="M611 1555q-135 0 -222 73t-99 191l142 27q38 -123 179 -123q147 0 185 123l141 -27q-12 -117 -101 -190.5t-225 -73.5zM526 664h-101l-193 -664h-215l239 758l-213 655h211l174 -596h98v596h176v-596h99l175 596h210l-213 -655l238 -758h-219l-191 664h-99v-664h-176v664
z" />
    <glyph glyph-name="uni04C2" unicode="&#x4c2;" 
d="M611 1297q-135 0 -222 73t-99 191l142 27q38 -123 179 -123q147 0 185 123l141 -27q-12 -117 -101 -190.5t-225 -73.5zM525 0v494h-91l-198 -494h-216l250 581l-234 500h215l181 -436h93v436h178v-436h94l187 436h209l-235 -500l250 -581h-216l-199 494h-90v-494h-178z
" />
    <glyph glyph-name="uni04C3" unicode="&#x4c3;" 
d="M146 0v1413h238v-604h175l336 604h241l-358 -612q173 -26 256 -132.5t83 -294.5v-471q0 -170 -89.5 -258.5t-250.5 -88.5q-139 0 -248 82l89 144q74 -44 143 -44q120 0 120 147v486q0 131 -61.5 192t-202.5 61h-233v-624h-238z" />
    <glyph glyph-name="uni04C4" unicode="&#x4c4;" 
d="M190 0v1081h230v-456h134l272 456h231l-289 -465q133 -17 203.5 -100t70.5 -230v-383q0 -169 -88.5 -258t-246.5 -89q-139 0 -248 82l88 138q74 -42 143 -42q123 0 123 147v397q0 97 -42 138t-139 41h-212v-457h-230z" />
    <glyph glyph-name="uni04C5" unicode="&#x4c5;" 
d="M1212 206l-176 -529h-190l75 323h-130v1222h-260l-38 -346q-19 -168 -38 -288.5t-44 -212.5t-51 -152t-65.5 -108t-79 -78.5t-100.5 -66.5l-99 166q40 31 62 54t51 73.5t48 120.5t41 188.5t41 284.5l66 556h703v-1207h184z" />
    <glyph glyph-name="uni04C6" unicode="&#x4c6;" 
d="M1167 193l-160 -516h-188l75 323h-132v903h-277l-18 -227q-13 -186 -32 -299.5t-57 -193t-87 -123.5t-135 -90l-97 147q35 23 56 42.5t44.5 58t38 93.5t28 143t23.5 212l32 415h710v-888h176z" />
    <glyph glyph-name="uni04C7" unicode="&#x4c7;" 
d="M742 -444q-137 0 -248 82l89 144q39 -23 69 -33.5t74 -10.5q119 0 119 147v757h-461v-642h-238v1413h238v-575h461v575h237v-1510q0 -170 -90 -258.5t-250 -88.5z" />
    <glyph glyph-name="uni04C8" unicode="&#x4c8;" 
d="M711 -444q-139 0 -248 82l88 138q74 -42 143 -42q123 0 123 147v582h-405v-463h-230v1081h230v-440h405v440h230v-1178q0 -168 -89 -257.5t-247 -89.5z" />
    <glyph glyph-name="uni04C9" unicode="&#x4c9;" 
d="M777 0v641h-415v-641h-237v1413h237v-574h415v574h237v-1207h184l-175 -529h-192l75 323h-129z" />
    <glyph glyph-name="uni04CA" unicode="&#x4ca;" 
d="M770 0v463h-359v-463h-230v1081h230v-440h359v440h229v-888h175l-161 -516h-188l76 323h-131z" />
    <glyph glyph-name="uni04CB" unicode="&#x4cb;" 
d="M322 1413v-525q0 -137 61 -200.5t185 -63.5q168 0 277 104v685h237v-1413h-237v547q-81 -60 -160 -87.5t-179 -27.5q-195 0 -308.5 117.5t-113.5 324.5v539h238zM441 186h232l40 -186h-54l-33 -323h-185v509z" />
    <glyph glyph-name="uni04CC" unicode="&#x4cc;" 
d="M652 178h149v291q-60 -53 -146 -83t-183 -30q-159 0 -243 85.5t-84 239.5v400h230v-372q0 -94 42 -136t127 -42q69 0 141 28.5t116 74.5v447h229v-1081h-164l-33 -323h-181v501z" />
    <glyph glyph-name="uni04CD" unicode="&#x4cd;" 
d="M1257 206l-176 -529h-178l75 323h-98l-34 688q-12 282 0 513l-175 -952h-207l-186 952q13 -240 3 -515l-28 -686h-213l80 1413h284l168 -947l159 947h286l68 -1207h172z" />
    <glyph glyph-name="uni04CE" unicode="&#x4ce;" 
d="M1237 193l-162 -516h-170l75 323h-108l-31 468q-12 219 -10 421l-151 -711h-195l-170 711q7 -182 -4 -423l-23 -466h-205l75 1081h272l156 -710l137 710h282l62 -888h170z" />
    <glyph glyph-name="uni04CF" unicode="&#x4cf;" 
d="M657 1516v-1221q0 -137 164 -137q84 0 171 36l59 -160q-122 -62 -279 -62q-163 0 -253.5 91.5t-90.5 251.5v1032h-327v169h556z" />
    <glyph glyph-name="uni04D0" unicode="&#x4d0;" 
d="M611 1555q-135 0 -222 73t-99 191l142 27q38 -123 179 -123q147 0 185 123l141 -27q-12 -117 -101 -190.5t-225 -73.5zM862 340h-505l-98 -340h-242l450 1413h295l450 -1413h-251zM407 523h405l-202 706z" />
    <glyph glyph-name="uni04D1" unicode="&#x4d1;" 
d="M596 1297q-135 0 -222.5 73t-99.5 191l142 27q38 -123 180 -123q147 0 183 123l142 -27q-12 -118 -100.5 -191t-224.5 -73zM1009 265q0 -62 19 -92t63 -44l-52 -156q-170 19 -224 150q-58 -74 -148.5 -112.5t-196.5 -38.5q-163 0 -259 92t-96 244q0 171 133.5 263.5
t380.5 92.5h154v70q0 197 -240 197q-121 0 -288 -57l-56 162q196 74 379 74q214 0 322.5 -94.5t108.5 -267.5v-483zM540 141q70 0 136 37.5t107 103.5v238h-127q-301 0 -301 -202q0 -177 185 -177z" />
    <glyph glyph-name="uni04D2" unicode="&#x4d2;" 
d="M393 1569q-57 0 -95.5 37t-38.5 92q0 56 38.5 93.5t95.5 37.5q56 0 94 -37.5t38 -93.5q0 -55 -38 -92t-94 -37zM835 1569q-56 0 -94.5 37t-38.5 92q0 56 38.5 93.5t94.5 37.5q57 0 95.5 -37.5t38.5 -93.5q0 -55 -38.5 -92t-95.5 -37zM862 340h-505l-98 -340h-242
l450 1413h295l450 -1413h-251zM407 523h405l-202 706z" />
    <glyph glyph-name="uni04D3" unicode="&#x4d3;" 
d="M377 1319q-57 0 -95.5 37.5t-38.5 92.5q0 56 38.5 93t95.5 37q56 0 94 -37t38 -93q0 -55 -38 -92.5t-94 -37.5zM818 1319q-55 0 -93.5 37.5t-38.5 92.5q0 56 38.5 93t93.5 37q58 0 96 -37t38 -93t-38 -93t-96 -37zM1009 265q0 -62 19 -92t63 -44l-52 -156
q-170 19 -224 150q-58 -74 -148.5 -112.5t-196.5 -38.5q-163 0 -259 92t-96 244q0 171 133.5 263.5t380.5 92.5h154v70q0 197 -240 197q-121 0 -288 -57l-56 162q196 74 379 74q214 0 322.5 -94.5t108.5 -267.5v-483zM540 141q70 0 136 37.5t107 103.5v238h-127
q-301 0 -301 -202q0 -177 185 -177z" />
    <glyph glyph-name="uni04D4" unicode="&#x4d4;" 
d="M663 342h-369l-84 -342h-235l393 1413h790l-25 -175h-442l90 -433h359v-176h-326l93 -453h334v-176h-513zM337 521h293l-134 720z" />
    <glyph glyph-name="uni04D5" unicode="&#x4d5;" 
d="M885 1110q352 0 352 -541q0 -59 -4 -98h-530q14 -169 66.5 -249t152.5 -80q53 0 96.5 18.5t97.5 57.5l95 -135q-136 -111 -298 -111q-108 0 -185 46.5t-134 141.5q-64 -102 -130 -145t-167 -43q-142 0 -225.5 92.5t-83.5 245.5q0 171 108.5 261.5t321.5 90.5h89v72
q0 211 -185 211q-51 0 -94.5 -12t-110.5 -42l-57 148q155 71 284 71q204 0 277 -167q35 79 102 123t162 44zM878 944q-83 0 -124 -72t-51 -250h337q-2 168 -37.5 245t-124.5 77zM507 521h-71q-124 0 -177.5 -51t-53.5 -148q0 -90 34.5 -138.5t95.5 -48.5q57 0 101.5 40.5
t88.5 126.5q-18 103 -18 219z" />
    <glyph glyph-name="uni04D6" unicode="&#x4d6;" 
d="M654 1555q-135 0 -222 73t-99 191l141 27q38 -123 180 -123q146 0 184 123l141 -27q-12 -118 -100.5 -191t-224.5 -73zM469 1233v-425h512v-180h-512v-448h624v-180h-862v1413h850l-26 -180h-586z" />
    <glyph glyph-name="uni04D7" unicode="&#x4d7;" 
d="M630 1297q-135 0 -222 73t-99 191l142 27q38 -123 179 -123q146 0 184 123l141 -27q-12 -118 -100.5 -191t-224.5 -73zM373 467q9 -159 89.5 -237.5t205.5 -78.5q140 0 283 94l100 -137q-77 -63 -179.5 -99.5t-215.5 -36.5q-248 0 -384.5 155t-136.5 413
q0 163 58.5 291.5t172 203.5t263.5 75q216 0 341 -145t125 -396q0 -55 -5 -102h-717zM631 940q-112 0 -180.5 -79.5t-78.5 -236.5h500q-3 153 -65 234.5t-176 81.5z" />
    <glyph glyph-name="uni04D8" unicode="&#x4d8;" 
d="M72 683q0 53 8 114h829q-8 243 -90 354t-234 111q-93 0 -163 -29.5t-149 -87.5l-114 132q195 165 440 165q268 0 409 -182.5t141 -537.5q0 -354 -144.5 -552t-397.5 -198q-258 0 -396.5 183.5t-138.5 527.5zM609 154q137 0 212.5 112.5t87.5 353.5h-609q8 -248 84 -357
t225 -109z" />
    <glyph glyph-name="uni04D9" unicode="&#x4d9;" 
d="M599 1110q128 0 225 -40.5t157.5 -115.5t90.5 -178t30 -233q0 -259 -132.5 -415t-365.5 -156q-222 0 -350 143.5t-128 397.5q0 55 6 102h734q-9 164 -77 241.5t-197 77.5q-165 0 -288 -99l-100 142q162 133 395 133zM604 146q127 0 192 73.5t71 239.5h-521v-15
q2 -143 68.5 -220.5t189.5 -77.5z" />
    <glyph glyph-name="uni04DA" unicode="&#x4da;" 
d="M378 1570q-57 0 -95.5 37t-38.5 92q0 56 38.5 93.5t95.5 37.5q56 0 94 -37.5t38 -93.5q0 -55 -38 -92t-94 -37zM819 1570q-55 0 -93.5 37t-38.5 92q0 56 38.5 93.5t93.5 37.5q57 0 95.5 -37.5t38.5 -93.5q0 -55 -38.5 -92t-95.5 -37zM72 683q0 53 8 114h829
q-8 243 -90 354t-234 111q-93 0 -163 -29.5t-149 -87.5l-114 132q195 165 440 165q268 0 409 -182.5t141 -537.5q0 -354 -144.5 -552t-397.5 -198q-258 0 -396.5 183.5t-138.5 527.5zM609 154q137 0 212.5 112.5t87.5 353.5h-609q8 -248 84 -357t225 -109z" />
    <glyph glyph-name="uni04DB" unicode="&#x4db;" 
d="M400 1319q-57 0 -95.5 37.5t-38.5 92.5q0 56 38.5 93t95.5 37q56 0 94 -37t38 -93q0 -55 -38 -92.5t-94 -37.5zM842 1319q-55 0 -93.5 37.5t-38.5 92.5q0 56 38.5 93t93.5 37q58 0 96 -37t38 -93t-38 -93t-96 -37zM599 1110q128 0 225 -40.5t157.5 -115.5t90.5 -178
t30 -233q0 -259 -132.5 -415t-365.5 -156q-222 0 -350 143.5t-128 397.5q0 55 6 102h734q-9 164 -77 241.5t-197 77.5q-165 0 -288 -99l-100 142q162 133 395 133zM604 146q127 0 192 73.5t71 239.5h-521v-15q2 -143 68.5 -220.5t189.5 -77.5z" />
    <glyph glyph-name="uni04DC" unicode="&#x4dc;" 
d="M393 1569q-57 0 -95.5 37t-38.5 92q0 56 38.5 93.5t95.5 37.5q56 0 94 -37.5t38 -93.5q0 -55 -38 -92t-94 -37zM835 1569q-56 0 -94.5 37t-38.5 92q0 56 38.5 93.5t94.5 37.5q57 0 95.5 -37.5t38.5 -93.5q0 -55 -38.5 -92t-95.5 -37zM526 664h-101l-193 -664h-215
l239 758l-213 655h211l174 -596h98v596h176v-596h99l175 596h210l-213 -655l238 -758h-219l-191 664h-99v-664h-176v664z" />
    <glyph glyph-name="uni04DD" unicode="&#x4dd;" 
d="M393 1319q-57 0 -95.5 37.5t-38.5 92.5q0 56 38.5 93t95.5 37q56 0 94 -37t38 -93q0 -55 -38 -92.5t-94 -37.5zM835 1319q-56 0 -94.5 37.5t-38.5 92.5q0 56 38.5 93t94.5 37q57 0 95.5 -37t38.5 -93q0 -55 -38.5 -92.5t-95.5 -37.5zM525 0v494h-91l-198 -494h-216
l250 581l-234 500h215l181 -436h93v436h178v-436h94l187 436h209l-235 -500l250 -581h-216l-199 494h-90v-494h-178z" />
    <glyph glyph-name="uni04DE" unicode="&#x4de;" 
d="M382 1569q-57 0 -95.5 37t-38.5 92q0 56 38.5 93.5t95.5 37.5q56 0 94 -37.5t38 -93.5q0 -55 -38 -92t-94 -37zM823 1569q-56 0 -94 37t-38 92q0 56 38 93.5t94 37.5q57 0 95.5 -37.5t38.5 -93.5q0 -55 -38.5 -92t-95.5 -37zM577 1442q228 0 364.5 -103t136.5 -269
q0 -126 -82.5 -205t-220.5 -102q153 -14 251 -104.5t98 -244.5q0 -196 -151 -319t-410 -123q-320 0 -513 202l133 126q165 -142 378 -142q149 0 233.5 69t84.5 189q0 124 -83.5 185.5t-225.5 61.5h-244l27 184h208q122 0 200.5 53t78.5 156q0 97 -76 150.5t-202 53.5
q-200 0 -357 -127l-124 131q208 178 496 178z" />
    <glyph glyph-name="uni04DF" unicode="&#x4df;" 
d="M374 1317q-57 0 -95.5 37t-38.5 93q0 55 38.5 92.5t95.5 37.5q56 0 94 -37.5t38 -92.5q0 -56 -38 -93t-94 -37zM815 1317q-55 0 -93.5 37t-38.5 93q0 55 38.5 92.5t93.5 37.5q58 0 96 -37t38 -93t-38 -93t-96 -37zM375 645h194q99 0 155.5 40t56.5 107q0 147 -228 147
q-178 0 -323 -90l-103 129q86 63 201.5 97.5t236.5 34.5q129 0 229.5 -32.5t161 -101t60.5 -163.5q0 -88 -62 -147.5t-173 -90.5q132 -14 212.5 -78t80.5 -178q0 -165 -142 -256t-370 -91q-284 0 -473 148l104 139q166 -111 370 -111q131 0 199 47t68 129q0 155 -245 155
h-225z" />
    <glyph glyph-name="uni04E0" unicode="&#x4e0;" 
d="M577 -30q-154 0 -257.5 41.5t-198.5 123.5l116 136q84 -60 158 -87t177 -27q138 0 213.5 69.5t75.5 199.5q0 122 -71.5 177t-208.5 55h-229v150l426 418h-593v187h857v-182l-422 -411h26q230 0 346 -103.5t116 -290.5q0 -201 -144.5 -328.5t-386.5 -127.5z" />
    <glyph glyph-name="uni04E1" unicode="&#x4e1;" 
d="M345 424l423 477h-597v180h855v-166l-439 -488h21q216 0 344 -104.5t128 -302.5q0 -204 -143 -332.5t-373 -128.5q-156 0 -264 45.5t-194 135.5l124 126q71 -67 146.5 -97.5t179.5 -30.5q131 0 206 72t75 208q0 132 -76.5 191t-222.5 59h-193v156z" />
    <glyph glyph-name="uni04E2" unicode="&#x4e2;" 
d="M903 1619h-578v167h578v-167zM146 0v1413h227v-625q0 -309 -40 -579l467 1204h282v-1413h-226v623q0 282 40 574l-463 -1197h-287z" />
    <glyph glyph-name="uni04E3" unicode="&#x4e3;" 
d="M903 1370h-578v167h578v-167zM1047 1081v-1081h-223v444q0 220 34 408l-420 -852h-256v1081h222v-445q0 -248 -34 -404l416 849h261z" />
    <glyph glyph-name="uni04E4" unicode="&#x4e4;" 
d="M393 1569q-57 0 -95.5 37t-38.5 92q0 56 38.5 93.5t95.5 37.5q56 0 94 -37.5t38 -93.5q0 -55 -38 -92t-94 -37zM835 1569q-56 0 -94.5 37t-38.5 92q0 56 38.5 93.5t94.5 37.5q57 0 95.5 -37.5t38.5 -93.5q0 -55 -38.5 -92t-95.5 -37zM146 0v1413h227v-625
q0 -309 -40 -579l467 1204h282v-1413h-226v623q0 282 40 574l-463 -1197h-287z" />
    <glyph glyph-name="uni04E5" unicode="&#x4e5;" 
d="M393 1319q-57 0 -95.5 37.5t-38.5 92.5q0 56 38.5 93t95.5 37q56 0 94 -37t38 -93q0 -55 -38 -92.5t-94 -37.5zM835 1319q-56 0 -94.5 37.5t-38.5 92.5q0 56 38.5 93t94.5 37q57 0 95.5 -37t38.5 -93q0 -55 -38.5 -92.5t-95.5 -37.5zM1047 1081v-1081h-223v444
q0 220 34 408l-420 -852h-256v1081h222v-445q0 -248 -34 -404l416 849h261z" />
    <glyph glyph-name="uni04E6" unicode="&#x4e6;" 
d="M393 1569q-57 0 -95.5 37t-38.5 92q0 56 38.5 93.5t95.5 37.5q56 0 94 -37.5t38 -93.5q0 -55 -38 -92t-94 -37zM835 1569q-56 0 -94.5 37t-38.5 92q0 56 38.5 93.5t94.5 37.5q57 0 95.5 -37.5t38.5 -93.5q0 -55 -38.5 -92t-95.5 -37zM1152 707q0 -220 -60 -384
t-182.5 -257.5t-295.5 -93.5q-260 0 -398.5 196.5t-138.5 536.5q0 220 59.5 384.5t182 258.5t295.5 94q260 0 399 -197.5t139 -537.5zM906 707q0 279 -69 414t-223 135q-153 0 -222 -135.5t-69 -415.5q0 -278 70 -412.5t221 -134.5q155 0 223.5 134.5t68.5 414.5z" />
    <glyph glyph-name="uni04E7" unicode="&#x4e7;" 
d="M393 1319q-57 0 -95.5 37.5t-38.5 92.5q0 56 38.5 93t95.5 37q56 0 94 -37t38 -93q0 -55 -38 -92.5t-94 -37.5zM835 1319q-56 0 -94.5 37.5t-38.5 92.5q0 56 38.5 93t94.5 37q57 0 95.5 -37t38.5 -93q0 -55 -38.5 -92.5t-95.5 -37.5zM615 1110q233 0 360.5 -152.5
t127.5 -414.5q0 -261 -129 -416t-360 -155q-233 0 -360.5 152t-127.5 417q0 258 129 413.5t360 155.5zM615 932q-125 0 -186.5 -95.5t-61.5 -295.5t61 -295.5t186 -95.5t186.5 96t61.5 297q0 198 -61.5 293.5t-185.5 95.5z" />
    <glyph glyph-name="uni04E8" unicode="&#x4e8;" 
d="M1152 707q0 -220 -60 -384t-182.5 -257.5t-295.5 -93.5q-260 0 -398.5 196.5t-138.5 536.5q0 220 59.5 384.5t182 258.5t295.5 94q260 0 399 -197.5t139 -537.5zM614 1256q-140 0 -210.5 -112.5t-82.5 -343.5h585q-11 231 -81 343.5t-211 112.5zM614 158q148 0 217.5 119
t76.5 361h-589q6 -241 77.5 -360.5t217.5 -119.5z" />
    <glyph glyph-name="uni04E9" unicode="&#x4e9;" 
d="M615 1110q233 0 360.5 -152.5t127.5 -414.5q0 -261 -129 -416t-360 -155q-233 0 -360.5 152t-127.5 417q0 258 129 413.5t360 155.5zM615 934q-231 0 -250 -307h499q-19 307 -249 307zM864 471h-500q12 -168 73.5 -245.5t176.5 -77.5q114 0 176 78t74 245z" />
    <glyph glyph-name="uni04EA" unicode="&#x4ea;" 
d="M393 1569q-57 0 -95.5 37t-38.5 92q0 56 38.5 93.5t95.5 37.5q56 0 94 -37.5t38 -93.5q0 -55 -38 -92t-94 -37zM835 1569q-56 0 -94.5 37t-38.5 92q0 56 38.5 93.5t94.5 37.5q57 0 95.5 -37.5t38.5 -93.5q0 -55 -38.5 -92t-95.5 -37zM1152 707q0 -220 -60 -384
t-182.5 -257.5t-295.5 -93.5q-260 0 -398.5 196.5t-138.5 536.5q0 220 59.5 384.5t182 258.5t295.5 94q260 0 399 -197.5t139 -537.5zM614 1256q-140 0 -210.5 -112.5t-82.5 -343.5h585q-11 231 -81 343.5t-211 112.5zM614 158q148 0 217.5 119t76.5 361h-589
q6 -241 77.5 -360.5t217.5 -119.5z" />
    <glyph glyph-name="uni04EB" unicode="&#x4eb;" 
d="M395 1319q-57 0 -95.5 37.5t-38.5 92.5q0 56 38.5 93t95.5 37q56 0 94 -37t38 -93q0 -55 -38 -92.5t-94 -37.5zM837 1319q-56 0 -94 37.5t-38 92.5q0 56 38 93t94 37q57 0 95.5 -37t38.5 -93q0 -55 -38.5 -92.5t-95.5 -37.5zM615 1110q233 0 360.5 -152.5t127.5 -414.5
q0 -261 -129 -416t-360 -155q-233 0 -360.5 152t-127.5 417q0 258 129 413.5t360 155.5zM615 934q-231 0 -250 -307h499q-19 307 -249 307zM864 471h-500q12 -168 73.5 -245.5t176.5 -77.5q114 0 176 78t74 245z" />
    <glyph glyph-name="uni04EC" unicode="&#x4ec;" 
d="M362 1566q-57 0 -95.5 37.5t-38.5 92.5q0 56 38.5 93t95.5 37t95 -37t38 -93q0 -55 -38.5 -92.5t-94.5 -37.5zM804 1566q-55 0 -93.5 37.5t-38.5 92.5q0 56 38.5 93t93.5 37q57 0 95.5 -37t38.5 -93q0 -55 -38.5 -92.5t-95.5 -37.5zM544 1442q273 0 424.5 -183.5
t151.5 -536.5q0 -366 -160.5 -558t-439.5 -192q-137 0 -253.5 48t-201.5 133l125 132q146 -124 322 -124q170 0 262.5 115t102.5 358h-585v183h585q-12 235 -99.5 339t-249.5 104q-101 0 -175.5 -33t-151.5 -92l-120 132q205 175 463 175z" />
    <glyph glyph-name="uni04ED" unicode="&#x4ed;" 
d="M387 1319q-58 0 -96 37t-38 93t38 93t96 37q56 0 94 -37t38 -93q0 -55 -38 -92.5t-94 -37.5zM828 1319q-56 0 -94 37.5t-38 92.5q0 56 38 93t94 37q57 0 96 -37t39 -93q0 -55 -39 -92.5t-96 -37.5zM568 1110q246 0 377 -152.5t131 -413.5q0 -260 -137.5 -416t-386.5 -156
q-229 0 -382 133l106 137q125 -91 272 -91q269 0 294 322h-469v161h466q-28 301 -281 301q-147 0 -273 -89l-104 137q160 127 387 127z" />
    <glyph glyph-name="uni04EE" unicode="&#x4ee;" 
d="M924 1619h-579v167h579v-167zM1209 1413l-404 -1001q-61 -149 -126 -234.5t-171 -137t-270 -68.5l-34 175q159 20 234.5 69.5t131.5 166.5h-85l-455 1030h246l364 -886l329 886h240z" />
    <glyph glyph-name="uni04EF" unicode="&#x4ef;" 
d="M903 1370h-578v167h578v-167zM1128 1081l-372 -1085q-33 -96 -76 -169t-106 -131.5t-150 -93t-198 -44.5l-29 172q81 13 137.5 34t96 55.5t64.5 76t48 104.5h-78l-365 1081h244l272 -921l277 921h235z" />
    <glyph glyph-name="uni04F0" unicode="&#x4f0;" 
d="M414 1569q-57 0 -95.5 37t-38.5 92q0 56 38.5 93.5t95.5 37.5q56 0 94 -37.5t38 -93.5q0 -55 -38 -92t-94 -37zM855 1569q-56 0 -94 37t-38 92q0 56 38 93.5t94 37.5q57 0 95.5 -37.5t38.5 -93.5q0 -55 -38.5 -92t-95.5 -37zM1209 1413l-404 -1001q-61 -149 -126 -234.5
t-171 -137t-270 -68.5l-34 175q159 20 234.5 69.5t131.5 166.5h-85l-455 1030h246l364 -886l329 886h240z" />
    <glyph glyph-name="uni04F1" unicode="&#x4f1;" 
d="M393 1319q-57 0 -95.5 37.5t-38.5 92.5q0 56 38.5 93t95.5 37q56 0 94 -37t38 -93q0 -55 -38 -92.5t-94 -37.5zM835 1319q-56 0 -94.5 37.5t-38.5 92.5q0 56 38.5 93t94.5 37q57 0 95.5 -37t38.5 -93q0 -55 -38.5 -92.5t-95.5 -37.5zM1128 1081l-372 -1085
q-33 -96 -76 -169t-106 -131.5t-150 -93t-198 -44.5l-29 172q81 13 137.5 34t96 55.5t64.5 76t48 104.5h-78l-365 1081h244l272 -921l277 921h235z" />
    <glyph glyph-name="uni04F2" unicode="&#x4f2;" 
d="M376 1605l176 372l177 -83l-219 -350zM711 1606l190 371l175 -89l-234 -348zM1209 1413l-404 -1001q-61 -149 -126 -234.5t-171 -137t-270 -68.5l-34 175q159 20 234.5 69.5t131.5 166.5h-85l-455 1030h246l364 -886l329 886h240z" />
    <glyph glyph-name="uni04F3" unicode="&#x4f3;" 
d="M349 1355l176 374l177 -84l-219 -351zM684 1357l190 372l176 -90l-235 -348zM1128 1081l-372 -1085q-33 -96 -76 -169t-106 -131.5t-150 -93t-198 -44.5l-29 172q81 13 137.5 34t96 55.5t64.5 76t48 104.5h-78l-365 1081h244l272 -921l277 921h235z" />
    <glyph glyph-name="uni04F4" unicode="&#x4f4;" 
d="M369 1569q-57 0 -96 37t-39 92q0 56 39 93.5t96 37.5q56 0 94 -37.5t38 -93.5q0 -55 -38 -92t-94 -37zM810 1569q-55 0 -93.5 37t-38.5 92q0 56 38.5 93.5t93.5 37.5q57 0 95.5 -37.5t38.5 -93.5q0 -55 -38.5 -92t-95.5 -37zM322 1413v-525q0 -137 61 -200.5t185 -63.5
q168 0 277 104v685h237v-1413h-237v547q-81 -60 -160 -87.5t-179 -27.5q-195 0 -308.5 117.5t-113.5 324.5v539h238z" />
    <glyph glyph-name="uni04F5" unicode="&#x4f5;" 
d="M367 1319q-57 0 -96 37.5t-39 92.5q0 56 39 93t96 37q56 0 94 -37t38 -93q0 -55 -38 -92.5t-94 -37.5zM808 1319q-56 0 -94 37.5t-38 92.5q0 56 38 93t94 37q57 0 95.5 -37t38.5 -93q0 -55 -38.5 -92.5t-95.5 -37.5zM1030 1081v-1081h-229v437q-128 -113 -329 -113
q-159 0 -243 85t-84 239v433h230v-405q0 -94 42 -135.5t127 -41.5q69 0 141 28t116 75v479h229z" />
    <glyph glyph-name="uni04F6" unicode="&#x4f6;" 
d="M608 186v-509h-184l-35 323h-146v1413h883l-24 -196h-622v-1031h128z" />
    <glyph glyph-name="uni04F7" unicode="&#x4f7;" 
d="M683 178v-501h-180l-34 323h-173v1081h789l-26 -183h-534v-720h158z" />
    <glyph glyph-name="uni04F8" unicode="&#x4f8;" 
d="M393 1569q-57 0 -95.5 37t-38.5 92q0 56 38.5 93.5t95.5 37.5q56 0 94 -37.5t38 -93.5q0 -55 -38 -92t-94 -37zM835 1569q-56 0 -94.5 37t-38.5 92q0 56 38.5 93.5t94.5 37.5q57 0 95.5 -37.5t38.5 -93.5q0 -55 -38.5 -92t-95.5 -37zM271 1413v-504h88q253 0 383 -113
t130 -331q0 -233 -132.5 -349t-375.5 -116h-308v1413h215zM1172 1413v-1413h-215v1413h215zM382 739h-111v-563h105q135 0 203 66.5t68 220.5q0 276 -265 276z" />
    </font>
</defs>
</svg>
