<?xml version="1.0" standalone="no"?>
<!DOCTYPE svg PUBLIC "-//W3C//DTD SVG 1.1//EN" "http://www.w3.org/Graphics/SVG/1.1/DTD/svg11.dtd" >
<svg xmlns="http://www.w3.org/2000/svg" xmlns:xlink="http://www.w3.org/1999/xlink" version="1.1">
<metadata>
Created by FontForge 20170731 at Tue Apr 20 11:35:25 2021
 By Aleksey,,,
Copyright 2012-2015 The Fira Code Project Authors (https://github.com/tonsky/FiraCode)
</metadata>
<defs>
<font id="FiraCode-Regular" horiz-adv-x="1228" >
  <font-face 
    font-family="Fira Code"
    font-weight="400"
    font-stretch="normal"
    units-per-em="2048"
    panose-1="2 11 8 9 5 0 0 2 0 4"
    ascent="1638"
    descent="-410"
    x-height="1078"
    cap-height="1410"
    bbox="-3640 -1024 2441 2150"
    underline-thickness="51"
    underline-position="-153"
    unicode-range="U+000D-1F310"
  />
<missing-glyph 
d="M184 2150h860v-2867h-860v2867zM934 -610v2654h-637v-2654h637zM629 354q0 -22 -15.5 -35.5t-35.5 -13.5q-21 0 -36.5 13.5t-15.5 35.5v172q108 6 147.5 40.5t39.5 117.5q0 67 -27 104t-98 37q-59 0 -107 -22q-15 -6 -26 -6q-23 0 -36 13t-13 34q0 38 60 59t130 21
q122 0 174.5 -66t52.5 -170q0 -109 -46.5 -168t-147.5 -74v-92zM506 174q0 31 20.5 51.5t51.5 20.5t51 -20.5t20 -51.5q0 -32 -20 -54t-51 -22t-51.5 22t-20.5 54z" />
    <glyph glyph-name=".notdef" 
d="M184 2150h860v-2867h-860v2867zM934 -610v2654h-637v-2654h637zM629 354q0 -22 -15.5 -35.5t-35.5 -13.5q-21 0 -36.5 13.5t-15.5 35.5v172q108 6 147.5 40.5t39.5 117.5q0 67 -27 104t-98 37q-59 0 -107 -22q-15 -6 -26 -6q-23 0 -36 13t-13 34q0 38 60 59t130 21
q122 0 174.5 -66t52.5 -170q0 -109 -46.5 -168t-147.5 -74v-92zM506 174q0 31 20.5 51.5t51.5 20.5t51 -20.5t20 -51.5q0 -32 -20 -54t-51 -22t-51.5 22t-20.5 54z" />
    <glyph glyph-name=".null" horiz-adv-x="0" 
 />
    <glyph glyph-name="nonmarkingreturn" horiz-adv-x="682" 
 />
    <glyph glyph-name="CR" unicode="&#xd;" 
 />
    <glyph glyph-name="space" unicode=" " 
 />
    <glyph glyph-name="exclam" unicode="!" 
d="M706 1410l-18 -945h-154l-21 945h193zM612 251q59 0 99 -39.5t40 -96.5q0 -58 -40 -98.5t-99 -40.5q-57 0 -96.5 40.5t-39.5 98.5q0 57 39.5 96.5t96.5 39.5z" />
    <glyph glyph-name="quotedbl" unicode="&#x22;" 
d="M368 980l-33 532h216l-32 -532h-151zM710 980l-31 532h215l-33 -532h-151z" />
    <glyph glyph-name="numbersign" unicode="#" 
d="M939 934l-60 -454h165v-133h-185l-43 -347h-147l46 347h-298l-45 -347h-148l46 347h-161v133h179l62 454h-166v134h184l45 342h147l-49 -342h301l45 342h148l-49 -342h164v-134h-181zM434 480h298l63 454h-300z" />
    <glyph glyph-name="dollar" unicode="$" 
d="M708 1738v-308q221 -23 376 -165l-105 -109q-119 112 -271 131v-467q84 -27 149.5 -61.5t123 -85t89 -123t31.5 -162.5q0 -153 -102.5 -265.5t-290.5 -137.5v-298h-139v291q-248 15 -428 193l103 114q143 -146 325 -161v567q-185 62 -279.5 156.5t-94.5 232.5
q0 63 23.5 121t68.5 106.5t118 81t164 41.5v308h139zM569 1283q-88 -15 -139.5 -65.5t-51.5 -134.5q0 -75 41 -124.5t150 -93.5v418zM708 643v-510q207 42 207 253q0 89 -46.5 149.5t-160.5 107.5z" />
    <glyph glyph-name="percent" unicode="%" 
d="M1033 1448l111 -72l-970 -1417l-107 72zM340 1433q138 0 219 -95t81 -233q0 -137 -81 -234t-219 -97t-220 97t-82 234q0 138 82 233t220 95zM340 1310q-64 0 -104 -52.5t-40 -152.5q0 -98 40 -154t104 -56t103 52.5t39 157.5t-38.5 155t-103.5 50zM893 647
q138 0 219 -95.5t81 -233.5q0 -137 -81 -233.5t-219 -96.5t-220 96.5t-82 233.5q0 138 82 233.5t220 95.5zM893 523q-64 0 -104 -51.5t-40 -153.5q0 -98 40 -153.5t104 -55.5t103 52.5t39 156.5q0 105 -38.5 155t-103.5 50z" />
    <glyph glyph-name="ampersand" unicode="&#x26;" 
d="M571 1431q100 0 181 -32.5t161 -119.5l-103 -94q-54 61 -110 89t-131 28q-105 0 -160.5 -56.5t-55.5 -150.5q0 -95 74 -165.5t178 -70.5h570v-135h-184v-557q-26 -34 -59.5 -64t-84.5 -60.5t-124 -48.5t-157 -18q-115 0 -205 36t-143.5 96.5t-80.5 134t-27 155.5
q0 158 83 260.5t238 133.5v6q-67 16 -116.5 46.5t-77 70.5t-40.5 84.5t-13 94.5q0 141 106.5 239t280.5 98zM835 724h-254q-62 0 -113 -19.5t-85.5 -51.5t-58.5 -74t-34.5 -86t-10.5 -89q0 -78 28.5 -141t96 -105t166.5 -42q180 0 265 108v500z" />
    <glyph glyph-name="quotesingle" unicode="'" 
d="M539 980l-32 532h215l-32 -532h-151z" />
    <glyph glyph-name="parenleft" unicode="(" 
d="M435 717q0 -158 26 -284.5t84 -235t135 -198t193 -192.5l-90 -94q-133 108 -224.5 207t-163 219.5t-106 263t-34.5 314.5t34.5 314t106 262.5t163 219.5t224.5 207l90 -94q-118 -104 -194.5 -193.5t-134 -197t-83.5 -233.5t-26 -285z" />
    <glyph glyph-name="parenright" unicode=")" 
d="M794 717q0 159 -26 285t-84 233.5t-134.5 197t-194.5 193.5l90 94q133 -108 224.5 -207t163.5 -219.5t106.5 -262.5t34.5 -314t-34.5 -314.5t-106.5 -263t-163.5 -219.5t-224.5 -207l-90 94q116 103 193 192.5t135 198t84.5 235t26.5 284.5z" />
    <glyph glyph-name="asterisk" unicode="*" 
d="M527 1185h174l-13 -415l389 138l52 -162l-396 -116l253 -328l-137 -100l-235 342l-234 -342l-137 100l253 328l-397 116l53 162l389 -138z" />
    <glyph glyph-name="plus" unicode="+" 
d="M692 1117v-408h403v-145h-403v-405h-161v405h-397v145h397v408h161z" />
    <glyph glyph-name="comma" unicode="," 
d="M614 337q71 0 118.5 -48t47.5 -116q0 -74 -40 -161l-166 -380h-155l98 405q-66 48 -66 136q0 68 47 116t116 48z" />
    <glyph glyph-name="hyphen" unicode="-" 
d="M204 566v150h821v-150h-821z" />
    <glyph glyph-name="period" unicode="." 
d="M433 158q0 75 52 127t127 52q77 0 129.5 -52t52.5 -127q0 -76 -52.5 -129t-129.5 -53q-75 0 -127 53t-52 129z" />
    <glyph glyph-name="slash" unicode="/" 
d="M247 -211l-139 61l876 1808l137 -68z" />
    <glyph glyph-name="zero" unicode="0" 
d="M614 1433q226 0 344 -187.5t118 -539.5q0 -354 -118 -542t-344 -188t-343.5 188t-117.5 542q0 352 117.5 539.5t343.5 187.5zM614 1294q-279 0 -279 -588q0 -238 36 -369l431 866q-66 91 -188 91zM895 706q0 234 -37 369l-429 -869q65 -90 185 -90q281 0 281 590z" />
    <glyph glyph-name="one" unicode="1" 
d="M1060 140v-140h-814v140h347v1084l-324 -197l-74 123l419 260h151v-1270h295z" />
    <glyph glyph-name="two" unicode="2" 
d="M552 1433q195 0 310 -111t115 -283q0 -98 -32 -188t-111 -197.5t-192.5 -224t-296.5 -283.5h665l-22 -146h-838v140q277 266 408 413t184.5 254.5t53.5 225.5q0 120 -67 188t-185 68q-101 0 -168 -34.5t-136 -115.5l-119 92q85 104 188 153t243 49z" />
    <glyph glyph-name="three" unicode="3" 
d="M550 1433q194 0 313.5 -102.5t119.5 -250.5q0 -125 -79.5 -215.5t-195.5 -112.5q134 -11 227 -101t93 -244q0 -186 -136 -308.5t-353 -122.5q-125 0 -240.5 47.5t-193.5 141.5l116 94q58 -69 141 -104.5t173 -35.5q147 0 230 77t83 211q0 267 -292 267h-119l22 136h83
q111 0 189.5 63.5t78.5 182.5q0 113 -75.5 176t-190.5 63q-89 0 -157.5 -31t-141.5 -99l-95 106q172 162 400 162z" />
    <glyph glyph-name="four" unicode="4" 
d="M900 881v-401h182v-137h-182v-343h-166l-1 343h-586v125l414 965l144 -61l-375 -892h404l23 401h143z" />
    <glyph glyph-name="five" unicode="5" 
d="M997 1410l-25 -137h-557v-445q114 61 243 61q175 0 280 -117.5t105 -325.5q0 -212 -130 -341t-347 -129q-232 0 -408 170l106 103q126 -130 304 -130q140 0 217.5 85.5t77.5 247.5q0 160 -69 230.5t-185 70.5q-59 0 -105.5 -10.5t-114.5 -36.5h-138v704h746z" />
    <glyph glyph-name="six" unicode="6" 
d="M687 1433q155 0 279 -82l-68 -117q-95 59 -214 59q-161 0 -252.5 -151.5t-96.5 -413.5q128 191 340 191q83 0 154 -27.5t126.5 -81.5t87 -140t31.5 -196q0 -227 -126.5 -362.5t-316.5 -135.5q-101 0 -180 32t-133 90t-89 144.5t-50.5 191t-15.5 233.5q0 353 139 559.5
t385 206.5zM648 777q-98 0 -177 -53t-134 -146q5 -240 74.5 -351t218.5 -111q131 0 199.5 93.5t68.5 260.5q0 165 -65 236t-185 71z" />
    <glyph glyph-name="seven" unicode="7" 
d="M472 -19l-161 49l550 1237h-661v143h834v-132z" />
    <glyph glyph-name="eight" unicode="8" 
d="M1037 1074q0 -99 -60.5 -174.5t-183.5 -142.5q142 -59 222 -155.5t80 -223.5q0 -176 -132.5 -289t-352.5 -113t-348 113t-128 286q0 236 283 367q-116 56 -171 131.5t-55 191.5q0 74 26.5 137t69 104.5t98.5 71t114 42.5t115 13q80 0 153 -21.5t134.5 -63.5t98.5 -113
t37 -161zM361 1063q0 -34 8 -62.5t19 -49.5t36 -41t44 -32t59 -28t66 -24.5l78 -25.5q105 59 150.5 117.5t45.5 150.5q0 107 -66.5 169t-186.5 62t-186.5 -62t-66.5 -174zM913 376q0 39 -9.5 72t-24.5 58t-43 48t-54.5 39t-69 34.5t-77.5 31t-90 31.5l-9 3
q-221 -100 -221 -319q0 -122 75 -190t219 -68t224 72.5t80 187.5z" />
    <glyph glyph-name="nine" unicode="9" 
d="M593 1431q226 0 343 -153t117 -424q0 -143 -18.5 -254.5t-60 -199.5t-99 -153.5t-146 -119t-189.5 -93t-239 -77.5l-40 131q152 42 258 92.5t184.5 121t118.5 164.5t47 219q-137 -168 -329 -168q-179 0 -291.5 121.5t-112.5 329.5q0 146 62 253t164 158.5t231 51.5z
M314 962q0 -308 257 -308q91 0 163 46.5t139 137.5q-3 245 -70 349t-210 104q-137 0 -208 -83.5t-71 -245.5z" />
    <glyph glyph-name="colon" unicode=":" 
d="M447 882q0 69 47.5 117t117.5 48q71 0 119 -48t48 -117t-48 -118t-119 -49q-69 0 -117 49t-48 118zM447 143q0 67 48 116t117 49q70 0 118.5 -48.5t48.5 -116.5q0 -70 -48 -118.5t-119 -48.5q-70 0 -117.5 48.5t-47.5 118.5z" />
    <glyph glyph-name="semicolon" unicode=";" 
d="M612 1047q71 0 119 -48t48 -117t-48 -118t-119 -49q-69 0 -117 49t-48 118t47.5 117t117.5 48zM612 339q71 0 119 -48t48 -116q0 -77 -41 -163l-166 -381h-155l98 407q-31 22 -49.5 58.5t-18.5 77.5q0 69 48 117t117 48z" />
    <glyph glyph-name="less" unicode="&#x3c;" 
d="M968 1217l83 -133l-723 -443l723 -447l-93 -126l-778 486v176z" />
    <glyph glyph-name="equal" unicode="=" 
d="M1013 905v-148h-797v148h797zM1013 517v-149h-797v149h797z" />
    <glyph glyph-name="greater" unicode="&#x3e;" 
d="M263 1217l788 -487v-176l-778 -486l-93 127l723 446l-723 445z" />
    <glyph glyph-name="question" unicode="?" 
d="M613 1433q181 0 292.5 -94t111.5 -222q0 -66 -20.5 -120t-53 -89.5t-71.5 -67t-78.5 -60.5t-72 -61.5t-53 -79t-20.5 -103.5v-71h-173v81q0 67 20 123t52 94.5t71 71.5t78 62t71 58.5t52 68t20 83.5q0 85 -68 133.5t-175 48.5q-77 0 -153 -37t-137 -112l-123 90
q173 203 430 203zM566 251q60 0 100 -39.5t40 -96.5q0 -58 -40 -98.5t-100 -40.5q-57 0 -96 40.5t-39 98.5q0 57 39 96.5t96 39.5z" />
    <glyph glyph-name="at" unicode="@" 
d="M581 1433q111 0 201 -25.5t153 -69t111 -108.5t76.5 -136t46 -160t24 -171.5t6.5 -179.5q0 -135 -5 -236.5t-18 -191.5t-35 -150.5t-55 -104.5t-80 -64.5t-108 -20.5q-60 0 -109 31t-76.5 77t-42 94t-13.5 88h-8q-80 -198 -279 -198q-108 0 -179 62t-101 164t-30 243
q0 263 104.5 395.5t297.5 132.5q75 0 140.5 -16.5t148.5 -60.5v-605q0 -154 37.5 -211.5t106.5 -57.5q83 0 110 167q18 114 18 440v21q0 90 -4.5 162.5t-17 147t-33 131.5t-54 107.5t-79 83t-109.5 51.5t-143 19q-253 0 -465 -188l-99 114q256 224 562 224zM470 777
q-135 0 -189 -97t-54 -304q0 -162 37.5 -251t125.5 -89q48 0 85 17t61 47t36.5 53.5t25.5 54.5q2 5 3 8v530q-58 31 -131 31z" />
    <glyph glyph-name="A" unicode="A" 
d="M888 359h-558l-113 -359h-175l459 1410h227l459 -1410h-187zM376 507h466l-232 754z" />
    <glyph glyph-name="B" unicode="B" 
d="M1105 402q0 -89 -30.5 -159.5t-80.5 -115t-119.5 -74t-142.5 -41.5t-155 -12h-379v1410h347q78 0 147 -10t134.5 -35.5t112.5 -65t75.5 -102t28.5 -142.5q0 -127 -75 -205t-187 -104q324 -56 324 -344zM861 1046q0 221 -276 221h-210v-457h227q128 0 193.5 57t65.5 179z
M918 396q0 77 -23.5 131t-67 83t-95 41.5t-117.5 12.5h-240v-518h232q46 0 86 5.5t82.5 22.5t73 43.5t50 72.5t19.5 106z" />
    <glyph glyph-name="C" unicode="C" 
d="M733 1433q133 0 227 -33.5t182 -104.5l-100 -115q-123 104 -296 104q-91 0 -166 -30.5t-136 -96t-95.5 -180.5t-34.5 -271q0 -153 32.5 -266.5t92 -180t135 -98.5t168.5 -32q108 0 184.5 31.5t143.5 86.5l92 -117q-158 -154 -422 -154q-130 0 -240.5 48t-193 138.5
t-129.5 230.5t-47 313t48 313t131 229.5t191.5 137t232.5 47.5z" />
    <glyph glyph-name="D" unicode="D" 
d="M1132 712q0 -123 -20.5 -225t-54.5 -174.5t-84 -128.5t-104.5 -90t-120 -56t-126 -30t-127.5 -8h-324v1410h301q76 0 141 -7.5t133.5 -28.5t124 -54t105.5 -87.5t83.5 -126t53 -171.5t19.5 -223zM942 712q0 142 -27 246t-67 161.5t-100.5 92t-113.5 44t-120 9.5h-166
v-1123h168q66 0 123 14t114.5 52.5t97.5 100.5t65.5 165t25.5 238z" />
    <glyph glyph-name="E" unicode="E" 
d="M435 1265v-475h522v-147h-522v-501h641v-142h-819v1410h801l-21 -145h-602z" />
    <glyph glyph-name="F" unicode="F" 
d="M460 1265v-494h553v-143h-553v-628h-176v1410h830l-21 -145h-633z" />
    <glyph glyph-name="G" unicode="G" 
d="M642 -24q-257 0 -403 186t-146 544q0 141 32.5 261t88 205t131 144.5t161 88t177.5 28.5q132 0 223.5 -37.5t179.5 -117.5l-107 -112q-125 118 -295 118q-64 0 -120.5 -18t-108.5 -60.5t-89.5 -107.5t-59.5 -165.5t-22 -226.5q0 -302 93 -441t281 -139q142 0 269 68v430
h-278l-21 147h475v-672q-108 -60 -215 -91.5t-246 -31.5z" />
    <glyph glyph-name="H" unicode="H" 
d="M881 0v669h-533v-669h-177v1410h177v-596h533v596h177v-1410h-177z" />
    <glyph glyph-name="I" unicode="I" 
d="M1018 1410v-142h-313v-1126h313v-142h-807v142h313v1126h-313v142h807z" />
    <glyph glyph-name="J" unicode="J" 
d="M1017 1410v-942q0 -75 -14 -142.5t-48.5 -132.5t-88 -112t-138 -76t-192.5 -29q-217 0 -388 128l79 118q152 -97 307 -97q146 0 226 93.5t80 259.5v787h-418v145h595z" />
    <glyph glyph-name="K" unicode="K" 
d="M392 0h-177v1410h177v-1410zM402 753l555 657h205l-551 -646l590 -764h-221z" />
    <glyph glyph-name="L" unicode="L" 
d="M278 0v1410h178v-1251h643l-21 -159h-800z" />
    <glyph glyph-name="M" unicode="M" 
d="M1086 1410l80 -1410h-171l-44 736q-14 254 -11 511l-238 -994h-178l-255 994q10 -253 -2 -509l-38 -738h-167l80 1410h248l228 -966l219 966h249z" />
    <glyph glyph-name="N" unicode="N" 
d="M809 0l-497 1240q0 -15 6.5 -109t12 -211t5.5 -213v-707h-165v1410h241l504 -1245q0 11 -6.5 100.5t-11.5 208t-5 231.5v705h165v-1410h-249z" />
    <glyph glyph-name="O" unicode="O" 
d="M1134 703q0 -217 -57.5 -379t-176 -255t-286.5 -93t-286 91t-175.5 252.5t-57.5 381.5q0 217 57.5 380t176 257.5t285.5 94.5q251 0 385.5 -197.5t134.5 -532.5zM947 703q0 290 -79.5 435.5t-253.5 145.5t-253 -146.5t-79 -436.5q0 -287 80.5 -431t251.5 -144
q175 0 254 144t79 433z" />
    <glyph glyph-name="P" unicode="P" 
d="M1141 977q0 -121 -40 -210t-114.5 -141.5t-171.5 -77.5t-220 -25h-180v-523h-178v1410h360q259 0 401.5 -108t142.5 -325zM950 975q0 294 -332 294h-203v-602h196q78 0 136.5 14.5t106 48.5t72 95.5t24.5 149.5z" />
    <glyph glyph-name="Q" unicode="Q" 
d="M1134 703q0 -237 -68.5 -400t-223.5 -249q150 -29 235 -105.5t136 -229.5l-187 -73q-34 86 -70 145t-86.5 103.5t-118 65.5t-157.5 21q-240 0 -370.5 193.5t-130.5 526.5q0 217 58 380t176.5 257.5t285.5 94.5q168 0 286.5 -92t176.5 -255t58 -383zM949 703
q0 289 -80.5 435t-255.5 146t-255 -146.5t-80 -436.5q0 -286 82 -430.5t253 -144.5q175 0 255.5 144.5t80.5 432.5z" />
    <glyph glyph-name="R" unicode="R" 
d="M1101 1015q0 -152 -95 -252t-249 -137l418 -626h-213l-385 605h-191v-605h-178v1410h362q261 0 396 -100t135 -295zM910 1015q0 134 -77 194t-242 60h-205v-525h205q158 0 238.5 64t80.5 207z" />
    <glyph glyph-name="S" unicode="S" 
d="M1099 390q0 -186 -137 -300t-378 -114q-308 0 -495 181l106 118q157 -149 392 -149q89 0 161 27.5t119 88t47 145.5q0 104 -65 163.5t-244 112.5q-112 33 -190 67.5t-140.5 82t-93 111.5t-30.5 146q0 159 127.5 261t328.5 102q267 0 451 -161l-105 -116
q-144 128 -340 128q-122 0 -201.5 -53.5t-79.5 -154.5q0 -91 76 -146t279 -115q73 -21 127.5 -42.5t111 -56.5t92.5 -78t58.5 -106.5t22.5 -141.5z" />
    <glyph glyph-name="T" unicode="T" 
d="M699 1257v-1257h-177v1257h-440v153h1064l-19 -153h-428z" />
    <glyph glyph-name="U" unicode="U" 
d="M1080 1410v-953q0 -216 -127.5 -348.5t-340.5 -132.5q-215 0 -339.5 132t-124.5 349v953h177v-959q0 -159 74 -240t213 -81q140 0 214.5 81t74.5 240v959h179z" />
    <glyph glyph-name="V" unicode="V" 
d="M618 202l381 1208h180l-472 -1410h-185l-472 1410h192z" />
    <glyph glyph-name="W" unicode="W" 
d="M1220 1410l-215 -1410h-234l-162 1064l-163 -1064h-238l-199 1410h178l151 -1214l169 1050h218l161 -1050l169 1214h165z" />
    <glyph glyph-name="X" unicode="X" 
d="M101 1410h204l309 -542l311 542h192l-400 -649l448 -761h-203l-352 637l-355 -637h-192l443 752z" />
    <glyph glyph-name="Y" unicode="Y" 
d="M705 544v-544h-181v542l-476 868h197l373 -707l378 707h185z" />
    <glyph glyph-name="Z" unicode="Z" 
d="M342 154h738l-21 -154h-913v144l746 1114h-672v152h862v-145z" />
    <glyph glyph-name="bracketleft" unicode="[" 
d="M377 -237v1907h513v-148h-350v-1612h350v-147h-513z" />
    <glyph glyph-name="backslash" unicode="\" 
d="M108 1590l137 68l876 -1808l-139 -61z" />
    <glyph glyph-name="bracketright" unicode="]" 
d="M852 1670v-1907h-513v146h350v1613h-350v148h513z" />
    <glyph glyph-name="asciicircum" unicode="^" 
d="M691 1719l387 -640h-187l-279 486l-277 -486h-184l387 640h153z" />
    <glyph glyph-name="underscore" unicode="_" 
d="M102 -372v151h1024v-151h-1024z" />
    <glyph glyph-name="grave" unicode="`" 
d="M792 1274l-414 190l92 147l378 -242z" />
    <glyph glyph-name="a" unicode="a" 
d="M978 236q0 -63 20.5 -94t67.5 -45l-42 -121q-155 20 -198 152q-57 -74 -145 -113t-193 -39q-161 0 -254.5 90.5t-93.5 242.5q0 167 130 256t376 89h159v90q0 113 -65.5 163.5t-191.5 50.5q-123 0 -281 -55l-45 130q182 68 352 68q197 0 300.5 -92.5t103.5 -255.5v-517z
M532 108q80 0 152 40t121 112v278h-156q-324 0 -324 -227q0 -203 207 -203z" />
    <glyph glyph-name="b" unicode="b" 
d="M378 938q125 163 307 163q141 0 233 -71t132 -193.5t40 -296.5q0 -165 -48 -291t-145.5 -199.5t-233.5 -73.5q-186 0 -294 136l-13 -112h-150v1512l172 22v-596zM622 116q137 0 208.5 106t71.5 319q0 422 -254 422q-155 0 -270 -173v-535q42 -65 106.5 -102t137.5 -37z
" />
    <glyph glyph-name="c" unicode="c" 
d="M693 125q144 0 281 94l84 -113q-70 -60 -169.5 -95t-195.5 -35q-239 0 -372.5 151t-133.5 408q0 163 58.5 290t175 201.5t274.5 74.5q207 0 361 -125l-84 -115q-140 96 -279 96q-145 0 -232 -107.5t-87 -314.5t86.5 -308.5t232.5 -101.5z" />
    <glyph glyph-name="d" unicode="d" 
d="M851 1534l172 -22v-1512h-151l-16 142q-117 -166 -306 -166q-205 0 -308 151t-103 411q0 163 49.5 290t146.5 200t227 73q180 0 289 -127v560zM607 963q-136 0 -208 -106.5t-72 -318.5q0 -209 66 -315.5t193 -106.5q153 0 265 170v538q-44 66 -107.5 102.5t-136.5 36.5z
" />
    <glyph glyph-name="e" unicode="e" 
d="M341 478q6 -178 93.5 -268t221.5 -90q80 0 147 23.5t141 73.5l81 -114q-75 -60 -173 -93.5t-198 -33.5q-232 0 -362.5 153t-130.5 409q0 248 129 405.5t342 157.5q204 0 321 -141.5t117 -387.5q0 -46 -4 -94h-725zM634 959q-125 0 -203.5 -87.5t-88.5 -260.5h562
q-3 170 -74.5 259t-195.5 89z" />
    <glyph glyph-name="f" unicode="f" 
d="M843 1534q159 0 292 -58l-56 -128q-100 45 -231 45q-226 0 -226 -180v-219h365l-18 -135h-347v-859h-172v859h-257v135h257v215q0 147 111 236t282 89z" />
    <glyph glyph-name="g" unicode="g" 
d="M1082 1193l54 -162q-102 -32 -316 -32q188 -86 188 -271q0 -163 -109 -265t-297 -102q-94 0 -161 21q-25 -18 -40.5 -46t-15.5 -58q0 -91 144 -91h195q163 0 272 -83.5t109 -208.5q0 -159 -134 -244t-381 -85q-170 0 -271 36t-143 105.5t-42 182.5h156q0 -67 24 -105
t90 -58.5t185 -20.5q177 0 259.5 44t82.5 133q0 74 -68 114.5t-176 40.5h-192q-132 0 -202 58.5t-70 144.5q0 110 119 188q-93 49 -137 121.5t-44 176.5q0 164 120 269.5t310 105.5q186 1 282 21.5t209 69.5zM591 976q-126 0 -190 -68t-64 -181q0 -114 65.5 -182.5
t192.5 -68.5q113 0 173.5 66t60.5 186q0 248 -238 248z" />
    <glyph glyph-name="h" unicode="h" 
d="M378 1529v-598q62 82 154 126t190 44q303 0 303 -318v-783h-172v779q0 97 -45 142t-141 45q-85 0 -163 -54t-126 -127v-785h-172v1510z" />
    <glyph glyph-name="i" unicode="i" 
d="M614 1583q57 0 91.5 -34t34.5 -86q0 -53 -34.5 -88t-91.5 -35q-54 0 -89 35t-35 88q0 51 35 85.5t89 34.5zM752 1078v-942h304v-136h-809v136h333v806h-323v136h495z" />
    <glyph glyph-name="j" unicode="j" 
d="M751 1583q56 0 91.5 -34t35.5 -86q0 -53 -35.5 -88t-91.5 -35q-55 0 -89 35t-34 88q0 52 34 86t89 34zM911 1078v-905q0 -261 -174 -405.5t-513 -201.5l-28 133q126 21 220.5 54.5t169.5 87.5t114 134.5t39 186.5v780h-448v136h620z" />
    <glyph glyph-name="k" unicode="k" 
d="M389 1534v-1534h-172v1512zM1109 1078l-485 -485l541 -593h-226l-530 589l477 489h223z" />
    <glyph glyph-name="l" unicode="l" 
d="M626 1512v-1246q0 -146 178 -146q89 0 181 38l46 -126q-112 -56 -256 -56q-145 0 -233 80t-88 219v1101h-331v136h503z" />
    <glyph glyph-name="m" unicode="m" 
d="M916 1101q43 0 76.5 -12t65.5 -42.5t49.5 -92.5t17.5 -151v-803h-159v775q0 112 -14 152t-69 40q-106 0 -189 -129v-838h-160v775q0 112 -14 152t-69 40q-106 0 -189 -129v-838h-159v1078h136l10 -125q49 71 104 109.5t130 38.5q153 0 196 -143q48 70 103.5 106.5
t133.5 36.5z" />
    <glyph glyph-name="n" unicode="n" 
d="M206 0v1078h146l14 -149q64 81 161.5 126.5t194.5 45.5q303 0 303 -318v-783h-172v656q0 72 -3.5 117.5t-14 86t-31 61.5t-53.5 33t-82 12q-87 0 -164.5 -54t-126.5 -127v-785h-172z" />
    <glyph glyph-name="o" unicode="o" 
d="M616 1101q224 0 343 -149.5t119 -411.5q0 -254 -121.5 -409t-342.5 -155q-224 0 -343.5 151t-119.5 411q0 256 121 409.5t344 153.5zM616 961q-281 0 -281 -423q0 -420 279 -420q280 0 280 422q0 421 -278 421z" />
    <glyph glyph-name="p" unicode="p" 
d="M688 1101q106 0 182 -39.5t121 -115t66 -175.5t21 -231q0 -167 -44.5 -292t-139 -198.5t-231.5 -73.5q-178 0 -285 125v-514l-172 -21v1512h146l15 -150q123 173 321 173zM647 963q-154 0 -269 -173v-535q42 -64 106.5 -99.5t140.5 -35.5q135 0 202 103t67 318
q0 213 -60.5 317.5t-186.5 104.5z" />
    <glyph glyph-name="q" unicode="q" 
d="M561 1101q189 0 301 -140l15 117h146v-1512l-172 21v549q-114 -160 -303 -160q-397 0 -397 562q0 251 107.5 407t302.5 156zM604 963q-269 0 -269 -425q0 -418 249 -418q158 0 267 166v538q-42 66 -107 102.5t-140 36.5z" />
    <glyph glyph-name="r" unicode="r" 
d="M216 0v132h168v814h-168v132h299l32 -255q66 140 156 209.5t231 69.5q68 0 152 -24l-24 -364h-141v229h-10q-248 0 -355 -354v-457h219v-132h-559z" />
    <glyph glyph-name="s" unicode="s" 
d="M572 119q124 0 196.5 46.5t72.5 124.5q0 53 -17 85.5t-74.5 63t-169.5 58.5q-73 18 -125 35.5t-100.5 43.5t-78 57t-47 75t-17.5 99q0 135 112.5 214.5t297.5 79.5q231 0 391 -119l-76 -117q-143 97 -313 97q-234 0 -234 -142q0 -70 58.5 -106.5t228.5 -82.5
q86 -23 145 -48t108 -63.5t73 -93t24 -128.5q0 -67 -25.5 -121.5t-68.5 -91.5t-101.5 -62t-123.5 -36t-136 -11q-253 0 -421 146l98 114q138 -117 323 -117z" />
    <glyph glyph-name="t" unicode="t" 
d="M1062 54q-55 -36 -134 -57t-155 -21q-170 0 -266 90t-96 236v643h-248v133h248v245l172 20v-265h372l-20 -133h-352v-641q0 -92 48.5 -138t156.5 -46q112 0 207 51z" />
    <glyph glyph-name="u" unicode="u" 
d="M378 1078v-764q0 -105 43.5 -152.5t137.5 -47.5q85 0 165.5 49.5t126.5 121.5v793h172v-1078h-146l-15 145q-62 -81 -155 -125t-190 -44q-154 0 -232.5 82.5t-78.5 235.5v784h172z" />
    <glyph glyph-name="v" unicode="v" 
d="M1105 1078l-392 -1078h-200l-389 1078h182l312 -921l309 921h178z" />
    <glyph glyph-name="w" unicode="w" 
d="M1005 0h-244l-139 792l-152 -792h-238l-196 1078h176l137 -972l172 835h204l163 -835l137 972h168z" />
    <glyph glyph-name="x" unicode="x" 
d="M310 0h-196l398 569l-349 509h204l249 -401l253 401h197l-348 -501l397 -577h-211l-295 463z" />
    <glyph glyph-name="y" unicode="y" 
d="M1103 1078l-379 -1085q-31 -89 -68 -156t-92.5 -127t-136 -96t-184.5 -47l-27 137q109 18 176.5 58t102 93.5t65.5 144.5h-57l-377 1078h184l310 -947l305 947h178z" />
    <glyph glyph-name="z" unicode="z" 
d="M421 146h600l-23 -146h-788v130l598 799h-551v149h758v-133z" />
    <glyph glyph-name="braceleft" unicode="{" 
d="M925 1711v-135q-125 0 -195.5 -38t-62.5 -126l43 -420q12 -125 -36 -190t-156 -85q112 -20 158.5 -82.5t33.5 -193.5l-43 -419q-8 -89 62 -126.5t196 -37.5v-136q-73 0 -134.5 9t-119 31.5t-95 58t-56.5 92t-11 129.5l41 389q6 56 -3.5 93.5t-42 66.5t-97.5 43t-166 14
v137q101 0 165.5 13.5t97.5 42.5t42.5 66t3.5 93l-41 392q-10 91 20 155.5t92.5 99t136.5 49.5t167 15z" />
    <glyph glyph-name="bar" unicode="|" 
d="M690 1652v-1860h-153v1860h153z" />
    <glyph glyph-name="braceright" unicode="}" 
d="M304 1711q93 0 167 -15t136.5 -49.5t92.5 -99t20 -155.5l-41 -392q-12 -109 57.5 -162t251.5 -53v-137q-182 0 -251.5 -54t-57.5 -163l41 -389q8 -73 -11 -129.5t-56.5 -92t-95 -58t-119 -31.5t-134.5 -9v136q126 0 196 37.5t62 126.5l-43 419q-13 134 36.5 195t177.5 79
q-124 21 -175.5 85.5t-38.5 191.5l43 420q8 88 -62.5 126t-195.5 38v135z" />
    <glyph glyph-name="asciitilde" unicode="~" 
d="M421 820q57 0 107 -21t85 -51t66.5 -60.5t66 -51.5t68.5 -21q107 0 203 175l123 -64q-21 -41 -40.5 -72.5t-50.5 -68.5t-64 -61t-79 -40.5t-98 -16.5q-53 0 -101 21t-83.5 51.5t-68.5 60.5t-69 51t-71 21q-62 0 -110 -45.5t-93 -127.5l-123 60q27 54 53 93t66 81t94 64.5
t119 22.5z" />
    <glyph glyph-name="uni00A0" unicode="&#xa0;" 
 />
    <glyph glyph-name="exclamdown" unicode="&#xa1;" 
d="M612 1021q58 0 98.5 -39.5t40.5 -97.5q0 -57 -40.5 -97.5t-98.5 -40.5q-57 0 -96.5 40.5t-39.5 97.5q0 58 39 97.5t97 39.5zM686 534l27 -938h-200l25 938h148z" />
    <glyph glyph-name="cent" unicode="&#xa2;" 
d="M764 1399v-307q133 -14 248 -105l-86 -115q-64 48 -119.5 66.5t-117.5 18.5q-136 0 -211 -106t-75 -316q0 -410 286 -410q63 0 119 20.5t121 70.5l83 -122q-101 -87 -248 -107v-301h-154v303q-192 24 -292.5 167.5t-100.5 378.5q0 228 102 378t293 177v309h152z" />
    <glyph glyph-name="sterling" unicode="&#xa3;" 
d="M710 1433q237 0 366 -177l-117 -88q-52 63 -110 91.5t-133 28.5q-109 0 -166 -63t-57 -185v-246h423v-120h-423v-254q0 -97 -26.5 -165t-99.5 -109h693l-21 -146h-886v139q48 15 80 37t49.5 44t26.5 57.5t10.5 62t1.5 72.5v262h-168v120h168v262q0 166 105 271.5
t284 105.5z" />
    <glyph glyph-name="currency" unicode="&#xa4;" 
d="M181 1248l183 -184q111 70 252 70q146 0 249 -70l183 182l110 -110l-178 -181q76 -112 76 -255q0 -140 -78 -259l180 -178l-110 -111l-185 181q-105 -68 -247 -68q-144 0 -252 68l-183 -182l-110 110l182 182q-74 113 -74 257q0 139 72 253l-180 185zM616 994
q-127 0 -195 -78t-68 -216q0 -139 67.5 -216t195.5 -77t195 76.5t67 216.5q0 139 -67.5 216.5t-194.5 77.5z" />
    <glyph glyph-name="yen" unicode="&#xa5;" 
d="M1148 1410l-397 -702h244v-121h-290v-175h290v-120h-290v-292h-182v292h-286v120h286v175h-286v121h238l-394 702h194l341 -648h9l341 648h182z" />
    <glyph glyph-name="brokenbar" unicode="&#xa6;" 
d="M690 1652v-727h-153v727h153zM690 519v-727h-153v727h153z" />
    <glyph glyph-name="section" unicode="&#xa7;" 
d="M648 1433q191 0 343 -110l-83 -118q-65 45 -126.5 66.5t-143.5 21.5q-88 0 -142 -39.5t-54 -105.5q0 -70 49.5 -109.5t203.5 -91.5q171 -57 242.5 -126t71.5 -187q0 -79 -46 -146t-118 -110q122 -91 122 -223q0 -136 -110 -216.5t-285 -80.5q-205 0 -352 112l84 116
q124 -88 277 -88q90 0 147.5 39t57.5 105q0 70 -49 109t-203 90q-172 59 -244.5 127.5t-72.5 187.5q0 78 46.5 144.5t119.5 111.5q-122 90 -122 222q0 136 111 217.5t276 81.5zM488 853q-47 -38 -72.5 -85t-25.5 -90q0 -83 56.5 -120t275.5 -116q12 -5 18 -7q99 83 99 177
q0 22 -2.5 38.5t-12.5 32.5t-19.5 27t-33.5 25.5t-43 24t-60.5 26t-74 28.5t-94.5 35q-7 3 -11 4z" />
    <glyph glyph-name="dieresis" unicode="&#xa8;" 
d="M402 1328q-49 0 -80.5 31t-31.5 78q0 48 31.5 79t80.5 31q46 0 78.5 -31.5t32.5 -78.5q0 -46 -32.5 -77.5t-78.5 -31.5zM824 1328q-47 0 -78.5 31.5t-31.5 77.5q0 47 31.5 78.5t78.5 31.5q49 0 81 -31.5t32 -78.5t-32 -78t-81 -31z" />
    <glyph glyph-name="copyright" unicode="&#xa9;" 
d="M616 1529q128 0 233.5 -50t174.5 -136.5t106.5 -202.5t37.5 -248t-37.5 -248t-106.5 -202.5t-174.5 -136.5t-233.5 -50q-171 0 -299 86.5t-192.5 229.5t-64.5 321q0 132 38 248t107.5 202.5t175.5 136.5t235 50zM616 1426q-108 0 -193.5 -41.5t-139 -114.5t-81 -169
t-27.5 -209q0 -112 27.5 -208t81 -169t139 -114.5t193.5 -41.5q143 0 244 72.5t148.5 191t47.5 269.5q0 152 -47.5 270.5t-148.5 191t-244 72.5zM624 1281q75 0 128.5 -19t110.5 -61l-72 -98q-75 61 -161 61q-87 0 -140 -66.5t-53 -203.5q0 -131 52 -198t141 -67
q99 0 176 71l67 -99q-109 -95 -247 -95q-150 0 -242.5 102t-92.5 286q0 182 96 284.5t237 102.5z" />
    <glyph glyph-name="ordfeminine" unicode="&#xaa;" 
d="M594 1534q168 0 254.5 -75t86.5 -211v-405q0 -45 16 -68.5t51 -34.5l-38 -111q-127 15 -169 122q-50 -58 -123.5 -89.5t-151.5 -31.5q-140 0 -225.5 74t-85.5 196q0 135 117 208t327 73h120v61q0 84 -51.5 122t-151.5 38q-110 0 -247 -49l-48 120q160 61 319 61z
M773 1066h-119q-272 0 -272 -158q0 -77 46 -117t130 -40q61 0 118.5 30.5t96.5 83.5v201zM1021 155v-155h-805v155h805z" />
    <glyph glyph-name="guillemotleft" unicode="&#xab;" 
d="M632 179l-104 -66l-359 425v125l359 428l104 -67l-277 -423zM1058 179l-104 -66l-361 425v125l361 428l104 -67l-277 -423z" />
    <glyph glyph-name="logicalnot" unicode="&#xac;" 
d="M992 712v-437h-157v290h-598v147h755z" />
    <glyph glyph-name="uni00AD" unicode="&#xad;" 
d="M295 566v150h639v-150h-639z" />
    <glyph glyph-name="registered" unicode="&#xae;" 
d="M614 1529q142 0 261 -69.5t188 -190t69 -262.5q0 -141 -69 -260.5t-188 -188.5t-261 -69q-106 0 -202 41t-165.5 110t-110.5 165t-41 202q0 107 41 203.5t110.5 166.5t165.5 111t202 41zM614 1433q-176 0 -294 -124t-118 -302q0 -177 118 -299.5t294 -122.5t293.5 122.5
t117.5 299.5q0 117 -53 214.5t-147.5 154.5t-210.5 57zM585 1303q252 0 252 -174q0 -62 -37.5 -102.5t-100.5 -58.5l177 -242h-136l-155 222h-58v-222h-116v577h174zM588 1213h-61v-176h65q62 0 93.5 21.5t31.5 70.5q0 84 -129 84z" />
    <glyph glyph-name="macron" unicode="&#xaf;" 
d="M889 1384h-551v132h551v-132z" />
    <glyph glyph-name="degree" unicode="&#xb0;" 
d="M466 1534q136 0 234.5 -87t98.5 -234q0 -99 -48 -173.5t-122.5 -111t-162.5 -36.5q-86 0 -160.5 36.5t-123 111.5t-48.5 175q0 145 99 232t233 87zM466 1412q-75 0 -128.5 -51t-53.5 -146q0 -97 53.5 -148.5t128.5 -51.5q77 0 129.5 51t52.5 147t-52.5 147.5t-129.5 51.5
z" />
    <glyph glyph-name="plusminus" unicode="&#xb1;" 
d="M697 1101v-305h295v-145h-295v-318h-166v318h-294v145h294v305h166zM992 150v-150h-755v150h755z" />
    <glyph glyph-name="uni00B2" unicode="&#xb2;" 
d="M892 1097q0 -94 -73 -161t-273 -167h365l-17 -124h-567v108l1 1h1l1 1l2 1q257 157 318 205q73 57 82 109l2 22q0 46 -32 72.5t-89 26.5q-112 0 -194 -99l-104 78q126 145 303 145q129 0 201.5 -59.5t72.5 -158.5z" />
    <glyph glyph-name="uni00B3" unicode="&#xb3;" 
d="M632 1315q124 0 195 -49t71 -133q0 -57 -33.5 -90.5t-112.5 -46.5q91 -14 132.5 -49t41.5 -106q0 -94 -83.5 -151t-231.5 -57q-193 0 -309 120l94 77q91 -81 220 -81q77 0 116 26t39 70q0 51 -35.5 73.5t-109.5 22.5h-96l16 86h69q131 0 131 84q0 90 -124 90
q-114 0 -215 -78l-80 85q127 107 305 107z" />
    <glyph glyph-name="acute" unicode="&#xb4;" 
d="M785 1632l80 -147l-428 -174l-53 92z" />
    <glyph glyph-name="uni00B5" unicode="&#xb5;" 
d="M990 1078v-735q0 -167 58 -343l-163 -24q-16 25 -30 78.5t-19 95.5q-49 -79 -128.5 -126.5t-160.5 -47.5t-126.5 22.5t-85.5 80.5q18 -131 18 -178v-314l-172 -21v1512h172v-604q0 -72 3 -119.5t13.5 -94.5t30.5 -73.5t53.5 -42.5t81.5 -16q167 0 283 164v786h172z" />
    <glyph glyph-name="paragraph" unicode="&#xb6;" 
d="M1140 1410v-1822l-158 -22v1701h-230v-1679l-158 -22v1025q-123 1 -221 32.5t-159.5 87t-94 128.5t-32.5 158q0 180 136.5 296.5t383.5 116.5h533z" />
    <glyph glyph-name="periodcentered" unicode="&#xb7;" 
d="M433 700q0 75 52 127t127 52q77 0 129.5 -52t52.5 -127q0 -76 -52.5 -129t-129.5 -53q-75 0 -127 53t-52 129z" />
    <glyph glyph-name="cedilla" unicode="&#xb8;" 
d="M697 -288q0 52 -43.5 70t-134.5 18l19 233h117v-150q95 -8 142.5 -56t47.5 -115q0 -96 -72 -148t-178 -52q-129 0 -214 50l55 99q64 -33 138 -33q123 0 123 84z" />
    <glyph glyph-name="uni00B9" unicode="&#xb9;" 
d="M677 645v490l-197 -108l-71 102l296 174h115v-658h-143z" />
    <glyph glyph-name="ordmasculine" unicode="&#xba;" 
d="M614 1534q191 0 303.5 -122.5t112.5 -329.5q0 -202 -114 -327t-302 -125q-191 0 -304 123.5t-113 328.5q0 201 114.5 326.5t302.5 125.5zM614 1402q-116 0 -180.5 -80t-64.5 -240q0 -161 64.5 -241t180.5 -80t180 80t64 241q0 160 -64 240t-180 80zM1018 155v-155h-804
v155h804z" />
    <glyph glyph-name="guillemotright" unicode="&#xbb;" 
d="M869 601l-276 423l103 67l362 -428v-125l-362 -425l-103 66zM445 601l-276 423l103 67l360 -428v-125l-360 -425l-103 66z" />
    <glyph glyph-name="onequarter" unicode="&#xbc;" 
d="M266 754v489l-196 -107l-72 102l296 173h117v-657h-145zM92 377l-63 109l1095 525l62 -110zM1118 115v-115h-148v115h-366v98l278 465l126 -52l-236 -389h197l13 175h136v-175h114v-122h-114z" />
    <glyph glyph-name="onehalf" unicode="&#xbd;" 
d="M260 754v489l-197 -107l-71 102l296 173h116v-657h-144zM84 377l-64 109l1096 525l62 -110zM1219 452q0 -94 -73 -160.5t-274 -167.5h366l-17 -124h-568v108l1 1h1l1 1h1l1 1l1 1h1l1 1l1 1h1l1 1h1l1 1l1 1h1l1 1h1l1 1l2 1q250 152 309 199q70 56 78 106l2 21
q0 46 -32 73t-89 27q-114 0 -195 -100l-104 79q126 145 304 145q128 0 200.5 -59.5t72.5 -158.5z" />
    <glyph glyph-name="threequarters" unicode="&#xbe;" 
d="M324 1423q124 0 195 -49t71 -133q0 -57 -34 -90.5t-113 -45.5q91 -14 133 -49.5t42 -107.5q0 -93 -84 -150t-231 -57q-192 0 -308 120l94 78q92 -82 219 -82q77 0 116.5 25.5t39.5 69.5q0 51 -36 74t-110 23h-95l16 87h69q131 0 131 84q0 90 -126 90q-112 0 -215 -78
l-79 85q128 106 305 106zM112 377l-65 109l1096 525l62 -110zM1120 115v-115h-148v115h-366v98l278 465l126 -52l-235 -389h197l12 175h136v-175h114v-122h-114z" />
    <glyph glyph-name="questiondown" unicode="&#xbf;" 
d="M663 1021q59 0 99 -39.5t40 -97.5q0 -57 -40.5 -97.5t-98.5 -40.5q-57 0 -96.5 40.5t-39.5 97.5q0 58 39 97.5t97 39.5zM757 534v-85q0 -78 -27 -141t-67 -102t-87.5 -77.5t-87.5 -69t-67 -75t-27 -96.5q0 -85 67.5 -133.5t174.5 -48.5q76 0 152.5 37.5t137.5 111.5
l123 -91q-173 -202 -431 -202q-181 0 -292 94t-111 222q0 66 20.5 120t53 89.5t71.5 67t78.5 61t72 62t53 79.5t20.5 105v72h173z" />
    <glyph glyph-name="Agrave" unicode="&#xc0;" 
d="M473 1863l378 -224l-52 -92l-422 168zM888 359h-558l-113 -359h-175l459 1410h227l459 -1410h-187zM376 507h466l-232 754z" />
    <glyph glyph-name="Aacute" unicode="&#xc1;" 
d="M782 1855l78 -147l-437 -161l-46 92zM888 359h-558l-113 -359h-175l459 1410h227l459 -1410h-187zM376 507h466l-232 754z" />
    <glyph glyph-name="Acircumflex" unicode="&#xc2;" 
d="M674 1865l275 -220l-76 -87l-259 163l-257 -163l-76 87l277 220h116zM888 359h-558l-113 -359h-175l459 1410h227l459 -1410h-187zM376 507h466l-232 754z" />
    <glyph glyph-name="Atilde" unicode="&#xc3;" 
d="M734 1593q-37 0 -72.5 15.5t-59 34.5t-52.5 34.5t-54 15.5q-33 0 -58 -23.5t-51 -72.5l-109 56q85 173 219 173q38 0 73.5 -15.5t58.5 -34.5t51.5 -34.5t53.5 -15.5q54 0 109 91l108 -55q-78 -169 -217 -169zM888 359h-558l-113 -359h-175l459 1410h227l459 -1410h-187z
M376 507h466l-232 754z" />
    <glyph glyph-name="Adieresis" unicode="&#xc4;" 
d="M402 1573q-49 0 -80.5 30.5t-31.5 77.5q0 49 31.5 80t80.5 31q46 0 78.5 -31.5t32.5 -79.5q0 -46 -32.5 -77t-78.5 -31zM824 1573q-47 0 -78.5 31t-31.5 77q0 48 31.5 79.5t78.5 31.5q49 0 81 -31t32 -80q0 -47 -32 -77.5t-81 -30.5zM888 359h-558l-113 -359h-175
l459 1410h227l459 -1410h-187zM376 507h466l-232 754z" />
    <glyph glyph-name="Aring" unicode="&#xc5;" 
d="M614 1931q98 0 163 -60.5t65 -150.5q0 -87 -65 -147.5t-163 -60.5t-162.5 60.5t-64.5 147.5q0 90 64.5 150.5t162.5 60.5zM614 1837q-51 0 -80.5 -31.5t-29.5 -85.5t29.5 -84.5t80.5 -30.5q52 0 81.5 30.5t29.5 84.5q0 55 -29.5 86t-81.5 31zM888 359h-558l-113 -359
h-175l459 1410h227l459 -1410h-187zM376 507h466l-232 754z" />
    <glyph glyph-name="AE" unicode="&#xc6;" 
d="M675 359h-417l-101 -359h-182l414 1410h770l-21 -144h-483l105 -479h381v-144h-354l106 -499h351v-144h-494zM304 509h339l-150 761z" />
    <glyph glyph-name="Ccedilla" unicode="&#xc7;" 
d="M799 -288q0 52 -43.5 70t-133.5 18l13 185q-226 37 -365.5 225t-139.5 496q0 173 48 313t131 229.5t191.5 137t232.5 47.5q133 0 227 -33.5t182 -104.5l-100 -115q-123 104 -296 104q-91 0 -166 -30.5t-136 -96t-95.5 -180.5t-34.5 -271q0 -153 32.5 -266.5t92 -180
t135 -98.5t168.5 -32q108 0 184.5 31.5t143.5 86.5l92 -117q-154 -149 -405 -154v-93q95 -8 142.5 -56t47.5 -115q0 -96 -72.5 -148t-178.5 -52q-129 0 -213 50l56 99q63 -33 138 -33q122 0 122 84z" />
    <glyph glyph-name="Egrave" unicode="&#xc8;" 
d="M516 1863l378 -224l-52 -92l-422 168zM435 1265v-475h522v-147h-522v-501h641v-142h-819v1410h801l-21 -145h-602z" />
    <glyph glyph-name="Eacute" unicode="&#xc9;" 
d="M826 1855l78 -147l-438 -161l-46 92zM435 1265v-475h522v-147h-522v-501h641v-142h-819v1410h801l-21 -145h-602z" />
    <glyph glyph-name="Ecircumflex" unicode="&#xca;" 
d="M717 1865l275 -220l-76 -87l-259 163l-256 -163l-77 87l277 220h116zM435 1265v-475h522v-147h-522v-501h641v-142h-819v1410h801l-21 -145h-602z" />
    <glyph glyph-name="Edieresis" unicode="&#xcb;" 
d="M445 1573q-49 0 -80.5 30.5t-31.5 77.5q0 49 31.5 80t80.5 31q46 0 78.5 -31.5t32.5 -79.5q0 -46 -32.5 -77t-78.5 -31zM867 1573q-46 0 -78 31t-32 77q0 48 32 79.5t78 31.5q49 0 81 -31t32 -80q0 -47 -32 -77.5t-81 -30.5zM435 1265v-475h522v-147h-522v-501h641v-142
h-819v1410h801l-21 -145h-602z" />
    <glyph glyph-name="Igrave" unicode="&#xcc;" 
d="M473 1863l378 -224l-52 -92l-422 168zM1018 1410v-142h-313v-1126h313v-142h-807v142h313v1126h-313v142h807z" />
    <glyph glyph-name="Iacute" unicode="&#xcd;" 
d="M782 1855l78 -147l-437 -161l-46 92zM1018 1410v-142h-313v-1126h313v-142h-807v142h313v1126h-313v142h807z" />
    <glyph glyph-name="Icircumflex" unicode="&#xce;" 
d="M674 1865l275 -220l-76 -87l-259 163l-257 -163l-76 87l277 220h116zM1018 1410v-142h-313v-1126h313v-142h-807v142h313v1126h-313v142h807z" />
    <glyph glyph-name="Idieresis" unicode="&#xcf;" 
d="M402 1573q-49 0 -80.5 30.5t-31.5 77.5q0 49 31.5 80t80.5 31q46 0 78.5 -31.5t32.5 -79.5q0 -46 -32.5 -77t-78.5 -31zM824 1573q-47 0 -78.5 31t-31.5 77q0 48 31.5 79.5t78.5 31.5q49 0 81 -31t32 -80q0 -47 -32 -77.5t-81 -30.5zM1018 1410v-142h-313v-1126h313v-142
h-807v142h313v1126h-313v142h807z" />
    <glyph glyph-name="Eth" unicode="&#xd0;" 
d="M1151 712q0 -123 -20.5 -225t-54.5 -174.5t-84 -128.5t-104.5 -90t-120 -56t-126 -30t-127.5 -8h-324v654h-148v138h148v618h302q76 0 141 -7.5t133.5 -28.5t123.5 -54t105 -87.5t83.5 -126t53 -171.5t19.5 -223zM691 792v-138h-323v-512h168q66 0 123 14t114.5 52.5
t97.5 100.5t65.5 165t25.5 238q0 142 -27 246t-67 161.5t-100.5 92t-113.5 44t-120 9.5h-166v-473h323z" />
    <glyph glyph-name="Ntilde" unicode="&#xd1;" 
d="M731 1593q-46 0 -89.5 25t-81 50t-67.5 25q-33 0 -58 -23.5t-51 -72.5l-109 56q37 78 92.5 125.5t126.5 47.5q49 0 91.5 -25t78.5 -50t67 -25q30 0 55 21.5t55 69.5l107 -55q-78 -169 -217 -169zM809 0l-497 1240q0 -15 6.5 -109t12 -211t5.5 -213v-707h-165v1410h241
l504 -1245q0 11 -6.5 100.5t-11.5 208t-5 231.5v705h165v-1410h-249z" />
    <glyph glyph-name="Ograve" unicode="&#xd2;" 
d="M473 1863l378 -224l-52 -92l-422 168zM1134 703q0 -217 -57.5 -379t-176 -255t-286.5 -93t-286 91t-175.5 252.5t-57.5 381.5q0 217 57.5 380t176 257.5t285.5 94.5q251 0 385.5 -197.5t134.5 -532.5zM947 703q0 290 -79.5 435.5t-253.5 145.5t-253 -146.5t-79 -436.5
q0 -287 80.5 -431t251.5 -144q175 0 254 144t79 433z" />
    <glyph glyph-name="Oacute" unicode="&#xd3;" 
d="M782 1855l78 -147l-437 -161l-46 92zM1134 703q0 -217 -57.5 -379t-176 -255t-286.5 -93t-286 91t-175.5 252.5t-57.5 381.5q0 217 57.5 380t176 257.5t285.5 94.5q251 0 385.5 -197.5t134.5 -532.5zM947 703q0 290 -79.5 435.5t-253.5 145.5t-253 -146.5t-79 -436.5
q0 -287 80.5 -431t251.5 -144q175 0 254 144t79 433z" />
    <glyph glyph-name="Ocircumflex" unicode="&#xd4;" 
d="M674 1865l275 -220l-76 -87l-259 163l-257 -163l-76 87l277 220h116zM1134 703q0 -217 -57.5 -379t-176 -255t-286.5 -93t-286 91t-175.5 252.5t-57.5 381.5q0 217 57.5 380t176 257.5t285.5 94.5q251 0 385.5 -197.5t134.5 -532.5zM947 703q0 290 -79.5 435.5
t-253.5 145.5t-253 -146.5t-79 -436.5q0 -287 80.5 -431t251.5 -144q175 0 254 144t79 433z" />
    <glyph glyph-name="Otilde" unicode="&#xd5;" 
d="M734 1593q-37 0 -72.5 15.5t-59 34.5t-52.5 34.5t-54 15.5q-33 0 -58 -23.5t-51 -72.5l-109 56q85 173 219 173q38 0 73.5 -15.5t58.5 -34.5t51.5 -34.5t53.5 -15.5q54 0 109 91l108 -55q-78 -169 -217 -169zM1134 703q0 -217 -57.5 -379t-176 -255t-286.5 -93t-286 91
t-175.5 252.5t-57.5 381.5q0 217 57.5 380t176 257.5t285.5 94.5q251 0 385.5 -197.5t134.5 -532.5zM947 703q0 290 -79.5 435.5t-253.5 145.5t-253 -146.5t-79 -436.5q0 -287 80.5 -431t251.5 -144q175 0 254 144t79 433z" />
    <glyph glyph-name="Odieresis" unicode="&#xd6;" 
d="M402 1573q-49 0 -80.5 30.5t-31.5 77.5q0 49 31.5 80t80.5 31q46 0 78.5 -31.5t32.5 -79.5q0 -46 -32.5 -77t-78.5 -31zM824 1573q-47 0 -78.5 31t-31.5 77q0 48 31.5 79.5t78.5 31.5q49 0 81 -31t32 -80q0 -47 -32 -77.5t-81 -30.5zM1134 703q0 -217 -57.5 -379
t-176 -255t-286.5 -93t-286 91t-175.5 252.5t-57.5 381.5q0 217 57.5 380t176 257.5t285.5 94.5q251 0 385.5 -197.5t134.5 -532.5zM947 703q0 290 -79.5 435.5t-253.5 145.5t-253 -146.5t-79 -436.5q0 -287 80.5 -431t251.5 -144q175 0 254 144t79 433z" />
    <glyph glyph-name="multiply" unicode="&#xd7;" 
d="M865 990l108 -110l-251 -251l251 -251l-108 -108l-251 251l-250 -251l-108 108l251 251l-251 251l108 110l250 -254z" />
    <glyph glyph-name="Oslash" unicode="&#xd8;" 
d="M614 1433q69 0 132 -17l66 229l155 -40l-79 -254q121 -87 183.5 -254t62.5 -394q0 -217 -57.5 -379t-176 -255t-286.5 -93q-64 0 -130 16l-65 -217l-154 40l76 242q-121 86 -183.5 252t-62.5 392q0 217 57.5 380t176 257.5t285.5 94.5zM614 1283q-173 0 -252 -146.5
t-79 -435.5q0 -379 121 -500l310 1070q-45 12 -100 12zM946 703q0 199 -29.5 321.5t-93.5 185.5l-309 -1071q41 -12 100 -12q174 0 253 144t79 432z" />
    <glyph glyph-name="Ugrave" unicode="&#xd9;" 
d="M473 1863l378 -224l-52 -92l-422 168zM1080 1410v-953q0 -216 -127.5 -348.5t-340.5 -132.5q-215 0 -339.5 132t-124.5 349v953h177v-959q0 -159 74 -240t213 -81q140 0 214.5 81t74.5 240v959h179z" />
    <glyph glyph-name="Uacute" unicode="&#xda;" 
d="M782 1855l78 -147l-437 -161l-46 92zM1080 1410v-953q0 -216 -127.5 -348.5t-340.5 -132.5q-215 0 -339.5 132t-124.5 349v953h177v-959q0 -159 74 -240t213 -81q140 0 214.5 81t74.5 240v959h179z" />
    <glyph glyph-name="Ucircumflex" unicode="&#xdb;" 
d="M674 1865l275 -220l-76 -87l-259 163l-257 -163l-76 87l277 220h116zM1080 1410v-953q0 -216 -127.5 -348.5t-340.5 -132.5q-215 0 -339.5 132t-124.5 349v953h177v-959q0 -159 74 -240t213 -81q140 0 214.5 81t74.5 240v959h179z" />
    <glyph glyph-name="Udieresis" unicode="&#xdc;" 
d="M402 1573q-49 0 -80.5 30.5t-31.5 77.5q0 49 31.5 80t80.5 31q46 0 78.5 -31.5t32.5 -79.5q0 -46 -32.5 -77t-78.5 -31zM824 1573q-47 0 -78.5 31t-31.5 77q0 48 31.5 79.5t78.5 31.5q49 0 81 -31t32 -80q0 -47 -32 -77.5t-81 -30.5zM1080 1410v-953
q0 -216 -127.5 -348.5t-340.5 -132.5q-215 0 -339.5 132t-124.5 349v953h177v-959q0 -159 74 -240t213 -81q140 0 214.5 81t74.5 240v959h179z" />
    <glyph glyph-name="Yacute" unicode="&#xdd;" 
d="M790 1855l77 -147l-437 -161l-46 92zM705 544v-544h-181v542l-476 868h197l373 -707l378 707h185z" />
    <glyph glyph-name="Thorn" unicode="&#xde;" 
d="M396 1410v-239h203q260 0 399.5 -110.5t139.5 -333.5q0 -121 -39.5 -211t-112.5 -145t-170 -81.5t-218 -26.5h-202v-263h-176v1410h176zM621 1031h-225v-625h226q77 0 134 15t102.5 50.5t69 98.5t23.5 153q0 159 -87.5 233.5t-242.5 74.5z" />
    <glyph glyph-name="germandbls" unicode="&#xdf;" 
d="M607 1534q158 0 257.5 -82t99.5 -212q0 -56 -24 -102t-58.5 -76.5t-68.5 -58t-58 -59t-24 -66.5q0 -36 22.5 -67.5t59 -57t80.5 -52t88 -60t80.5 -73t59 -98t22.5 -128.5q0 -115 -53 -199.5t-138.5 -125.5t-190.5 -41q-153 0 -264 71l69 118q84 -49 178 -49q106 0 165 55
t59 162q0 53 -22.5 97t-58.5 75t-79.5 59.5t-86.5 57t-79 60t-58.5 76.5t-22.5 99t24.5 97.5t59.5 73t70.5 56.5t60 62t24.5 77q0 30 -10 59t-31 55.5t-60.5 42.5t-92.5 16q-118 0 -177.5 -68.5t-59.5 -223.5v-1104h-172v1093q0 215 107.5 328t302.5 113z" />
    <glyph glyph-name="agrave" unicode="&#xe0;" 
d="M775 1274l-414 190l92 147l377 -242zM978 236q0 -63 20.5 -94t67.5 -45l-42 -121q-155 20 -198 152q-57 -74 -145 -113t-193 -39q-161 0 -254.5 90.5t-93.5 242.5q0 167 130 256t376 89h159v90q0 113 -65.5 163.5t-191.5 50.5q-123 0 -281 -55l-45 130q182 68 352 68
q197 0 300.5 -92.5t103.5 -255.5v-517zM532 108q80 0 152 40t121 112v278h-156q-324 0 -324 -227q0 -203 207 -203z" />
    <glyph glyph-name="aacute" unicode="&#xe1;" 
d="M769 1632l80 -147l-428 -174l-54 92zM978 236q0 -63 20.5 -94t67.5 -45l-42 -121q-155 20 -198 152q-57 -74 -145 -113t-193 -39q-161 0 -254.5 90.5t-93.5 242.5q0 167 130 256t376 89h159v90q0 113 -65.5 163.5t-191.5 50.5q-123 0 -281 -55l-45 130q182 68 352 68
q197 0 300.5 -92.5t103.5 -255.5v-517zM532 108q80 0 152 40t121 112v278h-156q-324 0 -324 -227q0 -203 207 -203z" />
    <glyph glyph-name="acircumflex" unicode="&#xe2;" 
d="M346 1288l-83 85l278 244h115l276 -244l-78 -85l-254 186zM978 236q0 -63 20.5 -94t67.5 -45l-42 -121q-155 20 -198 152q-57 -74 -145 -113t-193 -39q-161 0 -254.5 90.5t-93.5 242.5q0 167 130 256t376 89h159v90q0 113 -65.5 163.5t-191.5 50.5q-123 0 -281 -55
l-45 130q182 68 352 68q197 0 300.5 -92.5t103.5 -255.5v-517zM532 108q80 0 152 40t121 112v278h-156q-324 0 -324 -227q0 -203 207 -203z" />
    <glyph glyph-name="atilde" unicode="&#xe3;" 
d="M717 1349q-36 0 -72 15.5t-59.5 34t-52.5 34t-54 15.5q-33 0 -57 -22.5t-51 -72.5l-110 55q37 78 92.5 125t126.5 47q48 0 91 -24.5t79.5 -49t67.5 -24.5q29 0 54 21.5t54 68.5l109 -55q-78 -168 -218 -168zM978 236q0 -63 20.5 -94t67.5 -45l-42 -121q-155 20 -198 152
q-57 -74 -145 -113t-193 -39q-161 0 -254.5 90.5t-93.5 242.5q0 167 130 256t376 89h159v90q0 113 -65.5 163.5t-191.5 50.5q-123 0 -281 -55l-45 130q182 68 352 68q197 0 300.5 -92.5t103.5 -255.5v-517zM532 108q80 0 152 40t121 112v278h-156q-324 0 -324 -227
q0 -203 207 -203z" />
    <glyph glyph-name="adieresis" unicode="&#xe4;" 
d="M386 1328q-49 0 -81.5 31t-32.5 78t32.5 78.5t81.5 31.5q46 0 78 -31.5t32 -78.5q0 -46 -32.5 -77.5t-77.5 -31.5zM807 1328q-46 0 -78 31.5t-32 77.5q0 47 32 78.5t78 31.5q49 0 81.5 -31.5t32.5 -78.5t-32.5 -78t-81.5 -31zM978 236q0 -63 20.5 -94t67.5 -45l-42 -121
q-155 20 -198 152q-57 -74 -145 -113t-193 -39q-161 0 -254.5 90.5t-93.5 242.5q0 167 130 256t376 89h159v90q0 113 -65.5 163.5t-191.5 50.5q-123 0 -281 -55l-45 130q182 68 352 68q197 0 300.5 -92.5t103.5 -255.5v-517zM532 108q80 0 152 40t121 112v278h-156
q-324 0 -324 -227q0 -203 207 -203z" />
    <glyph glyph-name="aring" unicode="&#xe5;" 
d="M598 1687q98 0 162.5 -60.5t64.5 -150.5q0 -88 -64.5 -148t-162.5 -60t-162.5 60t-64.5 148q0 90 64.5 150.5t162.5 60.5zM598 1592q-51 0 -81 -31t-30 -85t30 -85t81 -31q52 0 81.5 31t29.5 85t-29.5 85t-81.5 31zM978 236q0 -63 20.5 -94t67.5 -45l-42 -121
q-155 20 -198 152q-57 -74 -145 -113t-193 -39q-161 0 -254.5 90.5t-93.5 242.5q0 167 130 256t376 89h159v90q0 113 -65.5 163.5t-191.5 50.5q-123 0 -281 -55l-45 130q182 68 352 68q197 0 300.5 -92.5t103.5 -255.5v-517zM532 108q80 0 152 40t121 112v278h-156
q-324 0 -324 -227q0 -203 207 -203z" />
    <glyph glyph-name="ae" unicode="&#xe6;" 
d="M890 1101q179 0 265.5 -137.5t86.5 -391.5q0 -60 -4 -96h-551q14 -184 69 -269.5t163 -85.5q56 0 101 19.5t101 61.5l80 -118q-136 -108 -285 -108q-107 0 -182 48t-133 149q-64 -108 -131.5 -152.5t-169.5 -44.5q-142 0 -227 91t-85 242q0 169 112 258t327 89h92v88
q0 213 -186 213q-52 0 -98 -12.5t-115 -42.5l-47 130q150 69 276 69q113 0 177 -46t96 -133q32 85 100.5 132t167.5 47zM885 958q-93 0 -139 -78.5t-59 -268.5h387q-3 178 -45.5 262.5t-143.5 84.5zM519 538h-86q-140 0 -200 -57t-60 -163q0 -101 41 -154.5t111 -53.5
q66 0 116.5 46t103.5 145q-26 119 -26 237z" />
    <glyph glyph-name="ccedilla" unicode="&#xe7;" 
d="M693 125q144 0 281 94l84 -113q-62 -53 -148.5 -87t-174.5 -41v-95q95 -8 142.5 -56t47.5 -115q0 -96 -72 -148t-178 -52q-129 0 -214 50l55 99q64 -33 138 -33q123 0 123 84q0 52 -43.5 70t-134.5 18l14 181q-202 26 -314 173t-112 381q0 163 58.5 290t175 201.5
t274.5 74.5q207 0 361 -125l-84 -115q-140 96 -279 96q-145 0 -232 -107.5t-87 -314.5t86.5 -308.5t232.5 -101.5z" />
    <glyph glyph-name="egrave" unicode="&#xe8;" 
d="M813 1274l-414 190l93 147l377 -242zM341 478q6 -178 93.5 -268t221.5 -90q80 0 147 23.5t141 73.5l81 -114q-75 -60 -173 -93.5t-198 -33.5q-232 0 -362.5 153t-130.5 409q0 248 129 405.5t342 157.5q204 0 321 -141.5t117 -387.5q0 -46 -4 -94h-725zM634 959
q-125 0 -203.5 -87.5t-88.5 -260.5h562q-3 170 -74.5 259t-195.5 89z" />
    <glyph glyph-name="eacute" unicode="&#xe9;" 
d="M807 1632l80 -147l-428 -174l-53 92zM341 478q6 -178 93.5 -268t221.5 -90q80 0 147 23.5t141 73.5l81 -114q-75 -60 -173 -93.5t-198 -33.5q-232 0 -362.5 153t-130.5 409q0 248 129 405.5t342 157.5q204 0 321 -141.5t117 -387.5q0 -46 -4 -94h-725zM634 959
q-125 0 -203.5 -87.5t-88.5 -260.5h562q-3 170 -74.5 259t-195.5 89z" />
    <glyph glyph-name="ecircumflex" unicode="&#xea;" 
d="M384 1288l-82 85l278 244h115l276 -244l-78 -85l-255 186zM341 478q6 -178 93.5 -268t221.5 -90q80 0 147 23.5t141 73.5l81 -114q-75 -60 -173 -93.5t-198 -33.5q-232 0 -362.5 153t-130.5 409q0 248 129 405.5t342 157.5q204 0 321 -141.5t117 -387.5q0 -46 -4 -94
h-725zM634 959q-125 0 -203.5 -87.5t-88.5 -260.5h562q-3 170 -74.5 259t-195.5 89z" />
    <glyph glyph-name="edieresis" unicode="&#xeb;" 
d="M424 1328q-49 0 -81 31t-32 78t32 78.5t81 31.5q46 0 78.5 -31.5t32.5 -78.5q0 -46 -32.5 -77.5t-78.5 -31.5zM846 1328q-47 0 -79 31.5t-32 77.5q0 47 32 78.5t79 31.5q49 0 80.5 -31.5t31.5 -78.5t-31.5 -78t-80.5 -31zM341 478q6 -178 93.5 -268t221.5 -90
q80 0 147 23.5t141 73.5l81 -114q-75 -60 -173 -93.5t-198 -33.5q-232 0 -362.5 153t-130.5 409q0 248 129 405.5t342 157.5q204 0 321 -141.5t117 -387.5q0 -46 -4 -94h-725zM634 959q-125 0 -203.5 -87.5t-88.5 -260.5h562q-3 170 -74.5 259t-195.5 89z" />
    <glyph glyph-name="igrave" unicode="&#xec;" 
d="M795 1274l-414 190l91 147l378 -242zM752 1078v-942h304v-136h-809v136h333v806h-323v136h495z" />
    <glyph glyph-name="iacute" unicode="&#xed;" 
d="M788 1632l80 -147l-428 -174l-54 92zM752 1078v-942h304v-136h-809v136h333v806h-323v136h495z" />
    <glyph glyph-name="icircumflex" unicode="&#xee;" 
d="M366 1288l-83 85l277 244h116l275 -244l-78 -85l-253 186zM752 1078v-942h304v-136h-809v136h333v806h-323v136h495z" />
    <glyph glyph-name="idieresis" unicode="&#xef;" 
d="M406 1328q-49 0 -81.5 31t-32.5 78t32.5 78.5t81.5 31.5q45 0 77 -31.5t32 -78.5q0 -46 -32 -77.5t-77 -31.5zM826 1328q-46 0 -77.5 31.5t-31.5 77.5q0 47 31.5 78.5t77.5 31.5q49 0 81.5 -31.5t32.5 -78.5t-32.5 -78t-81.5 -31zM752 1078v-942h304v-136h-809v136h333
v806h-323v136h495z" />
    <glyph glyph-name="eth" unicode="&#xf0;" 
d="M347 1151l166 173q-94 45 -240 75l38 135q197 -43 306 -101l143 151l103 -90l-127 -131q182 -126 268.5 -327t86.5 -496q0 -258 -133 -411t-354 -153q-97 0 -182 34t-148.5 97t-100 159.5t-36.5 214.5q0 147 60.5 263.5t159 178.5t215.5 62q200 0 324 -141
q-59 260 -266 410l-160 -165zM916 548q0 68 -6 133q-52 81 -133.5 123.5t-181.5 42.5q-121 0 -202 -90.5t-81 -266.5q0 -179 79 -276.5t210 -97.5q148 0 231.5 111t83.5 321z" />
    <glyph glyph-name="ntilde" unicode="&#xf1;" 
d="M733 1349q-36 0 -72 15.5t-59 34t-52 34t-54 15.5q-33 0 -57.5 -23t-51.5 -72l-109 55q37 78 92.5 125t126.5 47q38 0 73.5 -15.5t58.5 -33.5t51.5 -33.5t53.5 -15.5q29 0 55 21.5t54 68.5l108 -55q-78 -168 -218 -168zM206 0v1078h146l14 -149q64 81 161.5 126.5
t194.5 45.5q303 0 303 -318v-783h-172v656q0 72 -3.5 117.5t-14 86t-31 61.5t-53.5 33t-82 12q-87 0 -164.5 -54t-126.5 -127v-785h-172z" />
    <glyph glyph-name="ograve" unicode="&#xf2;" 
d="M792 1274l-414 190l92 147l378 -242zM616 1101q224 0 343 -149.5t119 -411.5q0 -254 -121.5 -409t-342.5 -155q-224 0 -343.5 151t-119.5 411q0 256 121 409.5t344 153.5zM616 961q-281 0 -281 -423q0 -420 279 -420q280 0 280 422q0 421 -278 421z" />
    <glyph glyph-name="oacute" unicode="&#xf3;" 
d="M785 1632l80 -147l-428 -174l-53 92zM616 1101q224 0 343 -149.5t119 -411.5q0 -254 -121.5 -409t-342.5 -155q-224 0 -343.5 151t-119.5 411q0 256 121 409.5t344 153.5zM616 961q-281 0 -281 -423q0 -420 279 -420q280 0 280 422q0 421 -278 421z" />
    <glyph glyph-name="ocircumflex" unicode="&#xf4;" 
d="M362 1288l-81 85l277 244h116l275 -244l-78 -85l-255 186zM616 1101q224 0 343 -149.5t119 -411.5q0 -254 -121.5 -409t-342.5 -155q-224 0 -343.5 151t-119.5 411q0 256 121 409.5t344 153.5zM616 961q-281 0 -281 -423q0 -420 279 -420q280 0 280 422q0 421 -278 421z
" />
    <glyph glyph-name="otilde" unicode="&#xf5;" 
d="M734 1349q-37 0 -72.5 15.5t-59 34t-52.5 34t-54 15.5q-33 0 -58 -23t-51 -72l-109 55q84 172 219 172q38 0 73.5 -15.5t58.5 -33.5t51.5 -33.5t53.5 -15.5q29 0 55 21.5t54 68.5l108 -55q-78 -168 -217 -168zM616 1101q224 0 343 -149.5t119 -411.5q0 -254 -121.5 -409
t-342.5 -155q-224 0 -343.5 151t-119.5 411q0 256 121 409.5t344 153.5zM616 961q-281 0 -281 -423q0 -420 279 -420q280 0 280 422q0 421 -278 421z" />
    <glyph glyph-name="odieresis" unicode="&#xf6;" 
d="M402 1328q-49 0 -80.5 31t-31.5 78q0 48 31.5 79t80.5 31q46 0 78.5 -31.5t32.5 -78.5q0 -46 -32.5 -77.5t-78.5 -31.5zM824 1328q-47 0 -78.5 31.5t-31.5 77.5q0 47 31.5 78.5t78.5 31.5q49 0 81 -31.5t32 -78.5t-32 -78t-81 -31zM616 1101q224 0 343 -149.5t119 -411.5
q0 -254 -121.5 -409t-342.5 -155q-224 0 -343.5 151t-119.5 411q0 256 121 409.5t344 153.5zM616 961q-281 0 -281 -423q0 -420 279 -420q280 0 280 422q0 421 -278 421z" />
    <glyph glyph-name="divide" unicode="&#xf7;" 
d="M614 1177q58 0 98.5 -40t40.5 -96q0 -58 -40.5 -97t-98.5 -39t-98 39t-40 97q0 56 40 96t98 40zM992 712v-147h-755v147h755zM614 374q58 0 98.5 -39.5t40.5 -95.5q0 -58 -40.5 -99t-98.5 -41t-98 40.5t-40 99.5q0 56 40 95.5t98 39.5z" />
    <glyph glyph-name="oslash" unicode="&#xf8;" 
d="M616 1101q53 0 101 -9l78 247l144 -42l-86 -258q109 -65 167 -193.5t58 -305.5q0 -254 -121.5 -409t-342.5 -155q-51 0 -103 11l-75 -254l-143 43l86 261q-110 66 -169 196t-59 305q0 256 121 409.5t344 153.5zM616 959q-280 0 -280 -421q0 -274 106 -365l242 780
q-33 6 -68 6zM893 540q0 272 -105 363l-241 -778q33 -6 67 -6q279 0 279 421z" />
    <glyph glyph-name="ugrave" unicode="&#xf9;" 
d="M792 1274l-414 190l92 147l378 -242zM378 1078v-764q0 -105 43.5 -152.5t137.5 -47.5q85 0 165.5 49.5t126.5 121.5v793h172v-1078h-146l-15 145q-62 -81 -155 -125t-190 -44q-154 0 -232.5 82.5t-78.5 235.5v784h172z" />
    <glyph glyph-name="uacute" unicode="&#xfa;" 
d="M785 1632l80 -147l-428 -174l-53 92zM378 1078v-764q0 -105 43.5 -152.5t137.5 -47.5q85 0 165.5 49.5t126.5 121.5v793h172v-1078h-146l-15 145q-62 -81 -155 -125t-190 -44q-154 0 -232.5 82.5t-78.5 235.5v784h172z" />
    <glyph glyph-name="ucircumflex" unicode="&#xfb;" 
d="M362 1288l-81 85l277 244h116l275 -244l-78 -85l-255 186zM378 1078v-764q0 -105 43.5 -152.5t137.5 -47.5q85 0 165.5 49.5t126.5 121.5v793h172v-1078h-146l-15 145q-62 -81 -155 -125t-190 -44q-154 0 -232.5 82.5t-78.5 235.5v784h172z" />
    <glyph glyph-name="udieresis" unicode="&#xfc;" 
d="M402 1328q-49 0 -80.5 31t-31.5 78q0 48 31.5 79t80.5 31q46 0 78.5 -31.5t32.5 -78.5q0 -46 -32.5 -77.5t-78.5 -31.5zM824 1328q-47 0 -78.5 31.5t-31.5 77.5q0 47 31.5 78.5t78.5 31.5q49 0 81 -31.5t32 -78.5t-32 -78t-81 -31zM378 1078v-764q0 -105 43.5 -152.5
t137.5 -47.5q85 0 165.5 49.5t126.5 121.5v793h172v-1078h-146l-15 145q-62 -81 -155 -125t-190 -44q-154 0 -232.5 82.5t-78.5 235.5v784h172z" />
    <glyph glyph-name="yacute" unicode="&#xfd;" 
d="M785 1632l80 -147l-428 -174l-53 92zM1103 1078l-379 -1085q-31 -89 -68 -156t-92.5 -127t-136 -96t-184.5 -47l-27 137q109 18 176.5 58t102 93.5t65.5 144.5h-57l-377 1078h184l310 -947l305 947h178z" />
    <glyph glyph-name="thorn" unicode="&#xfe;" 
d="M378 1534v-589q123 156 310 156q106 0 182 -39.5t121 -115t66 -175.5t21 -231q0 -167 -44.5 -292t-139 -198.5t-231.5 -73.5q-178 0 -285 125v-514l-172 -21v1946zM647 963q-154 0 -269 -173v-535q42 -64 106.5 -99.5t140.5 -35.5q135 0 202 103t67 318
q0 213 -60.5 317.5t-186.5 104.5z" />
    <glyph glyph-name="ydieresis" unicode="&#xff;" 
d="M402 1328q-49 0 -80.5 31t-31.5 78q0 48 31.5 79t80.5 31q46 0 78.5 -31.5t32.5 -78.5q0 -46 -32.5 -77.5t-78.5 -31.5zM824 1328q-47 0 -78.5 31.5t-31.5 77.5q0 47 31.5 78.5t78.5 31.5q49 0 81 -31.5t32 -78.5t-32 -78t-81 -31zM1103 1078l-379 -1085
q-31 -89 -68 -156t-92.5 -127t-136 -96t-184.5 -47l-27 137q109 18 176.5 58t102 93.5t65.5 144.5h-57l-377 1078h184l310 -947l305 947h178z" />
    <glyph glyph-name="Amacron" unicode="&#x100;" 
d="M889 1629h-551v131h551v-131zM888 359h-558l-113 -359h-175l459 1410h227l459 -1410h-187zM376 507h466l-232 754z" />
    <glyph glyph-name="amacron" unicode="&#x101;" 
d="M872 1384h-551v132h551v-132zM978 236q0 -63 20.5 -94t67.5 -45l-42 -121q-155 20 -198 152q-57 -74 -145 -113t-193 -39q-161 0 -254.5 90.5t-93.5 242.5q0 167 130 256t376 89h159v90q0 113 -65.5 163.5t-191.5 50.5q-123 0 -281 -55l-45 130q182 68 352 68
q197 0 300.5 -92.5t103.5 -255.5v-517zM532 108q80 0 152 40t121 112v278h-156q-324 0 -324 -227q0 -203 207 -203z" />
    <glyph glyph-name="Abreve" unicode="&#x102;" 
d="M609 1553q-119 0 -204 67.5t-98 177.5l120 26q47 -136 182 -136q70 0 119 36.5t72 99.5l118 -26q-11 -109 -99 -177t-210 -68zM888 359h-558l-113 -359h-175l459 1410h227l459 -1410h-187zM376 507h466l-232 754z" />
    <glyph glyph-name="abreve" unicode="&#x103;" 
d="M593 1290q-67 0 -123 25.5t-92 67t-58 89t-28 96.5l119 26q47 -172 182 -172q72 0 119.5 46t69.5 126l120 -26q-6 -49 -29 -96.5t-60.5 -89t-95 -67t-124.5 -25.5zM978 236q0 -63 20.5 -94t67.5 -45l-42 -121q-155 20 -198 152q-57 -74 -145 -113t-193 -39
q-161 0 -254.5 90.5t-93.5 242.5q0 167 130 256t376 89h159v90q0 113 -65.5 163.5t-191.5 50.5q-123 0 -281 -55l-45 130q182 68 352 68q197 0 300.5 -92.5t103.5 -255.5v-517zM532 108q80 0 152 40t121 112v278h-156q-324 0 -324 -227q0 -203 207 -203z" />
    <glyph glyph-name="Aogonek" unicode="&#x104;" 
d="M888 359h-558l-113 -359h-175l459 1410h227l459 -1410h-84q-148 -65 -201 -119t-53 -115q0 -99 114 -99q50 0 128 15l-19 -138q-72 -14 -130 -14q-114 0 -181.5 57t-67.5 145q0 194 296 303zM376 507h466l-232 754z" />
    <glyph glyph-name="aogonek" unicode="&#x105;" 
d="M978 236q0 -63 20.5 -94t67.5 -45l-42 -121q-148 -65 -201 -119t-53 -115q0 -98 114 -98q55 0 128 14l-19 -137q-77 -15 -130 -15q-114 0 -181.5 57t-67.5 145q0 195 300 304q-64 40 -88 116q-57 -74 -145 -113t-193 -39q-161 0 -254.5 90.5t-93.5 242.5q0 167 130 256
t376 89h159v90q0 113 -65.5 163.5t-191.5 50.5q-123 0 -281 -55l-45 130q182 68 352 68q197 0 300.5 -92.5t103.5 -255.5v-517zM532 108q80 0 152 40t121 112v278h-156q-324 0 -324 -227q0 -203 207 -203z" />
    <glyph glyph-name="Cacute" unicode="&#x106;" 
d="M918 1855l77 -147l-438 -161l-46 92zM733 1433q133 0 227 -33.5t182 -104.5l-100 -115q-123 104 -296 104q-91 0 -166 -30.5t-136 -96t-95.5 -180.5t-34.5 -271q0 -153 32.5 -266.5t92 -180t135 -98.5t168.5 -32q108 0 184.5 31.5t143.5 86.5l92 -117
q-158 -154 -422 -154q-130 0 -240.5 48t-193 138.5t-129.5 230.5t-47 313t48 313t131 229.5t191.5 137t232.5 47.5z" />
    <glyph glyph-name="cacute" unicode="&#x107;" 
d="M876 1615l79 -148l-428 -174l-53 93zM693 125q144 0 281 94l84 -113q-70 -60 -169.5 -95t-195.5 -35q-239 0 -372.5 151t-133.5 408q0 163 58.5 290t175 201.5t274.5 74.5q207 0 361 -125l-84 -115q-140 96 -279 96q-145 0 -232 -107.5t-87 -314.5t86.5 -308.5
t232.5 -101.5z" />
    <glyph glyph-name="Ccircumflex" unicode="&#x108;" 
d="M808 1865l275 -220l-75 -87l-259 163l-256 -163l-78 87l277 220h116zM733 1433q133 0 227 -33.5t182 -104.5l-100 -115q-123 104 -296 104q-91 0 -166 -30.5t-136 -96t-95.5 -180.5t-34.5 -271q0 -153 32.5 -266.5t92 -180t135 -98.5t168.5 -32q108 0 184.5 31.5
t143.5 86.5l92 -117q-158 -154 -422 -154q-130 0 -240.5 48t-193 138.5t-129.5 230.5t-47 313t48 313t131 229.5t191.5 137t232.5 47.5z" />
    <glyph glyph-name="ccircumflex" unicode="&#x109;" 
d="M453 1271l-82 85l277 243h116l275 -243l-77 -85l-255 185zM693 125q144 0 281 94l84 -113q-70 -60 -169.5 -95t-195.5 -35q-239 0 -372.5 151t-133.5 408q0 163 58.5 290t175 201.5t274.5 74.5q207 0 361 -125l-84 -115q-140 96 -279 96q-145 0 -232 -107.5t-87 -314.5
t86.5 -308.5t232.5 -101.5z" />
    <glyph glyph-name="Cdotaccent" unicode="&#x10a;" 
d="M746 1829q56 0 91.5 -34.5t35.5 -86.5q0 -53 -35.5 -88t-91.5 -35q-55 0 -89 35t-34 88q0 52 34 86.5t89 34.5zM733 1433q133 0 227 -33.5t182 -104.5l-100 -115q-123 104 -296 104q-91 0 -166 -30.5t-136 -96t-95.5 -180.5t-34.5 -271q0 -153 32.5 -266.5t92 -180
t135 -98.5t168.5 -32q108 0 184.5 31.5t143.5 86.5l92 -117q-158 -154 -422 -154q-130 0 -240.5 48t-193 138.5t-129.5 230.5t-47 313t48 313t131 229.5t191.5 137t232.5 47.5z" />
    <glyph glyph-name="cdotaccent" unicode="&#x10b;" 
d="M702 1567q56 0 91 -34.5t35 -86.5q0 -53 -35 -88t-91 -35q-55 0 -89 35t-34 88q0 52 34 86.5t89 34.5zM693 125q144 0 281 94l84 -113q-70 -60 -169.5 -95t-195.5 -35q-239 0 -372.5 151t-133.5 408q0 163 58.5 290t175 201.5t274.5 74.5q207 0 361 -125l-84 -115
q-140 96 -279 96q-145 0 -232 -107.5t-87 -314.5t86.5 -308.5t232.5 -101.5z" />
    <glyph glyph-name="Ccaron" unicode="&#x10c;" 
d="M1008 1852l75 -87l-275 -220h-116l-277 220l78 87l256 -164zM733 1433q133 0 227 -33.5t182 -104.5l-100 -115q-123 104 -296 104q-91 0 -166 -30.5t-136 -96t-95.5 -180.5t-34.5 -271q0 -153 32.5 -266.5t92 -180t135 -98.5t168.5 -32q108 0 184.5 31.5t143.5 86.5
l92 -117q-158 -154 -422 -154q-130 0 -240.5 48t-193 138.5t-129.5 230.5t-47 313t48 313t131 229.5t191.5 137t232.5 47.5z" />
    <glyph glyph-name="ccaron" unicode="&#x10d;" 
d="M962 1599l77 -86l-275 -242h-116l-277 242l82 86l254 -186zM693 125q144 0 281 94l84 -113q-70 -60 -169.5 -95t-195.5 -35q-239 0 -372.5 151t-133.5 408q0 163 58.5 290t175 201.5t274.5 74.5q207 0 361 -125l-84 -115q-140 96 -279 96q-145 0 -232 -107.5t-87 -314.5
t86.5 -308.5t232.5 -101.5z" />
    <glyph glyph-name="Dcaron" unicode="&#x10e;" 
d="M840 1852l75 -87l-275 -220h-116l-277 220l77 87l257 -164zM1132 712q0 -123 -20.5 -225t-54.5 -174.5t-84 -128.5t-104.5 -90t-120 -56t-126 -30t-127.5 -8h-324v1410h301q76 0 141 -7.5t133.5 -28.5t124 -54t105.5 -87.5t83.5 -126t53 -171.5t19.5 -223zM942 712
q0 142 -27 246t-67 161.5t-100.5 92t-113.5 44t-120 9.5h-166v-1123h168q66 0 123 14t114.5 52.5t97.5 100.5t65.5 165t25.5 238z" />
    <glyph glyph-name="dcaron" unicode="&#x10f;" 
d="M792 1534l172 -22v-1512h-151l-16 142q-115 -166 -307 -166q-204 0 -306.5 151t-102.5 411q0 249 113.5 406t309.5 157q179 0 288 -127v560zM1100 1530l156 -19l-109 -364l-96 14zM548 963q-137 0 -209 -107t-72 -318q0 -209 66 -315.5t194 -106.5q155 0 265 170v538
q-44 66 -107.5 102.5t-136.5 36.5z" />
    <glyph glyph-name="Dcroat" unicode="&#x110;" 
d="M1151 712q0 -123 -20.5 -225t-54.5 -174.5t-84 -128.5t-104.5 -90t-120 -56t-126 -30t-127.5 -8h-324v654h-148v138h148v618h302q76 0 141 -7.5t133.5 -28.5t123.5 -54t105 -87.5t83.5 -126t53 -171.5t19.5 -223zM691 792v-138h-323v-512h168q66 0 123 14t114.5 52.5
t97.5 100.5t65.5 165t25.5 238q0 142 -27 246t-67 161.5t-100.5 92t-113.5 44t-120 9.5h-166v-473h323z" />
    <glyph glyph-name="dcroat" unicode="&#x111;" 
d="M1028 1361h161v-137h-161v-1224h-151l-17 142q-115 -166 -305 -166q-205 0 -308 151t-103 411q0 249 113.5 406t309.5 157q180 0 289 -127v250h-351v137h351v173l172 -22v-151zM611 963q-136 0 -207.5 -107t-71.5 -318q0 -209 66 -315.5t193 -106.5q153 0 265 170v538
q-44 66 -107.5 102.5t-137.5 36.5z" />
    <glyph glyph-name="Emacron" unicode="&#x112;" 
d="M932 1629h-551v131h551v-131zM435 1265v-475h522v-147h-522v-501h641v-142h-819v1410h801l-21 -145h-602z" />
    <glyph glyph-name="emacron" unicode="&#x113;" 
d="M910 1384h-551v132h551v-132zM341 478q6 -178 93.5 -268t221.5 -90q80 0 147 23.5t141 73.5l81 -114q-75 -60 -173 -93.5t-198 -33.5q-232 0 -362.5 153t-130.5 409q0 248 129 405.5t342 157.5q204 0 321 -141.5t117 -387.5q0 -46 -4 -94h-725zM634 959
q-125 0 -203.5 -87.5t-88.5 -260.5h562q-3 170 -74.5 259t-195.5 89z" />
    <glyph glyph-name="Ebreve" unicode="&#x114;" 
d="M653 1553q-119 0 -204.5 67.5t-97.5 177.5l119 26q49 -136 183 -136q70 0 118.5 36.5t71.5 99.5l119 -26q-12 -109 -100 -177t-209 -68zM435 1265v-475h522v-147h-522v-501h641v-142h-819v1410h801l-21 -145h-602z" />
    <glyph glyph-name="ebreve" unicode="&#x115;" 
d="M631 1290q-66 0 -122 25.5t-92.5 67t-58.5 89t-28 96.5l119 26q49 -172 182 -172q72 0 119.5 46t70.5 126l119 -26q-6 -49 -29 -96.5t-60 -89t-94.5 -67t-125.5 -25.5zM341 478q6 -178 93.5 -268t221.5 -90q80 0 147 23.5t141 73.5l81 -114q-75 -60 -173 -93.5
t-198 -33.5q-232 0 -362.5 153t-130.5 409q0 248 129 405.5t342 157.5q204 0 321 -141.5t117 -387.5q0 -46 -4 -94h-725zM634 959q-125 0 -203.5 -87.5t-88.5 -260.5h562q-3 170 -74.5 259t-195.5 89z" />
    <glyph glyph-name="Edotaccent" unicode="&#x116;" 
d="M655 1829q56 0 91.5 -34.5t35.5 -86.5q0 -53 -35.5 -88t-91.5 -35q-55 0 -89.5 35t-34.5 88q0 52 34.5 86.5t89.5 34.5zM435 1265v-475h522v-147h-522v-501h641v-142h-819v1410h801l-21 -145h-602z" />
    <glyph glyph-name="edotaccent" unicode="&#x117;" 
d="M634 1583q56 0 91 -34t35 -86q0 -53 -35 -88t-91 -35q-55 0 -89.5 35t-34.5 88q0 52 34.5 86t89.5 34zM341 478q6 -178 93.5 -268t221.5 -90q80 0 147 23.5t141 73.5l81 -114q-75 -60 -173 -93.5t-198 -33.5q-232 0 -362.5 153t-130.5 409q0 248 129 405.5t342 157.5
q204 0 321 -141.5t117 -387.5q0 -46 -4 -94h-725zM634 959q-125 0 -203.5 -87.5t-88.5 -260.5h562q-3 170 -74.5 259t-195.5 89z" />
    <glyph glyph-name="Eogonek" unicode="&#x118;" 
d="M435 1265v-475h522v-147h-522v-501h641v-142h-118q-147 -65 -199.5 -119t-52.5 -115q0 -99 113 -99q51 0 127 15l-18 -138q-72 -14 -129 -14q-114 0 -182 57t-68 145q0 165 213 268h-505v1410h801l-21 -145h-602z" />
    <glyph glyph-name="eogonek" unicode="&#x119;" 
d="M341 478q6 -178 93.5 -268t221.5 -90q80 0 147 23.5t141 73.5l81 -114q-88 -70 -213 -105q-144 -64 -196 -118t-52 -114q0 -99 114 -99q50 0 127 15l-19 -138q-72 -14 -129 -14q-114 0 -181.5 57t-67.5 145q0 161 203 245q-213 15 -331.5 166.5t-118.5 394.5
q0 248 129 405.5t342 157.5q204 0 321 -141.5t117 -387.5q0 -46 -4 -94h-725zM634 959q-125 0 -203.5 -87.5t-88.5 -260.5h562q-3 170 -74.5 259t-195.5 89z" />
    <glyph glyph-name="Ecaron" unicode="&#x11a;" 
d="M916 1852l76 -87l-275 -220h-116l-277 220l77 87l256 -164zM435 1265v-475h522v-147h-522v-501h641v-142h-819v1410h801l-21 -145h-602z" />
    <glyph glyph-name="ecaron" unicode="&#x11b;" 
d="M893 1617l78 -86l-276 -243h-115l-278 243l82 86l254 -186zM341 478q6 -178 93.5 -268t221.5 -90q80 0 147 23.5t141 73.5l81 -114q-75 -60 -173 -93.5t-198 -33.5q-232 0 -362.5 153t-130.5 409q0 248 129 405.5t342 157.5q204 0 321 -141.5t117 -387.5q0 -46 -4 -94
h-725zM634 959q-125 0 -203.5 -87.5t-88.5 -260.5h562q-3 170 -74.5 259t-195.5 89z" />
    <glyph glyph-name="Gcircumflex" unicode="&#x11c;" 
d="M735 1865l276 -220l-76 -87l-259 163l-257 -163l-77 87l278 220h115zM642 -24q-257 0 -403 186t-146 544q0 141 32.5 261t88 205t131 144.5t161 88t177.5 28.5q132 0 223.5 -37.5t179.5 -117.5l-107 -112q-125 118 -295 118q-64 0 -120.5 -18t-108.5 -60.5t-89.5 -107.5
t-59.5 -165.5t-22 -226.5q0 -302 93 -441t281 -139q142 0 269 68v430h-278l-21 147h475v-672q-108 -60 -215 -91.5t-246 -31.5z" />
    <glyph glyph-name="gcircumflex" unicode="&#x11d;" 
d="M349 1288l-83 85l278 244h115l276 -244l-78 -85l-254 186zM1082 1193l54 -162q-102 -32 -316 -32q188 -86 188 -271q0 -163 -109 -265t-297 -102q-94 0 -161 21q-25 -18 -40.5 -46t-15.5 -58q0 -91 144 -91h195q163 0 272 -83.5t109 -208.5q0 -159 -134 -244t-381 -85
q-170 0 -271 36t-143 105.5t-42 182.5h156q0 -67 24 -105t90 -58.5t185 -20.5q177 0 259.5 44t82.5 133q0 74 -68 114.5t-176 40.5h-192q-132 0 -202 58.5t-70 144.5q0 110 119 188q-93 49 -137 121.5t-44 176.5q0 164 120 269.5t310 105.5q186 1 282 21.5t209 69.5z
M591 976q-126 0 -190 -68t-64 -181q0 -114 65.5 -182.5t192.5 -68.5q113 0 173.5 66t60.5 186q0 248 -238 248z" />
    <glyph glyph-name="Gbreve" unicode="&#x11e;" 
d="M671 1553q-119 0 -204 67.5t-98 177.5l119 26q47 -136 183 -136q70 0 118.5 36.5t71.5 99.5l118 -26q-11 -109 -98.5 -177t-209.5 -68zM642 -24q-257 0 -403 186t-146 544q0 141 32.5 261t88 205t131 144.5t161 88t177.5 28.5q132 0 223.5 -37.5t179.5 -117.5l-107 -112
q-125 118 -295 118q-64 0 -120.5 -18t-108.5 -60.5t-89.5 -107.5t-59.5 -165.5t-22 -226.5q0 -302 93 -441t281 -139q142 0 269 68v430h-278l-21 147h475v-672q-108 -60 -215 -91.5t-246 -31.5z" />
    <glyph glyph-name="gbreve" unicode="&#x11f;" 
d="M596 1290q-67 0 -123 25.5t-92 67t-58 89t-28 96.5l118 26q49 -172 183 -172q72 0 119.5 46t69.5 126l120 -26q-6 -49 -29 -96.5t-60.5 -89t-95 -67t-124.5 -25.5zM1082 1193l54 -162q-102 -32 -316 -32q188 -86 188 -271q0 -163 -109 -265t-297 -102q-94 0 -161 21
q-25 -18 -40.5 -46t-15.5 -58q0 -91 144 -91h195q163 0 272 -83.5t109 -208.5q0 -159 -134 -244t-381 -85q-170 0 -271 36t-143 105.5t-42 182.5h156q0 -67 24 -105t90 -58.5t185 -20.5q177 0 259.5 44t82.5 133q0 74 -68 114.5t-176 40.5h-192q-132 0 -202 58.5t-70 144.5
q0 110 119 188q-93 49 -137 121.5t-44 176.5q0 164 120 269.5t310 105.5q186 1 282 21.5t209 69.5zM591 976q-126 0 -190 -68t-64 -181q0 -114 65.5 -182.5t192.5 -68.5q113 0 173.5 66t60.5 186q0 248 -238 248z" />
    <glyph glyph-name="Gdotaccent" unicode="&#x120;" 
d="M674 1829q56 0 91 -34.5t35 -86.5q0 -53 -35 -88t-91 -35q-55 0 -89.5 35t-34.5 88q0 52 34.5 86.5t89.5 34.5zM642 -24q-257 0 -403 186t-146 544q0 141 32.5 261t88 205t131 144.5t161 88t177.5 28.5q132 0 223.5 -37.5t179.5 -117.5l-107 -112q-125 118 -295 118
q-64 0 -120.5 -18t-108.5 -60.5t-89.5 -107.5t-59.5 -165.5t-22 -226.5q0 -302 93 -441t281 -139q142 0 269 68v430h-278l-21 147h475v-672q-108 -60 -215 -91.5t-246 -31.5z" />
    <glyph glyph-name="gdotaccent" unicode="&#x121;" 
d="M598 1583q57 0 92 -34t35 -86q0 -53 -35 -88t-92 -35q-54 0 -89 35t-35 88q0 51 35 85.5t89 34.5zM1082 1193l54 -162q-102 -32 -316 -32q188 -86 188 -271q0 -163 -109 -265t-297 -102q-94 0 -161 21q-25 -18 -40.5 -46t-15.5 -58q0 -91 144 -91h195q163 0 272 -83.5
t109 -208.5q0 -159 -134 -244t-381 -85q-170 0 -271 36t-143 105.5t-42 182.5h156q0 -67 24 -105t90 -58.5t185 -20.5q177 0 259.5 44t82.5 133q0 74 -68 114.5t-176 40.5h-192q-132 0 -202 58.5t-70 144.5q0 110 119 188q-93 49 -137 121.5t-44 176.5q0 164 120 269.5
t310 105.5q186 1 282 21.5t209 69.5zM591 976q-126 0 -190 -68t-64 -181q0 -114 65.5 -182.5t192.5 -68.5q113 0 173.5 66t60.5 186q0 248 -238 248z" />
    <glyph glyph-name="uni0122" unicode="&#x122;" 
d="M642 -24q-257 0 -403 186t-146 544q0 141 32.5 261t88 205t131 144.5t161 88t177.5 28.5q132 0 223.5 -37.5t179.5 -117.5l-107 -112q-125 118 -295 118q-64 0 -120.5 -18t-108.5 -60.5t-89.5 -107.5t-59.5 -165.5t-22 -226.5q0 -302 93 -441t281 -139q142 0 269 68v430
h-278l-21 147h475v-672q-108 -60 -215 -91.5t-246 -31.5zM684 -144q46 0 78.5 -32t32.5 -78q0 -48 -31 -113l-101 -219h-106l60 240q-45 35 -45 92q0 46 32.5 78t79.5 32z" />
    <glyph glyph-name="uni0123" unicode="&#x123;" 
d="M594 1223q-47 0 -79.5 31.5t-32.5 77.5q0 45 31 113l102 219h106l-61 -241q46 -34 46 -91q0 -46 -32.5 -77.5t-79.5 -31.5zM1082 1193l54 -162q-102 -32 -316 -32q188 -86 188 -271q0 -163 -109 -265t-297 -102q-94 0 -161 21q-25 -18 -40.5 -46t-15.5 -58q0 -91 144 -91
h195q163 0 272 -83.5t109 -208.5q0 -159 -134 -244t-381 -85q-170 0 -271 36t-143 105.5t-42 182.5h156q0 -67 24 -105t90 -58.5t185 -20.5q177 0 259.5 44t82.5 133q0 74 -68 114.5t-176 40.5h-192q-132 0 -202 58.5t-70 144.5q0 110 119 188q-93 49 -137 121.5t-44 176.5
q0 164 120 269.5t310 105.5q186 1 282 21.5t209 69.5zM591 976q-126 0 -190 -68t-64 -181q0 -114 65.5 -182.5t192.5 -68.5q113 0 173.5 66t60.5 186q0 248 -238 248z" />
    <glyph glyph-name="Hcircumflex" unicode="&#x124;" 
d="M674 1865l275 -220l-76 -87l-259 163l-257 -163l-76 87l277 220h116zM881 0v669h-533v-669h-177v1410h177v-596h533v596h177v-1410h-177z" />
    <glyph glyph-name="hcircumflex" unicode="&#x125;" 
d="M674 1968l275 -221l-76 -87l-259 165l-257 -165l-76 87l277 221h116zM378 1529v-598q62 82 154 126t190 44q303 0 303 -318v-783h-172v779q0 97 -45 142t-141 45q-85 0 -163 -54t-126 -127v-785h-172v1510z" />
    <glyph glyph-name="Hbar" unicode="&#x126;" 
d="M1225 1179v-137h-165v-1042h-178v669h-535v-669h-178v1042h-165v137h165v231h178v-231h535v231h178v-231h165zM347 816h535v226h-535v-226z" />
    <glyph glyph-name="hbar" unicode="&#x127;" 
d="M724 1361v-137h-346v-293q62 82 154 126t190 44q303 0 303 -318v-783h-172v779q0 97 -45 142t-141 45q-85 0 -163 -54t-126 -127v-785h-172v1224h-166v137h166v149l172 19v-168h346z" />
    <glyph glyph-name="Itilde" unicode="&#x128;" 
d="M734 1593q-37 0 -72.5 15.5t-59 34.5t-52.5 34.5t-54 15.5q-33 0 -58 -23.5t-51 -72.5l-109 56q85 173 219 173q38 0 73.5 -15.5t58.5 -34.5t51.5 -34.5t53.5 -15.5q54 0 109 91l108 -55q-78 -169 -217 -169zM1018 1410v-142h-313v-1126h313v-142h-807v142h313v1126h-313
v142h807z" />
    <glyph glyph-name="itilde" unicode="&#x129;" 
d="M736 1349q-36 0 -72 15.5t-59 34t-52 34t-54 15.5q-33 0 -57.5 -23t-51.5 -72l-109 55q37 78 92.5 125t126.5 47q38 0 73.5 -15.5t58.5 -33.5t51.5 -33.5t53.5 -15.5q29 0 55 21.5t54 68.5l108 -55q-78 -168 -218 -168zM752 1078v-942h304v-136h-809v136h333v806h-323
v136h495z" />
    <glyph glyph-name="Imacron" unicode="&#x12a;" 
d="M889 1629h-551v131h551v-131zM1018 1410v-142h-313v-1126h313v-142h-807v142h313v1126h-313v142h807z" />
    <glyph glyph-name="imacron" unicode="&#x12b;" 
d="M892 1384h-552v132h552v-132zM752 1078v-942h304v-136h-809v136h333v806h-323v136h495z" />
    <glyph glyph-name="Ibreve" unicode="&#x12c;" 
d="M609 1553q-119 0 -204 67.5t-98 177.5l120 26q47 -136 182 -136q70 0 119 36.5t72 99.5l118 -26q-11 -109 -99 -177t-210 -68zM1018 1410v-142h-313v-1126h313v-142h-807v142h313v1126h-313v142h807z" />
    <glyph glyph-name="ibreve" unicode="&#x12d;" 
d="M612 1290q-67 0 -123 25.5t-92 67t-58 89t-28 96.5l119 26q47 -172 182 -172q72 0 120 46t70 126l120 -26q-9 -66 -44.5 -127.5t-106 -106t-159.5 -44.5zM752 1078v-942h304v-136h-809v136h333v806h-323v136h495z" />
    <glyph glyph-name="Iogonek" unicode="&#x12e;" 
d="M1018 1410v-142h-313v-1126h313v-142h-313q-148 -65 -201 -119t-53 -115q0 -99 113 -99q50 0 128 15l-18 -138q-72 -14 -130 -14q-114 0 -181.5 57t-67.5 145q0 165 213 268h-297v142h313v1126h-313v142h807z" />
    <glyph glyph-name="iogonek" unicode="&#x12f;" 
d="M614 1583q57 0 92 -34t35 -86q0 -53 -35 -88t-92 -35q-54 0 -89 35t-35 88q0 51 35 85.5t89 34.5zM752 1078v-942h304v-136h-304q-148 -65 -200.5 -119t-52.5 -115q0 -99 113 -99q50 0 127 15l-18 -138q-72 -14 -129 -14q-114 0 -182 57t-68 145q0 165 213 268h-308v136
h333v806h-323v136h495z" />
    <glyph glyph-name="Idotaccent" unicode="&#x130;" 
d="M612 1829q56 0 91 -34.5t35 -86.5q0 -53 -35 -88t-91 -35q-55 0 -89.5 35t-34.5 88q0 52 34.5 86.5t89.5 34.5zM1018 1410v-142h-313v-1126h313v-142h-807v142h313v1126h-313v142h807z" />
    <glyph glyph-name="dotlessi" unicode="&#x131;" 
d="M752 1078v-942h304v-136h-809v136h333v806h-323v136h495z" />
    <glyph glyph-name="IJ" unicode="&#x132;" 
d="M398 -145q123 12 213 43t147.5 76.5t91.5 111.5t47.5 139.5t13.5 170.5v867h-500v-1117h163v-146h-550v146h204v1117h-204v147h1067v-1025q0 -102 -17 -187t-63 -169t-119.5 -145t-193.5 -105t-279 -58z" />
    <glyph glyph-name="ij" unicode="&#x133;" 
d="M378 1583q54 0 89.5 -34.5t35.5 -85.5q0 -53 -35.5 -88t-89.5 -35q-55 0 -90 35t-35 88q0 52 35 86t90 34zM919 1583q55 0 89.5 -34t34.5 -86q0 -53 -34.5 -88t-89.5 -35t-90 35t-35 88q0 52 35 86t90 34zM1025 1078v-966q0 -108 -40 -196.5t-114.5 -154t-164 -112
t-204.5 -83.5l-51 134q48 19 84.5 34.5t81 38.5t77 45.5t65 53.5t53 64t33 75.5t12.5 89.5v845h-400v-810h195v-136h-553v136h192v810h-181v132h915z" />
    <glyph glyph-name="Jcircumflex" unicode="&#x134;" 
d="M775 1865l276 -220l-76 -87l-259 163l-256 -163l-78 87l277 220h116zM1017 1410v-942q0 -75 -14 -142.5t-48.5 -132.5t-88 -112t-138 -76t-192.5 -29q-217 0 -388 128l79 118q152 -97 307 -97q146 0 226 93.5t80 259.5v787h-418v145h595z" />
    <glyph glyph-name="jcircumflex" unicode="&#x135;" 
d="M502 1288l-83 85l277 244h116l275 -244l-77 -85l-254 186zM911 1078v-905q0 -261 -174 -405.5t-513 -201.5l-28 133q126 21 220.5 54.5t169.5 87.5t114 134.5t39 186.5v780h-448v136h620z" />
    <glyph glyph-name="uni0136" unicode="&#x136;" 
d="M392 0h-177v1410h177v-1410zM402 753l555 657h205l-551 -646l590 -764h-221zM668 -144q46 0 78 -32t32 -78q0 -48 -30 -113l-103 -219h-104l59 240q-44 36 -44 92q0 46 32.5 78t79.5 32z" />
    <glyph glyph-name="uni0137" unicode="&#x137;" 
d="M389 1534v-1534h-172v1512zM1109 1078l-485 -485l541 -593h-226l-530 589l477 489h223zM633 -144q46 0 78 -32t32 -78q0 -48 -30 -113l-103 -219h-104l59 240q-44 36 -44 92q0 46 32.5 78t79.5 32z" />
    <glyph glyph-name="kgreenlandic" unicode="&#x138;" 
d="M1098 1078l-490 -488l546 -590h-227l-531 579l478 499h224zM378 1078v-1078h-172v1078h172z" />
    <glyph glyph-name="Lacute" unicode="&#x139;" 
d="M537 1855l77 -147l-438 -161l-46 92zM278 0v1410h178v-1251h643l-21 -159h-800z" />
    <glyph glyph-name="lacute" unicode="&#x13a;" 
d="M714 2066l80 -147l-428 -174l-55 93zM626 1512v-1246q0 -146 178 -146q89 0 181 38l46 -126q-112 -56 -256 -56q-145 0 -233 80t-88 219v1101h-331v136h503z" />
    <glyph glyph-name="uni013B" unicode="&#x13b;" 
d="M278 0v1410h178v-1251h643l-21 -159h-800zM685 -144q47 0 79.5 -32t32.5 -78q0 -45 -31 -113l-102 -219h-105l59 240q-45 37 -45 92q0 46 32.5 78t79.5 32z" />
    <glyph glyph-name="uni013C" unicode="&#x13c;" 
d="M626 1512v-1246q0 -146 178 -146q89 0 181 38l46 -126q-112 -56 -256 -56q-145 0 -233 80t-88 219v1101h-331v136h503zM745 -144q46 0 78.5 -32t32.5 -78q0 -45 -31 -113l-102 -219h-105l60 240q-44 36 -44 92q0 46 32 78t79 32z" />
    <glyph glyph-name="Lcaron" unicode="&#x13d;" 
d="M629 1427l156 -18l-109 -366l-96 15zM278 0v1410h178v-1251h643l-21 -159h-800z" />
    <glyph glyph-name="lcaron" unicode="&#x13e;" 
d="M781 1530l157 -19l-110 -364l-97 14zM626 1512v-1246q0 -146 178 -146q89 0 181 38l46 -126q-112 -56 -256 -56q-145 0 -233 80t-88 219v1101h-331v136h503z" />
    <glyph glyph-name="Ldot" unicode="&#x13f;" 
d="M278 0v1410h178v-1251h643l-21 -159h-800zM966 896q56 0 91 -34.5t35 -85.5q0 -54 -35 -89t-91 -35q-55 0 -89.5 35t-34.5 89q0 51 34.5 85.5t89.5 34.5z" />
    <glyph glyph-name="ldot" unicode="&#x140;" 
d="M626 1512v-1246q0 -146 178 -146q89 0 181 38l46 -126q-112 -56 -256 -56q-145 0 -233 80t-88 219v1101h-331v136h503zM1148 903q56 0 91 -34.5t35 -86.5q0 -53 -35 -88t-91 -35q-55 0 -89.5 35t-34.5 88q0 52 34.5 86.5t89.5 34.5z" />
    <glyph glyph-name="Lslash" unicode="&#x141;" 
d="M273 0v549l-116 -73l-74 116l190 119v699h179v-590l335 209l77 -115l-412 -255v-500h644l-21 -159h-802z" />
    <glyph glyph-name="lslash" unicode="&#x142;" 
d="M454 780v596h-331v136h503v-625l184 114l73 -111l-257 -158v-466q0 -146 178 -146q89 0 181 38l46 -126q-112 -56 -256 -56q-145 0 -233 80t-88 219v352l-139 -85l-72 111z" />
    <glyph glyph-name="Nacute" unicode="&#x143;" 
d="M780 1855l78 -147l-437 -161l-46 92zM809 0l-497 1240q0 -15 6.5 -109t12 -211t5.5 -213v-707h-165v1410h241l504 -1245q0 11 -6.5 100.5t-11.5 208t-5 231.5v705h165v-1410h-249z" />
    <glyph glyph-name="nacute" unicode="&#x144;" 
d="M785 1632l80 -147l-428 -174l-54 92zM206 0v1078h146l14 -149q64 81 161.5 126.5t194.5 45.5q303 0 303 -318v-783h-172v656q0 72 -3.5 117.5t-14 86t-31 61.5t-53.5 33t-82 12q-87 0 -164.5 -54t-126.5 -127v-785h-172z" />
    <glyph glyph-name="uni0145" unicode="&#x145;" 
d="M809 0l-497 1240q0 -15 6.5 -109t12 -211t5.5 -213v-707h-165v1410h241l504 -1245q0 11 -6.5 100.5t-11.5 208t-5 231.5v705h165v-1410h-249zM622 -144q46 0 78 -32t32 -78q0 -45 -31 -113l-102 -219h-104l59 240q-44 36 -44 92q0 46 32.5 78t79.5 32z" />
    <glyph glyph-name="uni0146" unicode="&#x146;" 
d="M206 0v1078h146l14 -149q64 81 161.5 126.5t194.5 45.5q303 0 303 -318v-783h-172v656q0 72 -3.5 117.5t-14 86t-31 61.5t-53.5 33t-82 12q-87 0 -164.5 -54t-126.5 -127v-785h-172zM624 -144q46 0 78 -32t32 -78q0 -48 -31 -113l-101 -219h-105l60 240q-45 35 -45 92
q0 46 32.5 78t79.5 32z" />
    <glyph glyph-name="Ncaron" unicode="&#x147;" 
d="M870 1852l76 -87l-275 -220h-116l-277 220l77 87l256 -164zM809 0l-497 1240q0 -15 6.5 -109t12 -211t5.5 -213v-707h-165v1410h241l504 -1245q0 11 -6.5 100.5t-11.5 208t-5 231.5v705h165v-1410h-249z" />
    <glyph glyph-name="ncaron" unicode="&#x148;" 
d="M870 1617l78 -86l-275 -243h-116l-277 243l82 86l254 -186zM206 0v1078h146l14 -149q64 81 161.5 126.5t194.5 45.5q303 0 303 -318v-783h-172v656q0 72 -3.5 117.5t-14 86t-31 61.5t-53.5 33t-82 12q-87 0 -164.5 -54t-126.5 -127v-785h-172z" />
    <glyph glyph-name="napostrophe" unicode="&#x149;" 
d="M130 1539q47 0 79.5 -31.5t32.5 -77.5q0 -44 -55 -159l-84 -177h-102l61 242q-47 44 -47 94q0 47 34 78t81 31zM223 0v1078h148l12 -149q64 81 161.5 126.5t194.5 45.5q304 0 304 -318v-783h-172v656q0 72 -3.5 117.5t-14.5 86t-31.5 61.5t-53.5 33t-82 12
q-87 0 -164 -53.5t-127 -127.5v-785h-172z" />
    <glyph glyph-name="Eng" unicode="&#x14a;" 
d="M809 0l-497 1240q0 -15 6.5 -109t12 -211t5.5 -213v-707h-165v1410h241l504 -1245q0 11 -6.5 100.5t-11.5 208t-5 231.5v705h165v-1536q0 -152 -79.5 -230.5t-217.5 -78.5q-130 0 -231 76l68 117q40 -25 73.5 -36.5t82.5 -11.5q127 0 127 154v136h-72z" />
    <glyph glyph-name="eng" unicode="&#x14b;" 
d="M1025 58q0 -91 -13 -159.5t-36.5 -117t-64.5 -88t-87 -66.5t-115 -58l-65 125q60 28 93.5 50.5t63 61.5t41 96.5t11.5 144.5v609q0 73 -3.5 117.5t-14 85.5t-31 62t-54 33t-83.5 12q-85 0 -163 -54t-126 -127v-785h-172v1078h146l14 -149q64 81 161 126.5t195 45.5
q303 0 303 -318v-725z" />
    <glyph glyph-name="Omacron" unicode="&#x14c;" 
d="M889 1629h-551v131h551v-131zM1134 703q0 -217 -57.5 -379t-176 -255t-286.5 -93t-286 91t-175.5 252.5t-57.5 381.5q0 217 57.5 380t176 257.5t285.5 94.5q251 0 385.5 -197.5t134.5 -532.5zM947 703q0 290 -79.5 435.5t-253.5 145.5t-253 -146.5t-79 -436.5
q0 -287 80.5 -431t251.5 -144q175 0 254 144t79 433z" />
    <glyph glyph-name="omacron" unicode="&#x14d;" 
d="M889 1384h-551v132h551v-132zM616 1101q224 0 343 -149.5t119 -411.5q0 -254 -121.5 -409t-342.5 -155q-224 0 -343.5 151t-119.5 411q0 256 121 409.5t344 153.5zM616 961q-281 0 -281 -423q0 -420 279 -420q280 0 280 422q0 421 -278 421z" />
    <glyph glyph-name="Obreve" unicode="&#x14e;" 
d="M609 1553q-119 0 -204 67.5t-98 177.5l120 26q47 -136 182 -136q70 0 119 36.5t72 99.5l118 -26q-11 -109 -99 -177t-210 -68zM1134 703q0 -217 -57.5 -379t-176 -255t-286.5 -93t-286 91t-175.5 252.5t-57.5 381.5q0 217 57.5 380t176 257.5t285.5 94.5
q251 0 385.5 -197.5t134.5 -532.5zM947 703q0 290 -79.5 435.5t-253.5 145.5t-253 -146.5t-79 -436.5q0 -287 80.5 -431t251.5 -144q175 0 254 144t79 433z" />
    <glyph glyph-name="obreve" unicode="&#x14f;" 
d="M609 1290q-66 0 -122 25.5t-92.5 67t-58.5 89t-28 96.5l119 26q49 -172 182 -172q72 0 120 46t71 126l119 -26q-14 -106 -96.5 -192t-213.5 -86zM616 1101q224 0 343 -149.5t119 -411.5q0 -254 -121.5 -409t-342.5 -155q-224 0 -343.5 151t-119.5 411q0 256 121 409.5
t344 153.5zM616 961q-281 0 -281 -423q0 -420 279 -420q280 0 280 422q0 421 -278 421z" />
    <glyph glyph-name="Ohungarumlaut" unicode="&#x150;" 
d="M375 1602l159 354l151 -72l-199 -336zM710 1601l180 355l149 -79l-221 -334zM1134 703q0 -217 -57.5 -379t-176 -255t-286.5 -93t-286 91t-175.5 252.5t-57.5 381.5q0 217 57.5 380t176 257.5t285.5 94.5q251 0 385.5 -197.5t134.5 -532.5zM947 703q0 290 -79.5 435.5
t-253.5 145.5t-253 -146.5t-79 -436.5q0 -287 80.5 -431t251.5 -144q175 0 254 144t79 433z" />
    <glyph glyph-name="ohungarumlaut" unicode="&#x151;" 
d="M362 1356l160 355l152 -72l-199 -335zM698 1356l181 355l149 -79l-221 -334zM616 1101q224 0 343 -149.5t119 -411.5q0 -254 -121.5 -409t-342.5 -155q-224 0 -343.5 151t-119.5 411q0 256 121 409.5t344 153.5zM616 961q-281 0 -281 -423q0 -420 279 -420q280 0 280 422
q0 421 -278 421z" />
    <glyph glyph-name="OE" unicode="&#x152;" 
d="M433 1433q77 0 147 -23h666l-21 -144h-499q118 -143 132 -479h314v-144h-314q-9 -347 -140 -499h547v-144h-692q-85 -24 -140 -24q-436 0 -436 725q0 357 110 544.5t326 187.5zM433 1287q-127 0 -186.5 -138t-59.5 -448q0 -306 61 -442.5t185 -136.5q131 0 190.5 135.5
t59.5 445.5q0 312 -58.5 448t-191.5 136z" />
    <glyph glyph-name="oe" unicode="&#x153;" 
d="M921 1101q339 0 339 -529q0 -28 -5 -96h-538q14 -185 66.5 -270t157.5 -85q54 0 97 19t101 62l79 -118q-67 -53 -132.5 -80.5t-146.5 -27.5q-222 0 -307 208q-42 -101 -109 -154.5t-181 -53.5q-117 0 -196 71t-115 194.5t-36 296.5q0 171 35 294.5t114 196t198 72.5
q120 0 187 -54t105 -157q85 211 287 211zM364 963q-98 0 -142 -103t-44 -322q0 -222 43.5 -321t142.5 -99q100 0 140 95t40 327q0 220 -41.5 321.5t-138.5 101.5zM914 958q-93 0 -138.5 -78.5t-58.5 -268.5h375q-4 180 -43 263.5t-135 83.5z" />
    <glyph glyph-name="Racute" unicode="&#x154;" 
d="M782 1855l78 -147l-437 -161l-46 92zM1101 1015q0 -152 -95 -252t-249 -137l418 -626h-213l-385 605h-191v-605h-178v1410h362q261 0 396 -100t135 -295zM910 1015q0 134 -77 194t-242 60h-205v-525h205q158 0 238.5 64t80.5 207z" />
    <glyph glyph-name="racute" unicode="&#x155;" 
d="M848 1632l80 -147l-428 -174l-55 92zM216 0v132h168v814h-168v132h299l32 -255q66 140 156 209.5t231 69.5q68 0 152 -24l-24 -364h-141v229h-10q-248 0 -355 -354v-457h219v-132h-559z" />
    <glyph glyph-name="uni0156" unicode="&#x156;" 
d="M1101 1015q0 -152 -95 -252t-249 -137l418 -626h-213l-385 605h-191v-605h-178v1410h362q261 0 396 -100t135 -295zM910 1015q0 134 -77 194t-242 60h-205v-525h205q158 0 238.5 64t80.5 207zM618 -144q47 0 79 -32t32 -78q0 -48 -31 -113l-101 -219h-105l60 240
q-45 35 -45 92q0 46 32 78t79 32z" />
    <glyph glyph-name="uni0157" unicode="&#x157;" 
d="M216 0v132h168v814h-168v132h299l32 -255q66 140 156 209.5t231 69.5q68 0 152 -24l-24 -364h-141v229h-10q-248 0 -355 -354v-457h219v-132h-559zM477 -144q46 0 78.5 -32t32.5 -78q0 -45 -31 -113l-102 -219h-105l60 240q-44 36 -44 92q0 46 32 78t79 32z" />
    <glyph glyph-name="Rcaron" unicode="&#x158;" 
d="M873 1852l76 -87l-275 -220h-116l-277 220l76 87l257 -164zM1101 1015q0 -152 -95 -252t-249 -137l418 -626h-213l-385 605h-191v-605h-178v1410h362q261 0 396 -100t135 -295zM910 1015q0 134 -77 194t-242 60h-205v-525h205q158 0 238.5 64t80.5 207z" />
    <glyph glyph-name="rcaron" unicode="&#x159;" 
d="M933 1617l78 -86l-276 -243h-115l-277 243l82 86l254 -186zM216 0v132h168v814h-168v132h299l32 -255q66 140 156 209.5t231 69.5q68 0 152 -24l-24 -364h-141v229h-10q-248 0 -355 -354v-457h219v-132h-559z" />
    <glyph glyph-name="Sacute" unicode="&#x15a;" 
d="M794 1855l77 -147l-437 -161l-46 92zM1099 390q0 -186 -137 -300t-378 -114q-308 0 -495 181l106 118q157 -149 392 -149q89 0 161 27.5t119 88t47 145.5q0 104 -65 163.5t-244 112.5q-112 33 -190 67.5t-140.5 82t-93 111.5t-30.5 146q0 159 127.5 261t328.5 102
q267 0 451 -161l-105 -116q-144 128 -340 128q-122 0 -201.5 -53.5t-79.5 -154.5q0 -91 76 -146t279 -115q73 -21 127.5 -42.5t111 -56.5t92.5 -78t58.5 -106.5t22.5 -141.5z" />
    <glyph glyph-name="sacute" unicode="&#x15b;" 
d="M802 1632l79 -147l-428 -174l-54 92zM572 119q124 0 196.5 46.5t72.5 124.5q0 53 -17 85.5t-74.5 63t-169.5 58.5q-73 18 -125 35.5t-100.5 43.5t-78 57t-47 75t-17.5 99q0 135 112.5 214.5t297.5 79.5q231 0 391 -119l-76 -117q-143 97 -313 97q-234 0 -234 -142
q0 -70 58.5 -106.5t228.5 -82.5q86 -23 145 -48t108 -63.5t73 -93t24 -128.5q0 -67 -25.5 -121.5t-68.5 -91.5t-101.5 -62t-123.5 -36t-136 -11q-253 0 -421 146l98 114q138 -117 323 -117z" />
    <glyph glyph-name="Scircumflex" unicode="&#x15c;" 
d="M684 1865l275 -220l-74 -87l-259 163l-257 -163l-78 87l277 220h116zM1099 390q0 -186 -137 -300t-378 -114q-308 0 -495 181l106 118q157 -149 392 -149q89 0 161 27.5t119 88t47 145.5q0 104 -65 163.5t-244 112.5q-112 33 -190 67.5t-140.5 82t-93 111.5t-30.5 146
q0 159 127.5 261t328.5 102q267 0 451 -161l-105 -116q-144 128 -340 128q-122 0 -201.5 -53.5t-79.5 -154.5q0 -91 76 -146t279 -115q73 -21 127.5 -42.5t111 -56.5t92.5 -78t58.5 -106.5t22.5 -141.5z" />
    <glyph glyph-name="scircumflex" unicode="&#x15d;" 
d="M378 1288l-82 85l277 244h116l276 -244l-78 -85l-254 186zM572 119q124 0 196.5 46.5t72.5 124.5q0 53 -17 85.5t-74.5 63t-169.5 58.5q-73 18 -125 35.5t-100.5 43.5t-78 57t-47 75t-17.5 99q0 135 112.5 214.5t297.5 79.5q231 0 391 -119l-76 -117q-143 97 -313 97
q-234 0 -234 -142q0 -70 58.5 -106.5t228.5 -82.5q86 -23 145 -48t108 -63.5t73 -93t24 -128.5q0 -67 -25.5 -121.5t-68.5 -91.5t-101.5 -62t-123.5 -36t-136 -11q-253 0 -421 146l98 114q138 -117 323 -117z" />
    <glyph glyph-name="Scedilla" unicode="&#x15e;" 
d="M690 -288q0 52 -43.5 70t-134.5 18l14 178q-265 15 -437 179l106 118q157 -149 392 -149q89 0 161 27.5t119 88t47 145.5q0 104 -65 163.5t-244 112.5q-112 33 -190 67.5t-140.5 82t-93 111.5t-30.5 146q0 159 127.5 261t328.5 102q267 0 451 -161l-105 -116
q-144 128 -340 128q-122 0 -201.5 -53.5t-79.5 -154.5q0 -91 76 -146t279 -115q73 -21 127.5 -42.5t111 -56.5t92.5 -78t58.5 -106.5t22.5 -141.5q0 -172 -119 -284t-332 -128v-95q95 -8 142.5 -56t47.5 -115q0 -96 -72 -148t-178 -52q-129 0 -214 50l55 99q64 -33 138 -33
q123 0 123 84z" />
    <glyph glyph-name="scedilla" unicode="&#x15f;" 
d="M572 119q124 0 196.5 46.5t72.5 124.5q0 53 -17 85.5t-74.5 63t-169.5 58.5q-73 18 -125 35.5t-100.5 43.5t-78 57t-47 75t-17.5 99q0 135 112.5 214.5t297.5 79.5q231 0 391 -119l-76 -117q-143 97 -313 97q-234 0 -234 -142q0 -70 58.5 -106.5t228.5 -82.5
q86 -23 145 -48t108 -63.5t73 -93t24 -128.5t-30.5 -133t-84 -96.5t-120 -59.5t-145.5 -29v-97q95 -8 143 -56t48 -115q0 -96 -72.5 -148t-177.5 -52q-129 0 -214 50l55 99q63 -33 138 -33q122 0 122 84q0 52 -43 70t-134 18l13 177q-221 12 -374 145l98 114
q138 -117 323 -117z" />
    <glyph glyph-name="Scaron" unicode="&#x160;" 
d="M885 1852l74 -87l-275 -220h-116l-277 220l78 87l257 -164zM1099 390q0 -186 -137 -300t-378 -114q-308 0 -495 181l106 118q157 -149 392 -149q89 0 161 27.5t119 88t47 145.5q0 104 -65 163.5t-244 112.5q-112 33 -190 67.5t-140.5 82t-93 111.5t-30.5 146
q0 159 127.5 261t328.5 102q267 0 451 -161l-105 -116q-144 128 -340 128q-122 0 -201.5 -53.5t-79.5 -154.5q0 -91 76 -146t279 -115q73 -21 127.5 -42.5t111 -56.5t92.5 -78t58.5 -106.5t22.5 -141.5z" />
    <glyph glyph-name="scaron" unicode="&#x161;" 
d="M887 1617l78 -86l-276 -243h-116l-277 243l82 86l255 -186zM572 119q124 0 196.5 46.5t72.5 124.5q0 53 -17 85.5t-74.5 63t-169.5 58.5q-73 18 -125 35.5t-100.5 43.5t-78 57t-47 75t-17.5 99q0 135 112.5 214.5t297.5 79.5q231 0 391 -119l-76 -117q-143 97 -313 97
q-234 0 -234 -142q0 -70 58.5 -106.5t228.5 -82.5q86 -23 145 -48t108 -63.5t73 -93t24 -128.5q0 -67 -25.5 -121.5t-68.5 -91.5t-101.5 -62t-123.5 -36t-136 -11q-253 0 -421 146l98 114q138 -117 323 -117z" />
    <glyph glyph-name="uni0162" unicode="&#x162;" 
d="M714 -288q0 52 -43.5 70t-133.5 18l14 200h-29v1257h-440v153h1064l-19 -153h-428v-1257h-27v-117q95 -8 142.5 -56t47.5 -115q0 -96 -72.5 -148t-178.5 -52q-129 0 -213 50l56 99q63 -33 137 -33q123 0 123 84z" />
    <glyph glyph-name="uni0163" unicode="&#x163;" 
d="M843 -288q0 52 -43 70t-134 18l14 185q-128 24 -198.5 108.5t-70.5 208.5v643h-248v133h248v245l172 20v-265h372l-20 -133h-352v-641q0 -92 48.5 -138t156.5 -46q112 0 207 51l67 -117q-107 -70 -261 -77v-94q95 -8 142.5 -56t47.5 -115q0 -96 -72.5 -148t-177.5 -52
q-129 0 -214 50l56 99q63 -33 138 -33q122 0 122 84z" />
    <glyph glyph-name="Tcaron" unicode="&#x164;" 
d="M871 1852l76 -87l-275 -220h-116l-277 220l76 87l257 -164zM699 1257v-1257h-177v1257h-440v153h1064l-19 -153h-428z" />
    <glyph glyph-name="tcaron" unicode="&#x165;" 
d="M743 1559l157 -18l-109 -365l-97 14zM1062 54q-55 -36 -134 -57t-155 -21q-170 0 -266 90t-96 236v643h-248v133h248v245l172 20v-265h372l-20 -133h-352v-641q0 -92 48.5 -138t156.5 -46q112 0 207 51z" />
    <glyph glyph-name="Tbar" unicode="&#x166;" 
d="M255 717v138h267v402h-440v153h1064l-19 -153h-428v-402h271v-138h-271v-717h-177v717h-267z" />
    <glyph glyph-name="tbar" unicode="&#x167;" 
d="M1062 54q-55 -36 -134 -57t-155 -21q-170 0 -266 90t-96 236v287h-226v132h226v224h-248v133h248v245l172 20v-265h372l-20 -133h-352v-224h354v-132h-354v-285q0 -92 48.5 -138t156.5 -46q112 0 207 51z" />
    <glyph glyph-name="Utilde" unicode="&#x168;" 
d="M734 1593q-37 0 -72.5 15.5t-59 34.5t-52.5 34.5t-54 15.5q-33 0 -58 -23.5t-51 -72.5l-109 56q85 173 219 173q38 0 73.5 -15.5t58.5 -34.5t51.5 -34.5t53.5 -15.5q54 0 109 91l108 -55q-78 -169 -217 -169zM1080 1410v-953q0 -216 -127.5 -348.5t-340.5 -132.5
q-215 0 -339.5 132t-124.5 349v953h177v-959q0 -159 74 -240t213 -81q140 0 214.5 81t74.5 240v959h179z" />
    <glyph glyph-name="utilde" unicode="&#x169;" 
d="M734 1349q-37 0 -72.5 15.5t-59 34t-52.5 34t-54 15.5q-33 0 -58 -23t-51 -72l-109 55q84 172 219 172q38 0 73.5 -15.5t58.5 -33.5t51.5 -33.5t53.5 -15.5q29 0 55 21.5t54 68.5l108 -55q-78 -168 -217 -168zM378 1078v-764q0 -105 43.5 -152.5t137.5 -47.5
q85 0 165.5 49.5t126.5 121.5v793h172v-1078h-146l-15 145q-62 -81 -155 -125t-190 -44q-154 0 -232.5 82.5t-78.5 235.5v784h172z" />
    <glyph glyph-name="Umacron" unicode="&#x16a;" 
d="M889 1629h-551v131h551v-131zM1080 1410v-953q0 -216 -127.5 -348.5t-340.5 -132.5q-215 0 -339.5 132t-124.5 349v953h177v-959q0 -159 74 -240t213 -81q140 0 214.5 81t74.5 240v959h179z" />
    <glyph glyph-name="umacron" unicode="&#x16b;" 
d="M889 1384h-551v132h551v-132zM378 1078v-764q0 -105 43.5 -152.5t137.5 -47.5q85 0 165.5 49.5t126.5 121.5v793h172v-1078h-146l-15 145q-62 -81 -155 -125t-190 -44q-154 0 -232.5 82.5t-78.5 235.5v784h172z" />
    <glyph glyph-name="Ubreve" unicode="&#x16c;" 
d="M609 1553q-119 0 -204 67.5t-98 177.5l120 26q47 -136 182 -136q70 0 119 36.5t72 99.5l118 -26q-11 -109 -99 -177t-210 -68zM1080 1410v-953q0 -216 -127.5 -348.5t-340.5 -132.5q-215 0 -339.5 132t-124.5 349v953h177v-959q0 -159 74 -240t213 -81q140 0 214.5 81
t74.5 240v959h179z" />
    <glyph glyph-name="ubreve" unicode="&#x16d;" 
d="M609 1290q-66 0 -122 25.5t-92.5 67t-58.5 89t-28 96.5l119 26q49 -172 182 -172q72 0 120 46t71 126l119 -26q-14 -106 -96.5 -192t-213.5 -86zM378 1078v-764q0 -105 43.5 -152.5t137.5 -47.5q85 0 165.5 49.5t126.5 121.5v793h172v-1078h-146l-15 145
q-62 -81 -155 -125t-190 -44q-154 0 -232.5 82.5t-78.5 235.5v784h172z" />
    <glyph glyph-name="Uring" unicode="&#x16e;" 
d="M614 1931q98 0 163 -60.5t65 -150.5q0 -87 -65 -147.5t-163 -60.5t-162.5 60.5t-64.5 147.5q0 90 64.5 150.5t162.5 60.5zM614 1837q-51 0 -80.5 -31.5t-29.5 -85.5t29.5 -84.5t80.5 -30.5q52 0 81.5 30.5t29.5 84.5q0 55 -29.5 86t-81.5 31zM1080 1410v-953
q0 -216 -127.5 -348.5t-340.5 -132.5q-215 0 -339.5 132t-124.5 349v953h177v-959q0 -159 74 -240t213 -81q140 0 214.5 81t74.5 240v959h179z" />
    <glyph glyph-name="uring" unicode="&#x16f;" 
d="M614 1687q98 0 163 -60.5t65 -150.5q0 -88 -65 -148t-163 -60t-162.5 60t-64.5 148q0 90 64.5 150.5t162.5 60.5zM614 1592q-50 0 -80 -31t-30 -85t30 -85t80 -31q52 0 81.5 31t29.5 85t-29.5 85t-81.5 31zM378 1078v-764q0 -105 43.5 -152.5t137.5 -47.5
q85 0 165.5 49.5t126.5 121.5v793h172v-1078h-146l-15 145q-62 -81 -155 -125t-190 -44q-154 0 -232.5 82.5t-78.5 235.5v784h172z" />
    <glyph glyph-name="Uhungarumlaut" unicode="&#x170;" 
d="M375 1602l159 354l151 -72l-199 -336zM710 1601l180 355l149 -79l-221 -334zM1080 1410v-953q0 -216 -127.5 -348.5t-340.5 -132.5q-215 0 -339.5 132t-124.5 349v953h177v-959q0 -159 74 -240t213 -81q140 0 214.5 81t74.5 240v959h179z" />
    <glyph glyph-name="uhungarumlaut" unicode="&#x171;" 
d="M362 1356l160 355l152 -72l-199 -335zM698 1356l181 355l149 -79l-221 -334zM378 1078v-764q0 -105 43.5 -152.5t137.5 -47.5q85 0 165.5 49.5t126.5 121.5v793h172v-1078h-146l-15 145q-62 -81 -155 -125t-190 -44q-154 0 -232.5 82.5t-78.5 235.5v784h172z" />
    <glyph glyph-name="Uogonek" unicode="&#x172;" 
d="M1080 1410v-953q0 -174 -85 -297t-235 -164q-142 -64 -193 -117t-51 -113q0 -99 114 -99q50 0 127 15l-19 -138q-70 -14 -129 -14q-114 0 -181.5 57t-67.5 145q0 152 176 249q-182 24 -285 152t-103 324v953h177v-959q0 -159 74 -240t213 -81q140 0 214.5 81t74.5 240
v959h179z" />
    <glyph glyph-name="uogonek" unicode="&#x173;" 
d="M378 1078v-764q0 -105 43.5 -152.5t137.5 -47.5q85 0 165.5 49.5t126.5 121.5v793h172v-1078q-148 -65 -201 -119t-53 -115q0 -99 115 -99q50 0 127 15l-19 -138q-72 -14 -129 -14q-114 0 -182 57t-68 145q0 182 261 290l-12 123q-62 -81 -155 -125t-190 -44
q-154 0 -232.5 82.5t-78.5 235.5v784h172z" />
    <glyph glyph-name="Wcircumflex" unicode="&#x174;" 
d="M674 1865l275 -220l-76 -87l-259 163l-257 -163l-76 87l277 220h116zM1220 1410l-215 -1410h-234l-162 1064l-163 -1064h-238l-199 1410h178l151 -1214l169 1050h218l161 -1050l169 1214h165z" />
    <glyph glyph-name="wcircumflex" unicode="&#x175;" 
d="M362 1288l-81 85l277 244h116l275 -244l-78 -85l-255 186zM1005 0h-244l-139 792l-152 -792h-238l-196 1078h176l137 -972l172 835h204l163 -835l137 972h168z" />
    <glyph glyph-name="Ycircumflex" unicode="&#x176;" 
d="M681 1865l275 -220l-75 -87l-259 163l-257 -163l-77 87l277 220h116zM705 544v-544h-181v542l-476 868h197l373 -707l378 707h185z" />
    <glyph glyph-name="ycircumflex" unicode="&#x177;" 
d="M362 1288l-81 85l277 244h116l275 -244l-78 -85l-255 186zM1103 1078l-379 -1085q-31 -89 -68 -156t-92.5 -127t-136 -96t-184.5 -47l-27 137q109 18 176.5 58t102 93.5t65.5 144.5h-57l-377 1078h184l310 -947l305 947h178z" />
    <glyph glyph-name="Ydieresis" unicode="&#x178;" 
d="M410 1573q-49 0 -81 30.5t-32 77.5q0 49 31.5 80t81.5 31q46 0 78 -31.5t32 -79.5q0 -46 -32 -77t-78 -31zM831 1573q-47 0 -78.5 31t-31.5 77q0 48 31.5 79.5t78.5 31.5q49 0 81 -31t32 -80q0 -47 -32 -77.5t-81 -30.5zM705 544v-544h-181v542l-476 868h197l373 -707
l378 707h185z" />
    <glyph glyph-name="Zacute" unicode="&#x179;" 
d="M820 1855l78 -147l-437 -161l-46 92zM342 154h738l-21 -154h-913v144l746 1114h-672v152h862v-145z" />
    <glyph glyph-name="zacute" unicode="&#x17a;" 
d="M807 1632l80 -147l-428 -174l-53 92zM421 146h600l-23 -146h-788v130l598 799h-551v149h758v-133z" />
    <glyph glyph-name="Zdotaccent" unicode="&#x17b;" 
d="M649 1829q57 0 92 -34.5t35 -86.5q0 -53 -35 -88t-92 -35q-54 0 -88.5 35t-34.5 88q0 52 34.5 86.5t88.5 34.5zM342 154h738l-21 -154h-913v144l746 1114h-672v152h862v-145z" />
    <glyph glyph-name="zdotaccent" unicode="&#x17c;" 
d="M634 1583q56 0 91 -34t35 -86q0 -53 -35 -88t-91 -35q-55 0 -89.5 35t-34.5 88q0 52 34.5 86t89.5 34zM421 146h600l-23 -146h-788v130l598 799h-551v149h758v-133z" />
    <glyph glyph-name="Zcaron" unicode="&#x17d;" 
d="M911 1852l75 -87l-275 -220h-116l-277 220l77 87l257 -164zM342 154h738l-21 -154h-913v144l746 1114h-672v152h862v-145z" />
    <glyph glyph-name="zcaron" unicode="&#x17e;" 
d="M893 1617l78 -86l-276 -243h-115l-278 243l82 86l254 -186zM421 146h600l-23 -146h-788v130l598 799h-551v149h758v-133z" />
    <glyph glyph-name="florin" unicode="&#x192;" 
d="M756 1534q128 0 251 -56l-58 -126q-90 41 -188 41q-87 0 -125.5 -39t-38.5 -120v-156h265l-21 -135h-244v-862q0 -97 -12 -168t-34 -122.5t-62.5 -92t-87.5 -69t-119 -60.5l-62 123q48 23 76.5 40.5t56.5 45.5t42.5 62t23 85.5t8.5 121.5v896h-172v135h172v152
q0 136 87 220t242 84z" />
    <glyph glyph-name="AEacute" unicode="&#x1fc;" 
d="M908 1855l78 -147l-437 -161l-46 92zM675 359h-417l-101 -359h-182l414 1410h770l-21 -144h-483l105 -479h381v-144h-354l106 -499h351v-144h-494zM304 509h339l-150 761z" />
    <glyph glyph-name="aeacute" unicode="&#x1fd;" 
d="M804 1632l79 -147l-428 -174l-54 92zM890 1101q179 0 265.5 -137.5t86.5 -391.5q0 -60 -4 -96h-551q14 -184 69 -269.5t163 -85.5q56 0 101 19.5t101 61.5l80 -118q-136 -108 -285 -108q-107 0 -182 48t-133 149q-64 -108 -131.5 -152.5t-169.5 -44.5q-142 0 -227 91
t-85 242q0 169 112 258t327 89h92v88q0 213 -186 213q-52 0 -98 -12.5t-115 -42.5l-47 130q150 69 276 69q113 0 177 -46t96 -133q32 85 100.5 132t167.5 47zM885 958q-93 0 -139 -78.5t-59 -268.5h387q-3 178 -45.5 262.5t-143.5 84.5zM519 538h-86q-140 0 -200 -57
t-60 -163q0 -101 41 -154.5t111 -53.5q66 0 116.5 46t103.5 145q-26 119 -26 237z" />
    <glyph glyph-name="Oslashacute" unicode="&#x1fe;" 
d="M782 1855l78 -147l-437 -161l-46 92zM614 1433q69 0 132 -17l66 229l155 -40l-79 -254q121 -87 183.5 -254t62.5 -394q0 -217 -57.5 -379t-176 -255t-286.5 -93q-64 0 -130 16l-65 -217l-154 40l76 242q-121 86 -183.5 252t-62.5 392q0 217 57.5 380t176 257.5
t285.5 94.5zM614 1283q-173 0 -252 -146.5t-79 -435.5q0 -379 121 -500l310 1070q-45 12 -100 12zM946 703q0 199 -29.5 321.5t-93.5 185.5l-309 -1071q41 -12 100 -12q174 0 253 144t79 432z" />
    <glyph glyph-name="oslashacute" unicode="&#x1ff;" 
d="M785 1632l80 -147l-428 -174l-53 92zM616 1101q53 0 101 -9l78 247l144 -42l-86 -258q109 -65 167 -193.5t58 -305.5q0 -254 -121.5 -409t-342.5 -155q-51 0 -103 11l-75 -254l-143 43l86 261q-110 66 -169 196t-59 305q0 256 121 409.5t344 153.5zM616 959
q-280 0 -280 -421q0 -274 106 -365l242 780q-33 6 -68 6zM893 540q0 272 -105 363l-241 -778q33 -6 67 -6q279 0 279 421z" />
    <glyph glyph-name="uni0218" unicode="&#x218;" 
d="M1099 390q0 -186 -137 -300t-378 -114q-308 0 -495 181l106 118q157 -149 392 -149q89 0 161 27.5t119 88t47 145.5q0 104 -65 163.5t-244 112.5q-112 33 -190 67.5t-140.5 82t-93 111.5t-30.5 146q0 159 127.5 261t328.5 102q267 0 451 -161l-105 -116
q-144 128 -340 128q-122 0 -201.5 -53.5t-79.5 -154.5q0 -91 76 -146t279 -115q73 -21 127.5 -42.5t111 -56.5t92.5 -78t58.5 -106.5t22.5 -141.5zM614 -144q46 0 78.5 -32t32.5 -78q0 -45 -31 -113l-102 -219h-105l60 240q-44 36 -44 92q0 46 32 78t79 32z" />
    <glyph glyph-name="uni0219" unicode="&#x219;" 
d="M572 119q124 0 196.5 46.5t72.5 124.5q0 53 -17 85.5t-74.5 63t-169.5 58.5q-73 18 -125 35.5t-100.5 43.5t-78 57t-47 75t-17.5 99q0 135 112.5 214.5t297.5 79.5q231 0 391 -119l-76 -117q-143 97 -313 97q-234 0 -234 -142q0 -70 58.5 -106.5t228.5 -82.5
q86 -23 145 -48t108 -63.5t73 -93t24 -128.5q0 -67 -25.5 -121.5t-68.5 -91.5t-101.5 -62t-123.5 -36t-136 -11q-253 0 -421 146l98 114q138 -117 323 -117zM614 -144q46 0 78.5 -32t32.5 -78q0 -45 -31 -113l-102 -219h-105l60 240q-44 36 -44 92q0 46 32 78t79 32z" />
    <glyph glyph-name="uni021A" unicode="&#x21a;" 
d="M699 1257v-1257h-177v1257h-440v153h1064l-19 -153h-428zM620 -144q46 0 78 -32t32 -78q0 -45 -31 -113l-102 -219h-104l59 240q-44 36 -44 92q0 46 32.5 78t79.5 32z" />
    <glyph glyph-name="uni021B" unicode="&#x21b;" 
d="M1062 54q-55 -36 -134 -57t-155 -21q-170 0 -266 90t-96 236v643h-248v133h248v245l172 20v-265h372l-20 -133h-352v-641q0 -92 48.5 -138t156.5 -46q112 0 207 51zM768 -144q46 0 78.5 -32t32.5 -78q0 -45 -31 -113l-103 -219h-104l59 240q-44 36 -44 92q0 46 32.5 78
t79.5 32z" />
    <glyph glyph-name="uni0237" unicode="&#x237;" 
d="M911 1078v-905q0 -261 -174 -405.5t-513 -201.5l-28 133q126 21 220.5 54.5t169.5 87.5t114 134.5t39 186.5v780h-448v136h620z" />
    <glyph glyph-name="uni02B9" unicode="&#x2b9;" 
d="M431 878l174 532h193l-235 -532h-132z" />
    <glyph glyph-name="uni02BA" unicode="&#x2ba;" 
d="M283 878l175 532h191l-234 -532h-132zM580 878l175 532h191l-234 -532h-132z" />
    <glyph glyph-name="uni02BC" unicode="&#x2bc;" 
d="M601 1534q46 0 78.5 -32t32.5 -78q0 -26 -10.5 -57t-42.5 -100l-85 -181h-102l62 246q-48 44 -48 92q0 47 34 78.5t81 31.5z" />
    <glyph glyph-name="circumflex" unicode="&#x2c6;" 
d="M362 1288l-81 85l277 244h116l275 -244l-78 -85l-255 186z" />
    <glyph glyph-name="caron" unicode="&#x2c7;" 
d="M871 1617l78 -86l-275 -243h-116l-277 243l81 86l254 -186z" />
    <glyph glyph-name="uni02C9" unicode="&#x2c9;" 
d="M889 1400h-551v131h551v-131z" />
    <glyph glyph-name="breve" unicode="&#x2d8;" 
d="M609 1290q-66 0 -122 25.5t-92.5 67t-58.5 89t-28 96.5l119 26q49 -172 182 -172q72 0 120 46t71 126l119 -26q-14 -106 -96.5 -192t-213.5 -86z" />
    <glyph glyph-name="dotaccent" unicode="&#x2d9;" 
d="M612 1583q56 0 91 -34t35 -86q0 -53 -35 -88t-91 -35q-55 0 -89.5 35t-34.5 88q0 52 34.5 86t89.5 34z" />
    <glyph glyph-name="ring" unicode="&#x2da;" 
d="M614 1687q98 0 163 -60.5t65 -150.5q0 -88 -65 -148t-163 -60t-162.5 60t-64.5 148q0 90 64.5 150.5t162.5 60.5zM614 1592q-50 0 -80 -31t-30 -85t30 -85t80 -31q52 0 81.5 31t29.5 85t-29.5 85t-81.5 31z" />
    <glyph glyph-name="ogonek" unicode="&#x2db;" 
d="M796 62l26 -62q-148 -65 -201 -119t-53 -115q0 -99 115 -99q51 0 127 15l-18 -138q-72 -14 -129 -14q-114 0 -182 57t-68 145q0 109 92.5 190.5t290.5 139.5z" />
    <glyph glyph-name="tilde" unicode="&#x2dc;" 
d="M734 1349q-37 0 -72.5 15.5t-59 34t-52.5 34t-54 15.5q-33 0 -58 -23t-51 -72l-109 55q84 172 219 172q38 0 73.5 -15.5t58.5 -33.5t51.5 -33.5t53.5 -15.5q29 0 55 21.5t54 68.5l108 -55q-78 -168 -217 -168z" />
    <glyph glyph-name="hungarumlaut" unicode="&#x2dd;" 
d="M282 1356l158 355l153 -72l-199 -335zM617 1356l181 355l149 -79l-221 -334z" />
    <glyph glyph-name="gravecomb" unicode="&#x300;" horiz-adv-x="0" 
d="M450 1632l403 -229l-54 -92l-428 174z" />
    <glyph glyph-name="acutecomb" unicode="&#x301;" horiz-adv-x="0" 
d="M785 1632l80 -147l-428 -174l-53 92z" />
    <glyph glyph-name="uni0302" unicode="&#x302;" horiz-adv-x="0" 
d="M673 1533l275 -220l-75 -87l-259 164l-257 -164l-77 87l277 220h116z" />
    <glyph glyph-name="tildecomb" unicode="&#x303;" horiz-adv-x="0" 
d="M736 1349q-36 0 -72 15.5t-59.5 34t-52.5 34t-54 15.5q-33 0 -58 -23t-51 -72l-108 55q82 172 218 172q49 0 91.5 -24.5t78.5 -49t67 -24.5q30 0 55.5 21.5t54.5 68.5l107 -55q-78 -168 -217 -168z" />
    <glyph glyph-name="uni0304" unicode="&#x304;" horiz-adv-x="0" 
d="M891 1275h-551v131h551v-131z" />
    <glyph glyph-name="uni0305" unicode="&#x305;" horiz-adv-x="0" 
d="M1055 1275h-879v131h879v-131z" />
    <glyph glyph-name="uni0306" unicode="&#x306;" horiz-adv-x="0" 
d="M609 1199q-119 0 -204 68t-97 177l119 25q48 -137 182 -137q72 0 121 36.5t72 100.5l119 -25q-12 -109 -100.5 -177t-211.5 -68z" />
    <glyph glyph-name="uni0307" unicode="&#x307;" horiz-adv-x="0" 
d="M614 1474q56 0 91 -34.5t35 -85.5q0 -54 -35 -89t-91 -35q-55 0 -89.5 35t-34.5 89q0 51 34.5 85.5t89.5 34.5z" />
    <glyph glyph-name="uni0308" unicode="&#x308;" horiz-adv-x="0" 
d="M402 1328q-49 0 -80.5 31t-31.5 78q0 48 31.5 79t80.5 31q46 0 78.5 -31.5t32.5 -78.5q0 -46 -32.5 -77.5t-78.5 -31.5zM824 1328q-47 0 -78.5 31.5t-31.5 77.5q0 47 31.5 78.5t78.5 31.5q49 0 81 -31.5t32 -78.5t-32 -78t-81 -31z" />
    <glyph glyph-name="uni030A" unicode="&#x30a;" horiz-adv-x="0" 
d="M614 1576q98 0 163 -60.5t65 -150.5q0 -87 -65 -147.5t-163 -60.5t-162.5 60.5t-64.5 147.5q0 90 64.5 150.5t162.5 60.5zM614 1483q-50 0 -80 -31.5t-30 -86.5q0 -53 30 -84.5t80 -31.5q52 0 81.5 31.5t29.5 84.5q0 55 -29.5 86.5t-81.5 31.5z" />
    <glyph glyph-name="uni030B" unicode="&#x30b;" horiz-adv-x="0" 
d="M282 1246l158 356l152 -73l-199 -336zM616 1245l181 357l150 -79l-222 -334z" />
    <glyph glyph-name="uni030C" unicode="&#x30c;" horiz-adv-x="0" 
d="M873 1498l75 -88l-275 -219h-116l-277 219l77 88l257 -166z" />
    <glyph glyph-name="uni030F" unicode="&#x30f;" horiz-adv-x="0" 
d="M947 1356l-112 -52l-199 335l152 72zM611 1356l-108 -58l-221 334l149 79z" />
    <glyph glyph-name="uni0313" unicode="&#x313;" horiz-adv-x="0" 
d="M650 1563q47 0 79.5 -32t32.5 -78q0 -45 -31 -113l-102 -219h-105l60 241q-44 33 -44 91q0 47 32 78.5t78 31.5z" />
    <glyph glyph-name="uni0314" unicode="&#x314;" horiz-adv-x="0" 
d="M608 1145q-46 0 -78 31.5t-32 77.5q0 48 30 113l103 219h104l-59 -240q44 -33 44 -92q0 -46 -32.5 -77.5t-79.5 -31.5z" />
    <glyph glyph-name="uni0326" unicode="&#x326;" horiz-adv-x="0" 
d="M622 -144q46 0 78 -32t32 -78q0 -45 -31 -113l-102 -219h-104l59 240q-44 36 -44 92q0 46 32.5 78t79.5 32z" />
    <glyph glyph-name="uni0327" unicode="&#x327;" horiz-adv-x="0" 
d="M699 -310q0 51 -43.5 69t-133.5 18l18 232h117v-148q95 -8 143 -56.5t48 -114.5q0 -96 -72.5 -149t-178.5 -53q-129 0 -213 50l55 100q61 -32 139 -32q121 0 121 84z" />
    <glyph glyph-name="strokeshortoverlay" unicode="&#x335;" 
d="M965 568h-704v138h704v-138z" />
    <glyph glyph-name="strokelongoverlay" unicode="&#x336;" 
d="M1283 568h-1334v138h1334v-138z" />
    <glyph glyph-name="uni0342" unicode="&#x342;" horiz-adv-x="0" 
d="M734 1349q-37 0 -72.5 15.5t-59 34t-52.5 34t-54 15.5q-33 0 -58 -23t-51 -72l-109 55q84 172 219 172q38 0 73.5 -15.5t58.5 -33.5t51.5 -33.5t53.5 -15.5q29 0 55 21.5t54 68.5l108 -55q-78 -168 -217 -168z" />
    <glyph glyph-name="uni0345" unicode="&#x345;" horiz-adv-x="0" 
d="M628 -386q-105 0 -165 57t-60 153v97h154v-94q0 -86 87 -86q59 0 115 35l68 -90q-95 -72 -199 -72z" />
    <glyph glyph-name="uni0370" unicode="&#x370;" 
d="M995 669h-584v-669h-178v1410h178v-595h584v-146z" />
    <glyph glyph-name="uni0371" unicode="&#x371;" 
d="M380 1103q70 -148 70 -410v-63h621v-150h-621v-480h-172v725q0 182 -54 355z" />
    <glyph glyph-name="uni0372" unicode="&#x372;" 
d="M527 0v1254h-297v-389h-156v545h1083v-543h-157v387h-295v-1254h-178z" />
    <glyph glyph-name="uni0373" unicode="&#x373;" 
d="M70 910l-32 139q52 18 93.5 23.5t123.5 5.5h908v-143l-462 -1v-1347l-172 -21v1368l-280 -1q-58 0 -90 -4t-89 -19z" />
    <glyph glyph-name="uni0374" unicode="&#x374;" 
d="M431 878l174 532h193l-235 -532h-132z" />
    <glyph glyph-name="uni0375" unicode="&#x375;" 
d="M798 260l-175 -532h-192l235 532h132z" />
    <glyph glyph-name="uni0376" unicode="&#x376;" 
d="M171 0v1410h176v-713q0 -292 -30 -540l512 1253h229v-1410h-176v714q0 270 30 528l-510 -1242h-231z" />
    <glyph glyph-name="uni0377" unicode="&#x377;" 
d="M196 0v1078h171v-504q0 -211 -21 -371l460 875h203v-798q0 -79 20.5 -114.5t73.5 -59.5l-60 -130q-118 32 -166.5 107t-48.5 212q0 164 38 578l-462 -873h-208z" />
    <glyph glyph-name="uni037A" unicode="&#x37a;" 
d="M628 -386q-105 0 -165 57t-60 153v97h154v-94q0 -86 87 -86q59 0 115 35l68 -90q-95 -72 -199 -72z" />
    <glyph glyph-name="reversedlunatesigmasymbol" unicode="&#x37b;" 
d="M538 -24q-198 0 -351 117l79 111q75 -43 130 -61t135 -18q154 0 240 100.5t86 309.5q0 422 -305 422q-88 0 -150.5 -18.5t-130.5 -60.5l-84 109q90 62 173 88t189 26q231 0 362.5 -154t131.5 -418q0 -259 -136.5 -406t-368.5 -147z" />
    <glyph glyph-name="dottedlunatesigmasymbol" unicode="&#x37c;" 
d="M693 125q144 0 281 94l84 -113q-70 -60 -169.5 -95t-195.5 -35q-239 0 -372.5 151t-133.5 408q0 163 58.5 290t175 201.5t274.5 74.5q207 0 361 -125l-84 -115q-140 96 -279 96q-145 0 -232 -107.5t-87 -314.5t86.5 -308.5t232.5 -101.5zM715 672q57 0 92.5 -34.5
t35.5 -87.5q0 -54 -35.5 -89.5t-92.5 -35.5q-56 0 -91 35.5t-35 89.5q0 52 35 87t91 35z" />
    <glyph glyph-name="reverseddottedlunatesigmasymbol" unicode="&#x37d;" 
d="M538 -24q-198 0 -351 117l79 111q75 -43 130 -61t135 -18q154 0 240 100.5t86 309.5q0 422 -305 422q-88 0 -150.5 -18.5t-130.5 -60.5l-84 109q90 62 173 88t189 26q231 0 362.5 -154t131.5 -418q0 -259 -136.5 -406t-368.5 -147zM510 672q58 0 93.5 -34.5t35.5 -87.5
q0 -54 -35.5 -89.5t-93.5 -35.5q-55 0 -90 35.5t-35 89.5q0 52 35 87t90 35z" />
    <glyph glyph-name="uni037E" unicode="&#x37e;" 
d="M630 1047q71 0 119 -48t48 -117t-48 -118t-119 -49q-69 0 -117 49t-48 118t47.5 117t117.5 48zM630 339q71 0 119 -48t48 -116q0 -77 -41 -163l-166 -381h-156l98 407q-31 22 -49 58.5t-18 77.5q0 69 48 117t117 48z" />
    <glyph glyph-name="Yotgreek" unicode="&#x37f;" 
d="M1017 1410v-942q0 -75 -14 -142.5t-48.5 -132.5t-88 -112t-138 -76t-192.5 -29q-217 0 -388 128l79 118q152 -97 307 -97q146 0 226 93.5t80 259.5v787h-418v145h595z" />
    <glyph glyph-name="tonos" unicode="&#x384;" 
d="M562 1654l182 -33l-134 -400l-124 21z" />
    <glyph glyph-name="dieresistonos" unicode="&#x385;" 
d="M609 1871l185 -37l-123 -344l-121 20zM407 1506q46 0 78 -32.5t32 -78.5q0 -47 -32 -79.5t-78 -32.5q-49 0 -81.5 32.5t-32.5 79.5t32.5 79t81.5 32zM820 1506q49 0 81.5 -32t32.5 -79t-32.5 -79.5t-81.5 -32.5q-46 0 -78 32.5t-32 79.5q0 46 32 78.5t78 32.5z" />
    <glyph glyph-name="Alphatonos" unicode="&#x386;" 
d="M182 1444l204 -34l-146 -401l-134 21zM888 359h-558l-113 -359h-175l459 1410h227l459 -1410h-187zM376 507h466l-232 754z" />
    <glyph glyph-name="anoteleia" unicode="&#x387;" 
d="M436 700q0 75 51.5 127t126.5 52q77 0 130 -52t53 -127q0 -76 -53 -129t-130 -53q-75 0 -126.5 53t-51.5 129z" />
    <glyph glyph-name="Epsilontonos" unicode="&#x388;" 
d="M13 1444l204 -34l-146 -401l-133 21zM435 1265v-475h522v-147h-522v-501h641v-142h-819v1410h801l-21 -145h-602z" />
    <glyph glyph-name="Etatonos" unicode="&#x389;" 
d="M-73 1444l205 -34l-146 -401l-134 21zM881 0v669h-533v-669h-177v1410h177v-596h533v596h177v-1410h-177z" />
    <glyph glyph-name="Iotatonos" unicode="&#x38a;" 
d="M-33 1444l205 -34l-146 -401l-135 21zM1018 1410v-142h-313v-1126h313v-142h-807v142h313v1126h-313v142h807z" />
    <glyph glyph-name="Omicrontonos" unicode="&#x38c;" 
d="M-8 1444l205 -34l-147 -401l-133 21zM1134 703q0 -217 -57.5 -379t-176 -255t-286.5 -93t-286 91t-175.5 252.5t-57.5 381.5q0 217 57.5 380t176 257.5t285.5 94.5q251 0 385.5 -197.5t134.5 -532.5zM947 703q0 290 -79.5 435.5t-253.5 145.5t-253 -146.5t-79 -436.5
q0 -287 80.5 -431t251.5 -144q175 0 254 144t79 433z" />
    <glyph glyph-name="Upsilontonos" unicode="&#x38e;" 
d="M-175 1444l205 -34l-147 -401l-134 21zM705 544v-544h-181v542l-476 868h197l373 -707l378 707h185z" />
    <glyph glyph-name="Omegatonos" unicode="&#x38f;" 
d="M-9 1444l205 -34l-147 -401l-133 21zM614 1284q-168 0 -250 -134t-82 -435q0 -238 66.5 -378t197.5 -205v-132h-428v143h244q-267 137 -267 572q0 341 139.5 529.5t379.5 188.5t380 -188.5t140 -529.5q0 -425 -270 -572h247v-143h-426v132q131 65 196.5 204.5t65.5 378.5
q0 300 -83 434.5t-250 134.5z" />
    <glyph glyph-name="iotadieresistonos" unicode="&#x390;" 
d="M579 1871l183 -37l-123 -344l-120 20zM375 1506q46 0 78 -32.5t32 -78.5q0 -47 -32 -79.5t-78 -32.5q-48 0 -81 32.5t-33 79.5t32.5 79t81.5 32zM788 1506q49 0 81.5 -32t32.5 -79t-32.5 -79.5t-81.5 -32.5q-46 0 -78 32.5t-32 79.5q0 46 32 78.5t78 32.5zM493 933h-365
l20 145h517v-812q0 -146 178 -146q88 0 180 38l46 -126q-39 -22 -112.5 -39t-143.5 -17q-147 0 -233.5 82.5t-86.5 227.5v647z" />
    <glyph glyph-name="Alpha" unicode="&#x391;" 
d="M888 359h-558l-113 -359h-175l459 1410h227l459 -1410h-187zM376 507h466l-232 754z" />
    <glyph glyph-name="Beta" unicode="&#x392;" 
d="M1105 402q0 -89 -30.5 -159.5t-80.5 -115t-119.5 -74t-142.5 -41.5t-155 -12h-379v1410h347q78 0 147 -10t134.5 -35.5t112.5 -65t75.5 -102t28.5 -142.5q0 -127 -75 -205t-187 -104q324 -56 324 -344zM861 1046q0 221 -276 221h-210v-457h227q128 0 193.5 57t65.5 179z
M918 396q0 77 -23.5 131t-67 83t-95 41.5t-117.5 12.5h-240v-518h232q46 0 86 5.5t82.5 22.5t73 43.5t50 72.5t19.5 106z" />
    <glyph glyph-name="Gamma" unicode="&#x393;" 
d="M1115 1410l-18 -156h-641v-1254h-177v1410h836z" />
    <glyph glyph-name="uni0394" unicode="&#x394;" 
d="M728 1410l459 -1410h-1145l459 1410h227zM610 1255l-345 -1109h689z" />
    <glyph glyph-name="Epsilon" unicode="&#x395;" 
d="M435 1265v-475h522v-147h-522v-501h641v-142h-819v1410h801l-21 -145h-602z" />
    <glyph glyph-name="Zeta" unicode="&#x396;" 
d="M342 154h738l-21 -154h-913v144l746 1114h-672v152h862v-145z" />
    <glyph glyph-name="Eta" unicode="&#x397;" 
d="M881 0v669h-533v-669h-177v1410h177v-596h533v596h177v-1410h-177z" />
    <glyph glyph-name="Theta" unicode="&#x398;" 
d="M1134 703q0 -217 -57.5 -379t-176 -255t-286.5 -93t-286 91t-175.5 252.5t-57.5 381.5q0 217 57.5 380t176 257.5t285.5 94.5q251 0 385.5 -197.5t134.5 -532.5zM946 703q0 289 -79 435t-253 146t-252.5 -146.5t-78.5 -436.5q0 -286 80.5 -430.5t250.5 -144.5
q174 0 253 144t79 433zM823 647h-420v148h420v-148z" />
    <glyph glyph-name="Iota" unicode="&#x399;" 
d="M1018 1410v-142h-313v-1126h313v-142h-807v142h313v1126h-313v142h807z" />
    <glyph glyph-name="Kappa" unicode="&#x39a;" 
d="M392 0h-177v1410h177v-1410zM402 753l555 657h205l-551 -646l590 -764h-221z" />
    <glyph glyph-name="Lambda" unicode="&#x39b;" 
d="M728 1410l449 -1410h-187l-380 1245l-383 -1245h-177l451 1410h227z" />
    <glyph glyph-name="Mu" unicode="&#x39c;" 
d="M1086 1410l80 -1410h-171l-44 736q-14 254 -11 511l-238 -994h-178l-255 994q10 -253 -2 -509l-38 -738h-167l80 1410h248l228 -966l219 966h249z" />
    <glyph glyph-name="Nu" unicode="&#x39d;" 
d="M809 0l-497 1240q0 -15 6.5 -109t12 -211t5.5 -213v-707h-165v1410h241l504 -1245q0 11 -6.5 100.5t-11.5 208t-5 231.5v705h165v-1410h-249z" />
    <glyph glyph-name="Xi" unicode="&#x39e;" 
d="M1052 1410l-26 -163h-869v163h895zM949 798v-165h-690v165h690zM1072 167v-167h-915v167h915z" />
    <glyph glyph-name="Omicron" unicode="&#x39f;" 
d="M1134 703q0 -217 -57.5 -379t-176 -255t-286.5 -93t-286 91t-175.5 252.5t-57.5 381.5q0 217 57.5 380t176 257.5t285.5 94.5q251 0 385.5 -197.5t134.5 -532.5zM947 703q0 290 -79.5 435.5t-253.5 145.5t-253 -146.5t-79 -436.5q0 -287 80.5 -431t251.5 -144
q175 0 254 144t79 433z" />
    <glyph glyph-name="Pi" unicode="&#x3a0;" 
d="M881 0v1255h-533v-1255h-177v1410h887v-1410h-177z" />
    <glyph glyph-name="Rho" unicode="&#x3a1;" 
d="M1141 977q0 -121 -40 -210t-114.5 -141.5t-171.5 -77.5t-220 -25h-180v-523h-178v1410h360q259 0 401.5 -108t142.5 -325zM950 975q0 294 -332 294h-203v-602h196q78 0 136.5 14.5t106 48.5t72 95.5t24.5 149.5z" />
    <glyph glyph-name="Sigma" unicode="&#x3a3;" 
d="M827 646l-470 -498h722v-148h-929v150l521 556l-521 552v152h929v-149h-724l472 -489v-126z" />
    <glyph glyph-name="Tau" unicode="&#x3a4;" 
d="M699 1257v-1257h-177v1257h-440v153h1064l-19 -153h-428z" />
    <glyph glyph-name="Upsilon" unicode="&#x3a5;" 
d="M705 544v-544h-181v542l-476 868h197l373 -707l378 707h185z" />
    <glyph glyph-name="Phi" unicode="&#x3a6;" 
d="M701 1410v-162q256 -12 381 -147t125 -391q0 -261 -130 -398.5t-376 -145.5v-166h-174v166q-246 8 -375.5 145.5t-129.5 398.5q0 515 505 538v162h174zM529 1116q-171 -3 -249 -94t-78 -312q0 -210 77 -306.5t250 -105.5v818zM699 1116v-818q172 9 250 106t78 306
q0 151 -37.5 240.5t-107.5 127t-183 38.5z" />
    <glyph glyph-name="Chi" unicode="&#x3a7;" 
d="M101 1410h204l309 -542l311 542h192l-400 -649l448 -761h-203l-352 637l-355 -637h-192l443 752z" />
    <glyph glyph-name="Psi" unicode="&#x3a8;" 
d="M524 0v393q-248 20 -372 150.5t-124 336.5v530h180v-520q0 -159 72.5 -244t245.5 -102v866h179v-864q169 16 242.5 101t73.5 243v520h180v-530q0 -205 -124.5 -334.5t-369.5 -150.5v-395h-183z" />
    <glyph glyph-name="uni03A9" unicode="&#x3a9;" 
d="M614 1284q-168 0 -250 -134t-82 -435q0 -238 66.5 -378t197.5 -205v-132h-428v143h244q-267 137 -267 572q0 341 139.5 529.5t379.5 188.5t380 -188.5t140 -529.5q0 -425 -270 -572h247v-143h-426v132q131 65 196.5 204.5t65.5 378.5q0 300 -83 434.5t-250 134.5z" />
    <glyph glyph-name="Iotadieresis" unicode="&#x3aa;" 
d="M402 1573q-49 0 -80.5 30.5t-31.5 77.5q0 49 31.5 80t80.5 31q46 0 78.5 -31.5t32.5 -79.5q0 -46 -32.5 -77t-78.5 -31zM824 1573q-47 0 -78.5 31t-31.5 77q0 48 31.5 79.5t78.5 31.5q49 0 81 -31t32 -80q0 -47 -32 -77.5t-81 -30.5zM1018 1410v-142h-313v-1126h313v-142
h-807v142h313v1126h-313v142h807z" />
    <glyph glyph-name="Upsilondieresis" unicode="&#x3ab;" 
d="M410 1573q-49 0 -81 30.5t-32 77.5q0 49 31.5 80t81.5 31q46 0 78 -31.5t32 -79.5q0 -46 -32 -77t-78 -31zM831 1573q-47 0 -78.5 31t-31.5 77q0 48 31.5 79.5t78.5 31.5q49 0 81 -31t32 -80q0 -47 -32 -77.5t-81 -30.5zM705 544v-544h-181v542l-476 868h197l373 -707
l378 707h185z" />
    <glyph glyph-name="alphatonos" unicode="&#x3ac;" 
d="M581 1654l182 -33l-134 -400l-124 21zM522 1101q142 0 224 -76.5t115 -261.5l57 315h157l-105 -574l53 -280q8 -42 29 -65.5t62 -38.5l-60 -146q-163 26 -189 195l-18 116q-102 -309 -336 -309q-187 0 -289 139.5t-102 413.5q0 169 44 296.5t136 201.5t222 74zM536 963
q-111 0 -171 -112t-60 -322q0 -413 222 -413q33 0 62 9.5t63 38t62 74.5t55.5 125t47.5 184q-21 122 -48 204t-63 128t-76.5 65t-93.5 19z" />
    <glyph glyph-name="epsilontonos" unicode="&#x3ad;" 
d="M663 1654l182 -33l-135 -400l-124 21zM801 494h-185q-136 0 -197.5 -42.5t-61.5 -133.5t77 -145t212 -54q213 0 379 118l93 -115q-83 -65 -208 -105.5t-274 -40.5q-205 0 -335.5 89t-130.5 247q0 120 68 183.5t202 82.5q-111 24 -168.5 85.5t-57.5 150.5q0 137 122.5 212
t310.5 75q111 0 221.5 -27.5t189.5 -82.5l-87 -107q-131 80 -317 80q-262 0 -262 -168q0 -74 64 -118t172 -44h194z" />
    <glyph glyph-name="etatonos" unicode="&#x3ae;" 
d="M627 1654l182 -33l-135 -400l-124 21zM721 1101q154 0 228.5 -82.5t74.5 -235.5v-1196l-172 -21v1090q0 73 -3.5 117.5t-14 85.5t-31 62t-54.5 33t-84 12q-84 0 -162 -54t-127 -127v-785h-172v725q0 172 -54 355l160 23q15 -27 30 -84t19 -97q67 86 165 132.5t197 46.5z
" />
    <glyph glyph-name="iotatonos" unicode="&#x3af;" 
d="M598 1654l182 -33l-135 -400l-124 21zM493 933h-365l20 145h517v-812q0 -146 178 -146q88 0 180 38l46 -126q-39 -22 -112.5 -39t-143.5 -17q-147 0 -233.5 82.5t-86.5 227.5v647z" />
    <glyph glyph-name="upsilondieresistonos" unicode="&#x3b0;" 
d="M609 1871l185 -37l-123 -344l-121 20zM407 1506q46 0 78 -32.5t32 -78.5q0 -47 -32 -79.5t-78 -32.5q-49 0 -81.5 32.5t-32.5 79.5t32.5 79t81.5 32zM820 1506q49 0 81.5 -32t32.5 -79t-32.5 -79.5t-81.5 -32.5q-46 0 -78 32.5t-32 79.5q0 46 32 78.5t78 32.5zM1023 1078
q53 -289 53 -556q0 -111 -27 -203t-73.5 -155t-109.5 -106t-132.5 -62.5t-144.5 -19.5q-171 0 -274.5 91t-103.5 263v748h172v-733q0 -113 55 -170t157 -57q58 0 109 20t97 65t73 131t27 204q0 264 -52 540h174z" />
    <glyph glyph-name="alpha" unicode="&#x3b1;" 
d="M522 1101q142 0 224 -76.5t115 -261.5l57 315h157l-105 -574l53 -280q8 -42 29 -65.5t62 -38.5l-60 -146q-163 26 -189 195l-18 116q-102 -309 -336 -309q-187 0 -289 139.5t-102 413.5q0 169 44 296.5t136 201.5t222 74zM536 963q-111 0 -171 -112t-60 -322
q0 -413 222 -413q33 0 62 9.5t63 38t62 74.5t55.5 125t47.5 184q-21 122 -48 204t-63 128t-76.5 65t-93.5 19z" />
    <glyph glyph-name="beta" unicode="&#x3b2;" 
d="M597 1533q112 0 205 -42.5t150 -126.5t57 -194q0 -152 -86.5 -238.5t-222.5 -105.5q420 -43 420 -411q0 -130 -64.5 -232t-167 -154t-222.5 -52q-173 0 -308 107v-496l-172 -23v1541q0 200 109.5 313.5t301.5 113.5zM358 1104v-881q104 -105 291 -105q128 0 212 78
t84 218q0 165 -94.5 250.5t-273.5 85.5h-112l20 132h108q114 0 185 67.5t71 204.5q0 121 -68.5 181.5t-180.5 60.5q-242 0 -242 -292z" />
    <glyph glyph-name="gamma" unicode="&#x3b3;" 
d="M966 1103l175 -39l-444 -1029q-44 -102 -50 -205.5t26 -242.5l-138 -22q-50 98 -52.5 228.5t42.5 246.5q-72 305 -195 594.5t-242 402.5l175 63q106 -126 203 -360.5t158 -519.5z" />
    <glyph glyph-name="delta" unicode="&#x3b4;" 
d="M651 1534q104 0 184 -30.5t154 -91.5l-87 -102q-66 52 -126.5 71.5t-135.5 19.5q-90 0 -142.5 -38t-52.5 -105q0 -29 9.5 -51t24 -38.5t49 -35.5t66.5 -33t95 -40q147 -60 233.5 -128.5t133.5 -174t47 -258.5q0 -139 -56 -257t-167.5 -192t-257.5 -74q-148 0 -259.5 71.5
t-168 189t-56.5 261.5q0 177 91.5 304t236.5 184q-108 56 -153.5 117.5t-45.5 146.5q0 133 107.5 208.5t276.5 75.5zM595 930q-143 -65 -206 -170t-63 -263q0 -177 78.5 -278t217.5 -101q140 0 217 98t77 283q0 123 -30.5 199t-96.5 127.5t-194 104.5z" />
    <glyph glyph-name="epsilon" unicode="&#x3b5;" 
d="M801 494h-185q-136 0 -197.5 -42.5t-61.5 -133.5t77 -145t212 -54q213 0 379 118l93 -115q-83 -65 -208 -105.5t-274 -40.5q-205 0 -335.5 89t-130.5 247q0 120 68 183.5t202 82.5q-111 24 -168.5 85.5t-57.5 150.5q0 137 122.5 212t310.5 75q111 0 221.5 -27.5
t189.5 -82.5l-87 -107q-131 80 -317 80q-262 0 -262 -168q0 -74 64 -118t172 -44h194z" />
    <glyph glyph-name="zeta" unicode="&#x3b6;" 
d="M1062 1512l24 -116q-121 -104 -203.5 -179t-164.5 -156.5t-133 -145.5t-92 -132t-59 -132t-18 -130q0 -75 17 -126.5t59 -90t97 -64.5t147 -57q55 -18 86 -28.5t72 -27t63.5 -30.5t48 -34t37.5 -41.5t20.5 -50t8.5 -62.5q0 -115 -79 -204t-243 -161l-71 123
q103 52 154.5 101.5t51.5 121.5q0 54 -44.5 81.5t-186.5 76.5q-115 39 -188 76t-131 91t-83.5 127t-25.5 174q0 207 162 408t531 474q-65 -27 -299 -27h-308l22 141h728z" />
    <glyph glyph-name="eta" unicode="&#x3b7;" 
d="M721 1101q154 0 228.5 -82.5t74.5 -235.5v-1196l-172 -21v1090q0 73 -3.5 117.5t-14 85.5t-31 62t-54.5 33t-84 12q-84 0 -162 -54t-127 -127v-785h-172v725q0 172 -54 355l160 23q15 -27 30 -84t19 -97q67 86 165 132.5t197 46.5z" />
    <glyph glyph-name="theta" unicode="&#x3b8;" 
d="M616 1534q225 0 343.5 -202.5t118.5 -569.5q0 -238 -52.5 -414t-158 -274t-253.5 -98q-225 0 -344 208t-119 576q0 361 120 567.5t345 206.5zM616 1390q-141 0 -210 -133.5t-75 -426.5h567q-6 293 -74 426.5t-208 133.5zM896 693h-565q7 -300 76 -437.5t207 -137.5
t206.5 137.5t75.5 437.5z" />
    <glyph glyph-name="iota" unicode="&#x3b9;" 
d="M493 933h-365l20 145h517v-812q0 -146 178 -146q88 0 180 38l46 -126q-39 -22 -112.5 -39t-143.5 -17q-147 0 -233.5 82.5t-86.5 227.5v647z" />
    <glyph glyph-name="kappa" unicode="&#x3ba;" 
d="M935 1102l145 -101l-460 -418l301 -318q67 -69 116 -101t111 -46l-59 -142q-83 11 -144.5 50t-129.5 112l-405 441zM347 1078q54 -151 54 -413v-665h-172v697q0 187 -52 381h170z" />
    <glyph glyph-name="lambda" unicode="&#x3bb;" 
d="M497 1078h69q-45 152 -121.5 225.5t-238.5 98.5l28 137q235 -35 351 -150.5t176 -367.5q98 -405 182.5 -634t200.5 -345l-177 -66q-221 275 -358 969l-344 -971l-166 37z" />
    <glyph glyph-name="uni03BC" unicode="&#x3bc;" 
d="M990 1078v-735q0 -167 58 -343l-163 -24q-16 25 -30 78.5t-19 95.5q-49 -79 -128.5 -126.5t-160.5 -47.5t-126.5 22.5t-85.5 80.5q18 -131 18 -178v-314l-172 -21v1512h172v-604q0 -72 3 -119.5t13.5 -94.5t30.5 -73.5t53.5 -42.5t81.5 -16q167 0 283 164v786h172z" />
    <glyph glyph-name="nu" unicode="&#x3bd;" 
d="M484 0q-50 214 -110 408t-144 374.5t-165 252.5l174 64q208 -239 364 -946l344 948l173 -39l-425 -1062h-211z" />
    <glyph glyph-name="xi" unicode="&#x3be;" 
d="M730 1534q232 0 399 -120l-83 -103q-141 90 -314 90q-131 0 -202.5 -53.5t-71.5 -154.5q0 -102 65 -157t180 -55h248l-20 -156h-246q-134 0 -215.5 -79.5t-81.5 -195.5q0 -55 9 -96t32 -74.5t50 -56.5t77 -46.5t97 -40t125 -40.5q99 -31 157 -55.5t103 -58t63 -74.5
t18 -99q0 -114 -79 -203t-242 -162l-72 123q104 49 155.5 103t51.5 126q0 52 -37 78.5t-156 63.5q-75 24 -127.5 43t-113 46t-101 54t-80.5 64.5t-63.5 80t-38 98t-14.5 120.5q0 70 22 129.5t56 98.5t78.5 69t85.5 45.5t82 22.5q-53 19 -92.5 41t-76.5 55t-57 79t-20 104
q0 158 129.5 252t320.5 94z" />
    <glyph glyph-name="omicron" unicode="&#x3bf;" 
d="M616 1101q224 0 343 -149.5t119 -411.5q0 -254 -121.5 -409t-342.5 -155q-224 0 -343.5 151t-119.5 411q0 256 121 409.5t344 153.5zM616 961q-281 0 -281 -423q0 -420 279 -420q280 0 280 422q0 421 -278 421z" />
    <glyph glyph-name="pi" unicode="&#x3c0;" 
d="M1143 1078v-143h-171v-655q0 -81 22 -115.5t79 -46.5l-62 -142q-117 30 -164.5 94t-47.5 189v676h-392v-935h-174v935q-69 -1 -100 -5.5t-81 -19.5l-39 132q43 21 95.5 28.5t171.5 7.5h863z" />
    <glyph glyph-name="rho" unicode="&#x3c1;" 
d="M628 1101q446 0 446 -561q0 -115 -26.5 -215.5t-77 -179t-132.5 -124t-186 -45.5q-177 0 -288 124v-513l-173 -21v988q0 268 111.5 407.5t325.5 139.5zM624 965q-140 0 -200 -110t-60 -329v-271q43 -65 108 -100t141 -35q133 0 203.5 108.5t70.5 312.5q0 214 -64.5 319
t-198.5 105z" />
    <glyph glyph-name="uni03C2" unicode="&#x3c2;" 
d="M713 1101q114 0 196.5 -25.5t170.5 -88.5l-87 -115q-69 46 -128 65.5t-146 19.5q-139 0 -233 -105.5t-94 -295.5q0 -79 12.5 -128.5t51.5 -90.5t97 -70t163 -67q88 -33 139.5 -57t99 -58.5t68 -78t20.5 -102.5q0 -111 -75.5 -190t-241.5 -151l-76 123q102 40 154 84.5
t52 115.5q0 60 -44.5 90t-210.5 90q-102 37 -171.5 78t-121.5 98.5t-76 134.5t-24 179q0 254 141 399.5t364 145.5z" />
    <glyph glyph-name="sigma" unicode="&#x3c3;" 
d="M663 1091q214 0 482 -12v-144l-254 17q82 -50 132.5 -153.5t50.5 -254.5q0 -265 -120.5 -416.5t-339.5 -151.5q-220 0 -341.5 152t-121.5 411q0 253 135.5 402.5t376.5 149.5zM335 539q0 -421 279 -421q276 0 276 423q0 294 -147 417q-77 0 -135.5 -9.5t-111.5 -37
t-87 -73.5t-54 -121.5t-20 -177.5z" />
    <glyph glyph-name="tau" unicode="&#x3c4;" 
d="M1037 1078v-143h-399v-669q0 -146 176 -146q88 0 180 38l47 -126q-39 -22 -113 -39t-143 -17q-147 0 -233 82.5t-86 227.5v649h-92q-77 0 -130 -7t-136 -30l-28 137q124 43 318 43h639z" />
    <glyph glyph-name="upsilon" unicode="&#x3c5;" 
d="M1023 1078q53 -289 53 -556q0 -111 -27 -203t-73.5 -155t-109.5 -106t-132.5 -62.5t-144.5 -19.5q-171 0 -274.5 91t-103.5 263v748h172v-733q0 -113 55 -170t157 -57q58 0 109 20t97 65t73 131t27 204q0 264 -52 540h174z" />
    <glyph glyph-name="phi" unicode="&#x3c6;" 
d="M824 1101q173 0 254.5 -136.5t81.5 -416.5q0 -524 -481 -567v-393l-163 -22v415q-447 38 -447 508q0 289 113 589h172q-113 -333 -113 -547q0 -196 60 -296t215 -120v537q0 222 71 335.5t237 113.5zM822 966q-30 0 -52.5 -10.5t-37.5 -25.5t-25.5 -44t-16 -53t-8 -66.5
t-3 -70.5t-0.5 -79v-505q169 20 237.5 123.5t68.5 313.5q0 225 -35.5 321t-127.5 96z" />
    <glyph glyph-name="chi" unicode="&#x3c7;" 
d="M280 1099q100 -102 179.5 -238t170.5 -373l284 610l172 -28l-354 -686l389 -779l-169 -36l-323 684l-332 -679l-169 28l397 773q-87 193 -155 315t-122 192t-137 155z" />
    <glyph glyph-name="psi" unicode="&#x3c8;" 
d="M697 1078v-949q91 10 150 40t90 84.5t42.5 120t11.5 164.5q0 240 -54 540h175q52 -284 52 -559q0 -236 -114 -373.5t-353 -158.5v-400l-161 -21v421q-115 9 -203.5 44.5t-141.5 91.5t-79.5 124.5t-26.5 147.5v683h172v-667q0 -131 63 -197.5t216 -84.5v949h161z" />
    <glyph glyph-name="omega" unicode="&#x3c9;" 
d="M1071 1078q104 -283 104 -590q0 -242 -80.5 -377t-233.5 -135q-107 0 -171 60.5t-78 178.5q-24 -115 -88 -177t-163 -62q-307 0 -307 512q0 330 102 590h152q-51 -161 -67.5 -292t-16.5 -298q0 -86 7 -150t24 -115.5t48.5 -78t76.5 -26.5q151 0 151 354v258l165 23v-282
q0 -83 7 -144t23.5 -110t47 -74t75.5 -25t76 26.5t48 78t24.5 115.5t7.5 150q0 158 -19.5 291t-72.5 299h158z" />
    <glyph glyph-name="iotadieresis" unicode="&#x3ca;" 
d="M371 1328q-49 0 -81 31t-32 78t32 78.5t81 31.5q46 0 78 -31.5t32 -78.5q0 -46 -32 -77.5t-78 -31.5zM793 1328q-46 0 -78.5 31.5t-32.5 77.5q0 47 32.5 78.5t78.5 31.5q49 0 80.5 -31.5t31.5 -78.5t-31.5 -78t-80.5 -31zM493 933h-365l20 145h517v-812q0 -146 178 -146
q88 0 180 38l46 -126q-39 -22 -112.5 -39t-143.5 -17q-147 0 -233.5 82.5t-86.5 227.5v647z" />
    <glyph glyph-name="upsilondieresis" unicode="&#x3cb;" 
d="M402 1328q-49 0 -80.5 31t-31.5 78q0 48 31.5 79t80.5 31q46 0 78.5 -31.5t32.5 -78.5q0 -46 -32.5 -77.5t-78.5 -31.5zM824 1328q-47 0 -78.5 31.5t-31.5 77.5q0 47 31.5 78.5t78.5 31.5q49 0 81 -31.5t32 -78.5t-32 -78t-81 -31zM1023 1078q53 -289 53 -556
q0 -111 -27 -203t-73.5 -155t-109.5 -106t-132.5 -62.5t-144.5 -19.5q-171 0 -274.5 91t-103.5 263v748h172v-733q0 -113 55 -170t157 -57q58 0 109 20t97 65t73 131t27 204q0 264 -52 540h174z" />
    <glyph glyph-name="omicrontonos" unicode="&#x3cc;" 
d="M629 1654l182 -33l-134 -400l-124 21zM616 1101q224 0 343 -149.5t119 -411.5q0 -254 -121.5 -409t-342.5 -155q-224 0 -343.5 151t-119.5 411q0 256 121 409.5t344 153.5zM616 961q-281 0 -281 -423q0 -420 279 -420q280 0 280 422q0 421 -278 421z" />
    <glyph glyph-name="upsilontonos" unicode="&#x3cd;" 
d="M629 1654l182 -33l-134 -400l-124 21zM1023 1078q53 -289 53 -556q0 -111 -27 -203t-73.5 -155t-109.5 -106t-132.5 -62.5t-144.5 -19.5q-171 0 -274.5 91t-103.5 263v748h172v-733q0 -113 55 -170t157 -57q58 0 109 20t97 65t73 131t27 204q0 264 -52 540h174z" />
    <glyph glyph-name="omegatonos" unicode="&#x3ce;" 
d="M629 1654l182 -33l-134 -400l-124 21zM1071 1078q104 -283 104 -590q0 -242 -80.5 -377t-233.5 -135q-107 0 -171 60.5t-78 178.5q-24 -115 -88 -177t-163 -62q-307 0 -307 512q0 330 102 590h152q-51 -161 -67.5 -292t-16.5 -298q0 -86 7 -150t24 -115.5t48.5 -78
t76.5 -26.5q151 0 151 354v258l165 23v-282q0 -83 7 -144t23.5 -110t47 -74t75.5 -25t76 26.5t48 78t24.5 115.5t7.5 150q0 158 -19.5 291t-72.5 299h158z" />
    <glyph glyph-name="uni03CF" unicode="&#x3cf;" 
d="M383 0h-177v1410h177v-1410zM393 753l509 657h211l-510 -646l443 -616h131v-272q0 -152 -79.5 -230.5t-217.5 -78.5q-132 0 -231 76l67 117q42 -26 74.5 -37t80.5 -11q128 0 128 154v134h-69z" />
    <glyph glyph-name="uni03D0" unicode="&#x3d0;" 
d="M697 1534q79 0 138 -23t92 -62t48.5 -83.5t15.5 -94.5q0 -133 -100 -237.5t-244 -149.5q55 12 86 12q155 0 244.5 -105.5t89.5 -332.5q0 -92 -30 -177.5t-85.5 -154t-143 -109.5t-193.5 -41q-123 0 -211.5 49t-141 145.5t-77 228t-24.5 308.5q0 199 46.5 360.5t123 261
t171 152.5t195.5 53zM687 1401q-125 0 -220.5 -142t-115.5 -418l66 27q208 87 300.5 179t92.5 226q0 63 -32.5 95.5t-90.5 32.5zM411 724l-64 -32q1 -216 30.5 -342.5t85.5 -179t149 -52.5q127 0 199 92t72 240q0 82 -10 140.5t-35 106t-72 71t-116 23.5q-59 0 -112.5 -15.5
t-126.5 -51.5z" />
    <glyph glyph-name="uni03D1" unicode="&#x3d1;" 
d="M545 -24q-144 0 -244.5 94.5t-100.5 259.5v384h173v-364q0 -116 46.5 -174t132.5 -58q141 0 211 165t70 541v4h-232q-215 -1 -329.5 96.5t-114.5 254.5q0 150 108.5 252.5t270.5 102.5q217 0 336.5 -148.5t145.5 -415.5h81v-142h-75v-5q0 -847 -479 -847zM333 1182
q0 -109 72 -160.5t196 -51.5h226q-36 422 -286 422q-93 0 -150.5 -59t-57.5 -151z" />
    <glyph glyph-name="uni03D2" unicode="&#x3d2;" 
d="M1180 1280q-32 8 -62 8q-41 0 -71 -25.5t-59 -88.5l-295 -630v-544h-180v542l-436 868h196l336 -709l218 500q58 133 118.5 182.5t159.5 49.5q61 0 115 -23z" />
    <glyph glyph-name="uni03D3" unicode="&#x3d3;" 
d="M-158 1444l205 -34l-146 -401l-133 21zM1180 1280q-32 8 -62 8q-41 0 -71 -25.5t-59 -88.5l-295 -630v-544h-180v542l-436 868h196l336 -709l218 500q58 133 118.5 182.5t159.5 49.5q61 0 115 -23z" />
    <glyph glyph-name="uni03D4" unicode="&#x3d4;" 
d="M409 1573q-49 0 -81 30.5t-32 77.5q0 49 31.5 80t81.5 31q46 0 78 -31.5t32 -79.5q0 -46 -32 -77t-78 -31zM830 1573q-47 0 -78.5 31t-31.5 77q0 48 31.5 79.5t78.5 31.5q49 0 81 -31t32 -80q0 -47 -32 -77.5t-81 -30.5zM1180 1280q-32 8 -62 8q-41 0 -71 -25.5
t-59 -88.5l-295 -630v-544h-180v542l-436 868h196l336 -709l218 500q58 133 118.5 182.5t159.5 49.5q61 0 115 -23z" />
    <glyph glyph-name="uni03D5" unicode="&#x3d5;" 
d="M697 1529v-458q211 -13 326 -155t115 -374q0 -243 -120.5 -385t-320.5 -151v-419l-166 -21v441q-210 13 -325 155.5t-115 376.5q0 243 120.5 383.5t319.5 148.5v439zM271 539q0 -183 66.5 -285t198.5 -112v798q-265 -24 -265 -401zM957 542q0 180 -67 282t-197 112v-796
q264 28 264 402z" />
    <glyph glyph-name="uni03D6" unicode="&#x3d6;" 
d="M48 922l-31 128q52 17 116.5 22.5t216.5 5.5h861v-132h-129q88 -206 88 -456q0 -243 -78 -378.5t-226 -135.5q-101 0 -164 60.5t-77 178.5q-24 -114 -87.5 -176.5t-156.5 -62.5q-148 0 -222 131.5t-74 382.5q0 254 84 453q-52 -2 -121 -21zM710 471q0 -170 31.5 -261.5
t109.5 -91.5q42 0 71.5 26.5t46 78t23.5 115.5t7 150q0 251 -53 457l-643 -1q-47 -190 -47 -456q0 -178 32.5 -274t112.5 -96q143 0 143 354v217l166 24v-242z" />
    <glyph glyph-name="uni03D7" unicode="&#x3d7;" 
d="M426 -15l-204 60v754q0 78 -21 113.5t-74 59.5l60 129q117 -32 165.5 -107t48.5 -213q0 -53 -9 -182t-20 -258t-12 -145l444 897l203 -60v-753q0 -80 21 -116t74 -60v-226q0 -150 -80.5 -230.5t-217.5 -80.5q-130 0 -230 78l70 109q41 -24 72.5 -35t77.5 -11
q132 0 132 156v181q-53 36 -76 96t-23 155q0 54 9.5 183t20.5 258.5t12 144.5z" />
    <glyph glyph-name="uni03D8" unicode="&#x3d8;" 
d="M528 -412v395q-211 33 -322 223.5t-111 494.5q0 217 57.5 380t176 257.5t285.5 94.5q251 0 385.5 -197.5t134.5 -532.5q0 -299 -111 -491.5t-320 -227.5v-396h-175zM947 703q0 290 -79.5 435.5t-253.5 145.5t-253 -146.5t-79 -436.5q0 -287 80.5 -431t251.5 -144
q175 0 254 144t79 433z" />
    <glyph glyph-name="uni03D9" unicode="&#x3d9;" 
d="M616 1101q224 0 343 -149.5t119 -411.5q0 -227 -98 -376.5t-279 -179.5v-397l-174 -21v417q-183 29 -279.5 175.5t-96.5 379.5q0 256 121 409.5t344 153.5zM616 961q-281 0 -281 -423q0 -420 279 -420q280 0 280 422q0 421 -278 421z" />
    <glyph glyph-name="uni03DA" unicode="&#x3da;" 
d="M736 -438l-72 119q100 43 151.5 91.5t51.5 123.5q0 65 -54 104.5t-226 109.5q-229 93 -331.5 240.5t-102.5 398.5q0 106 21.5 200t72 180t126 147.5t191.5 97.5t261 36h302l-28 -152h-283q-237 0 -356 -135.5t-119 -370.5q0 -215 79.5 -325.5t282.5 -190.5
q189 -74 269.5 -145t80.5 -188q0 -109 -75 -188t-242 -153z" />
    <glyph glyph-name="uni03DB" unicode="&#x3db;" 
d="M847 1182l173 -14q0 -56 -12 -101t-37 -78.5t-55 -58t-74.5 -43.5t-86 -31.5t-99.5 -25.5q-71 -16 -115 -30t-89 -37t-69 -52.5t-39 -75t-15 -107.5q0 -77 16 -126.5t61.5 -88.5t107.5 -66t174 -62q68 -21 111.5 -37.5t90 -41.5t72 -52t42.5 -66.5t17 -88.5
q0 -107 -76 -185.5t-242 -151.5l-73 119q106 46 155.5 90t49.5 110q0 46 -31 76.5t-66.5 43.5t-124.5 39l-15 4.5t-13.5 4t-15.5 4.5q-77 23 -131.5 45.5t-114 61t-96.5 86t-61 119.5t-24 162q0 340 395 429q55 14 83 21.5t66 18.5t55.5 19.5t40 21.5t31.5 25.5t18.5 31
t12.5 39.5t3 49z" />
    <glyph glyph-name="uni03DC" unicode="&#x3dc;" 
d="M907 608q-86 28 -181 28h-290v-636h-177v1410h837l-19 -156h-641v-469h305q72 0 118.5 -10t95.5 -33z" />
    <glyph glyph-name="uni03DD" unicode="&#x3dd;" 
d="M949 306q-86 28 -181 28h-339v-746l-172 -24v1180q0 334 342 334h479l-23 -142h-450q-94 0 -135 -41t-41 -135v-287h355q72 0 118 -10t91 -34z" />
    <glyph glyph-name="uni03DE" unicode="&#x3de;" 
d="M421 0l464 634h-705l-36 154l462 622h203l-463 -622h706l34 -154l-462 -634h-203z" />
    <glyph glyph-name="uni03DF" unicode="&#x3df;" 
d="M226 581l-48 143l198 395q79 156 111 246t44 176l152 -29q-11 -109 -43.5 -203.5t-105.5 -228.5l-164 -302l628 180l52 -141h1l-210 -419q-78 -156 -110.5 -246.5t-45.5 -175.5l-151 29q12 109 44.5 204t104.5 227l177 327z" />
    <glyph glyph-name="uni03E0" unicode="&#x3e0;" 
d="M52 0l488 1221l-78 189h171l544 -1410h-183l-215 584l-184 -584l-170 4l277 790l-85 230l-381 -1024h-184z" />
    <glyph glyph-name="uni03E1" unicode="&#x3e1;" 
d="M65 0l522 1067q-165 188 -449 349l62 121q291 -144 476 -326.5t280 -432t95 -576.5q0 -156 -24 -330t-59 -304l-160 21q63 283 63 613q0 156 -21 291l-208 -493h-159l310 716q-39 110 -103 212l-447 -928h-178z" />
    <glyph glyph-name="uni03F0" unicode="&#x3f0;" 
d="M425 -15l-204 60v754q0 78 -20.5 113.5t-74.5 59.5l60 129q117 -32 166 -107t49 -213q0 -41 -6 -134.5t-13 -177t-14.5 -173.5t-8.5 -100l445 897l203 -60v-753q0 -79 21 -113.5t74 -58.5l-60 -132q-118 32 -166.5 107t-48.5 213q0 54 9 183t20 259t12 144z" />
    <glyph glyph-name="uni03F1" unicode="&#x3f1;" 
d="M364 523v-179q41 -75 105.5 -116.5t141.5 -41.5q133 0 205 109t72 298q0 180 -65.5 276t-192.5 96q-145 0 -205.5 -110t-60.5 -332zM787 -441q-15 30 -36.5 45t-66 27t-144.5 28q-91 14 -153.5 38.5t-108 66t-66.5 104.5t-21 152v534q0 271 110.5 409t324.5 138
q217 0 332.5 -137t115.5 -372q0 -106 -27.5 -203t-78.5 -174.5t-133.5 -123.5t-184.5 -46q-185 0 -286 142v-161q0 -124 54 -167t232 -71q140 -20 207.5 -59t91.5 -105z" />
    <glyph glyph-name="uni03F2" unicode="&#x3f2;" 
d="M693 125q144 0 281 94l84 -113q-70 -60 -169.5 -95t-195.5 -35q-239 0 -372.5 151t-133.5 408q0 163 58.5 290t175 201.5t274.5 74.5q207 0 361 -125l-84 -115q-140 96 -279 96q-145 0 -232 -107.5t-87 -314.5t86.5 -308.5t232.5 -101.5z" />
    <glyph glyph-name="uni03F3" unicode="&#x3f3;" 
d="M751 1583q56 0 91.5 -34t35.5 -86q0 -53 -35.5 -88t-91.5 -35q-55 0 -89 35t-34 88q0 52 34 86t89 34zM911 1078v-905q0 -261 -174 -405.5t-513 -201.5l-28 133q126 21 220.5 54.5t169.5 87.5t114 134.5t39 186.5v780h-448v136h620z" />
    <glyph glyph-name="uni03F4" unicode="&#x3f4;" 
d="M1134 703q0 -217 -57.5 -379t-176 -255t-286.5 -93t-286 91t-175.5 252.5t-57.5 381.5q0 217 57.5 380t176 257.5t285.5 94.5q251 0 385.5 -197.5t134.5 -532.5zM946 703q0 289 -79 435t-253 146t-252.5 -146.5t-78.5 -436.5q0 -286 80.5 -430.5t250.5 -144.5
q174 0 253 144t79 433zM823 647h-420v148h420v-148z" />
    <glyph glyph-name="uni03F5" unicode="&#x3f5;" 
d="M695 1101q212 0 363 -119l-82 -111q-136 92 -283 92q-129 0 -217 -88t-108 -254h492v-137h-494q12 -184 100 -274t227 -90q149 0 285 94l80 -111q-72 -61 -170 -94t-190 -33q-242 0 -376.5 151t-134.5 408q0 163 58.5 290t175 201.5t274.5 74.5z" />
    <glyph glyph-name="uni03F6" unicode="&#x3f6;" 
d="M569 1101q242 0 365.5 -147.5t123.5 -407.5t-129.5 -415t-369.5 -155q-102 0 -200.5 33.5t-171.5 94.5l84 114q132 -98 287 -98q142 0 226 89.5t96 274.5h-510v137h508q-15 171 -95 256.5t-215 85.5q-160 0 -288 -98l-82 113q71 59 170.5 91t200.5 32z" />
    <glyph glyph-name="uni03F7" unicode="&#x3f7;" 
d="M396 1410v-239h203q260 0 399.5 -110.5t139.5 -333.5q0 -121 -39.5 -211t-112.5 -145t-170 -81.5t-218 -26.5h-202v-263h-176v1410h176zM621 1031h-225v-625h226q77 0 134 15t102.5 50.5t69 98.5t23.5 153q0 159 -87.5 233.5t-242.5 74.5z" />
    <glyph glyph-name="uni03F8" unicode="&#x3f8;" 
d="M378 1534v-589q123 156 310 156q106 0 182 -39.5t121 -115t66 -175.5t21 -231q0 -167 -44.5 -292t-139 -198.5t-231.5 -73.5q-178 0 -285 125v-514l-172 -21v1946zM647 963q-154 0 -269 -173v-535q42 -64 106.5 -99.5t140.5 -35.5q135 0 202 103t67 318
q0 213 -60.5 317.5t-186.5 104.5z" />
    <glyph glyph-name="uni03F9" unicode="&#x3f9;" 
d="M733 1433q133 0 227 -33.5t182 -104.5l-100 -115q-123 104 -296 104q-91 0 -166 -30.5t-136 -96t-95.5 -180.5t-34.5 -271q0 -153 32.5 -266.5t92 -180t135 -98.5t168.5 -32q108 0 184.5 31.5t143.5 86.5l92 -117q-158 -154 -422 -154q-130 0 -240.5 48t-193 138.5
t-129.5 230.5t-47 313t48 313t131 229.5t191.5 137t232.5 47.5z" />
    <glyph glyph-name="uni03FA" unicode="&#x3fa;" 
d="M1086 1410l80 -1410h-171l-44 736q-14 254 -11 511l-238 -994h-178l-255 994q10 -253 -2 -509l-38 -738h-167l80 1410h248l228 -966l219 966h249z" />
    <glyph glyph-name="uni03FB" unicode="&#x3fb;" 
d="M41 -434l130 1512h229l201 -792l223 792h234l87 -1078h-169l-43 536q-11 155 -14 383l-236 -802h-168l-219 795q0 -197 -13 -372l-76 -951z" />
    <glyph glyph-name="uni03FC" unicode="&#x3fc;" 
d="M91 -134h166v688q0 269 110.5 408t324.5 139q448 0 448 -561q0 -115 -26.5 -215.5t-77 -179t-132.5 -124t-186 -45.5q-180 0 -289 124v-234h330v-137h-330v-142l-172 -21v163h-166v137zM688 965q-140 0 -199.5 -110t-59.5 -329v-271q42 -64 107 -99.5t142 -35.5
q134 0 204 108t70 313q0 214 -65 319t-199 105z" />
    <glyph glyph-name="uni03FD" unicode="&#x3fd;" 
d="M516 1433q273 0 428 -188t155 -539q0 -173 -47 -313t-129.5 -230.5t-193.5 -138.5t-241 -48q-263 0 -421 154l92 117q68 -55 143.5 -86.5t183.5 -31.5q93 0 168.5 32t135 98.5t92 180t32.5 266.5q0 310 -105.5 444t-306.5 134q-174 0 -331 -104l-84 115q97 70 196.5 104
t232.5 34z" />
    <glyph glyph-name="uni03FE" unicode="&#x3fe;" 
d="M733 1433q133 0 227 -33.5t182 -104.5l-100 -115q-123 104 -296 104q-91 0 -166 -30.5t-136 -96t-95.5 -180.5t-34.5 -271q0 -153 32.5 -266.5t92 -180t135 -98.5t168.5 -32q108 0 184.5 31.5t143.5 86.5l92 -117q-158 -154 -422 -154q-130 0 -240.5 48t-193 138.5
t-129.5 230.5t-47 313t48 313t131 229.5t191.5 137t232.5 47.5zM741 833q57 0 92.5 -34.5t35.5 -86.5q0 -54 -35.5 -89t-92.5 -35q-55 0 -89.5 35t-34.5 89q0 52 34.5 86.5t89.5 34.5z" />
    <glyph glyph-name="uni03FF" unicode="&#x3ff;" 
d="M516 1433q273 0 428 -188t155 -539q0 -173 -47 -313t-129.5 -230.5t-193.5 -138.5t-241 -48q-263 0 -421 154l92 117q68 -55 143.5 -86.5t183.5 -31.5q93 0 168.5 32t135 98.5t92 180t32.5 266.5q0 310 -105.5 444t-306.5 134q-174 0 -331 -104l-84 115q97 70 196.5 104
t232.5 34zM482 833q57 0 92 -34.5t35 -86.5q0 -54 -35 -89t-92 -35q-56 0 -90.5 35t-34.5 89q0 52 35 86.5t90 34.5z" />
    <glyph glyph-name="uni0400" unicode="&#x400;" 
d="M516 1863l378 -224l-52 -92l-422 168zM435 1265v-475h522v-147h-522v-501h641v-142h-819v1410h801l-21 -145h-602z" />
    <glyph glyph-name="uni0401" unicode="&#x401;" 
d="M445 1573q-49 0 -80.5 30.5t-31.5 77.5q0 49 31.5 80t80.5 31q46 0 78.5 -31.5t32.5 -79.5q0 -46 -32.5 -77t-78.5 -31zM867 1573q-46 0 -78 31t-32 77q0 48 32 79.5t78 31.5q49 0 81 -31t32 -80q0 -47 -32 -77.5t-81 -30.5zM435 1265v-475h522v-147h-522v-501h641v-142
h-819v1410h801l-21 -145h-602z" />
    <glyph glyph-name="uni0402" unicode="&#x402;" 
d="M499 1263v-464q137 122 297 122q364 0 364 -416v-309q0 -105 -23 -183t-71 -133t-109.5 -91.5t-150.5 -66.5l-45 144q132 53 176.5 121.5t44.5 208.5v297q0 147 -51.5 210.5t-174.5 63.5q-59 0 -112 -19t-82 -39.5t-63 -51.5v-657h-178v1263h-330v147h855l-19 -147h-328z
" />
    <glyph glyph-name="uni0403" unicode="&#x403;" 
d="M883 1855l78 -147l-439 -161l-45 92zM1115 1410l-18 -156h-641v-1254h-177v1410h836z" />
    <glyph glyph-name="uni0404" unicode="&#x404;" 
d="M722 1433q130 0 225.5 -34t182.5 -103l-91 -109q-137 101 -307 101q-83 0 -153.5 -26.5t-129 -82.5t-96 -152.5t-47.5 -227.5h623v-149h-627q6 -136 41 -238.5t93.5 -164.5t132.5 -92t163 -30q187 0 325 122l94 -116q-167 -155 -426 -155q-132 0 -243 48t-192 139
t-126.5 230t-45.5 313q0 173 48.5 313t131.5 229.5t191.5 137t232.5 47.5z" />
    <glyph glyph-name="uni0405" unicode="&#x405;" 
d="M1099 390q0 -186 -137 -300t-378 -114q-308 0 -495 181l106 118q157 -149 392 -149q89 0 161 27.5t119 88t47 145.5q0 104 -65 163.5t-244 112.5q-112 33 -190 67.5t-140.5 82t-93 111.5t-30.5 146q0 159 127.5 261t328.5 102q267 0 451 -161l-105 -116
q-144 128 -340 128q-122 0 -201.5 -53.5t-79.5 -154.5q0 -91 76 -146t279 -115q73 -21 127.5 -42.5t111 -56.5t92.5 -78t58.5 -106.5t22.5 -141.5z" />
    <glyph glyph-name="uni0406" unicode="&#x406;" 
d="M1018 1410v-142h-313v-1126h313v-142h-807v142h313v1126h-313v142h807z" />
    <glyph glyph-name="uni0407" unicode="&#x407;" 
d="M402 1573q-49 0 -80.5 30.5t-31.5 77.5q0 49 31.5 80t80.5 31q46 0 78.5 -31.5t32.5 -79.5q0 -46 -32.5 -77t-78.5 -31zM824 1573q-47 0 -78.5 31t-31.5 77q0 48 31.5 79.5t78.5 31.5q49 0 81 -31t32 -80q0 -47 -32 -77.5t-81 -30.5zM1018 1410v-142h-313v-1126h313v-142
h-807v142h313v1126h-313v142h807z" />
    <glyph glyph-name="uni0408" unicode="&#x408;" 
d="M1017 1410v-942q0 -75 -14 -142.5t-48.5 -132.5t-88 -112t-138 -76t-192.5 -29q-217 0 -388 128l79 118q152 -97 307 -97q146 0 226 93.5t80 259.5v787h-418v145h595z" />
    <glyph glyph-name="uni0409" unicode="&#x409;" 
d="M727 1410v-522q254 0 378 -105.5t124 -328.5q0 -454 -487 -454h-190v1264h-193l-47 -628q-12 -149 -27 -253t-30.5 -168.5t-43 -110.5t-50.5 -70t-66 -57l-92 117q36 41 57 84.5t43.5 157.5t37.5 305l62 769h524zM759 750h-32v-607h31q72 0 122 13.5t88 47.5t56.5 95
t18.5 153q0 160 -70 229t-214 69z" />
    <glyph glyph-name="uni040A" unicode="&#x40a;" 
d="M726 1410v-563q255 1 379 -99t124 -313q0 -118 -33.5 -203t-98.5 -135.5t-152 -73.5t-201 -23h-193v715h-292v-715h-174v1410h174v-563h292v563h175zM759 714h-33v-574h33q72 0 121 11.5t88 42.5t57 90t18 149q0 153 -69.5 217t-214.5 64z" />
    <glyph glyph-name="uni040B" unicode="&#x40b;" 
d="M846 1410l-19 -147h-328v-464q127 122 297 122q364 0 364 -416v-505h-178v493q0 147 -51.5 210.5t-174.5 63.5q-59 0 -112 -19t-82 -39.5t-63 -51.5v-657h-178v1263h-330v147h855z" />
    <glyph glyph-name="uni040C" unicode="&#x40c;" 
d="M822 1855l78 -147l-437 -161l-46 92zM535 667h-163v-667h-178v1410h178v-594h166l432 594h192l-475 -664l514 -746h-215z" />
    <glyph glyph-name="uni040D" unicode="&#x40d;" 
d="M473 1863l378 -224l-52 -92l-422 168zM171 0v1410h176v-713q0 -292 -30 -540l512 1253h229v-1410h-176v714q0 270 30 528l-510 -1242h-231z" />
    <glyph glyph-name="uni040E" unicode="&#x40e;" 
d="M630 1553q-119 0 -204 67.5t-98 177.5l119 26q47 -136 183 -136q70 0 118.5 36.5t71.5 99.5l118 -26q-11 -109 -98.5 -177t-209.5 -68zM1188 1410l-431 -1041q-39 -93 -79.5 -155.5t-99 -113.5t-138.5 -80.5t-191 -43.5l-27 143q158 22 232.5 77.5t135.5 191.5h-71
l-465 1022h185l403 -907l367 907h179z" />
    <glyph glyph-name="uni040F" unicode="&#x40f;" 
d="M171 0v1410h177v-1263h149v1h202v-1h182v1263h177v-1410h-359v-301h-141l-30 301h-357z" />
    <glyph glyph-name="uni0410" unicode="&#x410;" 
d="M888 359h-558l-113 -359h-175l459 1410h227l459 -1410h-187zM376 507h466l-232 754z" />
    <glyph glyph-name="uni0411" unicode="&#x411;" 
d="M994 1410l-17 -147h-593v-402h178q264 0 406.5 -103t142.5 -319q0 -118 -40 -204.5t-114.5 -137t-171.5 -74t-221 -23.5h-358v1410h788zM587 720h-203v-576h203q79 0 136 12.5t105 44t72.5 90.5t24.5 146q0 283 -338 283z" />
    <glyph glyph-name="uni0412" unicode="&#x412;" 
d="M1105 402q0 -89 -30.5 -159.5t-80.5 -115t-119.5 -74t-142.5 -41.5t-155 -12h-379v1410h347q78 0 147 -10t134.5 -35.5t112.5 -65t75.5 -102t28.5 -142.5q0 -127 -75 -205t-187 -104q324 -56 324 -344zM861 1046q0 221 -276 221h-210v-457h227q128 0 193.5 57t65.5 179z
M918 396q0 77 -23.5 131t-67 83t-95 41.5t-117.5 12.5h-240v-518h232q46 0 86 5.5t82.5 22.5t73 43.5t50 72.5t19.5 106z" />
    <glyph glyph-name="uni0413" unicode="&#x413;" 
d="M1115 1410l-18 -156h-641v-1254h-177v1410h836z" />
    <glyph glyph-name="uni0414" unicode="&#x414;" 
d="M0 148h87q75 73 105.5 201.5t84.5 541.5q3 24 5 37.5t5 35.5t5 41l53 405h707v-1262h104v-449h-141l-30 301h-44h-725h-45l-30 -301h-141v449zM871 1260h-370l-31 -268q-15 -129 -23 -196t-20 -157.5t-20 -134.5t-20.5 -102.5t-24 -87.5t-27.5 -64.5t-34 -57.5t-42 -44
h612v1112z" />
    <glyph glyph-name="uni0415" unicode="&#x415;" 
d="M435 1265v-475h522v-147h-522v-501h641v-142h-819v1410h801l-21 -145h-602z" />
    <glyph glyph-name="uni0416" unicode="&#x416;" 
d="M536 669h-127l-212 -669h-172l250 746l-221 664h171l186 -596h125v596h157v-596h125l188 596h169l-222 -664l251 -746h-176l-210 669h-125v-669h-157v669z" />
    <glyph glyph-name="uni0417" unicode="&#x417;" 
d="M574 1433q222 0 354 -101.5t132 -265.5q0 -125 -82.5 -203t-209.5 -96q142 -12 240.5 -102.5t98.5 -245.5q0 -193 -146.5 -318t-392.5 -125q-149 0 -276 52t-220 149l109 98q174 -149 389 -149q164 0 255 77t91 210q0 135 -90 201.5t-239 66.5h-250l20 150h215
q129 0 217.5 58.5t88.5 173.5q0 109 -85.5 167t-220.5 58q-112 0 -200 -34.5t-172 -101.5l-101 106q210 175 475 175z" />
    <glyph glyph-name="uni0418" unicode="&#x418;" 
d="M171 0v1410h176v-713q0 -292 -30 -540l512 1253h229v-1410h-176v714q0 270 30 528l-510 -1242h-231z" />
    <glyph glyph-name="uni0419" unicode="&#x419;" 
d="M609 1582q-122 0 -206 61t-96 171l120 25q22 -66 65.5 -94.5t116.5 -28.5q150 0 191 123l118 -25q-12 -110 -98 -171t-211 -61zM171 0v1410h176v-713q0 -292 -30 -540l512 1253h229v-1410h-176v714q0 270 30 528l-510 -1242h-231z" />
    <glyph glyph-name="uni041A" unicode="&#x41a;" 
d="M535 667h-163v-667h-178v1410h178v-594h166l432 594h192l-475 -664l514 -746h-215z" />
    <glyph glyph-name="uni041B" unicode="&#x41b;" 
d="M1058 1410v-1410h-177v1257h-380l-49 -417q-24 -195 -50 -329t-51.5 -219t-66 -145.5t-76 -93t-99.5 -76.5l-78 133q36 31 53.5 48.5t47 66.5t48.5 113t42 179t44 273l80 620h712z" />
    <glyph glyph-name="uni041C" unicode="&#x41c;" 
d="M1086 1410l80 -1410h-171l-44 736q-14 254 -11 511l-238 -994h-178l-255 994q10 -253 -2 -509l-38 -738h-167l80 1410h248l228 -966l219 966h249z" />
    <glyph glyph-name="uni041D" unicode="&#x41d;" 
d="M881 0v669h-533v-669h-177v1410h177v-596h533v596h177v-1410h-177z" />
    <glyph glyph-name="uni041E" unicode="&#x41e;" 
d="M1134 703q0 -217 -57.5 -379t-176 -255t-286.5 -93t-286 91t-175.5 252.5t-57.5 381.5q0 217 57.5 380t176 257.5t285.5 94.5q251 0 385.5 -197.5t134.5 -532.5zM947 703q0 290 -79.5 435.5t-253.5 145.5t-253 -146.5t-79 -436.5q0 -287 80.5 -431t251.5 -144
q175 0 254 144t79 433z" />
    <glyph glyph-name="uni041F" unicode="&#x41f;" 
d="M881 0v1255h-533v-1255h-177v1410h887v-1410h-177z" />
    <glyph glyph-name="uni0420" unicode="&#x420;" 
d="M1141 977q0 -121 -40 -210t-114.5 -141.5t-171.5 -77.5t-220 -25h-180v-523h-178v1410h360q259 0 401.5 -108t142.5 -325zM950 975q0 294 -332 294h-203v-602h196q78 0 136.5 14.5t106 48.5t72 95.5t24.5 149.5z" />
    <glyph glyph-name="uni0421" unicode="&#x421;" 
d="M733 1433q133 0 227 -33.5t182 -104.5l-100 -115q-123 104 -296 104q-91 0 -166 -30.5t-136 -96t-95.5 -180.5t-34.5 -271q0 -153 32.5 -266.5t92 -180t135 -98.5t168.5 -32q108 0 184.5 31.5t143.5 86.5l92 -117q-158 -154 -422 -154q-130 0 -240.5 48t-193 138.5
t-129.5 230.5t-47 313t48 313t131 229.5t191.5 137t232.5 47.5z" />
    <glyph glyph-name="uni0422" unicode="&#x422;" 
d="M699 1257v-1257h-177v1257h-440v153h1064l-19 -153h-428z" />
    <glyph glyph-name="uni0423" unicode="&#x423;" 
d="M1188 1410l-431 -1041q-39 -93 -79.5 -155.5t-99 -113.5t-138.5 -80.5t-191 -43.5l-27 143q158 22 232.5 77.5t135.5 191.5h-71l-465 1022h185l403 -907l367 907h179z" />
    <glyph glyph-name="uni0424" unicode="&#x424;" 
d="M701 1469v-118q255 -19 378 -178t123 -463q0 -310 -128.5 -472t-372.5 -173v-124h-174v124q-245 10 -372.5 171.5t-127.5 473.5q0 304 123 463t377 178v118h174zM529 1219q-168 -5 -245 -122t-77 -387q0 -259 76 -379.5t246 -134.5v1023zM699 1219v-1023
q171 14 247 134.5t76 379.5q0 270 -77.5 387t-245.5 122z" />
    <glyph glyph-name="uni0425" unicode="&#x425;" 
d="M101 1410h204l309 -542l311 542h192l-400 -649l448 -761h-203l-352 637l-355 -637h-192l443 752z" />
    <glyph glyph-name="uni0426" unicode="&#x426;" 
d="M171 0v1410h177v-1263h533v1263h177v-1262h126v-449h-142l-29 301h-842z" />
    <glyph glyph-name="uni0427" unicode="&#x427;" 
d="M282 1410v-529q0 -276 276 -276q195 0 323 124v681h177v-1410h-177v577q-94 -69 -176 -98t-190 -29q-186 0 -299 113t-113 302v545h179z" />
    <glyph glyph-name="uni0428" unicode="&#x428;" 
d="M1134 1410v-1410h-1039v1410h167v-1262h273v1262h159v-1262h273v1262h167z" />
    <glyph glyph-name="uni0429" unicode="&#x429;" 
d="M1261 148v-449h-142l-29 301h-995v1410h167v-1262h273v1262h159v-1262h273v1262h167v-1262h127z" />
    <glyph glyph-name="uni042A" unicode="&#x42a;" 
d="M428 1410v-522h217q263 0 404.5 -106t141.5 -328q0 -121 -40 -210t-114 -141.5t-171 -77.5t-220 -25h-397v1254h-248v156h427zM674 745h-246v-600h249q75 0 131 13.5t102.5 46.5t70.5 95t24 152q0 79 -24.5 137t-70.5 91.5t-104 49t-132 15.5z" />
    <glyph glyph-name="uni042B" unicode="&#x42b;" 
d="M244 1410v-524h129q255 0 382 -110t127 -322q0 -226 -130.5 -340t-374.5 -114h-314v1410h181zM1165 1410v-1410h-180v1410h180zM392 751h-148v-609h150q149 0 224 73t75 237q0 299 -301 299z" />
    <glyph glyph-name="uni042C" unicode="&#x42c;" 
d="M371 1410v-522h212q263 0 404.5 -106t141.5 -328q0 -120 -40 -209t-114 -141.5t-171 -78t-219 -25.5h-391v1410h177zM607 746h-236v-602h235q76 0 132.5 13.5t104 46.5t72 95.5t24.5 152.5q0 80 -24.5 138t-70.5 91.5t-104.5 49t-132.5 15.5z" />
    <glyph glyph-name="uni042D" unicode="&#x42d;" 
d="M551 1433q260 0 406 -179.5t146 -529.5q0 -363 -151 -555.5t-417 -192.5q-135 0 -251.5 48.5t-197.5 132.5l108 102q146 -134 329 -134q187 0 285.5 128.5t111.5 396.5h-621v150h621q-14 259 -108.5 373.5t-268.5 114.5q-108 0 -186.5 -35.5t-155.5 -98.5l-99 106
q195 173 449 173z" />
    <glyph glyph-name="uni042E" unicode="&#x42e;" 
d="M796 1433q213 0 301.5 -178t88.5 -552q0 -362 -93 -544.5t-297 -182.5q-108 0 -184 48t-120.5 141t-65 212.5t-22.5 279.5h-137v-657h-172v1410h172v-606h140q12 316 103 472.5t286 156.5zM796 1287q-78 0 -122.5 -55t-65.5 -180.5t-21 -345.5t21 -346.5t66 -182
t122 -55.5q73 0 117.5 54t67.5 182.5t23 344.5t-23 345t-67.5 184t-117.5 55z" />
    <glyph glyph-name="uni042F" unicode="&#x42f;" 
d="M1058 1410v-1410h-177v566h-315l-299 -566h-198l331 607q-122 55 -184 154.5t-62 230.5q0 200 137 309t396 109h371zM881 1269h-215q-164 0 -243 -67.5t-79 -209.5q0 -280 284 -280h253v557z" />
    <glyph glyph-name="uni0430" unicode="&#x430;" 
d="M978 236q0 -63 20.5 -94t67.5 -45l-42 -121q-155 20 -198 152q-57 -74 -145 -113t-193 -39q-161 0 -254.5 90.5t-93.5 242.5q0 167 130 256t376 89h159v90q0 113 -65.5 163.5t-191.5 50.5q-123 0 -281 -55l-45 130q182 68 352 68q197 0 300.5 -92.5t103.5 -255.5v-517z
M532 108q80 0 152 40t121 112v278h-156q-324 0 -324 -227q0 -203 207 -203z" />
    <glyph glyph-name="uni0431" unicode="&#x431;" 
d="M886 1536l76 -134q-147 -89 -328 -155q-55 -20 -92.5 -40t-74 -53t-60 -77t-41 -110.5t-26.5 -155.5q55 92 142.5 144.5t197.5 52.5q178 0 285 -132.5t107 -360.5q0 -255 -126 -397t-334 -142q-99 0 -180.5 36.5t-144 109.5t-97.5 192.5t-35 276.5q0 116 7.5 207t25 172
t47 142.5t73.5 113t103.5 88.5t138.5 65q125 43 194.5 75t141.5 82zM343 523q0 -193 72 -298.5t197 -105.5q60 0 106 17.5t85 59.5t60 121t21 192q0 356 -232 356q-93 0 -173.5 -51t-135.5 -161v-130z" />
    <glyph glyph-name="uni0432" unicode="&#x432;" 
d="M595 1101q203 0 320.5 -73.5t117.5 -207.5q0 -89 -49 -147.5t-168 -87.5q139 -14 207 -79.5t68 -187.5q0 -109 -63.5 -182t-163 -104.5t-228.5 -31.5h-408v1064q190 37 367 37zM597 964q-90 0 -197 -13v-313h223q113 0 173 38t60 128q0 86 -62.5 123t-196.5 37zM400 139
h232q139 0 206.5 43t67.5 135q0 186 -272 186h-234v-364z" />
    <glyph glyph-name="uni0433" unicode="&#x433;" 
d="M496 0h-172v1078h750l-20 -144h-558v-934z" />
    <glyph glyph-name="uni0434" unicode="&#x434;" 
d="M53 140h73q51 44 81.5 105t52.5 176.5t36 308.5l25 348h696v-938h79v-441h-143l-30 301h-697l-29 -301h-144v441zM842 938h-366l-12 -196q-19 -295 -57.5 -414.5t-133.5 -187.5h569v798z" />
    <glyph glyph-name="uni0435" unicode="&#x435;" 
d="M341 478q6 -178 93.5 -268t221.5 -90q80 0 147 23.5t141 73.5l81 -114q-75 -60 -173 -93.5t-198 -33.5q-232 0 -362.5 153t-130.5 409q0 248 129 405.5t342 157.5q204 0 321 -141.5t117 -387.5q0 -46 -4 -94h-725zM634 959q-125 0 -203.5 -87.5t-88.5 -260.5h562
q-3 170 -74.5 259t-195.5 89z" />
    <glyph glyph-name="uni0436" unicode="&#x436;" 
d="M538 0v505h-115l-213 -505h-170l250 579l-230 499h174l189 -438h115v438h153v-438h115l193 438h169l-229 -499l250 -579h-175l-212 505h-111v-505h-153z" />
    <glyph glyph-name="uni0437" unicode="&#x437;" 
d="M392 634h195q107 0 170 44.5t63 117.5q0 168 -256 168q-83 0 -171 -25.5t-161 -71.5l-81 104q81 61 193.5 95.5t225.5 34.5q122 0 217 -31.5t153 -99t58 -162.5q0 -87 -59 -145.5t-159 -87.5q119 -12 199 -77.5t80 -174.5q0 -165 -135.5 -256t-354.5 -91q-270 0 -458 151
l82 111q165 -119 381 -119q146 0 221.5 53t75.5 146q0 176 -274 176h-217z" />
    <glyph glyph-name="uni0438" unicode="&#x438;" 
d="M1023 1078v-1078h-172v505q0 207 22 375l-458 -880h-209v1078h172v-504q0 -217 -22 -371l454 875h213z" />
    <glyph glyph-name="uni0439" unicode="&#x439;" 
d="M609 1324q-123 0 -206.5 60.5t-95.5 170.5l120 26q22 -66 65.5 -94.5t116.5 -28.5q150 0 191 123l118 -26q-12 -110 -98 -170.5t-211 -60.5zM1023 1078v-1078h-172v505q0 207 22 375l-458 -880h-209v1078h172v-504q0 -217 -22 -371l454 875h213z" />
    <glyph glyph-name="uni043A" unicode="&#x43a;" 
d="M216 0v1078h172v-436h216l311 436h194l-363 -499l419 -579h-208l-356 503h-213v-503h-172z" />
    <glyph glyph-name="uni043B" unicode="&#x43b;" 
d="M1044 1078v-1078h-172v935h-403l-25 -285q-9 -122 -20 -208.5t-28.5 -155t-36.5 -113t-50.5 -81.5t-65 -61.5t-84.5 -53.5l-73 111q35 22 55.5 40t45 56.5t39.5 93t29.5 145.5t24.5 219l33 436h731z" />
    <glyph glyph-name="uni043C" unicode="&#x43c;" 
d="M1064 1078l78 -1078h-165l-42 527q-13 189 -9 380h-8l-215 -726h-172l-237 726h-8q7 -155 -5 -377l-31 -530h-163l76 1078h226l232 -736l214 736h229z" />
    <glyph glyph-name="uni043D" unicode="&#x43d;" 
d="M851 0v480h-473v-480h-172v1078h172v-456h473v456h172v-1078h-172z" />
    <glyph glyph-name="uni043E" unicode="&#x43e;" 
d="M616 1101q224 0 343 -149.5t119 -411.5q0 -254 -121.5 -409t-342.5 -155q-224 0 -343.5 151t-119.5 411q0 256 121 409.5t344 153.5zM616 961q-281 0 -281 -423q0 -420 279 -420q280 0 280 422q0 421 -278 421z" />
    <glyph glyph-name="uni043F" unicode="&#x43f;" 
d="M851 0v937h-473v-937h-172v1078h817v-1078h-172z" />
    <glyph glyph-name="uni0440" unicode="&#x440;" 
d="M688 1101q106 0 182 -39.5t121 -115t66 -175.5t21 -231q0 -167 -44.5 -292t-139 -198.5t-231.5 -73.5q-178 0 -285 125v-514l-172 -21v1512h146l15 -150q123 173 321 173zM647 963q-154 0 -269 -173v-535q42 -64 106.5 -99.5t140.5 -35.5q135 0 202 103t67 318
q0 213 -60.5 317.5t-186.5 104.5z" />
    <glyph glyph-name="uni0441" unicode="&#x441;" 
d="M693 125q144 0 281 94l84 -113q-70 -60 -169.5 -95t-195.5 -35q-239 0 -372.5 151t-133.5 408q0 163 58.5 290t175 201.5t274.5 74.5q207 0 361 -125l-84 -115q-140 96 -279 96q-145 0 -232 -107.5t-87 -314.5t86.5 -308.5t232.5 -101.5z" />
    <glyph glyph-name="uni0442" unicode="&#x442;" 
d="M1107 1078l-21 -143h-386v-935h-172v935h-394v143h973z" />
    <glyph glyph-name="uni0443" unicode="&#x443;" 
d="M1103 1078l-379 -1085q-31 -89 -68 -156t-92.5 -127t-136 -96t-184.5 -47l-27 137q109 18 176.5 58t102 93.5t65.5 144.5h-57l-377 1078h184l310 -947l305 947h178z" />
    <glyph glyph-name="uni0444" unicode="&#x444;" 
d="M537 1534l155 -22v-520q86 109 201 109q78 0 133 -39t86 -115.5t44.5 -175t13.5 -230.5q0 -259 -77 -412t-217 -153q-104 0 -184 115v-504l-155 -21v525q-39 -56 -89 -85.5t-99 -29.5q-140 0 -215.5 152.5t-75.5 412.5q0 131 15 230.5t48 175t89 115t135 39.5
q110 0 192 -105v538zM384 966q-75 0 -110.5 -100t-35.5 -325q0 -226 35.5 -326.5t110.5 -100.5q42 0 74.5 23.5t78.5 80.5v651q-46 54 -77 75.5t-76 21.5zM855 966q-48 0 -84.5 -23.5t-78.5 -75.5v-649q39 -55 72 -79.5t76 -24.5q76 0 115 102t39 325q0 228 -32.5 326.5
t-106.5 98.5z" />
    <glyph glyph-name="uni0445" unicode="&#x445;" 
d="M310 0h-196l398 569l-349 509h204l249 -401l253 401h197l-348 -501l397 -577h-211l-295 463z" />
    <glyph glyph-name="uni0446" unicode="&#x446;" 
d="M1177 140v-441h-143l-29 301h-811v1078h172v-935h473v935h172v-938h166z" />
    <glyph glyph-name="uni0447" unicode="&#x447;" 
d="M1001 1078v-1078h-172v457q-62 -57 -151 -89.5t-188 -32.5q-155 0 -235.5 82.5t-80.5 234.5v426h172v-405q0 -106 45.5 -153.5t142.5 -47.5q79 0 162.5 33.5t132.5 89.5v483h172z" />
    <glyph glyph-name="uni0448" unicode="&#x448;" 
d="M1129 1078v-1078h-1030v1078h162v-935h274v935h159v-935h274v935h161z" />
    <glyph glyph-name="uni0449" unicode="&#x449;" 
d="M1276 140v-441h-142l-30 301h-1005v1078h162v-935h274v935h159v-935h274v935h161v-938h147z" />
    <glyph glyph-name="uni044A" unicode="&#x44a;" 
d="M497 1078v-339h127q493 0 493 -363q0 -376 -493 -376h-299v945h-257v133h429zM644 604h-147v-466h146q66 0 114.5 10t90 35.5t63 73.5t21.5 119q0 121 -73.5 174.5t-214.5 53.5z" />
    <glyph glyph-name="uni044B" unicode="&#x44b;" 
d="M291 1078v-350h73q458 0 458 -354q0 -190 -121 -282t-336 -92h-238v1078h164zM1102 1078v-1078h-166v1078h166zM372 600h-81v-466h79q138 0 206 53t68 187q0 121 -65 173.5t-207 52.5z" />
    <glyph glyph-name="uni044C" unicode="&#x44c;" 
d="M430 1078v-340h212q241 0 346 -95t105 -271q0 -93 -34.5 -166t-93.5 -117t-131.5 -66.5t-153.5 -22.5h-422v1078h172zM639 603h-209v-465h230q117 0 182.5 53.5t65.5 179.5q0 121 -59.5 176.5t-209.5 55.5z" />
    <glyph glyph-name="uni044D" unicode="&#x44d;" 
d="M569 1101q242 0 365.5 -147.5t123.5 -407.5t-129.5 -415t-369.5 -155q-102 0 -200.5 33.5t-171.5 94.5l84 114q132 -98 287 -98q142 0 226 89.5t96 274.5h-510v137h508q-15 171 -95 256.5t-215 85.5q-160 0 -288 -98l-82 113q71 59 170.5 91t200.5 32z" />
    <glyph glyph-name="uni044E" unicode="&#x44e;" 
d="M787 1101q188 0 282 -146t94 -415q0 -172 -38.5 -295.5t-124 -196t-213.5 -72.5q-90 0 -159.5 37.5t-112.5 106.5t-66.5 158.5t-27.5 200.5h-137v-479h-170v1078h170v-455h137q12 228 103 353t263 125zM787 959q-107 0 -147.5 -99t-40.5 -322q0 -104 8 -176.5t28.5 -130
t58 -85.5t93.5 -28q58 0 96.5 28t59.5 85.5t29.5 131t8.5 177.5q0 219 -44 319t-150 100z" />
    <glyph glyph-name="uni044F" unicode="&#x44f;" 
d="M108 0l257 458q-192 88 -192 295q0 159 112.5 242t313.5 83h395v-1078h-172v418h-288l-232 -418h-194zM590 554h232v386h-227q-119 0 -179.5 -45.5t-60.5 -143.5q0 -104 55.5 -150.5t179.5 -46.5z" />
    <glyph glyph-name="uni0450" unicode="&#x450;" 
d="M813 1274l-414 190l93 147l377 -242zM341 478q6 -178 93.5 -268t221.5 -90q80 0 147 23.5t141 73.5l81 -114q-75 -60 -173 -93.5t-198 -33.5q-232 0 -362.5 153t-130.5 409q0 248 129 405.5t342 157.5q204 0 321 -141.5t117 -387.5q0 -46 -4 -94h-725zM634 959
q-125 0 -203.5 -87.5t-88.5 -260.5h562q-3 170 -74.5 259t-195.5 89z" />
    <glyph glyph-name="uni0451" unicode="&#x451;" 
d="M424 1328q-49 0 -81 31t-32 78t32 78.5t81 31.5q46 0 78.5 -31.5t32.5 -78.5q0 -46 -32.5 -77.5t-78.5 -31.5zM846 1328q-47 0 -79 31.5t-32 77.5q0 47 32 78.5t79 31.5q49 0 80.5 -31.5t31.5 -78.5t-31.5 -78t-80.5 -31zM341 478q6 -178 93.5 -268t221.5 -90
q80 0 147 23.5t141 73.5l81 -114q-75 -60 -173 -93.5t-198 -33.5q-232 0 -362.5 153t-130.5 409q0 248 129 405.5t342 157.5q204 0 321 -141.5t117 -387.5q0 -46 -4 -94h-725zM634 959q-125 0 -203.5 -87.5t-88.5 -260.5h562q-3 170 -74.5 259t-195.5 89z" />
    <glyph glyph-name="uni0452" unicode="&#x452;" 
d="M378 1529v-168h346v-137h-346v-286q63 76 155.5 119.5t188.5 43.5q303 0 303 -318v-730q0 -89 -13.5 -157t-36.5 -116t-64.5 -87t-87 -66t-114.5 -58l-65 125q60 28 93.5 50.5t63 62t41 97t11.5 145.5v724q0 101 -44.5 147t-141.5 46q-85 0 -163 -54t-126 -127v-785h-172
v1224h-166v137h166v149z" />
    <glyph glyph-name="uni0453" unicode="&#x453;" 
d="M868 1632l80 -147l-428 -174l-54 92zM496 0h-172v1078h750l-20 -144h-558v-934z" />
    <glyph glyph-name="uni0454" unicode="&#x454;" 
d="M695 1101q212 0 363 -119l-82 -111q-136 92 -283 92q-129 0 -217 -88t-108 -254h492v-137h-494q12 -184 100 -274t227 -90q149 0 285 94l80 -111q-72 -61 -170 -94t-190 -33q-242 0 -376.5 151t-134.5 408q0 163 58.5 290t175 201.5t274.5 74.5z" />
    <glyph glyph-name="uni0455" unicode="&#x455;" 
d="M572 119q124 0 196.5 46.5t72.5 124.5q0 53 -17 85.5t-74.5 63t-169.5 58.5q-73 18 -125 35.5t-100.5 43.5t-78 57t-47 75t-17.5 99q0 135 112.5 214.5t297.5 79.5q231 0 391 -119l-76 -117q-143 97 -313 97q-234 0 -234 -142q0 -70 58.5 -106.5t228.5 -82.5
q86 -23 145 -48t108 -63.5t73 -93t24 -128.5q0 -67 -25.5 -121.5t-68.5 -91.5t-101.5 -62t-123.5 -36t-136 -11q-253 0 -421 146l98 114q138 -117 323 -117z" />
    <glyph glyph-name="uni0456" unicode="&#x456;" 
d="M614 1583q57 0 91.5 -34t34.5 -86q0 -53 -34.5 -88t-91.5 -35q-54 0 -89 35t-35 88q0 51 35 85.5t89 34.5zM752 1078v-942h304v-136h-809v136h333v806h-323v136h495z" />
    <glyph glyph-name="uni0457" unicode="&#x457;" 
d="M406 1328q-49 0 -81.5 31t-32.5 78t32.5 78.5t81.5 31.5q45 0 77 -31.5t32 -78.5q0 -46 -32 -77.5t-77 -31.5zM826 1328q-46 0 -77.5 31.5t-31.5 77.5q0 47 31.5 78.5t77.5 31.5q49 0 81.5 -31.5t32.5 -78.5t-32.5 -78t-81.5 -31zM752 1078v-942h304v-136h-809v136h333
v806h-323v136h495z" />
    <glyph glyph-name="uni0458" unicode="&#x458;" 
d="M751 1583q56 0 91.5 -34t35.5 -86q0 -53 -35.5 -88t-91.5 -35q-55 0 -89 35t-34 88q0 52 34 86t89 34zM911 1078v-905q0 -261 -174 -405.5t-513 -201.5l-28 133q126 21 220.5 54.5t169.5 87.5t114 134.5t39 186.5v780h-448v136h620z" />
    <glyph glyph-name="uni0459" unicode="&#x459;" 
d="M743 1078v-349h28q441 0 441 -354q0 -187 -116 -281t-323 -94h-195v941h-218l-13 -284q-6 -141 -20 -241t-33.5 -169t-54 -119.5t-72 -83t-96.5 -67.5l-64 116q36 30 57 56t47 84t42 160t24 253l24 432h542zM780 601h-37v-467h41q127 0 188 53t61 187q0 122 -59.5 174.5
t-193.5 52.5z" />
    <glyph glyph-name="uni045A" unicode="&#x45a;" 
d="M750 1078v-405h27q214 0 328 -79.5t114 -254.5q0 -339 -436 -339h-198v546h-267v-546h-170v1078h170v-405h267v405h165zM785 544h-35v-410h37q65 0 105.5 6.5t76.5 27t52.5 62.5t16.5 108q0 116 -59 161t-194 45z" />
    <glyph glyph-name="uni045B" unicode="&#x45b;" 
d="M724 1361v-137h-346v-293q62 82 154 126t190 44q303 0 303 -318v-783h-172v779q0 97 -45 142t-141 45q-85 0 -163 -54t-126 -127v-785h-172v1224h-166v137h166v149l172 19v-168h346z" />
    <glyph glyph-name="uni045C" unicode="&#x45c;" 
d="M826 1632l80 -147l-428 -174l-53 92zM216 0v1078h172v-436h216l311 436h194l-363 -499l419 -579h-208l-356 503h-213v-503h-172z" />
    <glyph glyph-name="uni045D" unicode="&#x45d;" 
d="M792 1274l-414 190l92 147l378 -242zM1023 1078v-1078h-172v505q0 207 22 375l-458 -880h-209v1078h172v-504q0 -217 -22 -371l454 875h213z" />
    <glyph glyph-name="uni045E" unicode="&#x45e;" 
d="M609 1324q-123 0 -206.5 60.5t-95.5 170.5l120 26q22 -66 65.5 -94.5t116.5 -28.5q150 0 191 123l118 -26q-12 -110 -98 -170.5t-211 -60.5zM1103 1078l-379 -1085q-31 -89 -68 -156t-92.5 -127t-136 -96t-184.5 -47l-27 137q109 18 176.5 58t102 93.5t65.5 144.5h-57
l-377 1078h184l310 -947l305 947h178z" />
    <glyph glyph-name="uni045F" unicode="&#x45f;" 
d="M851 1078h172v-1078h-322v-301h-142l-30 301h-323v1078h172v-935h473v935z" />
    <glyph glyph-name="uni0460" unicode="&#x460;" 
d="M1051 1410q29 -79 46.5 -134.5t44.5 -163t41 -234.5t14 -267q0 -634 -330 -634q-186 0 -250 213q-35 -107 -93 -160t-156 -53q-51 0 -97 19.5t-90 66.5t-76 118t-51.5 181t-19.5 249q0 140 14 266t42.5 236.5t44 160.5t46.5 136h172q-72 -187 -108.5 -372t-36.5 -421
q0 -493 190 -493q58 0 94 52.5t36 169.5v469h174v-467q0 -115 40.5 -169.5t104.5 -54.5q40 0 69 19t54.5 69t39 150.5t13.5 250.5q0 233 -37 417t-107 380h172z" />
    <glyph glyph-name="uni0461" unicode="&#x461;" 
d="M1071 1078q104 -283 104 -590q0 -242 -80.5 -377t-233.5 -135q-107 0 -171 60.5t-78 178.5q-24 -115 -88 -177t-163 -62q-307 0 -307 512q0 330 102 590h152q-51 -161 -67.5 -292t-16.5 -298q0 -86 7 -150t24 -115.5t48.5 -78t76.5 -26.5q151 0 151 354v258l165 23v-282
q0 -83 7 -144t23.5 -110t47 -74t75.5 -25t76 26.5t48 78t24.5 115.5t7.5 150q0 158 -19.5 291t-72.5 299h158z" />
    <glyph glyph-name="uni0462" unicode="&#x462;" 
d="M315 0v1086h-295v133h295v191h178v-191h314v-133h-314v-208h147q243 0 383 -108t140 -317q0 -118 -40 -206t-114 -141.5t-173 -79.5t-222 -26h-299zM493 144h143q77 0 135.5 14.5t105.5 48t71.5 94.5t24.5 148q0 154 -84.5 220.5t-244.5 66.5h-151v-592z" />
    <glyph glyph-name="uni0463" unicode="&#x463;" 
d="M469 1341v-244h272l-21 -138h-251v-231h144q492 0 492 -358q0 -370 -494 -370h-314v959h-177v138h177v223zM633 593h-164v-455h163q66 0 115 10t90 34.5t62.5 71t21.5 115.5q0 119 -73.5 171.5t-214.5 52.5z" />
    <glyph glyph-name="uni0464" unicode="&#x464;" 
d="M1218 76q-64 -48 -133.5 -74t-170.5 -26q-227 0 -362 175t-146 499h-145v-650h-179v1410h179v-606h147q21 304 158.5 466.5t358.5 162.5q92 0 153.5 -19.5t125.5 -63.5l-87 -117q-48 29 -89 41.5t-99 12.5q-299 0 -338 -487h468v-150h-473q12 -268 99.5 -395t234.5 -127
q48 0 91.5 11.5t65 22.5t58.5 33z" />
    <glyph glyph-name="uni0465" unicode="&#x465;" 
d="M329 1078v-455h132q20 217 133.5 347.5t304.5 130.5q163 0 297 -116l-87 -107q-102 81 -214 81q-118 0 -181.5 -86.5t-81.5 -251.5h404v-137h-406q6 -182 76 -271t186 -89q113 0 205 84l92 -105q-62 -62 -140.5 -94.5t-155.5 -32.5q-190 0 -305.5 134.5t-128.5 368.5
h-130v-479h-174v1078h174z" />
    <glyph glyph-name="uni0466" unicode="&#x466;" 
d="M42 0l459 1410h227l459 -1410h-191l-183 594h-120v-594h-168v594h-117l-184 -594h-182zM610 1252l-156 -508h313z" />
    <glyph glyph-name="uni0467" unicode="&#x467;" 
d="M716 1078l441 -1078h-183l-161 419h-130v-419h-146v419h-124l-163 -419h-176l443 1078h199zM613 937l-147 -381h294z" />
    <glyph glyph-name="uni0468" unicode="&#x468;" 
d="M323 0l143 596h-215v-595h-175v1409h175v-672h221l4 -100l1 3l186 769h225l340 -1410h-176l-131 596h-75v-596h-150v596h-74l-132 -596h-167zM771 1273l-118 -535h236z" />
    <glyph glyph-name="uni0469" unicode="&#x469;" 
d="M106 0v1078h169v-517h254l156 517h211l321 -1078h-167l-118 419h-80v-419h-139v419h-75l-118 -419h-159l126 419h-212v-419h-169zM785 942l-106 -381h213z" />
    <glyph glyph-name="uni046A" unicode="&#x46a;" 
d="M77 0l229 775h149l-266 517v118h861v-118l-276 -517h165l213 -775h-166l-167 637h-117v-637h-173v637h-116l-170 -637h-166zM622 775l249 506h-496z" />
    <glyph glyph-name="uni046B" unicode="&#x46b;" 
d="M44 0l225 611h186l-248 373v94h805v-94l-250 -373h200l222 -611h-158l-173 476h-154v-476h-170v476h-151l-171 -476h-163zM612 611l213 336h-427z" />
    <glyph glyph-name="uni046C" unicode="&#x46c;" 
d="M38 1v1409h175v-635h412l-235 516v119h786v-119l-245 -516h150l204 -775h-167l-156 637h-95v-637h-177v637h-95l-158 -637h-168l182 637h-238v-636h-175zM784 775l220 505h-437z" />
    <glyph glyph-name="uni046D" unicode="&#x46d;" 
d="M72 0v1078h169v-467h394l-219 373v94h726v-94l-217 -373h121l206 -611h-162l-151 469h-75v-469h-159v469h-75l-152 -469h-164l164 469h-237v-469h-169zM785 611l183 339h-370z" />
    <glyph glyph-name="uni046E" unicode="&#x46e;" 
d="M839 1852l75 -87l-275 -220h-116l-277 220l78 87l256 -164zM458 -437q-131 55 -195.5 122.5t-64.5 154.5q0 102 83.5 159t257.5 72q335 32 335 290q0 146 -77 210.5t-235 64.5h-217v131l432 495h-608v148h822v-147l-449 -494h54q224 1 344 -107t120 -300
q0 -185 -121 -297t-309 -132q-151 -15 -204 -37.5t-53 -69.5q0 -75 148 -149z" />
    <glyph glyph-name="uni046F" unicode="&#x46f;" 
d="M841 1617l78 -86l-275 -243h-116l-277 243l82 86l254 -186zM443 -437q-268 113 -268 283q0 103 86.5 159t276.5 75q184 19 261 59t77 137q0 170 -179 170h-353v132l427 354h-606v146h836v-133l-459 -368h151q173 0 270.5 -75t97.5 -227q0 -287 -435 -333
q-164 -18 -219.5 -40.5t-55.5 -69.5q0 -40 40 -77.5t120 -77.5z" />
    <glyph glyph-name="uni0470" unicode="&#x470;" 
d="M524 0v393q-248 20 -372 150.5t-124 336.5v530h180v-520q0 -159 72.5 -244t245.5 -102v866h179v-864q169 16 242.5 101t73.5 243v520h180v-530q0 -205 -124.5 -334.5t-369.5 -150.5v-395h-183z" />
    <glyph glyph-name="uni0471" unicode="&#x471;" 
d="M697 1078v-949q91 10 150 40t90 84.5t42.5 120t11.5 164.5q0 240 -54 540h175q52 -284 52 -559q0 -236 -114 -373.5t-353 -158.5v-400l-161 -21v421q-115 9 -203.5 44.5t-141.5 91.5t-79.5 124.5t-26.5 147.5v683h172v-667q0 -131 63 -197.5t216 -84.5v949h161z" />
    <glyph glyph-name="uni0472" unicode="&#x472;" 
d="M1134 703q0 -217 -57.5 -379t-176 -255t-286.5 -93t-286 91t-175.5 252.5t-57.5 381.5q0 217 57.5 380t176 257.5t285.5 94.5q251 0 385.5 -197.5t134.5 -532.5zM614 1284q-159 0 -238 -124t-91 -374h657q-11 250 -90 374t-238 124zM614 126q166 0 245.5 131.5
t84.5 392.5h-662q12 -524 332 -524z" />
    <glyph glyph-name="uni0473" unicode="&#x473;" 
d="M616 1101q224 0 343 -149.5t119 -411.5q0 -254 -121.5 -409t-342.5 -155q-224 0 -343.5 151t-119.5 411q0 256 121 409.5t344 153.5zM616 959q-259 0 -277 -342h551q-8 169 -77.5 255.5t-196.5 86.5zM890 480h-551q12 -187 79.5 -274.5t195.5 -87.5q127 0 195.5 88
t80.5 274z" />
    <glyph glyph-name="uni0474" unicode="&#x474;" 
d="M1158 1282q-40 15 -69 15q-39 0 -62 -26t-41 -86l-315 -1185h-195l-419 1410h192l322 -1204l257 1004q31 117 88 170t153 53q77 0 146 -37z" />
    <glyph glyph-name="uni0475" unicode="&#x475;" 
d="M493 0l-376 1078h187l293 -919l255 798q37 120 85.5 169t143.5 49q67 0 141 -38l-56 -115q-33 13 -65 13q-34 0 -53.5 -20.5t-36.5 -71.5l-310 -943h-208z" />
    <glyph glyph-name="uni0476" unicode="&#x476;" 
d="M823 1688l-112 -53l-199 336l153 72zM487 1688l-108 -58l-221 334l149 79zM1158 1282q-40 15 -69 15q-39 0 -62 -26t-41 -86l-315 -1185h-195l-419 1410h192l322 -1204l257 1004q31 117 88 170t153 53q77 0 146 -37z" />
    <glyph glyph-name="uni0477" unicode="&#x477;" 
d="M845 1356l-113 -52l-198 335l152 72zM509 1356l-109 -58l-221 334l150 79zM493 0l-376 1078h187l293 -919l255 798q37 120 85.5 169t143.5 49q67 0 141 -38l-56 -115q-33 13 -65 13q-34 0 -53.5 -20.5t-36.5 -71.5l-310 -943h-208z" />
    <glyph glyph-name="uni0478" unicode="&#x478;" 
d="M337 -24q-87 0 -149 48t-99 143.5t-54 226t-17 307.5q0 174 17 305.5t54 229t99 147.5t149 50q86 0 147.5 -48.5t98.5 -145t54 -228t17 -308.5q0 -178 -17 -309.5t-54 -226.5t-98.5 -143t-147.5 -48zM337 113q88 0 119.5 134t31.5 456q0 323 -31.5 458.5t-119.5 135.5
q-89 0 -121.5 -137t-32.5 -459q0 -315 34.5 -451.5t119.5 -136.5zM716 -433l-25 131q91 27 143 97t73 205h-72l-170 1078h153l125 -947l116 947h158l-169 -1085q-29 -180 -112 -283t-220 -143z" />
    <glyph glyph-name="uni0479" unicode="&#x479;" 
d="M314 -24q-315 0 -315 562q0 263 77 413t240 150q313 0 313 -561q0 -126 -18.5 -227.5t-56 -177.5t-98.5 -117.5t-142 -41.5zM554 -433l-25 128q161 32 241.5 98.5t112.5 206.5h-77l-195 1078h183l137 -947l133 947h176l-190 -1065q-72 -406 -496 -446zM314 115
q80 0 110 98.5t30 326.5q0 229 -29.5 327.5t-108.5 98.5q-81 0 -112 -99.5t-31 -328.5q0 -226 30.5 -324.5t110.5 -98.5z" />
    <glyph glyph-name="uni048A" unicode="&#x48a;" 
d="M609 1582q-122 0 -206 61t-96 171l120 25q22 -66 65.5 -94.5t116.5 -28.5q150 0 191 123l118 -25q-12 -110 -98 -171t-211 -61zM171 0v1410h176v-713q0 -292 -30 -540l512 1253h229v-1269h184l-159 -442h-138l70 301h-133v714q0 270 30 528l-510 -1242h-231z" />
    <glyph glyph-name="uni048B" unicode="&#x48b;" 
d="M586 1324q-123 0 -206.5 60.5t-95.5 170.5l119 26q22 -66 66 -94.5t117 -28.5q149 0 190 123l118 -26q-12 -110 -97.5 -170.5t-210.5 -60.5zM1149 135l-135 -436h-142l71 301h-120v505q0 257 20 415l-445 -920h-208v1078h167v-504q0 -263 -26 -411l449 915h210v-943h159z
" />
    <glyph glyph-name="uni048C" unicode="&#x48c;" 
d="M257 0v1087h-196v130h196v193h177v-193h269v-130h-269v-209h208q244 0 383.5 -108t139.5 -317q0 -118 -40 -206t-114 -141.5t-173 -79.5t-222 -26h-359zM434 144h204q77 0 135.5 14.5t106 48t72 94.5t24.5 148q0 154 -85 220.5t-245 66.5h-212v-592z" />
    <glyph glyph-name="uni048D" unicode="&#x48d;" 
d="M321 0v810h-179v141h179v127h172v-127h264l-23 -141h-241v-124h157q213 0 326 -87.5t113 -243.5q0 -175 -127.5 -265t-362.5 -90h-278zM493 138h129q50 0 90 5.5t77 20.5t61.5 38.5t39 62.5t14.5 90q0 197 -256 197h-155v-414z" />
    <glyph glyph-name="uni048E" unicode="&#x48e;" 
d="M1141 972q0 -228 -173 -349l170 -279h-162l-133 217q-107 -38 -248 -38h-180v-523h-178v1410h360q259 0 401.5 -109t142.5 -329zM587 981h162l137 -224q62 73 62 213q0 299 -332 299h-201v-602h194q92 0 158 18z" />
    <glyph glyph-name="uni048F" unicode="&#x48f;" 
d="M693 1101q390 0 390 -561q0 -161 -43 -285.5t-128 -195.5l152 -247h-162l-111 182q-61 -18 -123 -18q-177 0 -286 125v-514l-172 -21v1512h147l15 -150q122 173 321 173zM513 449h162l154 -253q67 88 67 345q0 212 -60 317t-184 105q-153 0 -270 -173v-535
q43 -64 107 -99.5t138 -35.5q48 0 83 7z" />
    <glyph glyph-name="uni0490" unicode="&#x490;" 
d="M1115 1410l-18 -156h-641v-1254h-177v1410h662v299h174v-299z" />
    <glyph glyph-name="uni0491" unicode="&#x491;" 
d="M496 0h-172v1078h574v273h176v-273l-20 -144h-558v-934z" />
    <glyph glyph-name="uni0492" unicode="&#x492;" 
d="M841 887v-136h-323v-751h-177v751h-206v136h206v523h837l-20 -156h-640v-367h323z" />
    <glyph glyph-name="uni0493" unicode="&#x493;" 
d="M558 0h-172v482h-192v136h192v460h752l-22 -144h-558v-316h256v-136h-256v-482z" />
    <glyph glyph-name="uni0494" unicode="&#x494;" 
d="M828 -433q-129 0 -230 76l67 117q42 -26 74.5 -37t81.5 -11q127 0 127 154v136v478q0 138 -64.5 211.5t-190.5 73.5q-109 0 -189.5 -41t-152.5 -123v-601h-177v1410h788l-23 -147h-588v-498q147 156 372 156q185 0 293.5 -117.5t108.5 -321.5v-482v-124
q0 -152 -79.5 -230.5t-217.5 -78.5z" />
    <glyph glyph-name="uni0495" unicode="&#x495;" 
d="M210 0v1078h659l-22 -137h-465v-383q60 72 143 115t183 43q136 0 222.5 -86t86.5 -236v-394v-124q0 -150 -81 -229.5t-218 -79.5q-131 0 -230 76l67 111q42 -24 75 -35t81 -11q134 0 134 154v140v376q0 201 -173 201q-89 0 -156 -44.5t-134 -126.5v-408h-172z" />
    <glyph glyph-name="uni0496" unicode="&#x496;" 
d="M536 669h-127l-212 -669h-172l250 746l-221 664h171l186 -596h125v596h157v-596h125l188 596h169l-222 -664l201 -598h96v-449h-136l-29 301h-57l-210 669h-125v-669h-157v669z" />
    <glyph glyph-name="uni0497" unicode="&#x497;" 
d="M538 0v505h-115l-205 -505h-169l241 579l-221 499h176l178 -438h115v438h153v-438h115l184 438h170l-221 -499l181 -439h112v-441h-125l-30 301h-72l-203 505h-111v-505h-153z" />
    <glyph glyph-name="uni0498" unicode="&#x498;" 
d="M684 -288q0 52 -43.5 70t-133.5 18l13 177q-273 17 -448 200l109 98q174 -149 389 -149q164 0 255 77t91 210q0 135 -90 201.5t-239 66.5h-250l20 150h215q129 0 217.5 58.5t88.5 173.5q0 109 -85.5 167t-220.5 58q-112 0 -200 -34.5t-172 -101.5l-101 106
q210 175 475 175q222 0 354 -101.5t132 -265.5q0 -125 -82.5 -203t-209.5 -96q142 -12 240.5 -102.5t98.5 -245.5q0 -177 -125.5 -298.5t-339.5 -140.5v-97q95 -8 142 -56t47 -115q0 -96 -71.5 -148t-177.5 -52q-129 0 -214 50l55 99q64 -33 138 -33q123 0 123 84z" />
    <glyph glyph-name="uni0499" unicode="&#x499;" 
d="M392 634h195q107 0 170 44.5t63 117.5q0 168 -256 168q-83 0 -171 -25.5t-161 -71.5l-81 104q81 61 193.5 95.5t225.5 34.5q122 0 217 -31.5t153 -99t58 -162.5q0 -87 -59 -145.5t-159 -87.5q119 -12 199 -77.5t80 -174.5q0 -148 -110 -236.5t-293 -105.5v-98
q95 -8 142.5 -56t47.5 -115q0 -96 -72.5 -148t-177.5 -52q-129 0 -214 50l55 99q64 -33 138 -33q122 0 122 84q0 52 -43 70t-134 18l14 176q-249 10 -423 151l82 111q165 -119 381 -119q146 0 221.5 53t75.5 146q0 176 -274 176h-217z" />
    <glyph glyph-name="uni049A" unicode="&#x49a;" 
d="M535 667h-163v-667h-178v1410h178v-594h166l432 594h192l-475 -664l412 -598h103v-449h-141l-30 301h-45z" />
    <glyph glyph-name="uni049B" unicode="&#x49b;" 
d="M216 0v1078h172v-436h216l311 436h194l-363 -499l318 -439h138v-441h-142l-31 301h-72l-356 503h-213v-503h-172z" />
    <glyph glyph-name="uni049C" unicode="&#x49c;" 
d="M468 308v359h-100v-667h-174v1410h174v-594h100v350h110v-350h53l347 594h186l-393 -664l432 -746h-198l-375 667h-52v-359h-110z" />
    <glyph glyph-name="uni049D" unicode="&#x49d;" 
d="M216 0v1078h174v-434h92v236h97v-236h57l293 434h180l-334 -496l390 -582h-188l-341 500h-57v-253h-97v253h-92v-500h-174z" />
    <glyph glyph-name="uni049E" unicode="&#x49e;" 
d="M570 667h-163v-667h-179v1080h-152v134h152v196h179v-196h233v-134h-233v-264h165l393 594h192l-434 -664l473 -746h-215z" />
    <glyph glyph-name="uni049F" unicode="&#x49f;" 
d="M730 579l420 -579h-209l-356 503h-172v-503h-172v1162h-162v137h162v213l172 22v-235h305v-137h-305v-520h176l311 436h194z" />
    <glyph glyph-name="uni04A0" unicode="&#x4a0;" 
d="M593 667h-141v-667h-182v1254h-246v156h428v-593h143l400 593h194l-441 -664l480 -746h-217z" />
    <glyph glyph-name="uni04A1" unicode="&#x4a1;" 
d="M272 0v945h-257v133h429v-436h196l313 436h195l-367 -499l422 -579h-209l-358 503h-192v-503h-172z" />
    <glyph glyph-name="uni04A2" unicode="&#x4a2;" 
d="M884 0v669h-533v-669h-177v1410h177v-596h533v596h177v-1262h124v-449h-142l-29 301h-130z" />
    <glyph glyph-name="uni04A3" unicode="&#x4a3;" 
d="M821 0v480h-473v-480h-172v1078h172v-456h473v456h172v-938h167v-441h-142l-30 301h-167z" />
    <glyph glyph-name="uni04A4" unicode="&#x4a4;" 
d="M769 0v670h-453v-670h-178v1410h178v-596h453v596h469l-18 -147h-274v-1263h-177z" />
    <glyph glyph-name="uni04A5" unicode="&#x4a5;" 
d="M767 0v480h-413v-480h-172v1078h172v-456h413v456h467l-17 -141h-278v-937h-172z" />
    <glyph glyph-name="uni04A6" unicode="&#x4a6;" 
d="M534 0v1251h-300v-1251h-178v1410h656v-569q88 83 208 83q136 0 215 -88t79 -234v-722q0 -152 -81.5 -232.5t-214.5 -80.5q-130 0 -231 76l69 118q41 -26 73 -37t81 -11q127 0 127 154v738q0 81 -38 121.5t-107 40.5q-92 0 -180 -76v-691h-178z" />
    <glyph glyph-name="uni04A7" unicode="&#x4a7;" 
d="M57 0v1078h673v-448q89 86 225 86q117 0 191.5 -78.5t74.5 -204.5v-555q0 -152 -81 -231.5t-222 -79.5q-133 0 -232 76l69 113q43 -25 74.5 -35.5t78.5 -10.5q138 0 138 156v553q0 76 -34.5 117t-98.5 41q-102 0 -183 -79v-498h-178v936h-318v-936h-177z" />
    <glyph glyph-name="uni04A8" unicode="&#x4a8;" 
d="M642 -23q-262 0 -415.5 190.5t-153.5 539.5q0 173 45.5 313.5t123 229t176 136t208.5 47.5q119 0 202.5 -32.5t173.5 -103.5l-94 -118q-128 104 -278 104q-73 0 -135.5 -30t-115.5 -94.5t-83.5 -180t-30.5 -271.5q0 -297 102 -436t283 -139q4 0 12.5 0.5t13.5 0.5
q-147 215 -147 387q0 155 93.5 259t238.5 104q157 0 244 -97t87 -255q0 -144 -70 -276t-198 -206q104 -129 159 -204l-117 -88q-34 44 -97.5 123t-89.5 113q-67 -16 -137 -16zM707 521q0 -175 123 -349q88 44 133.5 136.5t45.5 223.5q0 206 -147 206q-76 0 -115.5 -57.5
t-39.5 -159.5z" />
    <glyph glyph-name="uni04A9" unicode="&#x4a9;" 
d="M941 -243q-129 137 -205 235q-70 -16 -140 -16q-222 0 -350 146.5t-128 406.5q0 261 123 416.5t337 155.5q143 0 249 -60l-70 -125q-77 41 -172 41q-133 0 -207 -106.5t-74 -315.5q0 -417 299 -417q28 0 40 1q-113 175 -113 320q0 131 81 220.5t222 89.5q134 0 214 -83
t80 -219q0 -122 -65 -229.5t-180 -171.5q71 -89 176 -203zM701 439q0 -131 98 -280q158 80 158 288q0 76 -32.5 120t-91.5 44q-63 0 -97.5 -47t-34.5 -125z" />
    <glyph glyph-name="uni04AA" unicode="&#x4aa;" 
d="M733 1433q133 0 227 -33.5t182 -104.5l-100 -115q-123 104 -296 104q-91 0 -166 -30.5t-136 -96t-95.5 -180.5t-34.5 -271q0 -153 32.5 -266.5t92 -180t135 -98.5t168.5 -32q108 0 184.5 31.5t143.5 86.5l92 -117q-136 -133 -354 -150q151 -98 151 -243q0 -102 -69 -164
t-187 -62q-114 0 -198 51l45 104q27 -13 38 -18t41.5 -12.5t62.5 -7.5q58 0 88 31t30 86q0 135 -156 237q-234 31 -379 220t-145 504q0 173 48 313t131 229.5t191.5 137t232.5 47.5z" />
    <glyph glyph-name="uni04AB" unicode="&#x4ab;" 
d="M693 125q144 0 281 94l84 -113q-115 -96 -279 -122q159 -99 159 -247q0 -102 -69.5 -164t-186.5 -62q-115 0 -199 51l45 104q76 -38 143 -38q57 0 86.5 31t29.5 86q0 133 -150 233q-213 19 -331.5 168t-118.5 389q0 163 58.5 290t175 201.5t274.5 74.5q207 0 361 -125
l-84 -115q-140 96 -279 96q-145 0 -232 -107.5t-87 -314.5t86.5 -308.5t232.5 -101.5z" />
    <glyph glyph-name="uni04AC" unicode="&#x4ac;" 
d="M826 148v-449h-141l-30 301h-133v1257h-440v153h1064l-19 -153h-428v-1109h127z" />
    <glyph glyph-name="uni04AD" unicode="&#x4ad;" 
d="M867 140v-441h-143l-30 301h-166v935h-394v143h973l-21 -143h-386v-795h167z" />
    <glyph glyph-name="Ustraitcy" unicode="&#x4ae;" 
d="M705 544v-544h-181v542l-476 868h197l373 -707l378 707h185z" />
    <glyph glyph-name="ustraitcy" unicode="&#x4af;" 
d="M530 -434v468l-412 1044h182l318 -880l315 880h178l-413 -1044v-447z" />
    <glyph glyph-name="Ustraitstrokecy" unicode="&#x4b0;" 
d="M968 652v-137h-263v-515h-181v515h-263v137h203l-416 758h197l373 -707l378 707h185l-417 -758h204z" />
    <glyph glyph-name="ustraitstrokecy" unicode="&#x4b1;" 
d="M530 -434v443h-216v138h171l-367 931h182l318 -880l315 880h178l-368 -931h170v-138h-215v-422z" />
    <glyph glyph-name="uni04B2" unicode="&#x4b2;" 
d="M1178 148v-449h-142l-29 301h-45l-352 637l-355 -637h-192l443 752l-405 658h204l309 -542l311 542h192l-400 -649l360 -613h101z" />
    <glyph glyph-name="uni04B3" unicode="&#x4b3;" 
d="M310 0h-196l398 569l-349 509h204l249 -401l253 401h197l-348 -501l397 -577h-211l-295 463zM701 140v-441h-142l-30 301h-72l5 140h239z" />
    <glyph glyph-name="uni04B4" unicode="&#x4b4;" 
d="M262 0v1265h-262v145h709l-20 -145h-245v-1118h425v1263h183v-1262h102v-449h-145l-30 301h-717z" />
    <glyph glyph-name="uni04B5" unicode="&#x4b5;" 
d="M1136 140v-441h-144l-29 301h-706v943h-257v135h693l-18 -135h-244v-800h408v935h174v-938h123z" />
    <glyph glyph-name="uni04B6" unicode="&#x4b6;" 
d="M1184 148v-449h-142l-29 301h-132v577q-94 -69 -176 -98t-190 -29q-186 0 -299 113t-113 302v545h179v-529q0 -276 276 -276q195 0 323 124v681h177v-1262h126z" />
    <glyph glyph-name="uni04B7" unicode="&#x4b7;" 
d="M1148 140v-441h-142l-30 301h-167v457q-62 -57 -151 -89.5t-188 -32.5q-155 0 -235.5 82.5t-80.5 234.5v426h172v-405q0 -106 45.5 -153.5t141.5 -47.5q80 0 163.5 33.5t132.5 89.5v483h172v-938h167z" />
    <glyph glyph-name="uni04B8" unicode="&#x4b8;" 
d="M652 1103v-490q134 23 229 116v681h177v-1410h-177v577q-126 -91 -229 -113v-219h-120v205h-17q-186 0 -299 113t-113 302v545h179v-529q0 -263 250 -275v497h120z" />
    <glyph glyph-name="uni04B9" unicode="&#x4b9;" 
d="M625 796v-314q130 30 204 113v483h172v-1078h-172v457q-87 -78 -204 -106v-165h-112v150q-7 -1 -23 -1q-155 0 -235.5 82.5t-80.5 234.5v426h172v-405q0 -101 40.5 -148.5t126.5 -52.5v324h112z" />
    <glyph glyph-name="uni04BA" unicode="&#x4ba;" 
d="M720 921q185 0 293.5 -117t108.5 -322v-482h-177v480q0 138 -64 211.5t-190 73.5q-110 0 -190 -40.5t-153 -123.5v-601h-177v1410h177v-645q148 156 372 156z" />
    <glyph glyph-name="uni04BB" unicode="&#x4bb;" 
d="M208 0v1510l172 19v-719q122 167 323 167q148 0 234.5 -88.5t86.5 -240.5v-648h-172v622q0 117 -47 168t-136 51q-94 0 -162 -49t-127 -142v-650h-172z" />
    <glyph glyph-name="uni04BC" unicode="&#x4bc;" 
d="M1 865q0 100 80 213l117 -53q-42 -89 -42 -145q0 -105 105 -105h12q17 307 143 482.5t322 175.5t309.5 -180t113.5 -522q0 -53 -5 -99h-704q2 -134 26.5 -234.5t67 -159.5t95 -87.5t116.5 -28.5q59 0 111.5 15.5t78.5 31t70 45.5l85 -106q-157 -132 -343 -132
q-216 0 -346.5 167.5t-140.5 487.5q-130 1 -200.5 67.5t-70.5 166.5zM736 1290q-123 0 -196.5 -127t-87.5 -388h542q-19 515 -258 515z" />
    <glyph glyph-name="uni04BD" unicode="&#x4bd;" 
d="M464 478q4 -176 86 -266t209 -90q70 0 122 19.5t119 60.5l84 -109q-142 -117 -326 -117q-204 0 -327.5 137t-137.5 368q-132 1 -201.5 63t-69.5 165q0 56 20.5 103t58.5 104l111 -53q-43 -88 -43 -145q0 -107 105 -107h20q18 217 134.5 353.5t297.5 136.5q194 0 302 -141
t108 -388q0 -22 -3 -94h-669zM728 962q-113 0 -182.5 -88t-80.5 -263h507q-6 351 -244 351z" />
    <glyph glyph-name="uni04BE" unicode="&#x4be;" 
d="M1 865q0 100 80 213l117 -53q-42 -89 -42 -145q0 -105 105 -105h12q17 307 143 482.5t322 175.5t309.5 -180t113.5 -522q0 -53 -5 -99h-704q2 -134 26.5 -234.5t67 -159.5t95 -87.5t116.5 -28.5q59 0 111.5 15.5t78.5 31t70 45.5l85 -106q-92 -78 -190 -109
q-146 -65 -198 -119t-52 -114q0 -99 113 -99q51 0 127 15l-18 -138q-72 -14 -129 -14q-114 0 -182 57t-68 145q0 152 178 250q-184 28 -292.5 193t-118.5 456q-130 1 -200.5 67.5t-70.5 166.5zM736 1290q-123 0 -196.5 -127t-87.5 -388h542q-19 515 -258 515z" />
    <glyph glyph-name="uni04BF" unicode="&#x4bf;" 
d="M464 478q4 -176 86 -266t209 -90q70 0 122 19.5t119 60.5l84 -109q-81 -66 -179 -94q-145 -65 -197.5 -119t-52.5 -114q0 -99 114 -99q50 0 128 15l-18 -138q-72 -14 -130 -14q-114 0 -181.5 57t-67.5 145q0 153 178 251q-170 26 -271.5 158.5t-113.5 339.5
q-132 1 -201.5 63t-69.5 165q0 56 20.5 103t58.5 104l111 -53q-43 -88 -43 -145q0 -107 105 -107h20q18 217 134.5 353.5t297.5 136.5q194 0 302 -141t108 -388q0 -22 -3 -94h-669zM728 962q-113 0 -182.5 -88t-80.5 -263h507q-6 351 -244 351z" />
    <glyph glyph-name="uni04C0" unicode="&#x4c0;" 
d="M1018 1410v-142h-313v-1126h313v-142h-807v142h313v1126h-313v142h807z" />
    <glyph glyph-name="uni04C1" unicode="&#x4c1;" 
d="M609 1582q-122 0 -206 61t-96 171l120 25q22 -66 65.5 -94.5t116.5 -28.5q150 0 191 123l118 -25q-12 -110 -98 -171t-211 -61zM536 669h-127l-212 -669h-172l250 746l-221 664h171l186 -596h125v596h157v-596h125l188 596h169l-222 -664l251 -746h-176l-210 669h-125
v-669h-157v669z" />
    <glyph glyph-name="uni04C2" unicode="&#x4c2;" 
d="M609 1324q-123 0 -206.5 60.5t-95.5 170.5l120 26q22 -66 65.5 -94.5t116.5 -28.5q150 0 191 123l118 -26q-12 -110 -98 -170.5t-211 -60.5zM538 0v505h-115l-213 -505h-170l250 579l-230 499h174l189 -438h115v438h153v-438h115l193 438h169l-229 -499l250 -579h-175
l-212 505h-111v-505h-153z" />
    <glyph glyph-name="uni04C3" unicode="&#x4c3;" 
d="M171 0v1410h177v-620h202l354 620h190l-376 -627q372 -47 372 -434v-473q0 -152 -79 -230.5t-218 -78.5q-131 0 -230 76l67 117q42 -26 74.5 -37t80.5 -11q127 0 127 154v481q0 153 -74 223t-248 70h-242v-640h-177z" />
    <glyph glyph-name="uni04C4" unicode="&#x4c4;" 
d="M219 0v1078h172v-463h138l290 463h186l-305 -464q144 -14 221.5 -98t77.5 -237v-403q0 -150 -80.5 -229.5t-217.5 -79.5q-129 0 -230 76l68 111q42 -24 74.5 -35t80.5 -11q133 0 133 154v394q0 122 -50.5 171t-171.5 49h-214v-476h-172z" />
    <glyph glyph-name="uni04C5" unicode="&#x4c5;" 
d="M1189 141l-158 -442h-139l71 301h-135v1257h-318l-50 -417q-17 -140 -35 -247t-35.5 -187t-41 -140.5t-44 -101t-53 -76t-60.5 -58t-73 -53.5l-78 133q36 31 53 48.5t46.5 66.5t48.5 113t42.5 179t44.5 273l80 620h650v-1269h184z" />
    <glyph glyph-name="uni04C6" unicode="&#x4c6;" 
d="M1141 135l-135 -436h-142l71 301h-125v935h-342l-25 -285q-12 -147 -27 -245t-34.5 -167.5t-52.5 -116.5t-70.5 -78t-99.5 -66l-74 111q35 22 56 40t45.5 56.5t39.5 93t29.5 145.5t24.5 219l32 436h670v-943h159z" />
    <glyph glyph-name="uni04C7" unicode="&#x4c7;" 
d="M761 -433q-130 0 -231 76l68 117q40 -25 73.5 -36.5t82.5 -11.5q127 0 127 154v803h-533v-669h-177v1410h177v-596h533v596h177v-1534q0 -152 -79.5 -230.5t-217.5 -78.5z" />
    <glyph glyph-name="uni04C8" unicode="&#x4c8;" 
d="M725 -433q-129 0 -230 76l67 111q41 -24 74.5 -35t81.5 -11q133 0 133 154v618h-473v-480h-172v1078h172v-456h473v456h172v-1202q0 -150 -80.5 -229.5t-217.5 -79.5z" />
    <glyph glyph-name="uni04C9" unicode="&#x4c9;" 
d="M819 0v670h-494v-670h-177v1410h177v-596h494v596h177v-1269h185l-159 -442h-139l70 301h-134z" />
    <glyph glyph-name="uni04CA" unicode="&#x4ca;" 
d="M816 0v480h-435v-480h-172v1078h172v-456h435v456h172v-943h159l-136 -436h-141l71 301h-125z" />
    <glyph glyph-name="uni04CB" unicode="&#x4cb;" 
d="M282 1410v-529q0 -276 276 -276q195 0 323 124v681h177v-1410h-177v577q-94 -69 -176 -98t-190 -29q-186 0 -299 113t-113 302v545h179zM540 148h202l13 -148h-44l-30 -301h-141v449z" />
    <glyph glyph-name="uni04CC" unicode="&#x4cc;" 
d="M685 140h144v332q-62 -56 -151 -88.5t-188 -32.5q-155 0 -235.5 83t-80.5 235v409h172v-389q0 -107 45.5 -154.5t142.5 -47.5q81 0 164.5 33.5t130.5 88.5v469h172v-1078h-144l-30 -301h-142v441z" />
    <glyph glyph-name="uni04CD" unicode="&#x4cd;" 
d="M1238 141l-160 -442h-143l71 301h-94l-43 736q-12 215 -12 498l-208 -981h-178l-220 981q0 -340 -8 -496l-37 -738h-168l80 1410h248l199 -966l190 966h249l71 -1269h163z" />
    <glyph glyph-name="uni04CE" unicode="&#x4ce;" 
d="M1223 135l-137 -436h-138l71 301h-100l-42 527q-15 199 -8 400l-184 -746h-171l-208 746q8 -174 -4 -397l-31 -530h-163l75 1078h228l192 -736l174 736h230l68 -943h148z" />
    <glyph glyph-name="uni04CF" unicode="&#x4cf;" 
d="M626 1512v-1246q0 -146 178 -146q89 0 181 38l46 -126q-112 -56 -256 -56q-145 0 -233 80t-88 219v1101h-331v136h503z" />
    <glyph glyph-name="uni04D0" unicode="&#x4d0;" 
d="M609 1582q-122 0 -206 61t-96 171l120 25q22 -66 65.5 -94.5t116.5 -28.5q150 0 191 123l118 -25q-12 -110 -98 -171t-211 -61zM888 359h-558l-113 -359h-175l459 1410h227l459 -1410h-187zM376 507h466l-232 754z" />
    <glyph glyph-name="uni04D1" unicode="&#x4d1;" 
d="M593 1324q-123 0 -206.5 60.5t-95.5 170.5l120 26q21 -66 65 -94.5t117 -28.5q149 0 189 123l119 -26q-12 -110 -97.5 -170.5t-210.5 -60.5zM978 236q0 -63 20.5 -94t67.5 -45l-42 -121q-155 20 -198 152q-57 -74 -145 -113t-193 -39q-161 0 -254.5 90.5t-93.5 242.5
q0 167 130 256t376 89h159v90q0 113 -65.5 163.5t-191.5 50.5q-123 0 -281 -55l-45 130q182 68 352 68q197 0 300.5 -92.5t103.5 -255.5v-517zM532 108q80 0 152 40t121 112v278h-156q-324 0 -324 -227q0 -203 207 -203z" />
    <glyph glyph-name="uni04D2" unicode="&#x4d2;" 
d="M402 1573q-49 0 -80.5 30.5t-31.5 77.5q0 49 31.5 80t80.5 31q46 0 78.5 -31.5t32.5 -79.5q0 -46 -32.5 -77t-78.5 -31zM824 1573q-47 0 -78.5 31t-31.5 77q0 48 31.5 79.5t78.5 31.5q49 0 81 -31t32 -80q0 -47 -32 -77.5t-81 -30.5zM888 359h-558l-113 -359h-175
l459 1410h227l459 -1410h-187zM376 507h466l-232 754z" />
    <glyph glyph-name="uni04D3" unicode="&#x4d3;" 
d="M386 1328q-49 0 -81.5 31t-32.5 78t32.5 78.5t81.5 31.5q46 0 78 -31.5t32 -78.5q0 -46 -32.5 -77.5t-77.5 -31.5zM807 1328q-46 0 -78 31.5t-32 77.5q0 47 32 78.5t78 31.5q49 0 81.5 -31.5t32.5 -78.5t-32.5 -78t-81.5 -31zM978 236q0 -63 20.5 -94t67.5 -45l-42 -121
q-155 20 -198 152q-57 -74 -145 -113t-193 -39q-161 0 -254.5 90.5t-93.5 242.5q0 167 130 256t376 89h159v90q0 113 -65.5 163.5t-191.5 50.5q-123 0 -281 -55l-45 130q182 68 352 68q197 0 300.5 -92.5t103.5 -255.5v-517zM532 108q80 0 152 40t121 112v278h-156
q-324 0 -324 -227q0 -203 207 -203z" />
    <glyph glyph-name="uni04D4" unicode="&#x4d4;" 
d="M675 359h-417l-101 -359h-182l414 1410h770l-21 -144h-483l105 -479h381v-144h-354l106 -499h351v-144h-494zM304 509h339l-150 761z" />
    <glyph glyph-name="uni04D5" unicode="&#x4d5;" 
d="M890 1101q179 0 265.5 -137.5t86.5 -391.5q0 -60 -4 -96h-551q14 -184 69 -269.5t163 -85.5q56 0 101 19.5t101 61.5l80 -118q-136 -108 -285 -108q-107 0 -182 48t-133 149q-64 -108 -131.5 -152.5t-169.5 -44.5q-142 0 -227 91t-85 242q0 169 112 258t327 89h92v88
q0 213 -186 213q-52 0 -98 -12.5t-115 -42.5l-47 130q150 69 276 69q113 0 177 -46t96 -133q32 85 100.5 132t167.5 47zM885 958q-93 0 -139 -78.5t-59 -268.5h387q-3 178 -45.5 262.5t-143.5 84.5zM519 538h-86q-140 0 -200 -57t-60 -163q0 -101 41 -154.5t111 -53.5
q66 0 116.5 46t103.5 145q-26 119 -26 237z" />
    <glyph glyph-name="uni04D6" unicode="&#x4d6;" 
d="M653 1582q-122 0 -206 61t-96 171l119 25q22 -66 65.5 -94.5t117.5 -28.5q149 0 190 123l119 -25q-12 -110 -98.5 -171t-210.5 -61zM435 1265v-475h522v-147h-522v-501h641v-142h-819v1410h801l-21 -145h-602z" />
    <glyph glyph-name="uni04D7" unicode="&#x4d7;" 
d="M631 1324q-123 0 -206.5 60.5t-95.5 170.5l120 26q22 -66 65.5 -94.5t116.5 -28.5q149 0 190 123l118 -26q-12 -110 -97.5 -170.5t-210.5 -60.5zM341 478q6 -178 93.5 -268t221.5 -90q80 0 147 23.5t141 73.5l81 -114q-75 -60 -173 -93.5t-198 -33.5q-232 0 -362.5 153
t-130.5 409q0 248 129 405.5t342 157.5q204 0 321 -141.5t117 -387.5q0 -46 -4 -94h-725zM634 959q-125 0 -203.5 -87.5t-88.5 -260.5h562q-3 170 -74.5 259t-195.5 89z" />
    <glyph glyph-name="uni04D8" unicode="&#x4d8;" 
d="M91 679q0 45 6 100h850q-9 268 -98.5 389.5t-253.5 121.5q-95 0 -170 -30.5t-154 -89.5l-91 106q188 157 420 157q259 0 394 -179t135 -530t-139.5 -549.5t-381.5 -198.5q-243 0 -380 179.5t-137 523.5zM611 122q307 0 336 510h-683q11 -272 95 -391t252 -119z" />
    <glyph glyph-name="uni04D9" unicode="&#x4d9;" 
d="M598 1101q244 0 361 -147t117 -414q0 -263 -127 -413.5t-348 -150.5q-210 0 -330 141t-120 389q0 59 5 94h734q-12 187 -83.5 272t-211.5 85q-85 0 -152.5 -22.5t-134.5 -78.5l-80 118q154 127 370 127zM601 117q140 0 211.5 81.5t78.5 269.5h-570v-18
q1 -160 73.5 -246.5t206.5 -86.5z" />
    <glyph glyph-name="uni04DA" unicode="&#x4da;" 
d="M388 1573q-49 0 -81 30.5t-32 77.5q0 49 32 80t81 31q46 0 78.5 -31.5t32.5 -79.5q0 -46 -32.5 -77t-78.5 -31zM810 1573q-46 0 -78.5 31t-32.5 77q0 48 32.5 79.5t78.5 31.5q49 0 81 -31t32 -80q0 -47 -32 -77.5t-81 -30.5zM91 679q0 45 6 100h850q-9 268 -98.5 389.5
t-253.5 121.5q-95 0 -170 -30.5t-154 -89.5l-91 106q188 157 420 157q259 0 394 -179t135 -530t-139.5 -549.5t-381.5 -198.5q-243 0 -380 179.5t-137 523.5zM611 122q307 0 336 510h-683q11 -272 95 -391t252 -119z" />
    <glyph glyph-name="uni04DB" unicode="&#x4db;" 
d="M401 1328q-49 0 -80.5 31t-31.5 78t31.5 78.5t80.5 31.5q46 0 78.5 -31.5t32.5 -78.5q0 -46 -32.5 -77.5t-78.5 -31.5zM823 1328q-46 0 -78 31.5t-32 77.5q0 47 32 78.5t78 31.5q49 0 81 -31.5t32 -78.5t-32 -78t-81 -31zM598 1101q244 0 361 -147t117 -414
q0 -263 -127 -413.5t-348 -150.5q-210 0 -330 141t-120 389q0 59 5 94h734q-12 187 -83.5 272t-211.5 85q-85 0 -152.5 -22.5t-134.5 -78.5l-80 118q154 127 370 127zM601 117q140 0 211.5 81.5t78.5 269.5h-570v-18q1 -160 73.5 -246.5t206.5 -86.5z" />
    <glyph glyph-name="uni04DC" unicode="&#x4dc;" 
d="M402 1573q-49 0 -80.5 30.5t-31.5 77.5q0 49 31.5 80t80.5 31q46 0 78.5 -31.5t32.5 -79.5q0 -46 -32.5 -77t-78.5 -31zM824 1573q-47 0 -78.5 31t-31.5 77q0 48 31.5 79.5t78.5 31.5q49 0 81 -31t32 -80q0 -47 -32 -77.5t-81 -30.5zM536 669h-127l-212 -669h-172
l250 746l-221 664h171l186 -596h125v596h157v-596h125l188 596h169l-222 -664l251 -746h-176l-210 669h-125v-669h-157v669z" />
    <glyph glyph-name="uni04DD" unicode="&#x4dd;" 
d="M402 1328q-49 0 -80.5 31t-31.5 78q0 48 31.5 79t80.5 31q46 0 78.5 -31.5t32.5 -78.5q0 -46 -32.5 -77.5t-78.5 -31.5zM824 1328q-47 0 -78.5 31.5t-31.5 77.5q0 47 31.5 78.5t78.5 31.5q49 0 81 -31.5t32 -78.5t-32 -78t-81 -31zM538 0v505h-115l-213 -505h-170
l250 579l-230 499h174l189 -438h115v438h153v-438h115l193 438h169l-229 -499l250 -579h-175l-212 505h-111v-505h-153z" />
    <glyph glyph-name="uni04DE" unicode="&#x4de;" 
d="M398 1573q-49 0 -81 30.5t-32 77.5q0 49 31.5 80t81.5 31q46 0 78 -31.5t32 -79.5q0 -46 -32 -77t-78 -31zM820 1573q-47 0 -78.5 31t-31.5 77q0 48 31.5 79.5t78.5 31.5q48 0 80.5 -31.5t32.5 -79.5q0 -46 -32.5 -77t-80.5 -31zM574 1433q222 0 354 -101.5t132 -265.5
q0 -125 -82.5 -203t-209.5 -96q142 -12 240.5 -102.5t98.5 -245.5q0 -193 -146.5 -318t-392.5 -125q-149 0 -276 52t-220 149l109 98q174 -149 389 -149q164 0 255 77t91 210q0 135 -90 201.5t-239 66.5h-250l20 150h215q129 0 217.5 58.5t88.5 173.5q0 109 -85.5 167
t-220.5 58q-112 0 -200 -34.5t-172 -101.5l-101 106q210 175 475 175z" />
    <glyph glyph-name="uni04DF" unicode="&#x4df;" 
d="M389 1329q-49 0 -81 31t-32 78q0 48 32 79t81 31q47 0 79 -31t32 -79q0 -46 -32.5 -77.5t-78.5 -31.5zM811 1329q-46 0 -78.5 31.5t-32.5 77.5q0 48 32 79t79 31q49 0 81 -31t32 -79q0 -47 -32 -78t-81 -31zM392 634h195q107 0 170 44.5t63 117.5q0 168 -256 168
q-83 0 -171 -25.5t-161 -71.5l-81 104q81 61 193.5 95.5t225.5 34.5q122 0 217 -31.5t153 -99t58 -162.5q0 -87 -59 -145.5t-159 -87.5q119 -12 199 -77.5t80 -174.5q0 -165 -135.5 -256t-354.5 -91q-270 0 -458 151l82 111q165 -119 381 -119q146 0 221.5 53t75.5 146
q0 176 -274 176h-217z" />
    <glyph glyph-name="uni04E0" unicode="&#x4e0;" 
d="M578 -23q-145 0 -244.5 38t-189.5 115l90 111q86 -59 161 -86.5t185 -27.5q155 0 237.5 78.5t82.5 217.5q0 254 -289 254h-247v133l454 452h-620v148h827v-147l-456 -445h36q248 0 363.5 -105.5t115.5 -291.5q0 -199 -137.5 -321.5t-368.5 -122.5z" />
    <glyph glyph-name="uni04E1" unicode="&#x4e1;" 
d="M367 419l447 514h-625v145h823v-134l-462 -524h24q228 0 356.5 -105t128.5 -304q0 -200 -136.5 -322.5t-351.5 -122.5q-151 0 -257.5 45.5t-187.5 139.5l106 93q71 -72 148.5 -103.5t187.5 -31.5q144 0 224 79.5t80 229.5q0 142 -81 206t-246 64h-178v131z" />
    <glyph glyph-name="uni04E2" unicode="&#x4e2;" 
d="M889 1629h-551v131h551v-131zM171 0v1410h176v-713q0 -292 -30 -540l512 1253h229v-1410h-176v714q0 270 30 528l-510 -1242h-231z" />
    <glyph glyph-name="uni04E3" unicode="&#x4e3;" 
d="M889 1384h-551v132h551v-132zM1023 1078v-1078h-172v505q0 207 22 375l-458 -880h-209v1078h172v-504q0 -217 -22 -371l454 875h213z" />
    <glyph glyph-name="uni04E4" unicode="&#x4e4;" 
d="M402 1573q-49 0 -80.5 30.5t-31.5 77.5q0 49 31.5 80t80.5 31q46 0 78.5 -31.5t32.5 -79.5q0 -46 -32.5 -77t-78.5 -31zM824 1573q-47 0 -78.5 31t-31.5 77q0 48 31.5 79.5t78.5 31.5q49 0 81 -31t32 -80q0 -47 -32 -77.5t-81 -30.5zM171 0v1410h176v-713
q0 -292 -30 -540l512 1253h229v-1410h-176v714q0 270 30 528l-510 -1242h-231z" />
    <glyph glyph-name="uni04E5" unicode="&#x4e5;" 
d="M402 1328q-49 0 -80.5 31t-31.5 78q0 48 31.5 79t80.5 31q46 0 78.5 -31.5t32.5 -78.5q0 -46 -32.5 -77.5t-78.5 -31.5zM824 1328q-47 0 -78.5 31.5t-31.5 77.5q0 47 31.5 78.5t78.5 31.5q49 0 81 -31.5t32 -78.5t-32 -78t-81 -31zM1023 1078v-1078h-172v505
q0 207 22 375l-458 -880h-209v1078h172v-504q0 -217 -22 -371l454 875h213z" />
    <glyph glyph-name="uni04E6" unicode="&#x4e6;" 
d="M402 1573q-49 0 -80.5 30.5t-31.5 77.5q0 49 31.5 80t80.5 31q46 0 78.5 -31.5t32.5 -79.5q0 -46 -32.5 -77t-78.5 -31zM824 1573q-47 0 -78.5 31t-31.5 77q0 48 31.5 79.5t78.5 31.5q49 0 81 -31t32 -80q0 -47 -32 -77.5t-81 -30.5zM1134 703q0 -217 -57.5 -379
t-176 -255t-286.5 -93t-286 91t-175.5 252.5t-57.5 381.5q0 217 57.5 380t176 257.5t285.5 94.5q251 0 385.5 -197.5t134.5 -532.5zM947 703q0 290 -79.5 435.5t-253.5 145.5t-253 -146.5t-79 -436.5q0 -287 80.5 -431t251.5 -144q175 0 254 144t79 433z" />
    <glyph glyph-name="uni04E7" unicode="&#x4e7;" 
d="M402 1328q-49 0 -80.5 31t-31.5 78q0 48 31.5 79t80.5 31q46 0 78.5 -31.5t32.5 -78.5q0 -46 -32.5 -77.5t-78.5 -31.5zM824 1328q-47 0 -78.5 31.5t-31.5 77.5q0 47 31.5 78.5t78.5 31.5q49 0 81 -31.5t32 -78.5t-32 -78t-81 -31zM616 1101q224 0 343 -149.5t119 -411.5
q0 -254 -121.5 -409t-342.5 -155q-224 0 -343.5 151t-119.5 411q0 256 121 409.5t344 153.5zM616 961q-281 0 -281 -423q0 -420 279 -420q280 0 280 422q0 421 -278 421z" />
    <glyph glyph-name="uni04E8" unicode="&#x4e8;" 
d="M1134 703q0 -217 -57.5 -379t-176 -255t-286.5 -93t-286 91t-175.5 252.5t-57.5 381.5q0 217 57.5 380t176 257.5t285.5 94.5q251 0 385.5 -197.5t134.5 -532.5zM614 1284q-159 0 -238 -124t-91 -374h657q-11 250 -90 374t-238 124zM614 126q166 0 245.5 131.5
t84.5 392.5h-662q12 -524 332 -524z" />
    <glyph glyph-name="uni04E9" unicode="&#x4e9;" 
d="M616 1101q224 0 343 -149.5t119 -411.5q0 -254 -121.5 -409t-342.5 -155q-224 0 -343.5 151t-119.5 411q0 256 121 409.5t344 153.5zM616 959q-259 0 -277 -342h551q-8 169 -77.5 255.5t-196.5 86.5zM890 480h-551q12 -187 79.5 -274.5t195.5 -87.5q127 0 195.5 88
t80.5 274z" />
    <glyph glyph-name="uni04EA" unicode="&#x4ea;" 
d="M402 1573q-49 0 -80.5 30.5t-31.5 77.5q0 49 31.5 80t80.5 31q46 0 78.5 -31.5t32.5 -79.5q0 -46 -32.5 -77t-78.5 -31zM824 1573q-47 0 -78.5 31t-31.5 77q0 48 31.5 79.5t78.5 31.5q49 0 81 -31t32 -80q0 -47 -32 -77.5t-81 -30.5zM1134 703q0 -217 -57.5 -379
t-176 -255t-286.5 -93t-286 91t-175.5 252.5t-57.5 381.5q0 217 57.5 380t176 257.5t285.5 94.5q251 0 385.5 -197.5t134.5 -532.5zM614 1284q-159 0 -238 -124t-91 -374h657q-11 250 -90 374t-238 124zM614 126q166 0 245.5 131.5t84.5 392.5h-662q12 -524 332 -524z" />
    <glyph glyph-name="uni04EB" unicode="&#x4eb;" 
d="M404 1328q-49 0 -80.5 31t-31.5 78q0 48 31.5 79t80.5 31q46 0 78.5 -31.5t32.5 -78.5q0 -46 -32.5 -77.5t-78.5 -31.5zM826 1328q-47 0 -78.5 31.5t-31.5 77.5q0 47 31.5 78.5t78.5 31.5q49 0 81 -31.5t32 -78.5t-32 -78t-81 -31zM616 1101q224 0 343 -149.5t119 -411.5
q0 -254 -121.5 -409t-342.5 -155q-224 0 -343.5 151t-119.5 411q0 256 121 409.5t344 153.5zM616 959q-259 0 -277 -342h551q-8 169 -77.5 255.5t-196.5 86.5zM890 480h-551q12 -187 79.5 -274.5t195.5 -87.5q127 0 195.5 88t80.5 274z" />
    <glyph glyph-name="uni04EC" unicode="&#x4ec;" 
d="M380 1574q-49 0 -81 30.5t-32 77.5q0 49 32 80t81 31q46 0 78 -31.5t32 -79.5q0 -46 -32 -77t-78 -31zM802 1574q-46 0 -78 31t-32 77q0 48 32 79.5t78 31.5q49 0 81 -31t32 -80q0 -47 -32 -77.5t-81 -30.5zM551 1433q260 0 406 -179.5t146 -529.5q0 -363 -151 -555.5
t-417 -192.5q-135 0 -251.5 48.5t-197.5 132.5l108 102q146 -134 329 -134q187 0 285.5 128.5t111.5 396.5h-621v150h621q-14 259 -108.5 373.5t-268.5 114.5q-108 0 -186.5 -35.5t-155.5 -98.5l-99 106q195 173 449 173z" />
    <glyph glyph-name="uni04ED" unicode="&#x4ed;" 
d="M391 1328q-49 0 -80.5 31t-31.5 78q0 48 31.5 79t80.5 31q46 0 78.5 -31.5t32.5 -78.5q0 -46 -32.5 -77.5t-78.5 -31.5zM813 1328q-47 0 -79 31.5t-32 77.5q0 47 32 78.5t79 31.5q49 0 81 -31.5t32 -78.5t-32 -78t-81 -31zM569 1101q242 0 365.5 -147.5t123.5 -407.5
t-129.5 -415t-369.5 -155q-102 0 -200.5 33.5t-171.5 94.5l84 114q132 -98 287 -98q142 0 226 89.5t96 274.5h-510v137h508q-15 171 -95 256.5t-215 85.5q-160 0 -288 -98l-82 113q71 59 170.5 91t200.5 32z" />
    <glyph glyph-name="uni04EE" unicode="&#x4ee;" 
d="M909 1629h-551v131h551v-131zM1188 1410l-431 -1041q-39 -93 -79.5 -155.5t-99 -113.5t-138.5 -80.5t-191 -43.5l-27 143q158 22 232.5 77.5t135.5 191.5h-71l-465 1022h185l403 -907l367 907h179z" />
    <glyph glyph-name="uni04EF" unicode="&#x4ef;" 
d="M889 1384h-551v132h551v-132zM1103 1078l-379 -1085q-31 -89 -68 -156t-92.5 -127t-136 -96t-184.5 -47l-27 137q109 18 176.5 58t102 93.5t65.5 144.5h-57l-377 1078h184l310 -947l305 947h178z" />
    <glyph glyph-name="uni04F0" unicode="&#x4f0;" 
d="M423 1573q-49 0 -81 30.5t-32 77.5q0 49 31.5 80t81.5 31q46 0 78.5 -31.5t32.5 -79.5q0 -46 -32.5 -77t-78.5 -31zM845 1573q-47 0 -79 31t-32 77q0 48 32 79.5t79 31.5q49 0 80.5 -31t31.5 -80q0 -47 -31.5 -77.5t-80.5 -30.5zM1188 1410l-431 -1041
q-39 -93 -79.5 -155.5t-99 -113.5t-138.5 -80.5t-191 -43.5l-27 143q158 22 232.5 77.5t135.5 191.5h-71l-465 1022h185l403 -907l367 907h179z" />
    <glyph glyph-name="uni04F1" unicode="&#x4f1;" 
d="M402 1328q-49 0 -80.5 31t-31.5 78q0 48 31.5 79t80.5 31q46 0 78.5 -31.5t32.5 -78.5q0 -46 -32.5 -77.5t-78.5 -31.5zM824 1328q-47 0 -78.5 31.5t-31.5 77.5q0 47 31.5 78.5t78.5 31.5q49 0 81 -31.5t32 -78.5t-32 -78t-81 -31zM1103 1078l-379 -1085
q-31 -89 -68 -156t-92.5 -127t-136 -96t-184.5 -47l-27 137q109 18 176.5 58t102 93.5t65.5 144.5h-57l-377 1078h184l310 -947l305 947h178z" />
    </font>
</defs>
</svg>
