<svg xmlns="http://www.w3.org/2000/svg" viewBox="0 0 300 300">
  
  <path d="m757.396 163.992c1.44.397 2.878 1.125 4.322 1.14 9.604.098 19.21.044 29.593.013 8.415.013 16.054-.03 23.686.172 1.362.037 2.697 1.093 3.932 2.07-.034 1.47.045 2.548.046 3.956-.023.775.034 1.221-.016 2.054-.105 7.847-.105 15.306-.105 23.174 1.665-.129 2.939-.227 4.655-.183 8.857.143 17.272.143 25.727.143.282 1.92.47 3.2.523 4.857-.052 4.783.03 9.189.003 13.99-.036 1.475.038 2.557-.022 3.996.368 2.99.87 5.62 1.76 8.34 1.179.039 1.97-.01 2.988.04.226.098.72.099.72.099s.46-.175.862-.094c1.214.028 2.027-.027 3.238.02 5.525.032 10.653-.035 16.161-.021 1.931.122 3.482.161 5.116.666.177 10.842.27 21.22.234 31.982-.045 1.45.038 2.517.087 3.91.346.46.724.593 1.526.85 2.47.047 4.517-.03 6.996.006 2.203.027 3.975-.056 6-.087 1.313.018 2.37-.016 3.866.075 3.112 1.03 7.081-1.953 8.32 3.25-.054 8.174.044 15.9.056 23.933-.008.503.07.7.015.975-.13.079-.187.38-.64.462a35 35 0 0 0 -2.4.707c-.213.497-.215.92-.28 1.819-.091 35.936-.111 71.397-.152 106.858-.037 31.961-.097 63.922-.618 95.947-9.373.063-18.274.063-27.583.063 0 9.674 0 18.732-.125 28.208-.4 9.15-.673 17.882-.915 26.614.03 0 .009-.059-.446-.178-9.492-.119-18.53-.119-27.603-.119-.226 1.539-.496 2.51-.491 3.478.039 7.602.13 15.205-.294 22.909-9.677.102-18.854.102-28.563.102 0 9.607 0 18.182-.248 26.748-.578.046-.893.145-1.675.226-10.579-.062-20.677-.062-31.485-.062v25.922h-41.295c0 9.02 0 17.465.042 25.916.043.006.015-.076-.446-.127-28.1-.027-55.74-.003-83.39.068-.011.047.085.038.116-.423.03-8.711.03-16.963.03-25.657-23.191 0-45.646 0-68.126.036-.025.036.032.103.043-.36.012-8.69.012-16.915.012-25.155h-29.36c0 8.768 0 17.212-.182 26.021-.236 8.789-.291 17.212-.599 25.974-.403 1.651-.69 2.964-.685 4.276q.177 47.877.43 95.754c.004.763.325 1.523.5 2.293 9.413 0 18.525 0 27.99.084 1.066.176 1.782.267 2.495.797-.046 21.077-.089 41.716-.576 62.376-74.615.026-148.786.033-223.003-.423a2521 2521 0 0 1 -.236-31.928c.09-10.384.09-20.305.09-30.872h28.107v-31.607h29.593v-502.155h-30.695v-62.632c-9.335 0-18.124 0-27.02-.401-.187-1.218-.267-2.034-.24-3.292.033-3.166-.042-5.888-.022-9.063.013-4.466-.068-8.48-.032-12.907.212-2.132.307-3.85.864-5.564 9.783-.105 19.105-.213 28.884-.211 20.044.129 39.632.184 59.22.15 12.44-.021 24.88-.174 37.778-.156 11.486.043 22.515-.027 34.002.013 9.483.044 18.508-.021 27.926.029 1.47.04 2.548-.035 4.055-.004 3.022.105 5.615.105 8.937.105 0 10.299 0 20.14.084 30.399 7.906.466 15.727.515 23.968.667 2.14.044 3.862-.015 5.956.063 4.45.045 8.529-.047 13.064-.041 4.82.022 9.184-.052 13.99-.006 2.603.436 3.817-.071 3.746-2.686-.193-7.123-.167-14.252-.143-21.815.084-2.355.084-4.275.084-6.55 21.136 0 41.573.031 62.01-.008 20.62-.038 41.24-.145 61.86-.223.745.124 1.491.247 2.605.746.51 10.073.655 19.77.798 29.469m-38.03 335.313h29.925c0-10.523 0-20.393.894-30.389h30.029v-5.981c-.009-23.66.008-47.321-.037-70.982-.02-9.99-.17-19.98-.063-30.887v-31.054c-10.688 0-20.907 0-31.085-.938v-30.974c-10.811 0-20.926 0-31.073-.955v-30.333c-10.77 0-20.872 0-31.855-.31-10.704.113-21.408.225-33.025.11h-30.2c0 10.761 0 21.02-.92 31.308h-30.04c0 11.203 0 21.603-.92 32.12h-29.546c0 12.22 0 24.024-.232 36.754v101.969c10.517 0 20.6 0 30.846.973.07 9.423.138 18.846.062 28.796.291.132.582.264 1.775.674 9.622.098 19.245.195 28.9 1.166v28.524c22.111 0 43.645 0 66.106.184h29.593c0-10.24 0-19.949.864-29.776" fill="#000000" />
  <path d="m368.11 165.278h26.912v62.632h30.695v502.155h-29.593v31.607h-28.108c0 10.567 0 20.488-.545 30.87-9.456.448-18.367.436-27.371-.033-.094-10.25-.094-20.042-.094-30.605h27.642v-32.031h27.187c0-12.297 0-24.084.085-36.329.02-4.82-.046-9.182-.031-14.006.028-5.822-.024-11.181 0-17.004.03-11.152-.014-21.841.024-32.993.016-11.157-.052-21.851-.043-33.01.034-11.15-.01-21.84.031-32.98.035-3.818-.016-7.185.012-10.947.025-1.465-.029-2.534-.003-4.059.034-4.16-.012-7.863-.037-11.833-.256-.478-.533-.69-.805-1.304-.063-1.74-.132-3.077 0-4.79.39-11.456.576-22.535.848-34.077.025-10.823-.034-21.184-.014-32.008.024-11.485-.03-22.508-.001-33.993.026-10.823-.032-21.183-.014-32.006.029-11.486-.018-22.509.019-33.993.017-11.156-.049-21.85-.04-33.008.072-12.781.07-25.1.239-37.808.376-10.633.69-20.878.58-31.118-.01-.871-2.84-2.404-4.396-2.45-7.788-.236-15.587-.079-23.353-.533-.034-31.291-.096-62.108-.227-93.126-.07-.2-.25-.585-.077-.733s.477-.487.477-.487" fill="#000000" />
  <path d="m368.209 824.934c74.171-.006 148.342-.013 223.064-.024.551-.005.75.073.736.544.002 11.097.017 21.724-.427 32.45-5.498.221-10.536.342-15.993.36-2.14-.067-3.862-.033-6.029-.097-3.487-.033-6.528.033-10.03.019-11.155-.017-21.847.045-33 .018-21.481-.041-42.503.008-63.985-.035-7.155-.021-13.85.05-21.005.024a188 188 0 0 0 -7.425-.146c-22.055-.068-44.11-.133-66.155-.657.016-11.1.022-21.74.08-32.407.054-.024.169-.049.169-.049" fill="#000000" />
  <path d="m766.998 690.783c-17.635-.13-35.271-.32-52.907-.375-19.984-.06-39.968 0-60.859-.132-3.763-.035-6.619.07-9.475.175-17.27.041-34.54.083-52.272-.407-.474-10.706-.487-20.882-.03-31.064 22.883-.025 45.295-.044 67.708-.063 0 0-.096.01-.106.447-.023 7.582.043 14.728-.092 21.87-.052 2.742.847 3.767 3.704 3.812 10.767.17 21.528.717 32.295.864 12.126.164 24.258.146 36.385-.004 3.729-.045 7.45-.782 11.58-1.247v-25.797s.028.082.465.093c12.229.002 24.025-.197 35.809.089 4.168.1 5.13-1.404 4.899-5.162-.264-4.3-.06-8.632-.025-12.95.064-7.712.248-7.892 7.696-7.895 8.57-.003 17.139 0 26.359 0 0-7.536.124-14.31-.091-21.071-.051-1.6-1.242-3.163-1.909-4.742.302-.143.617-.242 1.697-.263 9.82.036 18.888.036 28.846.036 0-9.539 0-18.303.497-26.988 9.536.078 18.575.078 27.809.078v-26.15s.022.058.456.006c9.716.043 18.996.139 28.301.677.139 3.423.253 6.404.265 9.843-.102 5.492-.102 10.527-.102 16.272-6.652 0-12.236 0-18.213-.15-3.147-.006-5.9.135-8.968.203-.659.35-1.002.773-1.445 1.619-.062 2.15-.025 3.879-.073 5.974-.031 1.113.024 1.859-.017 3.028-.028 2.151.04 3.88.022 6.061-.085 3.706-.085 6.957-.085 10.75h-28.893v27.403h-28.78v27.824h-37.442c-2.829-.03-5.658-.06-8.95.58-.46 8.095-.457 15.522-.454 22.95-.113.78-.226 1.562-.735 2.86-1.221.66-2.045.803-2.87.946" fill="#000000" />
  <path d="m904.854 294.414c.58-.184 1.16-.368 2.247-.784.508-.232.798-.373 1.17-.054 8.062.32 15.754.32 23.53.32.238 2.52.405 4.3.465 6.478-.043 1.483.023 2.569-.01 4.112-.007 13.48.084 26.502.072 39.914-.035 1.458.033 2.524-.005 4.012-.036 2.146.035 3.871 0 6.015-.041 2.133.023 3.849-.017 6.023.015 12.828.135 25.196.137 37.932-.086 2.787-.053 5.206-.126 8.081-.022 5.82.061 11.184.04 16.977-.053 6.141-.001 11.854-.056 18.023-.179 19.485-.251 38.514-.791 57.537-9.469.008-18.47.023-27.473.028-.001-.009.03.02.03.02.05-31.962.109-63.923.146-95.884.04-35.461.06-70.922.292-106.995.252-.993.3-1.374.35-1.755m-124.938 67.57c.09 9.99.24 19.98.26 29.969.045 23.66.028 47.321.037 70.982v5.981c-10.226 0-20.128 0-30.636.015-.607.014-.923-.093-.803-.482.084-1.735.05-3.081.106-4.89.03-10.834-.033-21.206-.004-32.038.037-11.142-.018-21.824.008-32.844.015-.792-.052-1.247-.033-2.065.027-1.104-.031-1.844.008-2.983.033-1.485-.03-2.571-.006-4.116.013-6.133-.064-11.807-.053-17.833.027-.825-.034-1.3-.004-2.202.11-2.774.128-5.12.618-7.446 10.482-.002 20.492-.025 30.502-.048" fill="#000000" />
  <path d="m591.903 468.764h-30.683c0-34.33 0-68.15.444-102.535 1.508-1.789 2.574-4.07 3.638-4.07 8.861.008 17.722.437 26.671 1.085.167.814.244 1.28.228 2.079-.042.783.01 1.235-.016 2.15-.034 31.813.011 63.165-.023 94.943.011 2.16.102 3.891.097 5.815a5 5 0 0 1 -.355.533" fill="#000000" />
  <path d="m590.986 658.986c.012 10.176.025 20.352.118 30.942-.744 2.33-1.567 4.244-2.505 6.96.015 11.243.143 21.684.272 32.125-.075 2.307-.15 4.614-.479 7.698.008 6.292.271 11.807.534 17.322l-.032 7.19c-9.112.415-18.224.415-27.638.415-.174-.77-.495-1.53-.499-2.293q-.253-47.877-.43-95.754c-.005-1.312.282-2.625 1.13-4.257 10.318-.319 19.939-.318 29.552-.325zm151.482-.175c.46 8.494.46 16.937.46 25.848-4.13.465-7.85 1.202-11.58 1.247-12.126.15-24.258.168-36.384.004-10.767-.147-21.528-.694-32.295-.864-2.857-.045-3.756-1.07-3.704-3.812.135-7.142.069-14.288.103-21.917 27.66-.509 55.3-.533 83.4-.506m73.184-51.649c1.147 1.641 2.338 3.204 2.389 4.804.215 6.762.091 13.535.091 21.07-9.22 0-17.79-.002-26.36.001-7.447.003-7.631.183-7.695 7.895-.036 4.318-.24 8.65.025 12.95.23 3.758-.731 5.263-4.9 5.162-11.783-.286-23.58-.087-35.85-.095-.48-8.462-.48-16.907-.48-25.927h41.295v-25.922c10.808 0 20.906 0 31.485.062" fill="#000000" />
  <path d="m687.98 528.897h-65.177c0-9.698 0-19.11.397-29.068 1.535-.607 2.674-.669 4.277-.667 7.475.005 14.485-.054 21.957-.057 4.162.019 7.864-.02 12.031.007 9.136.136 17.807.21 26.493.718.018 9.98.02 19.523.023 29.067" fill="#000000" />
  <path d="m591.742 762.519c.51-.52 1.018-.601 2.354-.665 4.638.08 8.452.058 12.257.227 4.731.21 9.456.577 14.073 1.338-.002 11.17.105 21.878.07 33.035.06 4.803.262 9.158.251 13.836-.072.796.068 1.27.019 2.163-.384 4.463-.579 8.507-1.24 12.569-9.48 0-18.491-.02-27.502-.039 0 0-.2-.078-.307-.093-.064-20.655-.02-41.294.025-62.371m67.452-104.063c-22.444.48-44.856.499-67.738.524-.47.006-.454.022-.47-.44.036-8.89.087-17.315.137-25.741h68.102c0 8.694 0 16.946-.031 25.657" fill="#000000" />
  <path d="m653.99 266.841c10.703-.113 21.407-.225 32.537.226.453 10.68.48 20.796.037 30.946-11.171.02-21.87.006-32.554-.476.004-10.545-.009-20.62-.02-30.696" fill="#000000" />
  <path d="m591.883 362.897c-8.86-.301-17.721-.73-26.582-.738-1.064 0-2.13 2.281-3.522 3.607-.328-11.701-.328-23.504-.328-35.725 9.797 0 19.67 0 30.073.005.528.006.663.135.631.59-.112 11.057-.192 21.66-.272 32.261m.101-32.909c-.068-10.464-.068-20.864-.068-32.067 10.303 0 20.171 0 30.527.009.489.009.542.055.53.524-.023 10.738-.035 21.006-.403 31.38-1.089.209-1.822.31-2.988.306-3.512-.03-6.592.048-10.004.046-6.019-.055-11.705-.03-17.39-.005z" fill="#000000" />
  <path d="m780.015 361.525c-10.108.482-20.118.505-30.847.523-.719-.005-1.198-.13-1.031-.507.396-10.763.626-21.149.86-31.537.002-.003-.01.008-.01.008h31.127c0 10.628 0 20.84-.099 31.513" fill="#000000" />
  <path d="m717.988 298.1h31.04c0 10.515 0 20.745-.02 31.443-.02.47-.009.458-.478.412-10.514-.012-20.56.024-30.567.055.038-.004.045.073-.02-.398-.016-10.844.033-21.216.054-31.578-.028.01-.01.067-.01.067" fill="#000000" />
  <path d="m687.036 297.98c-.028-10.117-.056-20.233-.07-30.758 10.118-.409 20.22-.409 30.99-.409 0 10.186 0 20.26.016 30.81.016.478-.003.421-.446.398-10.458-.029-20.474-.035-30.49-.041" fill="#000000" />
  <path d="m653.533 266.727c.468 10.19.48 20.265.009 30.815-10.508.464-20.533.453-30.557.443l-.08-.07c-.028-10.281-.028-20.54-.028-31.302 10.364 0 20.282 0 30.656.114" fill="#000000" />
  <path d="m749.13 468.994c.16 9.918.16 19.788.16 30.311-10.51 0-20.217 0-30.486-.049-.562-.05-.817-.269-.78-.735-.007-8.152-.05-15.838-.038-23.95.166-2.015.278-3.603.398-5.3 2.137-.25 3.899-.455 6.116-.568 8.356.106 16.255.12 24.155.135 0 0 .316.107.476.156" fill="#000000" />
  <path d="m688.444 528.99c-.466-9.637-.468-19.18-.117-29.282 1.124-.624 1.896-.692 3.133-.7 9.153.033 17.84.006 26.527-.02 0 0 .255.219.385.327.13 9.817.13 19.526.13 29.766-10.492 0-20.043 0-30.058-.092" fill="#000000" />
  <path d="m340.193 792.966 27.189.038c.55 10.336.642 20.671.781 31.468.046.462-.07.487-.59.495-7.77.01-15.02-.11-22.262.102-1.747.051-3.462 1.2-5.303 1.392-.012-11.466.086-22.48.185-33.495" fill="#000000" />
  <path d="m876.012 526.964v-27.79c9.309 0 18.21 0 27.583-.063.472-.064.44-.092.444.383.061 9.376.118 18.276-.296 27.284-9.558.134-18.645.16-27.731.186" fill="#000000" />
  <path d="m591.098 632.835c-.025 8.39-.076 16.816-.104 25.712-9.598.469-19.22.468-29.285.448-.39-8.442-.334-16.865.386-25.631 10.122-.37 19.579-.398 29.035-.426 0 0-.057-.067-.032-.103" fill="#000000" />
  <path d="m875.887 527.382c9.211-.444 18.298-.47 28.176-.543 1.207.074 1.623.195 2.014.509-.026.192-.09.574-.34.562-.415.017-.58.046-1.066.347-.533 8.822-.745 17.371-.957 25.92-9.28-.095-18.561-.191-28.308-.234-.192-8.679.082-17.41.48-26.56" fill="#000000" />
  <path d="m846.675 579.93v27.067c-9.958 0-19.026 0-28.598-.026-.502-8.6-.502-17.176-.502-26.783 9.709 0 18.886 0 28.563-.123.5-.122.537-.134.537-.134" fill="#000000" />
  <path d="m591.141 632.474c-9.467.492-18.924.52-28.865.525-.483-8.467-.483-16.911-.483-25.679h29.36c0 8.24 0 16.465-.012 25.154" fill="#000000" />
  <path d="m847.172 580.009c-.497-.078-.534-.066-.534-.046-.075-7.581-.167-15.184-.206-22.786-.005-.969.265-1.94.491-3.478 9.074 0 18.11 0 27.603.12.455 8.552.455 16.987.455 26.268-9.234 0-18.273 0-27.809-.078" fill="#000000" />
  <path d="m904.644 294.487c.161.308.113.69-.076 1.207-.138-.287-.136-.71.076-1.207" fill="#000000" />
  <path d="m1038.102 995.998v10.903h-13.875v17.548h-15.467v17.426c-6.946 0-13.35 0-20.258-.481-.503-5.74-.503-10.996-.503-16.726-5.183 0-9.77 0-14.561-.402-.206-5.821-.206-11.24-.206-17.225h-13.972v-52.885c7.02.313 13.737.613 20.406 1.325.107 11.636.263 22.861.424 34.243.006.365.003.574-.143 1.141-.07.859.001 1.358.137 2.187.29.333.514.335.295.528-.427 3.936-.411 7.681-.203 11.795 2.74.373 5.287.378 8.253.481 1.866.195 3.313.293 5.352.43v16.242h9.631v-16.591h13.43c0-4.84 0-8.8.103-13.17.045-10.863-.013-21.319.027-32.175-.132-3.427-.032-6.239 4.495-6.359 5.683.116 10.912.116 16.173.116.191 2.385.322 4.018.375 6.113-.023 12.154.033 23.845.088 35.536" fill="#000000" />
  <path d="m364.002 260.595a167 167 0 0 0 -5.016-.253c-2.546.105-4.266.202-6.431.17-4.503-.252-8.56-.375-12.618-.498v-93.474c4.65 0 8.881 0 13.577-.028 4.768.05 9.072.13 13.82.198.506 30.806.568 61.623.533 92.982-.097.543-.234.683-.601.683-1.333.073-2.298.147-3.264.22" fill="#000000" />
  <path d="m395.105 293.725c-7.508.42-14.842.45-22.634.582-1.718-.105-2.978-.312-4.643-.586 0-9.031 0-17.922-.002-27.667-.066-2.462-.13-4.07-.193-5.68 0 0 .137-.14.206-.208 7.863-.088 15.662-.245 23.45-.01 1.555.047 4.386 1.58 4.395 2.451.111 10.24-.203 20.485-.579 31.118" fill="#000000" />
  <path d="m593.986 858.266a79 79 0 0 1 -1.622-.375c-.338-10.713-.353-21.34-.355-32.438 9.026-.45 18.037-.432 27.607-.089.693 1.479.828 2.634.864 4.228.014 5.44.126 10.441.086 15.88-.151 4.366-.151 8.294-.151 12.166-2.78.276-4.742.47-7.089.587-6.704-.04-13.022 0-19.34.04" fill="#000000" />
  <path d="m367.96 857.39c-8.023.544-16.034.63-24.872.725-1.577-.045-2.328-.098-3.121-.404-.111-.409-.179-.565-.174-1.184.033-7.812-.007-15.162.055-22.845a7.8 7.8 0 0 0 -.1-1.7c.08-1.407.16-2.814.307-4.645 1.794-1.068 3.509-2.217 5.256-2.268 7.241-.212 14.493-.092 22.208-.078.463 10.658.457 21.3.441 32.399" fill="#000000" />
  <path d="m643.916 690.8c2.697-.454 5.553-.559 8.864-.512a49 49 0 0 1 -8.864.512" fill="#000000" />
  <path d="m931.51 499c.542 6.695.617 13.383.784 20.531-.022 2.485-.135 4.51-.738 7.01-3.839.56-7.189.644-10.539.729-4.665-.044-9.331-.089-14.456-.124-.875-.112-1.29-.233-2.027-.415-.377-8.96-.434-17.86-.494-27.227 9-.481 18.001-.496 27.47-.504" fill="#000000" />
  <path d="m717.943 329.612c-31.316.415-62.696.359-94.547.21-.458-10.362-.446-20.63-.422-31.368 10.035-.459 20.06-.448 30.552-.443 11.167.008 21.867.021 33.038.002a6993 6993 0 0 1 30.99-.002c.422 10.385.373 20.757.389 31.6" fill="#000000" />
  <path d="m718.016 361.81c-.047-10.357-.093-20.713-.115-31.433 10.07-.398 20.115-.434 30.626-.42.236 10.435.006 20.821-.39 31.584-1.874.429-3.58.48-5.709.592-2.144 0-3.866-.06-6.46-.118-5.569.047-10.264.092-15.326.045a40 40 0 0 0 -2.626-.25" fill="#000000" />
  <path d="m497.77 1022.989c-.328 6.264-.656 12.53-1.836 18.83-6.62.037-12.388.037-18.752.037v-17.273c-4.74 0-8.88 0-13.095-.32-.29-5.274-.506-10.23-.597-15.534-1.763-.651-3.65-.953-5.852-1.35-.748-.043-1.18.01-1.842-.01-.356.343-.482.76-.687 1.534-.08 5.255-.08 10.15-.08 15.294-3.221.249-5.972.462-8.96.533-.943-.045-1.65.051-2.637.042-.661-.01-1.04.084-1.583.08-.305.312-.445.724-.651 1.6-.443 5.5-.82 10.539-1.647 15.48-3.964.227-7.487.862-10.993.78-3.193-.075-7.319 1.206-8.433-4.17.105-5.354.105-10.252.105-15.915 4.995 0 9.395 0 14 .056.53-.109.597-.348.527-1.05.061-1.473-.002-2.557.022-4.098.085-4.043.085-7.63.085-11.794 4.634 0 8.72 0 13.007.06.406-.344.611-.749.897-1.41.036-.429-.01-.602.036-1.048.03-.84-.033-1.406-.016-2.347.027-1.907-.027-3.438.02-5.397.03-2.002-.041-3.577-.135-5.658-4.812 0-9.23 0-13.703-.43a726 726 0 0 1 -.339-14.922c-4.677-.948-9.404-1.506-14.522-2.11v-12.487c.095-1.266.19-2.532.567-4.319 6.873-.814 13.463-1.108 20.499-1.421v17.693h13.922v16.073h8.827v-16.31h13.376v-17.616c5.84 0 11.272 0 17.04.128 1.483.347 2.63.565 3.738 1.25-.403 6.295-.765 12.123-1.353 17.893-.227-.059-.658.126-1.064.007-3.86-.022-7.312.074-11.133.293-.405.858-.442 1.593-.606 2.753-.037 2.476.052 4.528.02 7.01-.12 2.337-.12 4.246-.12 6.627-4.097 0-7.642.014-11.186-.005-1.99-.01-3.784.119-3.007 3.359-.053 2.825.035 5.22-.025 7.97-.053 1.102.04 1.85.088 3.048 4.509.996 9.064 1.543 14.432 2.188 0 4.997 0 10.195-.037 15.652.272.33.58.398 1.323.568 3.535.05 6.637 0 9.993.032.959.096 1.663.11 2.367.124" fill="#000000" />
  <path d="m924.159 996.56c-.484 3.767-1.048 7.203-2.38 10.64-3.502.068-6.234.134-9.222.102-.614-.046-.972.007-1.737-.044-14.66-.103-28.912-.103-43.385-.103 0 5.355 0 10.128-.041 15.075-.041.176.207.436.207.436s.353-.068.806.067c10.544.086 20.634.038 31.108.075 2.176.105 3.998.344 5.752.098 3.297-.464 4.356 1.113 4.137 4.51-.02 3.837.067 7.224.044 11.039-1.158 1.422-2.156 3.21-3.263 3.28-5.711.36-11.45.282-17.641.268-9.061-.09-17.66-.09-26.715-.09v-17.446h-15.097c0-10.864 0-21.17.077-31.938.077-7.03.077-13.598.077-20.217 3.868-.236 6.983-.425 10.513-.515 3.11.444 4.872-.089 4.54-3.465-.273-2.758-.116-5.558-.052-8.758.173-1.855.249-3.29.365-5.478 9.081 0 17.918 0 27.212.108 6.793.108 13.129.108 19.473.108.285 2.776.483 4.708.575 7.044-.04 1.505.024 2.607-.027 4.1-.045 1.745.026 3.099.018 4.763.035.491.149.672.458 1.161 1.15.298 2.104.287 3.473.365 3.778.184 7.139.28 10.5.375 0 0 .03-.083.025.39.122 7.553.249 14.634.376 21.714-.085.669-.17 1.337-.176 2.336m-57.016-12.366c-.502 3.154.646 4.5 4.02 4.375 5.813-.215 11.638-.069 17.458-.072 4.92-.002 9.84 0 14.599 0v-14.977h-36.074c0 3.496 0 6.624-.003 10.673" fill="#000000" />
  <path d="m591.312 969.968c.094-4.016.188-8.032.294-12.82.482-1.536.95-2.3 1.793-2.918 6.374.147 12.377.147 18.73.147 0 5.431 0 10.025-.093 15.08-.016 8.824.06 17.188.052 26.012-.032 10.483.019 20.504-.015 30.985-.035 5.155.015 9.85-.216 14.868-6.473.793-12.665 1.265-19.286 1.644-14.898-.394-29.367-.695-43.763-.994-.303-1.73-.5-2.852-.578-4.421.043-4.142-.032-7.837-.077-11.842-.356-.391-.742-.471-1.57-.628-2.835-.072-5.227-.07-7.923-.294-2.064-.467-3.825-.707-5.586-.947a41 41 0 0 0 -.286-2.2c-.294-1.948-.5-3.532-.707-5.117.326-5.092.653-10.185.857-15.654a77 77 0 0 1 -.606-3.655c.313-2.097.626-4.195.95-7.21-.054-10.277-.12-19.637-.187-28.998l.659-6.373c6.502 0 12.94 0 19.78.61.452 2.324.502 4.038.45 6.18-.03 2.481.044 4.532.03 6.976-.021 1.46.045 2.526.01 3.964-.028 1.13.045 1.889.03 3.109-.034 15.817.019 31.174.047 46.789.278.333.58.407 1.314.574 2.483.004 4.534-.086 7.034-.077 3.817.047 7.186-.003 10.878.043.77.044 1.214-.01 2.089.04 2.486.032 4.543-.041 7.02-.031 2.128.007 3.836-.07 5.923-.048 4.697.229 3.018-2.676 2.998-5.207.034-1.778-.067-3.158-.02-4.987.09-14.499.032-28.55-.025-42.6m-363.312 101.054-10.989-.567c0-3.542 0-7.042-.002-11.457-.057-11.278-.112-21.64-.08-32.465.036-11.15-.016-21.839.01-32.99.025-11.492-.03-22.52.001-33.974.148-1.846.21-3.267.28-4.846 2.72-.21 5.254-.403 8.124-.46 4.444.055 8.55-.026 12.898.018.764.04 1.286-.046 2.258 0 8.13.039 15.81-.052 23.88-.012 5.647.131 10.904.131 16.805.131 0 4.67 0 8.63-.11 13.016-.54 3.203.06 4.774 3.463 4.549 3.782-.25 7.603.081 11.413.517.095 1.546.184 2.734.21 4.12-.103.484-.06.755-.03 1.432-.108 15.603-.118 30.785-.574 46.092-3.213.278-5.98.43-9.092.445-1.945.06-3.548.256-5.15.453l-.847 17.006h-42.898c0 9.37 0 18.598-.502 28.267-3.357.535-6.213.63-9.07.725m15.645-97.832h-5.526v49.538h37.292v-49.544c-10.535 0-20.667 0-31.766.006m86.255 67.134c.199-5.752.47-11.189 1.37-17.006 4.673-.482 8.717-.583 12.964-.633.205.05.5-.251.5-.251s-.123-.403.022-.853c.146-16.281.146-32.112.146-47.742-5.31-.666-9.938-1.246-14.44-2.278.221-5.968.313-11.484.406-17 11.174.001 22.349.002 33.957.617.529 2.354.624 4.094.604 6.288-.033 10.81.05 21.165 0 31.971-.003 9.522.128 18.592.177 27.92.036.397.154.534.438 1.017 1.433.343 2.699.34 4.41.444 3.041.107 5.638.107 9.147.107l-1.595 19.138c-15.363-.046-30.727-.092-46.55-.038-.8-.394-1.141-.889-1.556-1.7m14.913-111.868c-.039-.901.027-1.356.08-2.556.046-2.454.107-4.162.167-5.87 0 0-.054-.03.341-.03 2.18-.096 3.964-.193 5.748-.29 1.327.076 2.654.15 4.368.12 3.49-.107 6.592-.107 9.924-.107v18.564h-20.524c0-3.219 0-6.301-.104-9.831" fill="#000000" />
  <path d="m791.97 919.99c5.473 0 10.949-.083 16.418.058 1.243.032 2.466.838 3.704 2.083.079 13.48.153 26.165.14 39.273-.008 3.445.07 6.468.063 9.85-.036 1.09.012 1.822-.037 2.963-.053 6.871-.01 13.335-.047 20.259-.02 13.141.042 25.821.01 38.95-.092 3.035-.092 5.62-.092 8.616-5.196 0-9.663 0-14.592-.085-13.82-.011-27.177.063-40.959.057-2.142-.013-3.861.054-5.58.12-.611-.187-1.222-.375-1.927-1.068-.094-.504-.028-.956.235-1.073.125-.57-.012-1.024-.055-1.902.022-4.308-.05-8.191-.114-12.376-.363-.38-.737-.459-1.446-.607-.788-.024-1.24.021-1.692.067-3.571-.075-7.143-.15-11.161-.733-.568-4.82-.69-9.131-.712-13.776.028-2.112-.041-3.889-.014-6.107.01-3.846-.077-7.251-.077-11.084.086-7.333.086-14.238.086-21.66h15.482c-.284-3.989-.527-7.405-.707-11.246.064-2.038.064-3.653.064-5.51 2.923-.357 5.484-.67 8.503-.877 11.147.034 21.837-.04 32.788-.032.421-.012.58-.103 1.056-.324.323-1.033.328-1.935.426-3.296.028-7.479-.037-14.499-.008-21.853.022-.788-.05-1.241-.037-2.124.15-2.474.216-4.518.282-6.562m-.155 96.075c-.07-7.106-.14-14.211-.036-21.896-.084-.39-.17-.78-.099-2.092-.072-5.405-.144-10.81-.02-16.556 0 0-.109-.377.091-1.044-.781-.428-1.56-1.22-2.345-1.225-5.128-.034-10.258.102-16.206-.047-1.406.081-2.811.162-5.12.031-4.016.12-8.033.24-12.812.58v48.818h36.375c0-2.087 0-3.868.172-6.57" fill="#000000" />
  <path d="m686.956 1027c-.07 1.395-.141 2.79-.108 4.592-.003 1.211-.167 2.011-.208 2.818-.374 7.292-.368 7.292-8.207 7.557-3.467.026-6.503-.038-10.409-.104-2.587.072-4.305.145-6.022.219a9 9 0 0 0 -1.4-.254c-.288-8.57-.288-17.159-.288-26.099h26.38c0 2.896 0 5.65.015 9.167.093 1.21.17 1.657.247 2.104" fill="#000000" />

</svg>
