<svg xmlns="http://www.w3.org/2000/svg" width="300" height="300" viewBox="0 0 300 300">
  <style>
    .icon-bg { fill: #f7f3e7; }
    .logo-teal { fill: #248f84; }
    .logo-purple { fill: #663399; }
    .logo-ink { fill: #0f172a; }
    @media (prefers-color-scheme: dark) {
      .icon-bg { fill: #080a0f; }
      .logo-teal { fill: #52e0c4; }
      .logo-purple { fill: #b9a7ff; }
      .logo-ink { fill: #f7f3e7; }
    }
  </style>
  <rect class="icon-bg" width="300" height="300" rx="54" />
  
  <defs>
    <style>
      .px-navy { fill: #001847; }
      .px-cyan { fill: #00BFFF; }
      .px-blue { fill: #0052FF; }
      .px-violet { fill: #7B4FFF; }
    </style>
  </defs>

  <!-- P Letter - Pixelart Voxel 3D -->
  <!-- Navy background/shadow -->
  <g class="px-navy">
    <rect x="64" y="32" width="32" height="32" />
    <rect x="96" y="32" width="64" height="32" />
    <rect x="160" y="32" width="32" height="32" />
    <rect x="64" y="64" width="32" height="32" />
    <rect x="96" y="64" width="96" height="32" />
    <rect x="192" y="64" width="32" height="32" />
    <rect x="64" y="96" width="32" height="32" />
    <rect x="96" y="96" width="96" height="32" />
    <rect x="192" y="96" width="32" height="32" />
    <rect x="64" y="128" width="32" height="32" />
    <rect x="96" y="128" width="64" height="32" />
    <rect x="192" y="128" width="32" height="32" />
    <rect x="64" y="160" width="32" height="32" />
    <rect x="96" y="160" width="32" height="32" />
    <rect x="192" y="160" width="32" height="32" />
    <rect x="64" y="192" width="32" height="32" />
    <rect x="96" y="192" width="32" height="32" />
    <rect x="160" y="192" width="32" height="32" />
    <rect x="192" y="192" width="32" height="32" />
    <rect x="64" y="224" width="32" height="32" />
    <rect x="96" y="224" width="96" height="32" />
    <rect x="192" y="224" width="32" height="32" />
  </g>

  <!-- Cyan - Left edge highlight -->
  <g class="px-cyan">
    <rect x="32" y="64" width="32" height="32" />
    <rect x="32" y="96" width="32" height="32" />
    <rect x="32" y="128" width="32" height="32" />
    <rect x="32" y="160" width="32" height="32" />
    <rect x="32" y="192" width="32" height="32" />
    <rect x="64" y="32" width="32" height="32" />
    <rect x="96" y="224" width="32" height="32" />
    <rect x="96" y="256" width="32" height="32" />
    <rect x="64" y="256" width="32" height="32" />
  </g>

  <!-- Blue - Center interior -->
  <g class="px-blue">
    <rect x="96" y="32" width="32" height="32" />
    <rect x="96" y="64" width="32" height="32" />
    <rect x="96" y="160" width="32" height="32" />
    <rect x="128" y="160" width="32" height="32" />
    <rect x="128" y="192" width="32" height="32" />
    <rect x="128" y="256" width="32" height="32" />
    <rect x="160" y="256" width="32" height="32" />
  </g>

  <!-- Violet - Right gradient -->
  <g class="px-violet">
    <rect x="192" y="32" width="32" height="32" />
    <rect x="224" y="64" width="32" height="32" />
    <rect x="224" y="96" width="32" height="32" />
    <rect x="224" y="128" width="32" height="32" />
    <rect x="192" y="160" width="32" height="32" />
    <rect x="224" y="160" width="32" height="32" />
    <rect x="224" y="192" width="32" height="32" />
    <rect x="192" y="224" width="32" height="32" />
    <rect x="224" y="224" width="32" height="32" />
    <rect x="192" y="256" width="32" height="32" />
  </g>

</svg>
