<svg version="1" xmlns="http://www.w3.org/2000/svg" width="341.333" height="341.333" viewBox="0 0 256.000000 256.000000"><path d="M69.7 4.8C58 14.3 49.9 26.3 46 39.9c-2.7 9.3-3 11.7-2.9 23.5.1 7.2.4 17.6.8 23.1s.6 10.2.5 10.4c-.2.2-2.1-1.1-4.2-2.8-7.1-5.5-13.7-3.6-16.7 4.8-3.5 10.2-.5 26.2 7 37.1 6.1 8.8 11.3 12.6 18.7 13.5l5.6.7 1.7 6.7c.9 3.6 2.4 7.4 3.3 8.5.9 1 8 6 15.7 11.1C90 186.1 96 190.6 96 192c0 .5-8.5 1-18.8 1.2l-18.9.3-4.2 3c-11.6 8-14.1 15.6-14.1 42.6V256h175.7l.6-13.8c.9-20.3-1.3-35.2-6-40.4-.9-1-4.2-3.3-7.2-5.1l-5.6-3.2-18.7-.3c-10.4-.2-18.8-.7-18.8-1.1 0-.5 8.3-6.1 18.5-12.6 10.1-6.4 18.6-12.5 18.9-13.4.2-.9.8-3.6 1.1-6.1 1-6.8 2.6-8.6 8.1-9.5 2.6-.4 6.2-1.7 7.9-3.1 4.4-3.3 12.7-13.9 16.1-20.4 2.6-5 2.8-6.5 2.9-16 0-9.5-.2-10.8-2.4-13.7-3.8-5.1-9.3-6.4-15.3-3.9-1.5.7-1.7-1.1-1.5-24.6.2-24.9.1-25.4-2.4-31.8-5.6-14.6-14.3-26.5-24-33l-5.8-4h-53.3L75.5.1l-5.8 4.7z"/></svg>